<svg width="735" height="735" viewBox="0 0 735 735" fill="none" xmlns="http://www.w3.org/2000/svg">
<g filter="url(#filter0_d)">
<path d="M548.782 544.798C648.917 444.663 648.917 282.313 548.782 182.178C448.648 82.043 286.297 82.043 186.162 182.178C86.0274 282.313 86.0274 444.663 186.162 544.798C286.297 644.933 448.648 644.933 548.782 544.798Z" fill="#EBEBEB"/>
</g>
<path d="M616.194 440.671C651.103 305.394 569.739 167.43 434.462 132.521C299.185 97.6114 161.222 178.975 126.312 314.253C91.4027 449.53 172.767 587.493 308.044 622.403C443.321 657.312 581.284 575.948 616.194 440.671Z" fill="white"/>
<path d="M364.282 615.276C233.189 615.276 126.526 508.739 126.526 377.646C126.526 246.554 233.153 140.017 364.282 140.017H367.89C484.026 140.017 542.445 140.017 572.16 169.984C601.875 199.952 602.002 259.346 602.002 377.574C602.038 508.684 495.374 615.276 364.282 615.276ZM364.282 143.625C235.571 143.625 130.874 248.575 130.874 377.285C130.874 505.996 235.517 610.802 364.282 610.802C493.047 610.802 597.689 506.159 597.689 377.466C597.689 260.41 597.689 201.449 569.111 172.636C540.533 143.823 482.131 143.625 366.14 143.625H364.282Z" fill="url(#paint0_linear)"/>
<path d="M173.442 203.145C173.911 192.32 182.462 178.933 200.378 176.678C206.206 177.129 206.206 178.482 201.262 181.621C192.746 182.523 185.133 187.449 182.426 194.251C191.447 191.562 197.239 198.743 197.69 205.473C198.123 213.086 192.277 217.579 186.017 218.102C179.756 218.625 173.442 213.916 173.442 203.145ZM209.345 203.145C209.796 192.32 218.366 178.933 236.245 176.678C242.091 177.129 242.091 178.482 237.165 181.621C228.632 182.523 221.018 187.449 218.312 194.251C227.333 191.562 233.106 198.743 233.575 205.473C234.026 213.086 228.163 217.579 221.902 218.102C215.641 218.625 209.345 213.916 209.345 203.145Z" fill="url(#paint1_linear)"/>
<path d="M549.344 562.847C548.911 573.672 540.323 587.077 522.444 589.314C516.598 588.863 516.598 587.51 521.542 584.371C530.057 583.486 537.779 578.543 540.395 571.741C531.374 574.448 525.583 567.267 525.132 560.537C524.681 552.905 530.545 548.431 536.787 547.908C543.03 547.385 549.344 552.076 549.344 562.847ZM585.23 562.847C584.797 573.672 576.209 587.077 558.329 589.314C552.483 588.863 552.483 587.51 557.427 584.371C565.961 583.486 573.574 578.543 576.263 571.741C567.242 574.448 561.468 567.267 561.017 560.537C560.566 552.905 566.43 548.431 572.672 547.908C578.915 547.385 585.32 552.076 585.32 562.847H585.23Z" fill="url(#paint2_linear)"/>
<defs>
<filter id="filter0_d" x="0.852051" y="0.867676" width="733.241" height="733.241" filterUnits="userSpaceOnUse" color-interpolation-filters="sRGB">
<feFlood flood-opacity="0" result="BackgroundImageFix"/>
<feColorMatrix in="SourceAlpha" type="matrix" values="0 0 0 0 0 0 0 0 0 0 0 0 0 0 0 0 0 0 127 0"/>
<feOffset dy="4"/>
<feGaussianBlur stdDeviation="2"/>
<feColorMatrix type="matrix" values="0 0 0 0 0 0 0 0 0 0 0 0 0 0 0 0 0 0 0.25 0"/>
<feBlend mode="normal" in2="BackgroundImageFix" result="effect1_dropShadow"/>
<feBlend mode="normal" in="SourceGraphic" in2="effect1_dropShadow" result="shape"/>
</filter>
<linearGradient id="paint0_linear" x1="326.469" y1="615.276" x2="354.034" y2="141.503" gradientUnits="userSpaceOnUse">
<stop stop-color="#FF0000"/>
<stop offset="1" stop-color="#FF7A00"/>
</linearGradient>
<linearGradient id="paint1_linear" x1="201.746" y1="218.141" x2="203.232" y2="176.721" gradientUnits="userSpaceOnUse">
<stop stop-color="#FF0000"/>
<stop offset="1" stop-color="#FF7A00"/>
</linearGradient>
<linearGradient id="paint2_linear" x1="546.274" y1="589.314" x2="547.756" y2="547.911" gradientUnits="userSpaceOnUse">
<stop stop-color="#FF0000"/>
<stop offset="1" stop-color="#FF7A00"/>
</linearGradient>
</defs>
</svg>
