<svg width="69" height="84" viewBox="0 0 69 84" fill="none" xmlns="http://www.w3.org/2000/svg">
<path d="M47.4319 36.1242L26.7184 83.6597L24.8373 81.442L23.8285 80.2509L16.2571 71.3207L4.56112 71.8552L3.00098 71.9268L0.0965576 72.0599L20.8089 24.5244L47.4319 36.1242Z" fill="url(#paint0_linear)"/>
<path d="M24.4872 26.1272L4.56111 71.8554L3.00098 71.927L23.2022 25.5669L24.4872 26.1272Z" fill="white"/>
<path d="M45.0385 35.0818L24.8373 81.4419L23.8285 80.2508L43.7535 34.5215L45.0385 35.0818Z" fill="white"/>
<path d="M21.3457 36.1242L42.058 83.6597L43.9392 81.442L44.949 80.2509L52.5205 71.3207L64.2153 71.8552L65.7755 71.9268L68.681 72.0599L47.9675 24.5244L21.3457 36.1242Z" fill="url(#paint1_linear)"/>
<path d="M44.2903 26.1272L64.2153 71.8554L65.7754 71.927L45.5742 25.5669L44.2903 26.1272Z" fill="white"/>
<path d="M23.739 35.0818L43.9391 81.4419L44.949 80.2508L25.0229 34.5215L23.739 35.0818Z" fill="white"/>
<path d="M32.0374 0.965742C33.3302 0.430039 35.4473 0.430039 36.7401 0.965742L37.9636 1.47237C39.2565 2.00807 41.4597 2.44647 42.8588 2.44647H44.1829C45.582 2.44647 47.5381 3.25618 48.5267 4.24594L49.4628 5.18202C50.4526 6.17179 52.3203 7.41878 53.6142 7.9556L54.8366 8.46222C56.1294 8.99793 57.6258 10.4943 58.1615 11.7872L58.6682 13.0095C59.2039 14.3035 60.4576 16.1712 61.4417 17.161L62.3778 18.097C63.3676 19.0857 64.1773 21.0406 64.1773 22.4408V23.765C64.1773 25.1641 64.6157 27.3673 65.1514 28.6612L65.6569 29.8836C66.1926 31.1765 66.1926 33.2924 65.6569 34.5808L65.1514 35.8043C64.6157 37.0972 64.1773 39.3004 64.1773 40.7006V42.0236C64.1773 43.4238 63.3676 45.3787 62.3778 46.3685L61.4417 47.3046C60.452 48.2943 59.205 50.162 58.6682 51.4549L58.1615 52.6784C57.6258 53.9712 56.1294 55.4676 54.8366 56.0033L53.6142 56.5099C52.3203 57.0456 50.4526 58.2938 49.4628 59.2835L48.5267 60.2185C47.5369 61.2082 45.582 62.018 44.1829 62.018H42.8543C41.4552 62.018 39.252 62.4564 37.9592 62.9921L36.7357 63.4987C35.4428 64.0344 33.3257 64.0344 32.0329 63.4987L30.8105 62.9921C29.5177 62.4564 27.3133 62.018 25.9143 62.018H24.5946C23.1955 62.018 21.2394 61.2082 20.2508 60.2185L19.3147 59.2835C18.3249 58.2938 16.4572 57.0468 15.1644 56.5099L13.9409 56.0033C12.6481 55.4676 11.1517 53.9712 10.616 52.6784L10.1093 51.4549C9.57364 50.162 8.31994 48.2943 7.33577 47.3046L6.39521 46.373C5.40545 45.3832 4.59575 43.4283 4.59575 42.0281V40.705C4.59575 39.3048 4.15846 37.1016 3.62276 35.8088L3.11613 34.5853C2.58043 33.2924 2.58043 31.1765 3.11613 29.8881L3.62276 28.6657C4.15846 27.3717 4.59575 25.1685 4.59575 23.7694V22.4408C4.59575 21.0406 5.40545 19.0857 6.39521 18.097L7.3313 17.161C8.32106 16.1712 9.56805 14.3035 10.1049 13.0095L10.616 11.786C11.1517 10.4932 12.6481 8.99681 13.9409 8.4611L15.1644 7.95448C16.4606 7.42437 18.3249 6.17179 19.3147 5.18762L20.2508 4.25153C21.2406 3.26177 23.1955 2.45206 24.5946 2.45206H25.9187C27.3178 2.45206 29.5221 2.01366 30.815 1.47796L32.0374 0.965742Z" fill="#ED1C24"/>
<path d="M34.3893 3.19336C18.3495 3.19336 5.34729 16.1956 5.34729 32.2343C5.34729 48.2729 18.3495 61.2752 34.3893 61.2752C50.4291 61.2752 63.4324 48.274 63.4324 32.2343C63.4324 16.1945 50.428 3.19336 34.3893 3.19336ZM34.3893 60.282C18.8987 60.282 6.34153 47.7249 6.34153 32.2343C6.34153 16.7436 18.8987 4.18648 34.3893 4.18648C49.8799 4.18648 62.436 16.7447 62.436 32.2343C62.436 47.7238 49.8788 60.282 34.3893 60.282Z" fill="white"/>
<path d="M60.339 32.2344C60.339 46.5676 48.7213 58.1808 34.3926 58.1808C20.064 58.1808 8.44629 46.562 8.44629 32.2344C8.44629 17.9069 20.0651 6.28809 34.3926 6.28809C48.7202 6.28809 60.339 17.9024 60.339 32.2344Z" fill="white"/>
<path d="M18.392 45.1407C18.3715 45.2585 18.3311 45.372 18.2724 45.4762C18.2125 45.5832 18.1301 45.6759 18.0308 45.7479L17.1361 46.41C17.0336 46.4863 16.9162 46.5404 16.7916 46.5688C16.6695 46.5955 16.5434 46.5981 16.4203 46.5767C16.2945 46.5548 16.1741 46.5089 16.0658 46.4413C15.9512 46.3709 15.8516 46.2786 15.7728 46.1696L15.2281 45.4314L14.6175 44.6038C14.6104 44.5966 14.6051 44.5877 14.6019 44.578C14.5988 44.5683 14.598 44.558 14.5995 44.548C14.601 44.5379 14.6048 44.5283 14.6107 44.5199C14.6165 44.5116 14.6242 44.5047 14.6332 44.4998L15.0268 44.2091C15.034 44.2017 15.0428 44.1962 15.0526 44.1929C15.0623 44.1897 15.0727 44.1888 15.0828 44.1903C15.093 44.1918 15.1026 44.1957 15.111 44.2017C15.1193 44.2077 15.1261 44.2156 15.1308 44.2247L15.3702 44.549L18.1918 42.4655L17.9525 42.1412C17.9454 42.1339 17.9401 42.125 17.9369 42.1153C17.9338 42.1056 17.933 42.0954 17.9345 42.0853C17.936 42.0752 17.9398 42.0656 17.9457 42.0573C17.9515 42.0489 17.9592 42.042 17.9682 42.0372L18.3618 41.7464C18.3692 41.7393 18.3781 41.7341 18.3879 41.731C18.3976 41.728 18.4079 41.7272 18.418 41.7289C18.4281 41.7305 18.4377 41.7344 18.446 41.7404C18.4543 41.7463 18.4611 41.7541 18.4658 41.7632L19.0765 42.5896L19.0877 42.6053L19.6111 43.3132C19.6902 43.4197 19.748 43.5404 19.781 43.6689C19.8131 43.7922 19.8214 43.9205 19.8057 44.0469C19.7912 44.1711 19.7532 44.2914 19.6938 44.4014C19.6315 44.5138 19.5456 44.6115 19.4422 44.6877L19.0541 44.974C18.9603 45.0436 18.854 45.0945 18.741 45.1239C18.6269 45.1526 18.5083 45.1583 18.392 45.1407V45.1407ZM17.4973 45.2905C17.5472 45.2549 17.5892 45.2094 17.6207 45.1569C17.6523 45.1044 17.6727 45.0459 17.6807 44.9852C17.7006 44.8605 17.6722 44.7329 17.6013 44.6284L17.2479 44.1498C17.2401 44.1379 17.2296 44.128 17.2174 44.1207C17.2052 44.1134 17.1915 44.109 17.1773 44.1077C17.1632 44.1064 17.1489 44.1083 17.1356 44.1133C17.1222 44.1182 17.1102 44.1261 17.1003 44.1364L15.8701 45.0445C15.8563 45.0522 15.8445 45.063 15.8357 45.0761C15.8268 45.0892 15.8212 45.1042 15.8192 45.1199C15.8173 45.1356 15.819 45.1515 15.8244 45.1664C15.8297 45.1813 15.8385 45.1947 15.85 45.2055L16.1955 45.6741C16.231 45.7247 16.2761 45.7678 16.3283 45.8008C16.3805 45.8339 16.4388 45.8562 16.4997 45.8665C16.5583 45.8783 16.6188 45.877 16.6768 45.8627C16.7348 45.8484 16.7889 45.8214 16.8352 45.7837L17.4973 45.2905ZM18.6258 43.0627C18.6218 43.0547 18.6161 43.0477 18.609 43.0423C18.6019 43.0369 18.5936 43.0331 18.5849 43.0314C18.5761 43.0297 18.5671 43.03 18.5585 43.0323C18.5498 43.0346 18.5419 43.0389 18.5352 43.0448L17.7378 43.6342C17.731 43.6382 17.7251 43.6435 17.7205 43.6499C17.7159 43.6563 17.7127 43.6636 17.7111 43.6713C17.7096 43.679 17.7096 43.6869 17.7113 43.6946C17.713 43.7023 17.7163 43.7095 17.721 43.7159L18.1997 44.3634C18.255 44.427 18.3311 44.469 18.4144 44.4819C18.4532 44.4894 18.4931 44.4887 18.5317 44.4798C18.5702 44.471 18.6064 44.4542 18.6381 44.4305L19.0273 44.1431C19.0613 44.1182 19.0897 44.0864 19.1105 44.0498C19.1313 44.0132 19.1441 43.9725 19.1481 43.9306C19.159 43.844 19.1357 43.7565 19.0832 43.6868L18.6258 43.0627Z" fill="#231F20"/>
<path d="M21.4241 46.9032L21.7462 46.5587L21.0461 45.9101C21.0314 45.8955 21.0139 45.8842 20.9947 45.8767C20.9754 45.8692 20.9549 45.8657 20.9342 45.8665C20.9131 45.8672 20.8923 45.8721 20.8731 45.8809C20.8539 45.8897 20.8367 45.9023 20.8224 45.9179L20.0574 46.7377C20.0302 46.7659 20.015 46.8036 20.0149 46.8428C20.0149 46.8831 20.0279 46.9223 20.0518 46.9546L20.7363 47.5932C20.7444 47.5993 20.751 47.6071 20.7555 47.6161C20.76 47.6252 20.7624 47.6351 20.7624 47.6452C20.7624 47.6553 20.76 47.6653 20.7555 47.6743C20.751 47.6834 20.7444 47.6912 20.7363 47.6972L20.4008 48.0551C20.3946 48.0632 20.3867 48.0698 20.3775 48.0743C20.3684 48.0789 20.3584 48.0812 20.3482 48.0812C20.338 48.0812 20.328 48.0789 20.3189 48.0743C20.3097 48.0698 20.3018 48.0632 20.2956 48.0551L19.6123 47.4165C19.5791 47.395 19.5401 47.384 19.5005 47.3852C19.4815 47.3858 19.4629 47.3902 19.4458 47.3983C19.4287 47.4064 19.4134 47.4179 19.4009 47.4322L18.6404 48.2475C18.6113 48.2774 18.5952 48.3176 18.5957 48.3593C18.5962 48.3806 18.6012 48.4015 18.6102 48.4208C18.6193 48.44 18.6322 48.4572 18.6483 48.4712L19.345 49.1221L19.6671 48.7776C19.6733 48.7695 19.6812 48.7629 19.6903 48.7584C19.6995 48.7539 19.7095 48.7515 19.7197 48.7515C19.7299 48.7515 19.7399 48.7539 19.749 48.7584C19.7581 48.7629 19.7661 48.7695 19.7722 48.7776L20.1301 49.1131C20.1382 49.1193 20.1448 49.1272 20.1493 49.1363C20.1539 49.1455 20.1562 49.1555 20.1562 49.1657C20.1562 49.1759 20.1539 49.1859 20.1493 49.195C20.1448 49.2041 20.1382 49.2121 20.1301 49.2182L19.4244 49.9743C19.4183 49.9824 19.4103 49.9889 19.4012 49.9935C19.3921 49.998 19.382 50.0004 19.3719 50.0004C19.3617 50.0004 19.3516 49.998 19.3425 49.9935C19.3334 49.9889 19.3255 49.9824 19.3193 49.9743L19.2287 49.8893L19.2007 49.8647L18.1137 48.8503C18.0996 48.8445 18.0862 48.8374 18.0734 48.829L17.3286 48.1334C17.3205 48.1273 17.3139 48.1193 17.3094 48.1102C17.3048 48.1011 17.3025 48.091 17.3025 48.0809C17.3025 48.0707 17.3048 48.0606 17.3094 48.0515C17.3139 48.0424 17.3205 48.0344 17.3286 48.0283L17.6641 47.6704C17.6701 47.6621 17.678 47.6553 17.6872 47.6506C17.6963 47.646 17.7064 47.6435 17.7167 47.6435C17.7269 47.6435 17.737 47.646 17.7462 47.6506C17.7553 47.6553 17.7632 47.6621 17.7692 47.6704L18.0645 47.9444L20.4701 45.3721L20.1749 45.097C20.1667 45.0909 20.1602 45.0829 20.1556 45.0738C20.1511 45.0647 20.1488 45.0546 20.1488 45.0445C20.1488 45.0343 20.1511 45.0242 20.1556 45.0151C20.1602 45.006 20.1667 44.998 20.1749 44.9919L20.5104 44.634C20.5165 44.6259 20.5245 44.6193 20.5336 44.6148C20.5427 44.6103 20.5527 44.6079 20.5629 44.6079C20.5731 44.6079 20.5832 44.6103 20.5923 44.6148C20.6014 44.6193 20.6093 44.6259 20.6155 44.634L21.367 45.3352L21.3805 45.3487L22.2461 46.1561L22.604 46.4916C22.6121 46.4978 22.6187 46.5057 22.6232 46.5149C22.6277 46.524 22.6301 46.534 22.6301 46.5442C22.6301 46.5544 22.6277 46.5644 22.6232 46.5735C22.6187 46.5827 22.6121 46.5906 22.604 46.5968L21.8983 47.3539C21.8921 47.362 21.8842 47.3686 21.8751 47.3731C21.8659 47.3776 21.8559 47.38 21.8457 47.38C21.8355 47.38 21.8255 47.3776 21.8164 47.3731C21.8072 47.3686 21.7993 47.362 21.7931 47.3539L21.4353 47.0184C21.4244 47.0137 21.415 47.0062 21.408 46.9967C21.401 46.9871 21.3967 46.9759 21.3956 46.9641C21.3944 46.9523 21.3965 46.9405 21.4015 46.9297C21.4065 46.919 21.4143 46.9099 21.4241 46.9032V46.9032Z" fill="#231F20"/>
<path d="M23.5288 50.0903C23.5265 50.1645 23.5093 50.2375 23.4785 50.305C23.4369 50.3982 23.3887 50.4882 23.3342 50.5745C23.2705 50.6785 23.1899 50.7982 23.0938 50.9391C22.9976 51.08 22.8846 51.2433 22.7582 51.4368C22.6995 51.5257 22.6234 51.6017 22.5346 51.6605C22.4488 51.7158 22.3531 51.7538 22.2527 51.7723C22.1515 51.7914 22.0476 51.7914 21.9463 51.7723C21.8403 51.7542 21.7392 51.7138 21.6499 51.6538L20.9957 51.2221C20.9063 51.164 20.8301 51.0878 20.772 50.9984C20.7158 50.9107 20.6757 50.8138 20.6535 50.7121C20.6328 50.6106 20.6328 50.506 20.6535 50.4045C20.6734 50.2993 20.7145 50.1992 20.7742 50.1104L20.9901 49.7838L21.0002 49.7693L21.1914 49.4796C21.1956 49.4703 21.202 49.4621 21.21 49.4557C21.218 49.4493 21.2274 49.4448 21.2374 49.4428C21.2475 49.4407 21.2579 49.441 21.2677 49.4437C21.2776 49.4465 21.2867 49.4515 21.2943 49.4584L21.7081 49.7313C21.7173 49.7357 21.7253 49.7421 21.7316 49.7501C21.7378 49.7581 21.7422 49.7675 21.7442 49.7774C21.7463 49.7874 21.746 49.7977 21.7434 49.8076C21.7409 49.8174 21.736 49.8265 21.7293 49.8342L21.4017 50.3307C21.3613 50.4119 21.3522 50.505 21.3759 50.5924C21.397 50.6821 21.4524 50.76 21.5303 50.8094L21.8345 51.0118C21.8741 51.0388 21.9191 51.0569 21.9664 51.065C22.0136 51.0731 22.0621 51.071 22.1085 51.0588C22.2046 51.0331 22.2902 50.9779 22.3534 50.9011C22.4779 50.7588 22.594 50.6095 22.7012 50.4537C22.7696 50.3643 22.8055 50.2543 22.803 50.1417C22.7978 50.0892 22.7819 50.0383 22.7564 49.9921C22.7308 49.946 22.696 49.9055 22.6542 49.8733C22.5637 49.7984 22.4619 49.7223 22.3478 49.6496C22.2295 49.5681 22.1174 49.478 22.0123 49.3801C21.8992 49.2714 21.8166 49.1349 21.773 48.9842C21.7508 48.9116 21.7485 48.8343 21.7662 48.7605C21.7871 48.6653 21.8194 48.5729 21.8624 48.4854C21.9083 48.3903 21.962 48.293 22.0224 48.1935C22.0827 48.094 22.1443 48.0011 22.208 47.9128C22.2718 47.8244 22.3333 47.7394 22.3903 47.6612C22.4473 47.5829 22.4921 47.5169 22.5267 47.4654C22.5839 47.377 22.6584 47.301 22.7456 47.242C22.8329 47.183 22.9311 47.1422 23.0345 47.1221C23.1365 47.1025 23.2412 47.1025 23.3432 47.1221C23.4484 47.142 23.5485 47.1831 23.6373 47.2429L24.2915 47.6746C24.3804 47.7333 24.4565 47.8094 24.5152 47.8983C24.5705 47.984 24.6085 48.0797 24.6271 48.1801C24.6466 48.2809 24.6466 48.3846 24.6271 48.4854C24.6075 48.5911 24.5664 48.6916 24.5063 48.7806L24.3944 48.9562L24.3743 48.9876L24.0936 49.4114C24.0893 49.4206 24.083 49.4286 24.0751 49.4349C24.0672 49.4412 24.0579 49.4455 24.048 49.4476C24.0382 49.4496 24.0279 49.4494 24.0182 49.4468C24.0084 49.4442 23.9994 49.4394 23.9918 49.4327L23.5825 49.162C23.5733 49.1576 23.5653 49.1512 23.559 49.1432C23.5527 49.1352 23.5484 49.1258 23.5464 49.1158C23.5443 49.1059 23.5446 49.0956 23.5472 49.0857C23.5497 49.0759 23.5546 49.0668 23.5612 49.0591L23.8968 48.5525C23.93 48.4728 23.9363 48.3845 23.9147 48.3009C23.8924 48.2147 23.8379 48.1402 23.7625 48.0929L23.4572 47.8904C23.4163 47.863 23.3703 47.8439 23.3219 47.8343C23.2735 47.8247 23.2237 47.8248 23.1754 47.8345C23.1269 47.8427 23.0806 47.861 23.0396 47.8881C22.9986 47.9153 22.9637 47.9507 22.9372 47.9922C22.7881 48.2203 22.6691 48.4019 22.5804 48.5368C22.5417 48.5862 22.5133 48.6428 22.497 48.7033C22.4807 48.7638 22.4767 48.827 22.4854 48.8891C22.502 48.9684 22.5407 49.0413 22.5972 49.0994C22.6593 49.161 22.7275 49.2161 22.8007 49.2638C22.8779 49.3141 22.9596 49.3644 23.0446 49.4148C23.1296 49.464 23.2094 49.5217 23.2828 49.587C23.3536 49.6474 23.4134 49.7197 23.4595 49.8006C23.5083 49.8891 23.5323 49.9892 23.5288 50.0903V50.0903Z" fill="#231F20"/>
<path d="M27.9934 49.6521L27.5829 50.5938C27.5801 50.6035 27.5751 50.6124 27.5683 50.6198C27.5614 50.6272 27.553 50.633 27.5436 50.6367C27.5342 50.6404 27.5241 50.6418 27.5141 50.641C27.504 50.6401 27.4943 50.637 27.4856 50.6318L27.0383 50.4361C27.0285 50.4334 27.0194 50.4285 27.0118 50.4218C27.0043 50.415 26.9984 50.4065 26.9947 50.397C26.991 50.3876 26.9896 50.3774 26.9905 50.3673C26.9915 50.3571 26.9948 50.3474 27.0003 50.3388L27.1859 49.9127L26.8168 49.7516C26.8073 49.7444 26.7961 49.7397 26.7843 49.738C26.7724 49.7362 26.7603 49.7376 26.7491 49.7418C26.7379 49.7461 26.728 49.7531 26.7203 49.7623C26.7126 49.7714 26.7073 49.7824 26.705 49.7941L25.3227 52.9759L25.6157 53.0967C25.6258 53.0999 25.6349 53.1055 25.6425 53.1128C25.65 53.1202 25.6558 53.1293 25.6592 53.1392C25.6627 53.1492 25.6638 53.1598 25.6625 53.1703C25.6611 53.1808 25.6574 53.1908 25.6515 53.1996L25.4882 53.5888C25.4854 53.5988 25.4804 53.608 25.4735 53.6158C25.4667 53.6237 25.4582 53.6299 25.4487 53.634C25.4392 53.6382 25.4289 53.6402 25.4185 53.6399C25.4081 53.6397 25.3979 53.6371 25.3887 53.6324L24.2043 53.1247C24.1941 53.1215 24.1848 53.1159 24.1771 53.1085C24.1694 53.101 24.1636 53.0918 24.1601 53.0817C24.1566 53.0716 24.1555 53.0608 24.157 53.0502C24.1585 53.0396 24.1624 53.0295 24.1685 53.0207L24.3285 52.637C24.3315 52.6266 24.337 52.617 24.3443 52.6089C24.3517 52.6009 24.3608 52.5947 24.3709 52.5907C24.381 52.5867 24.392 52.585 24.4028 52.5859C24.4137 52.5868 24.4242 52.5901 24.4336 52.5957L24.7355 52.7265L26.1235 49.5403C26.1304 49.5307 26.1349 49.5195 26.1364 49.5077C26.138 49.4959 26.1366 49.484 26.1324 49.4729C26.1282 49.4618 26.1212 49.4519 26.1123 49.4442C26.1033 49.4364 26.0925 49.431 26.081 49.4284L25.6783 49.2528L25.4927 49.6789C25.49 49.6887 25.4851 49.6977 25.4783 49.7053C25.4715 49.7129 25.4631 49.7188 25.4537 49.7226C25.4443 49.7264 25.4341 49.7279 25.424 49.7271C25.4139 49.7264 25.4041 49.7233 25.3954 49.7181L24.948 49.5212C24.9382 49.5186 24.9292 49.5137 24.9216 49.5069C24.914 49.5001 24.9081 49.4917 24.9044 49.4822C24.9007 49.4727 24.8993 49.4625 24.9003 49.4524C24.9012 49.4423 24.9046 49.4325 24.91 49.4239L25.3205 48.4812C25.3231 48.4713 25.328 48.4623 25.3348 48.4547C25.3416 48.4471 25.35 48.4413 25.3595 48.4376C25.369 48.4339 25.3792 48.4324 25.3893 48.4334C25.3994 48.4344 25.4092 48.4377 25.4178 48.4431L25.8729 48.64H25.8785L27.4968 49.3445H27.5091L27.9565 49.5403C27.9685 49.5421 27.9799 49.5472 27.9892 49.5551C27.9985 49.5629 28.0055 49.5732 28.0093 49.5848C28.0131 49.5964 28.0137 49.6088 28.0109 49.6207C28.008 49.6326 28.002 49.6435 27.9934 49.6521V49.6521Z" fill="#231F20"/>
<path d="M32.8169 50.6005C32.8792 50.6064 32.9395 50.6253 32.994 50.6559C33.0486 50.6865 33.096 50.7282 33.1334 50.7784C33.1721 50.8275 33.2006 50.8839 33.2171 50.9442C33.2336 51.0045 33.2379 51.0675 33.2296 51.1295L33.0127 52.9625C33.0067 53.0244 32.9882 53.0844 32.9582 53.1389C32.9282 53.1933 32.8873 53.241 32.8382 53.279C32.7901 53.3184 32.7343 53.3472 32.6744 53.3638C32.6145 53.3803 32.5518 53.3842 32.4904 53.3752L31.3821 53.2455C31.361 53.2427 31.3396 53.2442 31.3191 53.2499C31.2986 53.2556 31.2795 53.2653 31.2629 53.2786C31.2463 53.2919 31.2325 53.3084 31.2224 53.3271C31.2123 53.3458 31.2062 53.3664 31.2042 53.3875L31.0633 54.5808L31.4391 54.6244C31.4493 54.6243 31.4594 54.6265 31.4686 54.6309C31.4777 54.6353 31.4858 54.6417 31.4921 54.6497C31.4984 54.6577 31.5027 54.6671 31.5048 54.6771C31.5068 54.687 31.5066 54.6974 31.504 54.7072L31.4469 55.1937C31.4473 55.2038 31.4452 55.2139 31.441 55.2231C31.4367 55.2323 31.4304 55.2404 31.4224 55.2467C31.4145 55.253 31.4052 55.2574 31.3953 55.2594C31.3854 55.2615 31.3751 55.2612 31.3653 55.2586L29.9684 55.0953C29.9582 55.0956 29.9479 55.0936 29.9386 55.0893C29.9293 55.0849 29.9211 55.0785 29.9147 55.0705C29.9082 55.0624 29.9038 55.053 29.9017 55.0429C29.8996 55.0329 29.8998 55.0225 29.9024 55.0125L29.9595 54.526C29.9593 54.5158 29.9615 54.5058 29.9659 54.4966C29.9703 54.4874 29.9767 54.4793 29.9848 54.473C29.9928 54.4668 30.0021 54.4624 30.0121 54.4604C30.0221 54.4583 30.0324 54.4586 30.0422 54.4612L30.4303 54.507L30.8396 51.011L30.4527 50.9662C30.4425 50.9664 30.4324 50.9641 30.4232 50.9598C30.4139 50.9554 30.4058 50.949 30.3995 50.941C30.3931 50.933 30.3887 50.9237 30.3864 50.9137C30.3842 50.9037 30.3843 50.8934 30.3867 50.8835L30.4437 50.397C30.4433 50.3867 30.4454 50.3765 30.4497 50.3672C30.454 50.3579 30.4605 50.3497 30.4685 50.3434C30.4766 50.3371 30.4861 50.3327 30.4962 50.3308C30.5062 50.3288 30.5166 50.3293 30.5265 50.3321L31.9234 50.4954H31.9357L32.8169 50.6005ZM32.5653 51.4371C32.569 51.4079 32.5668 51.3783 32.5587 51.3501C32.5506 51.3218 32.5369 51.2955 32.5183 51.2727C32.5014 51.2499 32.4799 51.231 32.4553 51.2169C32.4307 51.2029 32.4034 51.194 32.3752 51.191L31.8652 51.1306H31.8529L31.6192 51.1027C31.5782 51.1049 31.539 51.1202 31.5073 51.1463C31.4778 51.1716 31.459 51.2072 31.4548 51.2458L31.3161 52.4347C31.313 52.4556 31.3143 52.4769 31.3199 52.4973C31.3255 52.5177 31.3352 52.5368 31.3485 52.5532C31.3618 52.5706 31.3787 52.5848 31.398 52.595C31.4173 52.6053 31.4385 52.6112 31.4603 52.6125L32.1985 52.6997C32.2267 52.7031 32.2554 52.7007 32.2827 52.6926C32.31 52.6846 32.3354 52.671 32.3573 52.6528C32.3804 52.6349 32.3997 52.6125 32.4139 52.5869C32.4282 52.5613 32.4371 52.5331 32.44 52.504L32.5653 51.4371Z" fill="#231F20"/>
<path d="M37.3329 54.6378C37.3428 54.6357 37.3531 54.6359 37.3629 54.6384C37.3727 54.641 37.3818 54.6457 37.3894 54.6523C37.3971 54.6589 37.4032 54.6672 37.4071 54.6765C37.4111 54.6858 37.4129 54.6959 37.4123 54.706L37.4492 55.1947C37.4513 55.2047 37.4511 55.2151 37.4485 55.225C37.4459 55.2349 37.4411 55.244 37.4344 55.2517C37.4276 55.2594 37.4192 55.2654 37.4098 55.2693C37.4003 55.2732 37.3901 55.2749 37.3799 55.2741L36.6574 55.3289H36.6082L36.049 55.3703C36.039 55.3726 36.0287 55.3725 36.0187 55.3701C36.0088 55.3676 35.9995 55.3629 35.9917 55.3563C35.9839 55.3497 35.9777 55.3413 35.9737 55.3319C35.9697 55.3225 35.9679 55.3123 35.9685 55.3021L35.9327 54.8133C35.9304 54.8034 35.9304 54.7931 35.9329 54.7832C35.9353 54.7733 35.94 54.7641 35.9467 54.7563C35.9533 54.7486 35.9617 54.7425 35.9711 54.7387C35.9805 54.7348 35.9908 54.7332 36.0009 54.7339L36.2917 54.7116L35.8667 53.1101C35.857 53.0744 35.8353 53.0432 35.8052 53.0217C35.7765 52.9989 35.74 52.988 35.7034 52.9915L35.2829 53.0228C35.2615 53.0235 35.2404 53.0288 35.2211 53.0383C35.2019 53.0477 35.1848 53.0611 35.1711 53.0776C35.1577 53.0929 35.1475 53.1106 35.141 53.1298C35.1344 53.149 35.1318 53.1692 35.1331 53.1895L35.2516 54.7843L35.5983 54.7585C35.6082 54.7562 35.6186 54.7563 35.6285 54.7587C35.6384 54.7611 35.6476 54.7659 35.6553 54.7725C35.663 54.7792 35.6691 54.7875 35.673 54.797C35.6769 54.8064 35.6785 54.8166 35.6777 54.8268L35.7146 55.3144C35.7167 55.3244 35.7164 55.3348 35.7138 55.3448C35.7113 55.3547 35.7064 55.3639 35.6997 55.3717C35.693 55.3795 35.6847 55.3856 35.6752 55.3896C35.6658 55.3937 35.6555 55.3955 35.6453 55.3949L34.2495 55.4989C34.2396 55.501 34.2293 55.5007 34.2195 55.4982C34.2096 55.4957 34.2005 55.4909 34.1927 55.4844C34.185 55.4778 34.1788 55.4696 34.1747 55.4603C34.1706 55.451 34.1687 55.4408 34.169 55.4307L34.1332 54.942C34.1312 54.9321 34.1314 54.9218 34.1339 54.912C34.1364 54.9022 34.1412 54.8931 34.1478 54.8854C34.1544 54.8778 34.1626 54.8717 34.1719 54.8677C34.1813 54.8638 34.1914 54.862 34.2015 54.8626L34.6164 54.8312L34.3547 51.343L33.9409 51.3743C33.9309 51.3767 33.9206 51.3766 33.9107 51.3742C33.9008 51.3717 33.8916 51.367 33.8839 51.3604C33.8761 51.3537 33.8701 51.3453 33.8662 51.3359C33.8623 51.3265 33.8607 51.3163 33.8615 51.3061L33.829 50.8174C33.827 50.8075 33.8272 50.7972 33.8297 50.7874C33.8322 50.7776 33.837 50.7685 33.8436 50.7609C33.8502 50.7532 33.8584 50.7471 33.8677 50.7432C33.8771 50.7392 33.8872 50.7374 33.8973 50.738L34.509 50.6921C34.509 50.6921 34.5269 50.6843 34.5515 50.6832L36.2291 50.5579C36.2909 50.5517 36.3534 50.5584 36.4125 50.5777C36.4716 50.5969 36.5261 50.6283 36.5724 50.6698C36.6199 50.7105 36.6587 50.7604 36.6864 50.8165C36.7141 50.8727 36.7301 50.9338 36.7335 50.9963L36.8453 52.429C36.853 52.52 36.8339 52.6114 36.7905 52.6918C36.7474 52.7708 36.6836 52.8365 36.606 52.8819C36.5749 52.8989 36.5505 52.9261 36.5371 52.9588C36.5237 52.9916 36.5219 53.028 36.5322 53.062L36.956 54.6646L37.3329 54.6378ZM35.9808 52.3339C36.01 52.3322 36.0385 52.3246 36.0646 52.3115C36.0908 52.2984 36.114 52.2802 36.1329 52.2579C36.1521 52.2369 36.1668 52.2121 36.1761 52.1852C36.1853 52.1582 36.1889 52.1297 36.1866 52.1013L36.1351 51.4224C36.1335 51.3939 36.1259 51.366 36.1128 51.3406C36.0997 51.3151 36.0814 51.2927 36.0591 51.2748C36.0141 51.2366 35.9558 51.2177 35.8969 51.2222L35.3724 51.2614C35.363 51.2672 35.3521 51.2703 35.3411 51.2703L35.1174 51.2871C35.0821 51.2954 35.0513 51.317 35.0315 51.3474C35.0117 51.3778 35.0044 51.4147 35.0112 51.4504L35.0704 52.2411C35.0712 52.2625 35.0764 52.2836 35.0859 52.3029C35.0953 52.3221 35.1087 52.3392 35.1252 52.3529C35.1405 52.3663 35.1582 52.3765 35.1774 52.3831C35.1966 52.3896 35.2168 52.3923 35.2371 52.3909L35.9808 52.3339Z" fill="#231F20"/>
<path d="M39.1201 50.0236C39.2236 49.9959 39.3316 49.989 39.4377 50.0034C39.5396 50.0184 39.6378 50.0522 39.7274 50.103C39.8158 50.1556 39.8935 50.2242 39.9567 50.3054C40.0225 50.3906 40.0701 50.4884 40.0965 50.5928L40.9084 53.665C40.9363 53.7689 40.9428 53.8773 40.9274 53.9838C40.9137 54.0859 40.88 54.1843 40.8282 54.2733C40.7763 54.3624 40.7075 54.4403 40.6255 54.5027C40.5404 54.5681 40.443 54.6157 40.3392 54.6425L39.5719 54.8438C39.4685 54.8715 39.3605 54.8783 39.2543 54.8639C39.1524 54.8491 39.0542 54.8153 38.9647 54.7644C38.876 54.7121 38.7982 54.6434 38.7354 54.562C38.6695 54.4768 38.6219 54.3789 38.5956 54.2745L37.7837 51.2012C37.756 51.0997 37.7489 50.9938 37.7627 50.8895C37.7765 50.7852 37.811 50.6847 37.8642 50.594C37.9167 50.5071 37.9854 50.4311 38.0666 50.3703C38.1512 50.3042 38.2488 50.2566 38.3529 50.2305L39.1201 50.0236ZM38.7164 50.7897C38.6694 50.8015 38.6254 50.8228 38.587 50.8522C38.5485 50.8816 38.5164 50.9186 38.4927 50.9608C38.4676 51.0029 38.4513 51.0497 38.4448 51.0984C38.4382 51.147 38.4416 51.1964 38.4547 51.2437L39.1593 53.9099C39.1845 54.0046 39.2462 54.0855 39.3309 54.1347C39.4156 54.184 39.5163 54.1977 39.6111 54.1728L39.9701 54.0777C40.0173 54.0653 40.0617 54.0438 40.1006 54.0143C40.1395 53.9847 40.1722 53.9478 40.1968 53.9057C40.2214 53.8635 40.2375 53.8169 40.2441 53.7685C40.2507 53.7201 40.2476 53.6709 40.2351 53.6236L39.5306 50.9574C39.5184 50.9101 39.4969 50.8657 39.4674 50.8268C39.4379 50.7878 39.4009 50.7551 39.3587 50.7306C39.3164 50.706 39.2698 50.6901 39.2213 50.6837C39.1729 50.6774 39.1236 50.6807 39.0765 50.6935L38.7164 50.7897Z" fill="#231F20"/>
<path d="M42.227 48.8771C42.3427 48.8234 42.4684 48.7944 42.596 48.7921C42.7193 48.7906 42.8417 48.8119 42.9573 48.8547C43.194 48.9433 43.3861 49.1217 43.4919 49.3512L44.6896 51.9515C44.7444 52.067 44.7745 52.1927 44.778 52.3205C44.782 52.4432 44.7623 52.5655 44.7198 52.6807C44.6773 52.7961 44.6131 52.9024 44.5308 52.9938C44.4449 53.0883 44.3406 53.1644 44.2244 53.2175L43.1418 53.7163L43.1139 53.7297L42.5625 53.9836C42.554 53.989 42.5443 53.9924 42.5342 53.9935C42.5242 53.9946 42.514 53.9934 42.5045 53.9899C42.4949 53.9865 42.4863 53.9809 42.4793 53.9736C42.4723 53.9663 42.4671 53.9574 42.4641 53.9478L42.2583 53.5004C42.2529 53.4918 42.2495 53.4821 42.2485 53.4719C42.2474 53.4618 42.2487 53.4516 42.2523 53.4421C42.2559 53.4325 42.2616 53.4239 42.2691 53.417C42.2765 53.4101 42.2854 53.4049 42.2952 53.402L42.6609 53.2342L41.1958 50.0547L40.8413 50.218C40.8327 50.2234 40.823 50.2268 40.8128 50.2278C40.8027 50.2289 40.7925 50.2275 40.7829 50.224C40.7734 50.2204 40.7648 50.2147 40.7579 50.2072C40.7509 50.1998 40.7458 50.1908 40.7429 50.1811L40.5382 49.7337C40.5328 49.725 40.5295 49.7152 40.5284 49.705C40.5274 49.6948 40.5287 49.6845 40.5323 49.6749C40.5358 49.6653 40.5415 49.6566 40.549 49.6496C40.5564 49.6425 40.5654 49.6373 40.5751 49.6342L41.509 49.2047L41.5258 49.1969L42.227 48.8771ZM42.9774 49.7595C42.9514 49.7024 42.9143 49.651 42.8684 49.6083C42.8224 49.5657 42.7684 49.5325 42.7096 49.5108C42.6507 49.489 42.5882 49.4792 42.5255 49.4817C42.4628 49.4843 42.4013 49.4992 42.3444 49.5257L41.8713 49.7438C41.8589 49.7492 41.8476 49.7572 41.8384 49.7672C41.8291 49.7772 41.8221 49.7891 41.8177 49.8019C41.8113 49.8156 41.8081 49.8305 41.8081 49.8456C41.8081 49.8606 41.8113 49.8755 41.8177 49.8892L43.191 52.8708C43.1968 52.8844 43.2052 52.8968 43.2157 52.9071C43.2263 52.9175 43.2388 52.9257 43.2525 52.9312C43.2652 52.9367 43.2789 52.9396 43.2928 52.9396C43.3066 52.9396 43.3204 52.9367 43.3331 52.9312L43.8397 52.6974C43.9455 52.6466 44.0271 52.5562 44.0668 52.4457C44.1066 52.3352 44.1013 52.2136 44.0522 52.1069L42.9774 49.7595Z" fill="#231F20"/>
<path d="M46.3716 46.9545L46.1244 47.1267L48.0256 49.7795C48.1008 49.8827 48.1537 50.0004 48.1811 50.1251C48.2079 50.2452 48.2113 50.3693 48.1912 50.4908C48.1705 50.6124 48.1277 50.7291 48.0648 50.8352C47.9992 50.9455 47.9112 51.0407 47.8064 51.1148L47.4139 51.3955C47.3103 51.4709 47.1917 51.5232 47.0661 51.5487C46.945 51.5742 46.8202 51.5769 46.6981 51.5566C46.577 51.5363 46.4608 51.493 46.3559 51.4291C46.2469 51.3626 46.1528 51.2743 46.0797 51.1696L44.1952 48.5325L43.9078 48.7371C43.9004 48.7444 43.8915 48.7498 43.8816 48.7529C43.8718 48.756 43.8614 48.7567 43.8512 48.755C43.841 48.7532 43.8314 48.7491 43.8232 48.7428C43.8149 48.7366 43.8083 48.7285 43.8038 48.7193L43.551 48.377C43.5435 48.3691 43.538 48.3595 43.5348 48.349C43.5316 48.3386 43.5308 48.3275 43.5325 48.3167C43.5342 48.3059 43.5384 48.2957 43.5447 48.2867C43.551 48.2778 43.5593 48.2704 43.5689 48.2652L44.6135 47.5103C44.6216 47.5025 44.6315 47.4969 44.6423 47.4938C44.6532 47.4907 44.6646 47.4903 44.6756 47.4926C44.6866 47.4949 44.6969 47.4999 44.7055 47.5071C44.7142 47.5142 44.721 47.5234 44.7253 47.5338L44.9747 47.8693C44.9828 47.8767 44.9891 47.886 44.9929 47.8963C44.9967 47.9066 44.998 47.9177 44.9967 47.9286C44.9954 47.9396 44.9915 47.95 44.9853 47.9592C44.9792 47.9683 44.9709 47.9758 44.9613 47.9811L44.7186 48.1534C45.0273 48.5865 45.3292 49.0108 45.6245 49.4261C45.9197 49.8414 46.2217 50.266 46.5304 50.6999C46.564 50.7474 46.6069 50.7876 46.6565 50.8179C46.7061 50.8483 46.7613 50.8683 46.8189 50.8766C46.8768 50.888 46.9365 50.8874 46.9942 50.8749C47.0519 50.8624 47.1064 50.8383 47.1544 50.8039L47.3345 50.6742C47.3828 50.6406 47.4239 50.5979 47.4557 50.5484C47.4874 50.499 47.5091 50.4437 47.5195 50.3859C47.5299 50.328 47.5288 50.2687 47.5162 50.2113C47.5037 50.1539 47.4799 50.0995 47.4463 50.0512L45.6088 47.5069L45.327 47.7094C45.3194 47.7162 45.3103 47.7212 45.3004 47.724C45.2906 47.7269 45.2802 47.7274 45.2701 47.7257C45.26 47.724 45.2505 47.72 45.2421 47.7141C45.2337 47.7082 45.2268 47.7004 45.2219 47.6915L44.9702 47.3504C44.9628 47.3424 44.9572 47.3328 44.954 47.3224C44.9508 47.3119 44.95 47.3008 44.9517 47.2901C44.9535 47.2793 44.9576 47.269 44.964 47.2601C44.9703 47.2511 44.9785 47.2438 44.9881 47.2385L46.0282 46.4881C46.0362 46.48 46.046 46.4741 46.0568 46.4708C46.0676 46.4675 46.0791 46.4669 46.0902 46.4691C46.1013 46.4713 46.1116 46.4763 46.1203 46.4835C46.1291 46.4907 46.1358 46.5 46.1401 46.5105L46.3895 46.846C46.3967 46.8537 46.4021 46.8631 46.4052 46.8732C46.4083 46.8834 46.409 46.8941 46.4072 46.9046C46.4055 46.9151 46.4014 46.9251 46.3952 46.9337C46.389 46.9423 46.3809 46.9494 46.3716 46.9545V46.9545Z" fill="#231F20"/>
<path d="M50.8641 47.1658C50.9551 47.254 51.0261 47.3608 51.0721 47.4789C51.1171 47.5916 51.1392 47.7122 51.137 47.8335C51.1351 47.9559 51.1105 48.0769 51.0643 48.1902C51.0181 48.3078 50.9485 48.4147 50.8596 48.5045L50.5308 48.84C50.4435 48.9289 50.3388 48.9989 50.2233 49.0458C49.9973 49.1353 49.7458 49.1353 49.5198 49.0458C49.4016 48.9997 49.2943 48.9296 49.2044 48.84L47.1914 46.8638C47.1021 46.7768 47.032 46.672 46.9856 46.5563C46.8924 46.3315 46.89 46.0793 46.9789 45.8528C47.0228 45.7365 47.0911 45.6309 47.1791 45.543L47.5079 45.2075C47.5965 45.1174 47.7022 45.046 47.8188 44.9973C47.9324 44.95 48.0537 44.9239 48.1767 44.9201C48.2988 44.9178 48.4202 44.9386 48.5345 44.9816C48.6518 45.0244 48.7583 45.0923 48.8466 45.1807L48.9137 45.2455L49.2671 45.5934C49.2752 45.5994 49.2817 45.6072 49.2863 45.6163C49.2908 45.6253 49.2932 45.6353 49.2932 45.6454C49.2932 45.6555 49.2908 45.6654 49.2863 45.6745C49.2817 45.6835 49.2752 45.6913 49.2671 45.6974L48.9226 46.0474C48.9166 46.0557 48.9087 46.0625 48.8996 46.0672C48.8904 46.0718 48.8803 46.0743 48.87 46.0743C48.8598 46.0743 48.8497 46.0718 48.8405 46.0672C48.8314 46.0625 48.8235 46.0557 48.8175 46.0474L48.756 45.987L48.7336 45.9658L48.4473 45.6828C48.3626 45.6179 48.2575 45.5854 48.1509 45.5911C48.0426 45.5948 47.9399 45.6405 47.8646 45.7186L47.7081 45.8774C47.6271 45.9609 47.5818 46.0726 47.5818 46.1889C47.5818 46.3052 47.6271 46.4169 47.7081 46.5004L49.5646 48.3155C49.648 48.3965 49.7597 48.4417 49.876 48.4417C49.9923 48.4417 50.104 48.3965 50.1875 48.3155L50.343 48.1556C50.4199 48.0795 50.464 47.9763 50.466 47.8681C50.4707 47.7592 50.4348 47.6524 50.3653 47.5684L49.9582 47.1692L49.9359 47.1479L49.8699 47.0819C49.8618 47.0759 49.8552 47.068 49.8507 47.059C49.8461 47.05 49.8438 47.04 49.8438 47.0299C49.8438 47.0198 49.8461 47.0099 49.8507 47.0008C49.8552 46.9918 49.8618 46.9839 49.8699 46.9779L50.2132 46.6279C50.2194 46.6197 50.2273 46.6132 50.2364 46.6086C50.2456 46.6041 50.2556 46.6018 50.2658 46.6018C50.276 46.6018 50.286 46.6041 50.2951 46.6086C50.3042 46.6132 50.3122 46.6197 50.3183 46.6279L50.3978 46.7061L50.4112 46.7196L50.8641 47.1658Z" fill="#231F20"/>
<path d="M50.1653 41.8301L51.0096 42.4172C51.0188 42.4219 51.0267 42.4286 51.0327 42.4369C51.0388 42.4451 51.0428 42.4547 51.0446 42.4648C51.0463 42.4748 51.0457 42.4852 51.0427 42.495C51.0398 42.5048 51.0346 42.5138 51.0275 42.5212L50.7491 42.9227C50.7443 42.9318 50.7376 42.9396 50.7294 42.9456C50.7212 42.9517 50.7117 42.9558 50.7017 42.9576C50.6917 42.9594 50.6814 42.9589 50.6715 42.9562C50.6617 42.9535 50.6527 42.9485 50.6451 42.9417L50.2637 42.6767L50.0333 43.0066C50.0259 43.0147 50.0205 43.0245 50.0174 43.035C50.0144 43.0456 50.0138 43.0567 50.0158 43.0675C50.0177 43.0783 50.0221 43.0885 50.0287 43.0974C50.0352 43.1062 50.0437 43.1134 50.0534 43.1184L52.9031 45.0991L53.0786 44.8363C53.0836 44.8263 53.0908 44.8176 53.0999 44.8111C53.1089 44.8046 53.1194 44.8003 53.1304 44.7988C53.1414 44.7973 53.1527 44.7984 53.1632 44.8022C53.1736 44.806 53.183 44.8124 53.1905 44.8206L53.5394 45.0566C53.5495 45.0612 53.5584 45.0681 53.5654 45.0767C53.5724 45.0854 53.5773 45.0955 53.5797 45.1064C53.5821 45.1172 53.5819 45.1285 53.5792 45.1392C53.5765 45.15 53.5713 45.16 53.564 45.1684L52.8337 46.2309C52.8284 46.2405 52.821 46.2488 52.812 46.255C52.8029 46.2612 52.7926 46.2652 52.7817 46.2668C52.7709 46.2683 52.7598 46.2672 52.7494 46.2637C52.739 46.2602 52.7296 46.2543 52.7219 46.2465L52.3763 46.0083C52.3665 46.0033 52.3581 45.9961 52.3515 45.9873C52.345 45.9784 52.3406 45.9682 52.3386 45.9574C52.3367 45.9466 52.3373 45.9355 52.3403 45.9249C52.3433 45.9143 52.3488 45.9046 52.3562 45.8965L52.5441 45.627L49.69 43.643C49.6818 43.6356 49.672 43.6302 49.6614 43.6273C49.6508 43.6243 49.6396 43.6238 49.6288 43.6259C49.618 43.628 49.6078 43.6325 49.599 43.6391C49.5902 43.6458 49.5831 43.6544 49.5781 43.6642L49.3276 44.0243L49.709 44.2894C49.7181 44.2938 49.7262 44.3003 49.7323 44.3084C49.7385 44.3165 49.7427 44.326 49.7446 44.336C49.7464 44.346 49.7459 44.3564 49.743 44.3661C49.7401 44.3759 49.735 44.3849 49.728 44.3923L49.4484 44.796C49.4437 44.8049 49.437 44.8127 49.4288 44.8186C49.4207 44.8245 49.4113 44.8285 49.4013 44.8302C49.3914 44.832 49.3812 44.8314 49.3715 44.8285C49.3618 44.8257 49.3529 44.8207 49.3455 44.8139L48.5 44.2268C48.4909 44.2222 48.483 44.2156 48.4769 44.2075C48.4709 44.1993 48.4668 44.1898 48.4651 44.1798C48.4633 44.1698 48.464 44.1595 48.4669 44.1498C48.4699 44.1401 48.4751 44.1312 48.4821 44.1239L48.7651 43.7157L49.7716 42.2618L49.7783 42.2517L50.0579 41.8502C50.0622 41.8403 50.0689 41.8316 50.0773 41.8249C50.0857 41.8182 50.0957 41.8137 50.1063 41.8117C50.1168 41.8097 50.1278 41.8103 50.1381 41.8135C50.1483 41.8167 50.1577 41.8224 50.1653 41.8301V41.8301Z" fill="#231F20"/>
<path d="M13.8369 30.6519L14.2294 31.8608H15.501L14.4721 32.6079L14.8647 33.8169L13.8369 33.0698L12.8091 33.8169L13.2016 32.6079L12.1727 31.8608H13.4443L13.8369 30.6519Z" fill="#231F20"/>
<path d="M55.1889 30.6519L55.5826 31.8608H56.8531L55.8253 32.6079L56.2178 33.8169L55.1889 33.0698L54.1611 33.8169L54.5537 32.6079L53.5259 31.8608H54.7964L55.1889 30.6519Z" fill="#231F20"/>
<path d="M27.7965 17.3433V47.1268C24.9133 45.849 22.4631 43.7617 20.7433 41.1184C19.0234 38.475 18.1079 35.3892 18.1079 32.2356C18.1079 29.0819 19.0234 25.9961 20.7433 23.3528C22.4631 20.7094 24.9133 18.6221 27.7965 17.3444V17.3433Z" fill="url(#paint2_linear)"/>
<path d="M40.9811 17.3433C43.8646 18.6207 46.3153 20.7078 48.0355 23.3512C49.7556 25.9946 50.6713 29.0806 50.6713 32.2345C50.6713 35.3883 49.7556 38.4743 48.0355 41.1177C46.3153 43.7611 43.8646 45.8482 40.9811 47.1256V17.3433Z" fill="url(#paint3_linear)"/>
<path d="M19.233 19.4569L19.5014 19.1069C19.5065 19.0978 19.5136 19.09 19.5222 19.0841C19.5308 19.0783 19.5406 19.0745 19.5509 19.0731C19.5612 19.0717 19.5717 19.0727 19.5816 19.076C19.5914 19.0794 19.6003 19.0849 19.6077 19.0923L20.0103 19.3999C20.0195 19.4049 20.0273 19.412 20.0332 19.4206C20.0391 19.4293 20.0429 19.4392 20.0442 19.4496C20.0455 19.4599 20.0443 19.4705 20.0408 19.4803C20.0372 19.4902 20.0314 19.499 20.0237 19.5061L19.1447 20.6637C19.1396 20.6736 19.1323 20.6821 19.1232 20.6885C19.1141 20.695 19.1036 20.6991 19.0926 20.7005C19.0816 20.7019 19.0704 20.7006 19.0599 20.6968C19.0495 20.6929 19.0402 20.6865 19.0328 20.6782L18.6313 20.3706C18.6222 20.3656 18.6145 20.3585 18.6086 20.3499C18.6027 20.3413 18.599 20.3314 18.5975 20.3211C18.5961 20.3108 18.5971 20.3003 18.6005 20.2905C18.6038 20.2807 18.6094 20.2717 18.6168 20.2644L18.8337 19.9803L17.0074 18.5846C17.0031 18.58 16.9978 18.5763 16.9919 18.5737C16.986 18.5712 16.9797 18.5699 16.9733 18.5699C16.9669 18.5699 16.9606 18.5712 16.9548 18.5737C16.9489 18.5763 16.9436 18.58 16.9392 18.5846C16.9146 18.6025 16.9113 18.6215 16.9292 18.6405L17.1428 19.0431C17.1772 19.0977 17.1918 19.1625 17.1841 19.2265C17.1769 19.2879 17.1542 19.3464 17.1182 19.3965C17.0835 19.4462 17.0354 19.485 16.9795 19.5084C16.9221 19.5347 16.8578 19.5417 16.7961 19.5285L16.2794 19.4055C16.2559 19.3932 16.238 19.4055 16.2246 19.4357C16.2198 19.4463 16.2189 19.4582 16.222 19.4694C16.225 19.4806 16.2319 19.4904 16.2414 19.4972L18.109 20.9231L18.3417 20.6189C18.3467 20.609 18.3541 20.6005 18.3631 20.594C18.3722 20.5876 18.3827 20.5835 18.3937 20.5821C18.4048 20.5806 18.416 20.5819 18.4264 20.5858C18.4368 20.5897 18.4461 20.5961 18.4535 20.6044L18.855 20.9108C18.8651 20.9157 18.8737 20.9231 18.8802 20.9322C18.8867 20.9414 18.8908 20.952 18.8921 20.9631C18.8935 20.9742 18.892 20.9855 18.8878 20.9959C18.8837 21.0063 18.877 21.0155 18.8684 21.0226L17.9804 22.1869C17.9754 22.1968 17.968 22.2053 17.959 22.2118C17.9499 22.2182 17.9394 22.2223 17.9284 22.2237C17.9173 22.2252 17.9061 22.2239 17.8957 22.22C17.8853 22.2161 17.876 22.2097 17.8686 22.2014L17.4671 21.8883C17.4579 21.8833 17.45 21.8762 17.4441 21.8675C17.4382 21.8589 17.4345 21.849 17.4332 21.8386C17.4319 21.8282 17.433 21.8177 17.4366 21.8078C17.4402 21.798 17.446 21.7892 17.4537 21.782L17.7053 21.4521L14.8165 19.2422L14.5649 19.5721C14.5598 19.5812 14.5527 19.589 14.5441 19.5948C14.5356 19.6007 14.5257 19.6045 14.5154 19.6059C14.5051 19.6073 14.4946 19.6063 14.4848 19.603C14.4749 19.5996 14.466 19.594 14.4587 19.5867L14.056 19.2791C14.0469 19.2741 14.039 19.267 14.0331 19.2583C14.0272 19.2497 14.0234 19.2398 14.0221 19.2294C14.0208 19.219 14.022 19.2085 14.0256 19.1987C14.0291 19.1888 14.035 19.18 14.0426 19.1729L14.9239 18.0187C14.9287 18.0086 14.936 17.9998 14.9451 17.9932C14.9542 17.9866 14.9647 17.9824 14.9759 17.9809C14.987 17.9795 14.9983 17.9809 15.0088 17.9849C15.0192 17.989 15.0285 17.9956 15.0357 18.0042L15.4384 18.3106C15.4484 18.3155 15.4571 18.3229 15.4636 18.332C15.47 18.3411 15.4741 18.3517 15.4755 18.3629C15.4768 18.374 15.4753 18.3852 15.4712 18.3957C15.4671 18.4061 15.4604 18.4153 15.4518 18.4224L15.3713 18.5287L16.1284 18.7054C16.1441 18.7121 16.1608 18.7054 16.1754 18.6852C16.1899 18.6651 16.1933 18.6472 16.1832 18.6338L15.8141 17.9493L15.7325 18.0556C15.7275 18.0655 15.7201 18.0741 15.711 18.0805C15.702 18.0869 15.6914 18.091 15.6804 18.0924C15.6694 18.0939 15.6582 18.0926 15.6478 18.0887C15.6374 18.0848 15.628 18.0784 15.6207 18.0701L15.2192 17.7626C15.21 17.7576 15.2021 17.7505 15.1962 17.7418C15.1903 17.7332 15.1866 17.7233 15.1852 17.7129C15.1839 17.7025 15.1851 17.692 15.1887 17.6821C15.1922 17.6723 15.1981 17.6635 15.2057 17.6563L16.087 16.5022C16.0918 16.492 16.0991 16.4833 16.1082 16.4767C16.1173 16.4701 16.1278 16.4659 16.139 16.4644C16.1501 16.463 16.1614 16.4643 16.1719 16.4684C16.1823 16.4725 16.1916 16.4791 16.1989 16.4876L16.6015 16.7952C16.6107 16.8002 16.6185 16.8073 16.6244 16.8159C16.6303 16.8246 16.6341 16.8345 16.6354 16.8449C16.6367 16.8553 16.6355 16.8658 16.632 16.8756C16.6284 16.8855 16.6225 16.8943 16.6149 16.9014L16.3476 17.2515L19.233 19.4569Z" fill="#231F20"/>
<path d="M22.2114 16.623C22.218 16.6141 22.2266 16.6069 22.2367 16.6021C22.2467 16.5974 22.2577 16.5952 22.2688 16.5957C22.2799 16.5963 22.2907 16.5996 22.3002 16.6053C22.3097 16.611 22.3176 16.619 22.3232 16.6286L22.6587 17.0088C22.6676 17.0156 22.6746 17.0244 22.6792 17.0345C22.6838 17.0447 22.6857 17.0558 22.685 17.0669C22.6842 17.078 22.6807 17.0887 22.6747 17.0981C22.6688 17.1075 22.6606 17.1152 22.6509 17.1207L21.8557 17.8208C21.8492 17.8297 21.8405 17.8369 21.8305 17.8417C21.8204 17.8464 21.8094 17.8486 21.7983 17.8481C21.7872 17.8475 21.7765 17.8442 21.767 17.8385C21.7575 17.8327 21.7496 17.8247 21.7439 17.8152L21.4084 17.4349C21.3995 17.4283 21.3924 17.4195 21.3877 17.4095C21.3831 17.3994 21.381 17.3883 21.3816 17.3772C21.3823 17.3661 21.3857 17.3554 21.3916 17.3459C21.3974 17.3365 21.4055 17.3287 21.4151 17.3231L21.5269 17.2213L21.0885 16.8679C21.0815 16.8631 21.073 16.8609 21.0645 16.862C21.0561 16.863 21.0483 16.8671 21.0427 16.8735L20.4913 17.3589C20.4851 17.3634 20.481 17.3701 20.4797 17.3777C20.4785 17.3852 20.4802 17.3929 20.4846 17.3992L20.7743 17.8834L20.8861 17.7872C20.8922 17.778 20.9005 17.7704 20.9103 17.7652C20.9201 17.76 20.931 17.7572 20.942 17.7572C20.9531 17.7572 20.964 17.76 20.9738 17.7652C20.9835 17.7704 20.9918 17.778 20.9979 17.7872L21.3335 18.163C21.3423 18.1698 21.3493 18.1786 21.3539 18.1887C21.3585 18.1988 21.3605 18.21 21.3597 18.221C21.3589 18.2321 21.3554 18.2428 21.3494 18.2522C21.3435 18.2616 21.3353 18.2694 21.3256 18.2748L20.5293 18.975C20.5227 18.9838 20.5139 18.9909 20.5039 18.9956C20.4938 19.0003 20.4827 19.0024 20.4716 19.0017C20.4605 19.001 20.4498 18.9976 20.4404 18.9918C20.4309 18.986 20.4231 18.9779 20.4175 18.9682L20.082 18.5936C20.0732 18.5868 20.0661 18.578 20.0616 18.5679C20.057 18.5578 20.055 18.5466 20.0558 18.5356C20.0565 18.5245 20.0601 18.5137 20.066 18.5044C20.0719 18.495 20.0801 18.4872 20.0898 18.4817L20.2811 18.3129L18.3619 15.1769L18.2221 15.2988C18.2155 15.3077 18.2067 15.3148 18.1966 15.3195C18.1866 15.3242 18.1755 15.3263 18.1644 15.3256C18.1533 15.3249 18.1426 15.3215 18.1331 15.3157C18.1237 15.3098 18.1158 15.3018 18.1103 15.2921L17.7748 14.913C17.7662 14.9061 17.7594 14.8972 17.755 14.8871C17.7506 14.877 17.7487 14.866 17.7494 14.855C17.7502 14.844 17.7536 14.8334 17.7594 14.824C17.7652 14.8146 17.7731 14.8068 17.7826 14.8012L18.1808 14.4511L18.1897 14.4433L18.4492 14.2196L18.4592 14.2118L18.8518 13.8662C18.8582 13.857 18.8668 13.8496 18.8769 13.8446C18.8869 13.8397 18.8981 13.8374 18.9093 13.838C18.9204 13.8385 18.9313 13.8419 18.9408 13.8478C18.9503 13.8538 18.9582 13.862 18.9636 13.8718L19.2991 14.252C19.308 14.2587 19.3151 14.2675 19.3198 14.2775C19.3245 14.2876 19.3266 14.2987 19.3259 14.3098C19.3252 14.3209 19.3218 14.3316 19.316 14.341C19.3101 14.3505 19.302 14.3583 19.2924 14.3639L19.1582 14.4824L22.0235 16.793L22.2114 16.623ZM20.6457 16.5268C20.643 16.516 20.6372 16.5063 20.6289 16.4989L19.3853 15.4923C19.3741 15.48 19.3606 15.48 19.345 15.4923C19.3293 15.5046 19.326 15.5192 19.3372 15.5326L20.1827 16.8903C20.1938 16.9026 20.2028 16.9093 20.2084 16.9093C20.214 16.9093 20.2229 16.9093 20.2319 16.897L20.63 16.5481C20.6381 16.5431 20.6443 16.5356 20.6479 16.5268H20.6457Z" fill="#231F20"/>
<path d="M22.2359 11.4784C22.3486 11.4107 22.4744 11.3676 22.605 11.3521C22.7311 11.3375 22.8589 11.3462 22.9819 11.3778C23.2332 11.4426 23.4492 11.6031 23.5836 11.8251L25.0889 14.3638C25.1564 14.4766 25.2005 14.6017 25.2186 14.7318C25.2352 14.8576 25.228 14.9855 25.1974 15.1087C25.1654 15.2297 25.1108 15.3435 25.0363 15.4442C24.9585 15.5501 24.8599 15.6391 24.7467 15.7059L23.6887 16.3322L23.6619 16.349L23.1239 16.6677C23.1158 16.6742 23.1062 16.6788 23.096 16.6811C23.0858 16.6834 23.0752 16.6832 23.065 16.6808C23.0548 16.6783 23.0454 16.6735 23.0374 16.6668C23.0294 16.66 23.023 16.6516 23.0188 16.642L22.7616 16.2058C22.755 16.1977 22.7505 16.1881 22.7483 16.1779C22.7461 16.1677 22.7464 16.1572 22.749 16.1471C22.7516 16.137 22.7565 16.1276 22.7633 16.1198C22.7702 16.1119 22.7788 16.1058 22.7884 16.1018L23.1452 15.8904L21.3043 12.7925L20.9587 12.9972C20.9505 13.0037 20.9409 13.0082 20.9306 13.0104C20.9203 13.0126 20.9097 13.0124 20.8995 13.0098C20.8894 13.0072 20.8799 13.0023 20.872 12.9954C20.864 12.9886 20.8577 12.98 20.8536 12.9703L20.5964 12.5364C20.5899 12.5282 20.5853 12.5186 20.5832 12.5083C20.581 12.498 20.5812 12.4874 20.5838 12.4772C20.5864 12.467 20.5913 12.4576 20.5981 12.4496C20.605 12.4417 20.6136 12.4354 20.6232 12.4313L21.5347 11.8911L21.5515 11.881L22.2359 11.4784ZM23.0993 12.3038C23.0331 12.192 22.9254 12.111 22.7996 12.0785C22.6738 12.046 22.5403 12.0647 22.4283 12.1304L21.9675 12.4044C21.9551 12.4116 21.9444 12.4213 21.9359 12.4329C21.9274 12.4444 21.9214 12.4576 21.9183 12.4716C21.9147 12.4863 21.9141 12.5017 21.9166 12.5167C21.9191 12.5317 21.9246 12.546 21.9328 12.5588L23.6585 15.4666C23.6659 15.48 23.6759 15.4919 23.688 15.5013C23.7002 15.5107 23.7141 15.5176 23.729 15.5214C23.7428 15.5254 23.7573 15.5265 23.7715 15.5245C23.7858 15.5226 23.7995 15.5177 23.8117 15.5102L24.306 15.2172C24.4094 15.1541 24.4836 15.0528 24.5125 14.9353C24.5414 14.8177 24.5227 14.6935 24.4604 14.5898L23.0993 12.3038Z" fill="#231F20"/>
<path d="M27.0372 10.5559L26.8728 10.0997L25.9479 10.4352C25.927 10.442 25.9078 10.4531 25.8914 10.4677C25.8751 10.4823 25.8619 10.5002 25.8528 10.5202C25.8434 10.5399 25.838 10.5614 25.837 10.5833C25.8361 10.6052 25.8395 10.6271 25.8472 10.6477L26.2398 11.7347C26.2528 11.7729 26.28 11.8045 26.3158 11.8231C26.3523 11.842 26.394 11.8483 26.4344 11.841L27.3414 11.5144C27.3507 11.5095 27.361 11.5068 27.3715 11.5066C27.382 11.5063 27.3924 11.5085 27.4019 11.5129C27.4115 11.5174 27.4198 11.524 27.4264 11.5322C27.433 11.5404 27.4375 11.55 27.4398 11.5603L27.6109 12.0344C27.616 12.0437 27.6189 12.054 27.6193 12.0646C27.6197 12.0752 27.6175 12.0857 27.613 12.0953C27.6086 12.1049 27.6019 12.1133 27.5935 12.1199C27.5852 12.1264 27.5754 12.1308 27.565 12.1329L26.658 12.4572C26.6228 12.4767 26.5946 12.5068 26.5775 12.5433C26.5701 12.561 26.5662 12.58 26.5662 12.5992C26.5662 12.6184 26.5701 12.6374 26.5775 12.6551L26.9667 13.7355C26.9738 13.7562 26.9849 13.7753 26.9995 13.7917C27.0141 13.808 27.0319 13.8212 27.0517 13.8306C27.0714 13.8403 27.0929 13.8459 27.1149 13.8468C27.1368 13.8478 27.1587 13.8441 27.1792 13.8361L28.1052 13.5006L27.9397 13.0443C27.935 13.0349 27.9326 13.0246 27.9325 13.0141C27.9324 13.0036 27.9347 12.9932 27.9393 12.9837C27.9438 12.9742 27.9504 12.9659 27.9586 12.9594C27.9668 12.9528 27.9764 12.9482 27.9867 12.9459L28.4609 12.7748C28.4703 12.7701 28.4806 12.7677 28.4911 12.7676C28.5016 12.7675 28.512 12.7698 28.5215 12.7744C28.531 12.7789 28.5393 12.7855 28.5458 12.7937C28.5524 12.8019 28.557 12.8115 28.5593 12.8218L28.9205 13.8283C28.9257 13.8375 28.9286 13.8478 28.9289 13.8583C28.9293 13.8688 28.9272 13.8793 28.9227 13.8888C28.9182 13.8983 28.9115 13.9066 28.9031 13.913C28.8948 13.9194 28.885 13.9238 28.8747 13.9256L28.755 13.9692L28.7181 13.9827L27.2765 14.5027C27.2649 14.5131 27.2521 14.5221 27.2385 14.5295L26.242 14.8897C26.2327 14.8946 26.2224 14.8972 26.2119 14.8975C26.2014 14.8977 26.191 14.8956 26.1814 14.8911C26.1719 14.8867 26.1635 14.8801 26.157 14.8719C26.1504 14.8637 26.1458 14.8541 26.1436 14.8438L25.9669 14.3663C25.962 14.357 25.9593 14.3466 25.9591 14.3361C25.9588 14.3256 25.961 14.3152 25.9654 14.3057C25.9699 14.2962 25.9764 14.2878 25.9846 14.2812C25.9928 14.2747 26.0025 14.2701 26.0127 14.2678L26.403 14.1269L25.1728 10.7092L24.7825 10.8501C24.7732 10.855 24.7629 10.8576 24.7524 10.8579C24.7419 10.8582 24.7315 10.856 24.7219 10.8515C24.7124 10.8471 24.704 10.8405 24.6975 10.8323C24.6909 10.8241 24.6863 10.8145 24.6841 10.8042L24.513 10.3323C24.5078 10.3231 24.5049 10.3128 24.5046 10.3023C24.5042 10.2918 24.5063 10.2813 24.5108 10.2718C24.5153 10.2623 24.522 10.254 24.5304 10.2475C24.5387 10.2411 24.5485 10.2368 24.5588 10.235L25.5564 9.87486L25.5743 9.86815L26.7218 9.45434L27.196 9.28323C27.2053 9.27834 27.2156 9.27566 27.2261 9.27541C27.2366 9.27516 27.247 9.27733 27.2565 9.28177C27.2661 9.28621 27.2744 9.29279 27.281 9.301C27.2876 9.30921 27.2922 9.31882 27.2944 9.32909L27.6567 10.3356C27.6616 10.345 27.6643 10.3554 27.6645 10.366C27.6647 10.3765 27.6624 10.387 27.6578 10.3966C27.6533 10.4061 27.6466 10.4145 27.6382 10.421C27.6299 10.4275 27.6201 10.4319 27.6098 10.434L27.1356 10.6052C27.1261 10.6101 27.1155 10.6126 27.1048 10.6127C27.0941 10.6127 27.0835 10.6103 27.0739 10.6055C27.0643 10.6007 27.056 10.5937 27.0496 10.5851C27.0432 10.5765 27.039 10.5665 27.0372 10.5559V10.5559Z" fill="#231F20"/>
<path d="M34.3077 8.30467L34.3558 9.2866C34.3577 9.29692 34.3573 9.30754 34.3544 9.31765C34.3516 9.32775 34.3464 9.33706 34.3394 9.34485C34.3324 9.35264 34.3236 9.35871 34.3139 9.36257C34.3041 9.36644 34.2936 9.36799 34.2831 9.36713L33.7787 9.39173C33.7683 9.39346 33.7577 9.3928 33.7476 9.38981C33.7375 9.38681 33.7282 9.38156 33.7205 9.37445C33.7127 9.36733 33.7067 9.35855 33.7028 9.34875C33.699 9.33896 33.6974 9.32841 33.6982 9.31792L33.6837 8.92313L33.1994 8.94661H33.1927L32.6827 8.97122C32.6607 8.97176 32.6391 8.97678 32.6191 8.98595C32.5991 8.99513 32.5812 9.00828 32.5664 9.0246C32.5517 9.04092 32.5404 9.06007 32.5333 9.08089C32.5262 9.1017 32.5234 9.12375 32.525 9.14569L32.581 10.2999C32.5794 10.3213 32.5826 10.3428 32.5901 10.3629C32.5977 10.383 32.6096 10.4013 32.6249 10.4164C32.6402 10.4315 32.6586 10.4431 32.6788 10.4504C32.699 10.4577 32.7206 10.4605 32.742 10.4587L33.7564 10.4095C33.7666 10.4075 33.7772 10.4079 33.7873 10.4108C33.7974 10.4136 33.8066 10.4188 33.8143 10.4259C33.822 10.4329 33.828 10.4417 33.8317 10.4515C33.8354 10.4612 33.8368 10.4717 33.8358 10.4821L33.8604 10.9865C33.8623 10.9968 33.8619 11.0074 33.859 11.0175C33.8562 11.0275 33.851 11.0368 33.844 11.0445C33.8369 11.0522 33.8281 11.0582 33.8184 11.0619C33.8086 11.0656 33.7981 11.067 33.7877 11.0659L32.761 11.1163C32.7209 11.1224 32.6848 11.1437 32.66 11.1757C32.6352 11.2078 32.6237 11.2482 32.6279 11.2885L32.6917 12.6026L33.0809 12.5836C33.0912 12.5817 33.1018 12.5821 33.1119 12.585C33.122 12.5878 33.1313 12.593 33.1391 12.6C33.1469 12.607 33.153 12.6158 33.1568 12.6255C33.1607 12.6353 33.1623 12.6458 33.1614 12.6563L33.186 13.1607C33.188 13.1711 33.1875 13.1818 33.1846 13.192C33.1817 13.2022 33.1764 13.2116 33.1692 13.2194C33.1621 13.2272 33.1532 13.2333 33.1433 13.237C33.1334 13.2408 33.1227 13.2422 33.1122 13.2412L31.6393 13.3116C31.629 13.3138 31.6184 13.3135 31.6083 13.3108C31.5982 13.3081 31.5888 13.3031 31.581 13.2961C31.5732 13.2891 31.5671 13.2805 31.5632 13.2707C31.5594 13.261 31.5578 13.2505 31.5588 13.2401L31.5342 12.7368C31.5322 12.7265 31.5327 12.7159 31.5355 12.7058C31.5384 12.6956 31.5435 12.6863 31.5506 12.6785C31.5576 12.6708 31.5663 12.6647 31.5761 12.6608C31.5859 12.657 31.5964 12.6554 31.6068 12.6563L32.0218 12.6361L31.9983 12.1575V12.1385L31.8473 9.01931L31.4324 9.03944C31.4221 9.04114 31.4116 9.0405 31.4016 9.03757C31.3915 9.03464 31.3823 9.02948 31.3746 9.0225C31.3669 9.01551 31.3608 9.00687 31.3569 8.99722C31.3529 8.98757 31.3512 8.97715 31.3519 8.96675L31.3273 8.45565C31.3253 8.44538 31.3257 8.43479 31.3286 8.42473C31.3314 8.41466 31.3366 8.4054 31.3437 8.39769C31.3507 8.38997 31.3595 8.38402 31.3693 8.3803C31.379 8.37657 31.3895 8.37519 31.3999 8.37624L32.0452 8.34493H32.0643L33.148 8.29237H33.167L33.7094 8.26664C33.7126 8.26795 33.7162 8.26795 33.7195 8.26664C33.7209 8.26595 33.7224 8.26559 33.7239 8.26559C33.7255 8.26559 33.727 8.26595 33.7284 8.26664L34.2328 8.24316C34.2418 8.24207 34.2509 8.24282 34.2596 8.24536C34.2683 8.24789 34.2764 8.25216 34.2834 8.25791C34.2904 8.26366 34.2962 8.27076 34.3003 8.2788C34.3045 8.28683 34.307 8.29563 34.3077 8.30467V8.30467Z" fill="#231F20"/>
<path d="M38.4792 12.9681C38.4897 12.9682 38.5001 12.9707 38.5095 12.9755C38.5189 12.9803 38.527 12.9872 38.5333 12.9956C38.5396 13.004 38.5438 13.0138 38.5457 13.0242C38.5476 13.0346 38.547 13.0452 38.5441 13.0553L38.4691 13.5541C38.469 13.5646 38.4665 13.575 38.4617 13.5844C38.457 13.5938 38.4501 13.6019 38.4416 13.6082C38.4332 13.6145 38.4234 13.6187 38.413 13.6206C38.4027 13.6225 38.392 13.6219 38.3819 13.619L37.6427 13.5071L37.5923 13.5004L37.0242 13.4143C37.0137 13.4142 37.0033 13.4117 36.9939 13.4069C36.9845 13.4021 36.9764 13.3953 36.9701 13.3868C36.9638 13.3784 36.9596 13.3686 36.9577 13.3582C36.9558 13.3479 36.9564 13.3372 36.9593 13.3271L37.0343 12.8283C37.0343 12.8176 37.0369 12.8071 37.0417 12.7976C37.0465 12.7882 37.0535 12.7799 37.0621 12.7736C37.0707 12.7673 37.0807 12.7631 37.0912 12.7613C37.1017 12.7596 37.1124 12.7603 37.1226 12.7634L37.419 12.8082L37.3597 11.1015C37.3577 11.063 37.3428 11.0264 37.3172 10.9975C37.293 10.969 37.2592 10.9503 37.2222 10.9449L36.7927 10.8801C36.7711 10.8763 36.749 10.8769 36.7277 10.8818C36.7063 10.8868 36.6862 10.8961 36.6686 10.909C36.6509 10.922 36.636 10.9384 36.6249 10.9573C36.6137 10.9761 36.6065 10.997 36.6037 11.0188L36.3576 12.6482L36.7111 12.7019C36.7216 12.702 36.7319 12.7046 36.7413 12.7093C36.7507 12.7141 36.7589 12.721 36.7651 12.7294C36.7714 12.7379 36.7757 12.7477 36.7775 12.758C36.7794 12.7684 36.7789 12.779 36.7759 12.7891L36.701 13.2879C36.7009 13.2985 36.6984 13.3088 36.6937 13.3182C36.6889 13.3275 36.682 13.3357 36.6735 13.3419C36.665 13.3481 36.6552 13.3522 36.6448 13.3539C36.6344 13.3556 36.6238 13.3548 36.6138 13.3517L35.1867 13.137C35.1762 13.1369 35.1658 13.1343 35.1564 13.1296C35.1471 13.1248 35.1389 13.1179 35.1326 13.1095C35.1263 13.101 35.1221 13.0912 35.1202 13.0809C35.1184 13.0705 35.1189 13.0598 35.1218 13.0497L35.1968 12.5509C35.1969 12.5404 35.1994 12.53 35.2042 12.5207C35.209 12.5113 35.2158 12.5031 35.2243 12.4968C35.2327 12.4906 35.2425 12.4863 35.2529 12.4844C35.2632 12.4826 35.2739 12.4831 35.284 12.4861L35.7079 12.5509L36.2469 8.97213L35.8231 8.90726C35.8126 8.90722 35.8022 8.90471 35.7928 8.89993C35.7835 8.89515 35.7754 8.88824 35.7692 8.87975C35.763 8.87126 35.7588 8.86144 35.7571 8.85106C35.7554 8.84069 35.7562 8.83006 35.7593 8.82003L35.8342 8.32123C35.8343 8.31072 35.8368 8.30036 35.8416 8.291C35.8464 8.28163 35.8533 8.27352 35.8618 8.26732C35.8703 8.26112 35.8801 8.25699 35.8905 8.25529C35.9008 8.25358 35.9115 8.25433 35.9215 8.25749L36.5467 8.35143C36.5613 8.34732 36.5768 8.34732 36.5914 8.35143L38.3036 8.60866C38.3673 8.61705 38.4285 8.63858 38.4833 8.67189C38.5382 8.7052 38.5855 8.74955 38.6224 8.80214C38.6609 8.85399 38.6886 8.91315 38.7036 8.97602C38.7186 9.03889 38.7206 9.10416 38.7096 9.16784L38.4859 10.6329C38.4736 10.7255 38.4347 10.8125 38.3741 10.8834C38.3124 10.953 38.2333 11.0047 38.1448 11.0333C38.1103 11.0437 38.0804 11.0655 38.0601 11.0952C38.0397 11.1249 38.0302 11.1607 38.033 11.1966L38.0911 12.9043L38.4792 12.9681ZM37.6483 10.3433C37.6781 10.3483 37.7086 10.3472 37.7381 10.3401C37.7675 10.333 37.7951 10.32 37.8194 10.3019C37.8435 10.2851 37.8639 10.2635 37.8793 10.2385C37.8947 10.2135 37.9047 10.1856 37.9088 10.1565L38.014 9.46198C38.0184 9.43313 38.0169 9.40368 38.0096 9.37542C38.0023 9.34717 37.9893 9.32068 37.9715 9.29758C37.9536 9.27292 37.9309 9.25217 37.9048 9.23659C37.8786 9.22102 37.8495 9.21094 37.8194 9.20699L37.2837 9.12646C37.2727 9.12963 37.2611 9.12963 37.2501 9.12646L37.0164 9.09068C36.9791 9.09095 36.9433 9.10566 36.9166 9.13173C36.8899 9.15779 36.8744 9.19318 36.8732 9.23047L36.7513 10.0391C36.7477 10.0607 36.7485 10.0829 36.7537 10.1042C36.7589 10.1256 36.7683 10.1456 36.7815 10.1632C36.7944 10.1814 36.8111 10.1966 36.8304 10.2078C36.8497 10.219 36.8712 10.2259 36.8934 10.2281L37.6483 10.3433Z" fill="#231F20"/>
<path d="M42.0715 14.1817C42.0818 14.1839 42.0914 14.1885 42.0996 14.1951C42.1078 14.2016 42.1144 14.21 42.1189 14.2195C42.1233 14.229 42.1255 14.2395 42.1252 14.25C42.125 14.2605 42.1223 14.2708 42.1174 14.2801L41.944 14.7554C41.9418 14.7655 41.9373 14.775 41.9308 14.7831C41.9243 14.7912 41.916 14.7977 41.9065 14.802C41.8971 14.8063 41.8868 14.8084 41.8764 14.8081C41.866 14.8078 41.8559 14.805 41.8467 14.8001L40.8413 14.4378C40.8311 14.4357 40.8215 14.4313 40.8133 14.4248C40.805 14.4184 40.7984 14.4101 40.794 14.4006C40.7895 14.3912 40.7874 14.3808 40.7876 14.3704C40.7879 14.3599 40.7906 14.3497 40.7955 14.3405L40.9688 13.8652C40.9707 13.8548 40.975 13.845 40.9814 13.8367C40.9878 13.8283 40.9961 13.8216 41.0056 13.8171C41.0152 13.8126 41.0256 13.8105 41.0361 13.8109C41.0467 13.8113 41.0569 13.8142 41.0661 13.8193L41.2104 13.8719L41.3099 13.3127C41.3112 13.3042 41.3091 13.2956 41.3041 13.2887C41.2991 13.2818 41.2915 13.2772 41.2831 13.2758L40.593 13.0242C40.586 13.0212 40.5781 13.021 40.5709 13.0235C40.5637 13.0259 40.5577 13.031 40.5539 13.0376L40.2676 13.5241L40.4063 13.5744C40.4165 13.5766 40.4262 13.5812 40.4344 13.5878C40.4426 13.5943 40.4492 13.6027 40.4536 13.6122C40.458 13.6218 40.4602 13.6322 40.46 13.6427C40.4597 13.6532 40.457 13.6635 40.4521 13.6728L40.2821 14.1459C40.2801 14.1561 40.2756 14.1657 40.2692 14.1739C40.2627 14.1822 40.2544 14.1888 40.245 14.1932C40.2355 14.1977 40.2252 14.1998 40.2147 14.1996C40.2043 14.1993 40.1941 14.1966 40.1848 14.1917L39.1884 13.8283C39.178 13.8264 39.1682 13.8221 39.1599 13.8157C39.1515 13.8093 39.1448 13.801 39.1403 13.7914C39.1358 13.7819 39.1337 13.7715 39.1341 13.7609C39.1345 13.7504 39.1373 13.7401 39.1425 13.731L39.3136 13.2612C39.3158 13.2511 39.3204 13.2416 39.3269 13.2335C39.3334 13.2255 39.3417 13.219 39.3511 13.2147C39.3606 13.2103 39.3709 13.2082 39.3812 13.2086C39.3916 13.2089 39.4018 13.2116 39.4109 13.2165L39.6514 13.3037L41.4889 10.1085L41.3144 10.0448C41.3042 10.0427 41.2946 10.0383 41.2863 10.0318C41.2781 10.0254 41.2715 10.0171 41.2671 10.0076C41.2626 9.99819 41.2604 9.98784 41.2607 9.9774C41.2609 9.96695 41.2636 9.95671 41.2685 9.94749L41.4419 9.47218C41.444 9.46195 41.4484 9.45234 41.4549 9.44413C41.4613 9.43591 41.4696 9.42931 41.479 9.42486C41.4885 9.42041 41.4988 9.41822 41.5093 9.41848C41.5197 9.41873 41.53 9.42142 41.5392 9.42633L42.038 9.60751H42.0492L42.3735 9.72605H42.3858L42.8779 9.905C42.8881 9.90708 42.8977 9.91152 42.9059 9.91797C42.9142 9.92442 42.9208 9.9327 42.9252 9.94215C42.9297 9.95159 42.9319 9.96195 42.9316 9.9724C42.9313 9.98284 42.9286 9.99307 42.9237 10.0023L42.7504 10.4776C42.7483 10.4878 42.7439 10.4974 42.7374 10.5057C42.731 10.5139 42.7227 10.5205 42.7132 10.5249C42.7038 10.5294 42.6934 10.5316 42.683 10.5313C42.6725 10.5311 42.6623 10.5284 42.6531 10.5235L42.4842 10.4619L41.8322 14.0844L42.0715 14.1817ZM41.4005 12.7636C41.4005 12.7636 41.4117 12.7524 41.4173 12.7356L41.7047 11.1621C41.7114 11.1464 41.7047 11.1341 41.6835 11.1274C41.6622 11.1207 41.651 11.1274 41.6454 11.1397L40.8626 12.5332C40.8593 12.5434 40.8593 12.5543 40.8626 12.5645C40.8675 12.5722 40.875 12.5777 40.8838 12.5802L41.3826 12.7613C41.3883 12.7636 41.3945 12.7644 41.4005 12.7636Z" fill="#231F20"/>
<path d="M45.2287 15.9454L45.5932 16.1691C45.603 16.1731 45.6116 16.1794 45.6185 16.1874C45.6254 16.1954 45.6302 16.2049 45.6327 16.2152C45.6353 16.2254 45.6353 16.2361 45.6329 16.2463C45.6305 16.2566 45.6257 16.2662 45.619 16.2742L45.3562 16.7071C45.3518 16.7165 45.3454 16.7249 45.3373 16.7315C45.3293 16.7381 45.3198 16.7428 45.3096 16.7452C45.2995 16.7475 45.2889 16.7476 45.2788 16.7452C45.2686 16.7429 45.2591 16.7382 45.251 16.7317L44.0119 15.9745C44.0021 15.9706 43.9935 15.9645 43.9866 15.9566C43.9798 15.9487 43.9749 15.9393 43.9723 15.9291C43.9698 15.9189 43.9698 15.9083 43.9722 15.8981C43.9746 15.888 43.9794 15.8785 43.9861 15.8705L44.249 15.4388C44.2532 15.4292 44.2595 15.4208 44.2676 15.414C44.2756 15.4073 44.285 15.4025 44.2952 15.4C44.3053 15.3976 44.3159 15.3974 44.3262 15.3997C44.3364 15.402 44.3459 15.4065 44.3541 15.4131L44.4905 15.497L44.9379 13.1282C44.9479 13.1036 44.9379 13.0869 44.9021 13.0757C44.8663 13.0645 44.8618 13.069 44.8462 13.0947L43.6808 15.0026L44.0029 15.1984C44.0127 15.2024 44.0213 15.2087 44.0282 15.2167C44.035 15.2247 44.0399 15.2342 44.0424 15.2444C44.0449 15.2546 44.045 15.2653 44.0426 15.2756C44.0402 15.2859 44.0354 15.2954 44.0286 15.3035L43.7647 15.7352C43.7605 15.7446 43.7542 15.753 43.7462 15.7596C43.7383 15.7662 43.7289 15.7709 43.7188 15.7733C43.7087 15.7757 43.6982 15.7757 43.6882 15.7734C43.6781 15.771 43.6687 15.7664 43.6607 15.7598L42.4227 15.0049C42.4129 15.0008 42.4043 14.9946 42.3974 14.9866C42.3905 14.9786 42.3857 14.9691 42.3831 14.9588C42.3806 14.9486 42.3806 14.9379 42.383 14.9276C42.3854 14.9174 42.3901 14.9078 42.3969 14.8998L42.6609 14.4681C42.665 14.4584 42.6714 14.4499 42.6794 14.4431C42.6875 14.4364 42.697 14.4316 42.7072 14.4292C42.7174 14.4268 42.7281 14.4269 42.7383 14.4293C42.7485 14.4318 42.758 14.4367 42.766 14.4435L43.1194 14.6593L45.0296 11.5278L44.6762 11.312C44.6665 11.3079 44.6579 11.3016 44.6511 11.2937C44.6442 11.2857 44.6393 11.2763 44.6367 11.2661C44.6341 11.2559 44.6339 11.2453 44.6361 11.235C44.6383 11.2247 44.6428 11.2151 44.6493 11.2069L44.9122 10.7797C44.9165 10.7702 44.9229 10.7618 44.931 10.7552C44.9391 10.7486 44.9485 10.7439 44.9587 10.7415C44.9688 10.7392 44.9794 10.7391 44.9896 10.7415C44.9997 10.7438 45.0092 10.7485 45.0173 10.755L46.2564 11.5111C46.2662 11.5151 46.2748 11.5214 46.2817 11.5294C46.2886 11.5374 46.2934 11.5469 46.2959 11.5571C46.2985 11.5674 46.2985 11.578 46.2961 11.5883C46.2937 11.5986 46.2889 11.6081 46.2822 11.6162L46.0182 12.0479C46.0142 12.0575 46.008 12.0661 46 12.0728C45.9921 12.0796 45.9827 12.0843 45.9725 12.0867C45.9624 12.0891 45.9518 12.0891 45.9417 12.0866C45.9315 12.0842 45.9221 12.0793 45.9142 12.0725L45.789 11.9964L45.3416 14.3081C45.3393 14.319 45.3406 14.3303 45.3455 14.3402C45.3504 14.3501 45.3585 14.3582 45.3685 14.3629C45.3741 14.366 45.3803 14.3678 45.3866 14.3684C45.393 14.369 45.3994 14.3683 45.4055 14.3663C45.4115 14.3643 45.4171 14.3611 45.4219 14.3569C45.4267 14.3526 45.4306 14.3475 45.4333 14.3417L46.5718 12.4773L46.2553 12.285C46.2456 12.281 46.2369 12.2747 46.2301 12.2667C46.2232 12.2587 46.2183 12.2492 46.2158 12.2389C46.2133 12.2287 46.2133 12.218 46.2157 12.2078C46.2181 12.1975 46.2228 12.1879 46.2296 12.1799L46.4924 11.7482C46.4966 11.7385 46.5029 11.73 46.511 11.7232C46.519 11.7165 46.5285 11.7117 46.5388 11.7093C46.549 11.7069 46.5597 11.707 46.5699 11.7095C46.5801 11.7119 46.5895 11.7168 46.5975 11.7236L47.8412 12.4818C47.8508 12.486 47.8592 12.4924 47.866 12.5004C47.8727 12.5084 47.8775 12.5179 47.88 12.528C47.8824 12.5382 47.8826 12.5488 47.8803 12.559C47.878 12.5692 47.8735 12.5788 47.8669 12.587L47.6086 13.0164C47.6044 13.0261 47.5981 13.0346 47.59 13.0413C47.582 13.0481 47.5724 13.0528 47.5622 13.0552C47.552 13.0576 47.5413 13.0576 47.5311 13.0551C47.5209 13.0527 47.5114 13.0478 47.5034 13.041L47.1377 12.8173L45.2287 15.9454Z" fill="#231F20"/>
<path d="M48.2729 18.0365C48.1852 18.1326 48.0781 18.2088 47.9586 18.2602C47.8448 18.3112 47.722 18.3389 47.5974 18.3418C47.471 18.3452 47.3451 18.3251 47.2261 18.2826C47.1022 18.24 46.9881 18.1731 46.8906 18.0857L46.5316 17.7603C46.4364 17.6749 46.3602 17.5705 46.3079 17.4539C46.2035 17.2254 46.1911 16.9654 46.2732 16.728C46.3146 16.6034 46.3821 16.489 46.4712 16.3925L48.4216 14.2464C48.5073 14.1515 48.6116 14.0753 48.7281 14.0227C48.8412 13.9711 48.9629 13.9411 49.087 13.9343C49.2115 13.9281 49.336 13.9456 49.4539 13.9858C49.5751 14.0269 49.6866 14.0923 49.7816 14.1781L50.1406 14.5036C50.2365 14.5878 50.3144 14.6905 50.3698 14.8055C50.4246 14.9203 50.4568 15.0444 50.4649 15.1712C50.472 15.2965 50.4561 15.4219 50.4179 15.5414C50.379 15.666 50.3134 15.7805 50.2256 15.8769L50.1618 15.9474L49.8196 16.3265C49.8138 16.3359 49.8058 16.3436 49.7963 16.3492C49.7868 16.3548 49.7761 16.358 49.7651 16.3585C49.7541 16.3591 49.7432 16.357 49.7332 16.3524C49.7232 16.3478 49.7145 16.3408 49.7078 16.3321L49.3331 15.9966C49.3239 15.9905 49.3163 15.9822 49.3111 15.9724C49.3058 15.9627 49.3031 15.9518 49.3031 15.9407C49.3031 15.9296 49.3058 15.9187 49.3111 15.909C49.3163 15.8992 49.3239 15.8909 49.3331 15.8848L49.3935 15.8177L49.4147 15.7942L49.6932 15.4866C49.7577 15.397 49.7868 15.2866 49.7749 15.1768C49.7666 15.0657 49.7152 14.9621 49.6317 14.8883L49.4528 14.7396C49.3634 14.6596 49.246 14.6181 49.1262 14.6242C49.0064 14.6303 48.8939 14.6834 48.8131 14.772L47.0315 16.7426C46.9913 16.7863 46.9606 16.838 46.9414 16.8942C46.9221 16.9504 46.9147 17.0099 46.9196 17.0691C46.9215 17.1287 46.9354 17.1873 46.9606 17.2413C46.9858 17.2954 47.0217 17.3437 47.0661 17.3834L47.2373 17.5366C47.3195 17.6118 47.4279 17.6519 47.5392 17.6485C47.6514 17.6487 47.7596 17.6068 47.8423 17.531L48.2371 17.096L48.2583 17.0725L48.3221 17.0009C48.3284 16.9919 48.3367 16.9846 48.3465 16.9795C48.3562 16.9744 48.367 16.9718 48.378 16.9718C48.389 16.9718 48.3998 16.9744 48.4095 16.9795C48.4193 16.9846 48.4276 16.9919 48.4339 17.0009L48.8086 17.3364C48.8178 17.3426 48.8254 17.3509 48.8306 17.3606C48.8358 17.3704 48.8386 17.3813 48.8386 17.3923C48.8386 17.4034 48.8358 17.4143 48.8306 17.4241C48.8254 17.4338 48.8178 17.4421 48.8086 17.4483L48.7314 17.5344L48.718 17.5489L48.2729 18.0365Z" fill="#231F20"/>
<path d="M52.497 18.6396L52.8795 18.341L52.2745 17.566C52.2613 17.5485 52.2448 17.5339 52.2259 17.5229C52.2069 17.512 52.186 17.5049 52.1643 17.5022C52.1426 17.4995 52.1206 17.5012 52.0996 17.5071C52.0785 17.5131 52.0589 17.5232 52.0418 17.5369L51.1304 18.2482C51.0982 18.2724 51.0766 18.308 51.07 18.3477C51.0639 18.3884 51.071 18.4299 51.0901 18.4663L51.684 19.2268C51.6926 19.2339 51.6992 19.2431 51.7034 19.2535C51.7075 19.2639 51.709 19.2752 51.7077 19.2863C51.7063 19.2974 51.7022 19.308 51.6957 19.3172C51.6893 19.3263 51.6806 19.3337 51.6705 19.3386L51.2724 19.6495C51.2652 19.6581 51.256 19.6648 51.2456 19.6689C51.2352 19.6731 51.224 19.6745 51.2128 19.6732C51.2017 19.6719 51.1911 19.6678 51.182 19.6613C51.1729 19.6548 51.1655 19.6461 51.1606 19.6361L50.5667 18.8756C50.5356 18.8477 50.4964 18.8305 50.4549 18.8264C50.4351 18.8233 50.4148 18.8245 50.3955 18.8299C50.3763 18.8353 50.3583 18.8448 50.343 18.8577L49.4371 19.5656C49.4194 19.5789 49.4047 19.5957 49.3937 19.6149C49.3827 19.6342 49.3758 19.6555 49.3734 19.6775C49.3704 19.6991 49.372 19.7211 49.3779 19.742C49.3839 19.763 49.3942 19.7825 49.4081 19.7994L50.0131 20.5755L50.3956 20.2758C50.403 20.2677 50.4123 20.2615 50.4226 20.2576C50.4329 20.2538 50.444 20.2525 50.455 20.2538C50.4659 20.2551 50.4763 20.259 50.4855 20.2652C50.4946 20.2713 50.5021 20.2796 50.5074 20.2892L50.8172 20.6874C50.8258 20.6945 50.8325 20.7037 50.8366 20.7141C50.8408 20.7245 50.8423 20.7358 50.8409 20.7469C50.8396 20.758 50.8355 20.7686 50.829 20.7778C50.8225 20.7869 50.8139 20.7943 50.8038 20.7992L49.9639 21.4557C49.9567 21.4643 49.9475 21.471 49.9371 21.4751C49.9267 21.4792 49.9154 21.4807 49.9043 21.4794C49.8932 21.478 49.8826 21.4739 49.8735 21.4675C49.8643 21.461 49.857 21.4523 49.8521 21.4423L49.7727 21.3416L49.7492 21.3114L48.8064 20.1036C48.7971 20.0904 48.7889 20.0766 48.7818 20.0622L48.1298 19.2268C48.1212 19.2196 48.1145 19.2104 48.1103 19.2C48.1062 19.1896 48.1047 19.1783 48.1061 19.1672C48.1074 19.1561 48.1115 19.1455 48.118 19.1363C48.1245 19.1272 48.1331 19.1198 48.1432 19.1149L48.5402 18.804C48.5474 18.7954 48.5566 18.7887 48.567 18.7846C48.5774 18.7805 48.5887 18.779 48.5998 18.7803C48.6109 18.7817 48.6215 18.7857 48.6306 18.7922C48.6398 18.7987 48.6471 18.8074 48.652 18.8174L48.9082 19.1451L51.7723 16.9084L51.5129 16.5952C51.5042 16.5881 51.4976 16.5788 51.4934 16.5684C51.4893 16.558 51.4878 16.5468 51.4892 16.5356C51.4905 16.5245 51.4946 16.5139 51.5011 16.5048C51.5076 16.4957 51.5162 16.4883 51.5263 16.4834L51.9233 16.1736C51.9305 16.165 51.9397 16.1583 51.9501 16.1542C51.9605 16.15 51.9717 16.1486 51.9829 16.1499C51.994 16.1512 52.0046 16.1553 52.0137 16.1618C52.0228 16.1683 52.0302 16.177 52.0351 16.187L52.6871 17.0224L52.6995 17.037L53.4499 17.9988L53.7608 18.3969C53.7694 18.4041 53.7761 18.4133 53.7802 18.4237C53.7844 18.4341 53.7858 18.4454 53.7845 18.4565C53.7832 18.4676 53.7791 18.4782 53.7726 18.4873C53.7661 18.4965 53.7574 18.5038 53.7474 18.5088L52.9064 19.1652C52.8992 19.1739 52.89 19.1805 52.8796 19.1847C52.8692 19.1888 52.8579 19.1903 52.8468 19.1889C52.8357 19.1876 52.8251 19.1835 52.8159 19.177C52.8068 19.1705 52.7994 19.1619 52.7945 19.1518L52.4847 18.7537C52.4756 18.7467 52.4684 18.7374 52.4638 18.7268C52.4593 18.7162 52.4575 18.7046 52.4588 18.6932C52.46 18.6817 52.4642 18.6708 52.4709 18.6614C52.4776 18.652 52.4866 18.6445 52.497 18.6396V18.6396Z" fill="#231F20"/>
<path d="M34.3905 15.9531C36.6604 15.9501 38.9057 16.4237 40.9811 17.3433V47.1268C38.904 48.0427 36.6588 48.5158 34.3888 48.5158C32.1187 48.5158 29.8736 48.0427 27.7965 47.1268V17.3433C29.873 16.4236 32.1194 15.95 34.3905 15.9531Z" fill="url(#paint4_linear)"/>
<defs>
<linearGradient id="paint0_linear" x1="14.7197" y1="74.433" x2="21.8676" y2="58.3137" gradientUnits="userSpaceOnUse">
<stop stop-color="#002395"/>
<stop offset="0.26" stop-color="#002292"/>
<stop offset="0.48" stop-color="#002087"/>
<stop offset="0.69" stop-color="#001C76"/>
<stop offset="0.88" stop-color="#00165E"/>
<stop offset="1" stop-color="#00124B"/>
</linearGradient>
<linearGradient id="paint1_linear" x1="106451" y1="59594.5" x2="102656" y2="51078.7" gradientUnits="userSpaceOnUse">
<stop stop-color="#002395"/>
<stop offset="0.26" stop-color="#002292"/>
<stop offset="0.48" stop-color="#002087"/>
<stop offset="0.69" stop-color="#001C76"/>
<stop offset="0.88" stop-color="#00165E"/>
<stop offset="1" stop-color="#00124B"/>
</linearGradient>
<linearGradient id="paint2_linear" x1="22.9528" y1="47.1256" x2="22.9528" y2="17.3421" gradientUnits="userSpaceOnUse">
<stop stop-color="#00124B"/>
<stop offset="0.01" stop-color="#001452"/>
<stop offset="0.07" stop-color="#00196A"/>
<stop offset="0.14" stop-color="#001E7D"/>
<stop offset="0.22" stop-color="#00218B"/>
<stop offset="0.32" stop-color="#002293"/>
<stop offset="0.51" stop-color="#002395"/>
<stop offset="0.66" stop-color="#002292"/>
<stop offset="0.76" stop-color="#002089"/>
<stop offset="0.85" stop-color="#001D7A"/>
<stop offset="0.93" stop-color="#001864"/>
<stop offset="1" stop-color="#00124B"/>
</linearGradient>
<linearGradient id="paint3_linear" x1="100368" y1="-1992.44" x2="100368" y2="-4573.04" gradientUnits="userSpaceOnUse">
<stop stop-color="#770E12"/>
<stop offset="0.02" stop-color="#861014"/>
<stop offset="0.08" stop-color="#A61419"/>
<stop offset="0.13" stop-color="#C0171D"/>
<stop offset="0.2" stop-color="#D41920"/>
<stop offset="0.27" stop-color="#E21B22"/>
<stop offset="0.36" stop-color="#EA1C24"/>
<stop offset="0.51" stop-color="#ED1C24"/>
<stop offset="0.62" stop-color="#EA1C24"/>
<stop offset="0.71" stop-color="#E01A22"/>
<stop offset="0.79" stop-color="#CF181F"/>
<stop offset="0.86" stop-color="#B7161C"/>
<stop offset="0.94" stop-color="#981217"/>
<stop offset="1" stop-color="#770E12"/>
</linearGradient>
<linearGradient id="paint4_linear" x1="106433" y1="-2527.4" x2="106433" y2="-6366.08" gradientUnits="userSpaceOnUse">
<stop stop-color="#D2D4D5"/>
<stop offset="0.09" stop-color="#E6E7E8"/>
<stop offset="0.19" stop-color="#F4F5F5"/>
<stop offset="0.31" stop-color="#FCFDFD"/>
<stop offset="0.51" stop-color="white"/>
<stop offset="0.67" stop-color="#FCFCFC"/>
<stop offset="0.8" stop-color="#F2F2F3"/>
<stop offset="0.92" stop-color="#E1E2E3"/>
<stop offset="1" stop-color="#D1D3D4"/>
</linearGradient>
</defs>
</svg>
