<svg width="64" height="64" viewBox="0 0 64 64" fill="none" xmlns="http://www.w3.org/2000/svg">
<path d="M50.8955 33.0996C50.8926 33.0837 50.8885 33.0681 50.8832 33.0528C50.8802 33.0425 50.8761 33.0326 50.8709 33.0233C50.0946 30.6668 48.9241 28.4592 47.4091 26.4944C47.4026 26.4876 47.3969 26.4802 47.3919 26.4722V26.4698C47.3107 26.3664 47.2319 26.2631 47.1507 26.1622L47.1212 26.1228C46.7668 25.6737 46.4498 25.1963 46.1732 24.6954C46.5617 24.5622 46.899 24.3112 47.1381 23.9773C47.3771 23.6434 47.5061 23.2432 47.5071 22.8325V17.9106C47.5075 17.8942 47.5067 17.8777 47.5046 17.8614C47.4918 17.3481 47.2789 16.8601 46.9114 16.5015C46.5439 16.1429 46.0508 15.9421 45.5373 15.9419H44.5254C44.8136 10.2645 46.867 3.35666 46.8879 3.28529C46.9107 3.21225 46.9157 3.13482 46.9024 3.05946C46.8891 2.98411 46.858 2.91303 46.8116 2.85217C46.7663 2.79032 46.707 2.74003 46.6386 2.70539C46.5702 2.67076 46.4946 2.65275 46.4179 2.65283H18.0644C17.9879 2.65306 17.9125 2.67112 17.8442 2.70558C17.7759 2.74004 17.7166 2.78994 17.671 2.85133C17.6253 2.91272 17.5946 2.9839 17.5813 3.05923C17.5679 3.13456 17.5723 3.21197 17.5941 3.28529C17.6163 3.35666 19.6697 10.2621 19.9566 15.9419H17.4684C17.338 15.9423 17.213 15.9943 17.1208 16.0865C17.0286 16.1787 16.9766 16.3037 16.9762 16.4341V19.2691C15.9614 19.665 15.0895 20.3578 14.4745 21.2569C13.8595 22.156 13.53 23.2197 13.5289 24.3091V30.7075C13.5293 30.8379 13.5813 30.9629 13.6735 31.0551C13.7657 31.1473 13.8907 31.1993 14.0211 31.1997H14.2994C14.041 31.7953 13.8119 32.4031 13.6126 33.0183C13.6062 33.0291 13.6012 33.0407 13.5978 33.0528C13.5926 33.0681 13.5885 33.0837 13.5855 33.0996C11.0261 41.0484 13.2309 50.5821 20.1562 61.4865C20.2008 61.5564 20.2623 61.6141 20.335 61.6541C20.4078 61.6941 20.4894 61.7151 20.5724 61.7153H43.9089C43.9919 61.7151 44.0735 61.6941 44.1463 61.6541C44.219 61.6141 44.2805 61.5564 44.3251 61.4865C51.2593 50.5673 53.4549 41.0558 50.8955 33.0996ZM32.2392 54.3522C31.747 51.6489 30.8845 49.0262 29.6761 46.5584C30.4885 46.9011 31.3619 47.0761 32.2437 47.0727C33.1254 47.0693 33.9974 46.8877 34.8072 46.5387C33.5957 49.0126 32.7316 51.642 32.2392 54.3522V54.3522ZM14.5138 30.2153V29.231H18.4533V30.2153H14.5138ZM47.0228 29.8388C46.3064 30.1735 45.5824 30.486 44.866 30.7715C44.8083 30.7957 44.7464 30.8083 44.6839 30.8084C44.5854 30.8079 44.4894 30.7781 44.4078 30.7229C44.3263 30.6677 44.263 30.5896 44.2259 30.4983C44.2019 30.4382 44.1901 30.374 44.191 30.3092C44.1919 30.2445 44.2055 30.1806 44.2311 30.1212C44.2568 30.0618 44.2939 30.008 44.3403 29.9629C44.3867 29.9178 44.4416 29.8823 44.5018 29.8585C45.1985 29.5804 45.9077 29.2728 46.6044 28.9455C46.7229 28.89 46.8585 28.8839 46.9815 28.9284C47.1045 28.9729 47.2048 29.0645 47.2602 29.183C47.3157 29.3014 47.3219 29.4371 47.2773 29.5601C47.2328 29.6831 47.1412 29.7833 47.0228 29.8388V29.8388ZM42.6573 31.5762C41.9087 31.8223 41.148 32.0463 40.3994 32.2382C40.3595 32.2501 40.318 32.2559 40.2764 32.2554C40.156 32.2563 40.0394 32.213 39.9488 32.1337C39.8582 32.0544 39.7998 31.9447 39.7846 31.8252C39.7695 31.7058 39.7986 31.5849 39.8666 31.4855C39.9345 31.3861 40.0365 31.3151 40.1533 31.2858C40.8822 31.0988 41.6208 30.8822 42.3497 30.6411C42.4737 30.6002 42.6088 30.6104 42.7254 30.6692C42.842 30.728 42.9304 30.8307 42.9712 30.9547C43.012 31.0787 43.0019 31.2139 42.9431 31.3304C42.8843 31.447 42.7816 31.5354 42.6576 31.5762H42.6573ZM28.7707 33.0996C28.751 33.0996 28.7338 33.0971 28.7141 33.0971C27.9411 33.0085 27.1556 32.8928 26.3824 32.7501C26.3169 32.7404 26.2541 32.7177 26.1976 32.6832C26.1411 32.6487 26.0922 32.6031 26.0537 32.5493C26.0152 32.4955 25.988 32.4344 25.9737 32.3698C25.9594 32.3052 25.9582 32.2384 25.9703 32.1733C25.9824 32.1082 26.0075 32.0463 26.044 31.9911C26.0806 31.936 26.1279 31.8888 26.1832 31.8523C26.2384 31.8159 26.3004 31.791 26.3655 31.779C26.4306 31.7671 26.4975 31.7684 26.562 31.7829C27.3131 31.9208 28.0738 32.034 28.8224 32.1176C28.9483 32.1303 29.0645 32.1909 29.1469 32.2869C29.2292 32.3829 29.2715 32.5069 29.2648 32.6332C29.2582 32.7596 29.2031 32.8785 29.1111 32.9653C29.0191 33.0521 28.8972 33.1002 28.7707 33.0996V33.0996ZM30.5903 32.7599C30.5968 32.6298 30.6541 32.5074 30.7498 32.419C30.8456 32.3307 30.9722 32.2834 31.1025 32.2874C31.8582 32.3145 32.6265 32.3145 33.385 32.285C33.4496 32.2826 33.5141 32.2929 33.5747 32.3154C33.6354 32.3379 33.691 32.3721 33.7384 32.4161C33.7858 32.4601 33.8241 32.513 33.8511 32.5718C33.8781 32.6306 33.8932 32.6941 33.8956 32.7587C33.8981 32.8233 33.8877 32.8878 33.8652 32.9485C33.8427 33.0091 33.8085 33.0647 33.7645 33.1121C33.7205 33.1596 33.6676 33.1979 33.6089 33.2248C33.5501 33.2518 33.4865 33.2669 33.4219 33.2694C33.023 33.2841 32.6191 33.2915 32.2202 33.2915C31.8361 33.2915 31.4472 33.2841 31.0656 33.2694C30.9349 33.2647 30.8115 33.2085 30.7222 33.113C30.6329 33.0176 30.5852 32.8906 30.5894 32.7599H30.5903ZM35.229 32.659C35.2213 32.5948 35.2265 32.5297 35.2442 32.4675C35.2619 32.4053 35.2918 32.3472 35.3321 32.2966C35.3724 32.2461 35.4224 32.204 35.479 32.1728C35.5357 32.1417 35.598 32.1221 35.6623 32.1152C36.4132 32.0315 37.1741 31.9183 37.9227 31.7805C37.9873 31.766 38.0541 31.7647 38.1192 31.7766C38.1843 31.7885 38.2463 31.8134 38.3016 31.8499C38.3568 31.8863 38.4041 31.9335 38.4407 31.9887C38.4773 32.0438 38.5024 32.1058 38.5145 32.1708C38.5266 32.2359 38.5254 32.3027 38.5111 32.3673C38.4967 32.4319 38.4695 32.493 38.431 32.5468C38.3926 32.6007 38.3436 32.6462 38.2872 32.6807C38.2307 32.7152 38.1678 32.738 38.1024 32.7476C37.3291 32.8904 36.5463 33.006 35.7731 33.0922C35.7543 33.095 35.7354 33.0967 35.7165 33.0971C35.5955 33.0969 35.4788 33.0521 35.3887 32.9713C35.2987 32.8905 35.2415 32.7793 35.2282 32.659H35.229ZM24.6836 31.8863C24.6564 31.9917 24.595 32.0852 24.509 32.152C24.423 32.2188 24.3173 32.2551 24.2084 32.2554C24.166 32.2557 24.1237 32.2499 24.0829 32.2382C23.3345 32.0463 22.5736 31.8223 21.825 31.5762C21.701 31.5351 21.5984 31.4464 21.5398 31.3296C21.4812 31.2128 21.4714 31.0775 21.5126 30.9535C21.5537 30.8295 21.6424 30.7269 21.7592 30.6683C21.876 30.6097 22.0113 30.5999 22.1353 30.6411C22.864 30.8798 23.6028 31.0988 24.3317 31.2858C24.4578 31.319 24.5656 31.4009 24.6314 31.5135C24.6972 31.6261 24.7156 31.7602 24.6826 31.8863H24.6836ZM46.2326 26.5854C37.3392 30.6706 28.3275 30.8478 19.4391 27.1072V24.8013H45.1138C45.4328 25.4279 45.8069 26.025 46.2316 26.5854H46.2326ZM46.5222 22.8325C46.5218 23.0935 46.418 23.3436 46.2335 23.5281C46.0489 23.7127 45.7988 23.8165 45.5378 23.8169H19.4654C19.5602 22.9904 19.8848 22.207 20.4025 21.5558C20.9202 20.9046 21.6101 20.4116 22.394 20.1329V21.8481C22.394 21.9787 22.4458 22.1039 22.5381 22.1962C22.6304 22.2885 22.7556 22.3403 22.8861 22.3403C23.0167 22.3403 23.1419 22.2885 23.2342 22.1962C23.3265 22.1039 23.3783 21.9787 23.3783 21.8481V19.9065C23.5418 19.8887 23.7061 19.8797 23.8705 19.8794H26.3327V20.8638C26.3327 20.9943 26.3845 21.1195 26.4768 21.2118C26.5691 21.3041 26.6943 21.356 26.8249 21.356C26.9554 21.356 27.0806 21.3041 27.1729 21.2118C27.2652 21.1195 27.3171 20.9943 27.3171 20.8638V19.8794H30.2729V21.8481C30.2729 21.9787 30.3247 22.1039 30.417 22.1962C30.5093 22.2885 30.6345 22.3403 30.7651 22.3403C30.8956 22.3403 31.0208 22.2885 31.1131 22.1962C31.2054 22.1039 31.2573 21.9787 31.2573 21.8481V19.8794H34.2104V20.8638C34.2104 20.9943 34.2622 21.1195 34.3545 21.2118C34.4468 21.3041 34.572 21.356 34.7026 21.356C34.8331 21.356 34.9583 21.3041 35.0506 21.2118C35.1429 21.1195 35.1948 20.9943 35.1948 20.8638V19.8794H38.1494V21.8481C38.1494 21.9787 38.2012 22.1039 38.2935 22.1962C38.3858 22.2885 38.511 22.3403 38.6416 22.3403C38.7721 22.3403 38.8973 22.2885 38.9896 22.1962C39.0819 22.1039 39.1337 21.9787 39.1337 21.8481V19.8794H42.0903V20.8638C42.0903 20.9943 42.1422 21.1195 42.2345 21.2118C42.3268 21.3041 42.452 21.356 42.5825 21.356C42.713 21.356 42.8382 21.3041 42.9305 21.2118C43.0228 21.1195 43.0747 20.9943 43.0747 20.8638V19.8794H45.5369C45.8828 19.8798 46.2225 19.7881 46.5212 19.6136L46.5222 22.8325ZM18.7168 3.63721H45.7662C45.2319 5.56166 43.6833 11.4999 43.5233 16.3849C43.5212 16.4012 43.5204 16.4176 43.5209 16.4341C43.4948 17.2547 43.5112 18.0761 43.5701 18.895H20.913C20.9718 18.0761 20.9883 17.2547 20.9622 16.4341C20.9627 16.4176 20.9618 16.4012 20.9597 16.3849C20.7998 11.4999 19.2511 5.56166 18.7168 3.63721ZM14.5138 24.3091C14.5154 23.1344 14.9829 22.0083 15.8138 21.1778C16.6446 20.3474 17.771 19.8804 18.9457 19.8794H20.7628C20.3941 20.1358 20.0598 20.4385 19.7681 20.7801C19.7632 20.7826 19.7632 20.7826 19.7632 20.785C19.7454 20.8035 19.7289 20.8232 19.714 20.8441C19.7091 20.849 19.7041 20.8515 19.7041 20.8564C18.9063 21.812 18.465 23.015 18.4557 24.2599C18.4537 24.2762 18.4528 24.2926 18.4533 24.3091V28.2466H14.5138V24.3091ZM14.3907 33.8403C20.1234 36.0707 24.9245 40.1887 28.0017 45.515C28.0233 45.5768 28.0558 45.6343 28.0977 45.6848C28.1001 45.6872 28.1026 45.6872 28.1026 45.6897C29.9468 48.9578 31.338 53.043 31.7465 58.1174C31.6801 58.9615 31.6415 59.8327 31.6308 60.731H20.8441C14.326 50.3876 12.1651 41.3609 14.3907 33.8403ZM43.639 60.731H32.6157C32.628 59.8475 32.6649 58.9911 32.7338 58.1617C32.7321 58.1486 32.7329 58.1352 32.7363 58.1224C33.1401 53.043 34.5328 48.9554 36.3728 45.6848C36.3775 45.6823 36.3817 45.6789 36.3851 45.6749C36.4432 45.6146 36.484 45.5398 36.5032 45.4584C39.5837 40.1586 44.3737 36.0628 50.0876 33.8428C52.3081 41.3781 50.1538 50.3876 43.639 60.731Z" fill="white"/>
</svg>
