<svg width="37" height="35" viewBox="0 0 37 35" fill="none" xmlns="http://www.w3.org/2000/svg">
<path d="M6.8916 20.2575C6.8916 20.2575 10.6412 14.2674 12.6657 17.34L15.2972 22.8709C15.2972 22.8709 22.5851 8.73734 36.1478 0.338867L36.7552 1.3632C36.7552 1.3632 21.7345 11.814 17.2807 25.3341L13.6982 26.7842C13.6982 26.7842 11.1428 21.2831 6.8916 20.2575Z" fill="white"/>
<path d="M12.522 34.446C9.37438 34.4276 6.3619 33.1493 4.14261 30.8905C1.92332 28.6316 0.677612 25.5758 0.677612 22.3904C0.677612 19.2051 1.92332 16.1493 4.14261 13.8904C6.3619 11.6316 9.37438 10.3533 12.522 10.3349C12.7951 10.3311 13.0662 10.3822 13.3196 10.4853C13.5731 10.5884 13.8037 10.7414 13.9982 10.9355C14.1926 11.1296 14.3471 11.3609 14.4525 11.6158C14.5579 11.8708 14.6121 12.1445 14.6121 12.4209C14.6121 12.6973 14.5579 12.9709 14.4525 13.2259C14.3471 13.4809 14.1926 13.7121 13.9982 13.9062C13.8037 14.1003 13.5731 14.2533 13.3196 14.3565C13.0662 14.4596 12.7951 14.5107 12.522 14.5068C10.9813 14.5069 9.47529 14.9693 8.19428 15.8355C6.91328 16.7017 5.91485 17.9328 5.32522 19.3732C4.7356 20.8136 4.58127 22.3986 4.88174 23.9277C5.18221 25.4569 5.924 26.8615 7.0133 27.9641C8.1026 29.0667 9.4905 29.8176 11.0015 30.122C12.5125 30.4264 14.0788 30.2705 15.5023 29.6741C16.9258 29.0777 18.1426 28.0676 18.9988 26.7715C19.855 25.4753 20.3122 23.9514 20.3126 22.3923C20.3088 22.1159 20.3593 21.8415 20.4612 21.5851C20.5631 21.3286 20.7143 21.0952 20.9061 20.8984C21.0979 20.7016 21.3264 20.5454 21.5784 20.4387C21.8304 20.332 22.1008 20.2771 22.3739 20.2771C22.6471 20.2771 22.9175 20.332 23.1694 20.4387C23.4214 20.5454 23.6499 20.7016 23.8417 20.8984C24.0335 21.0952 24.1847 21.3286 24.2866 21.5851C24.3885 21.8415 24.439 22.1159 24.4352 22.3923C24.4352 25.5896 23.1801 28.6561 20.9459 30.917C18.7118 33.1778 15.6816 34.448 12.522 34.448V34.446Z" fill="white"/>
</svg>
