<svg width="249" height="186" viewBox="0 0 249 186" fill="none" xmlns="http://www.w3.org/2000/svg">
<path d="M242.317 136.408C163.898 125.248 84.2949 125.248 5.87666 136.408C9.27666 128.988 12.79 121.588 16.4167 114.208C11.0833 107.961 5.63666 101.765 0.0766602 95.6179C82.3456 83.9112 165.858 83.9112 248.127 95.6179C242.567 101.765 237.117 107.961 231.777 114.208C235.41 121.588 238.923 128.988 242.317 136.408Z" fill="url(#paint0_linear)"/>
<path d="M221.097 119.038C156.64 111.668 91.5534 111.668 27.0967 119.038C34.3167 123.092 41.43 127.232 48.4367 131.458C98.777 126.898 149.426 126.898 199.767 131.458C206.767 127.238 213.877 123.098 221.097 119.038Z" fill="#E67E22"/>
<path d="M124.097 185.738C116.217 185.738 109.787 175.438 102.507 173.488C94.9866 171.488 84.2766 177.108 77.6866 173.288C71.0966 169.468 70.5666 157.288 65.1466 151.858C59.7266 146.428 47.5866 145.998 43.7166 139.318C39.8466 132.638 45.5266 122.018 43.5166 114.498C41.5166 107.218 31.2666 100.788 31.2666 92.9081C31.2666 85.0281 41.5666 78.5981 43.5166 71.3181C45.5166 63.7981 39.8966 53.0881 43.7166 46.4981C47.5366 39.9081 59.7166 39.3781 65.1466 33.9481C70.5766 28.5181 71.0066 16.3981 77.6866 12.5281C84.3666 8.65814 94.9866 14.3381 102.507 12.3181C109.787 10.3181 116.217 0.078125 124.097 0.078125C131.977 0.078125 138.407 10.3681 145.687 12.3181C153.207 14.3181 163.917 8.70814 170.507 12.5281C177.097 16.3481 177.627 28.5281 183.057 33.9481C188.487 39.3681 200.607 39.8181 204.477 46.4981C208.347 53.1781 202.667 63.7981 204.677 71.3181C206.677 78.5981 216.927 85.0181 216.927 92.9081C216.927 100.798 206.677 107.218 204.677 114.498C202.677 122.018 208.297 132.728 204.477 139.318C200.657 145.908 188.477 146.438 183.057 151.858C177.637 157.278 177.187 169.418 170.507 173.288C163.827 177.158 153.207 171.468 145.687 173.488C138.407 175.438 131.987 185.738 124.097 185.738Z" fill="url(#paint1_linear)"/>
<path d="M35.3167 92.9084C35.3167 85.3684 45.3167 79.2484 47.1767 72.2884C49.0967 65.0984 43.5567 54.8084 47.1767 48.5084C50.7967 42.2084 62.5866 41.7884 67.7666 36.6084C72.9466 31.4284 73.2767 19.7084 79.6667 16.0084C86.0567 12.3084 96.2566 17.9084 103.457 16.0084C110.437 14.1284 116.557 4.12842 124.097 4.12842C131.637 4.12842 137.767 14.1284 144.717 15.9784C151.907 17.9084 162.197 12.3684 168.497 15.9784C174.797 19.5884 175.217 31.3884 180.397 36.5784C185.577 41.7684 197.297 42.0884 200.997 48.4784C204.697 54.8684 199.097 65.0684 200.997 72.2584C202.857 79.2584 212.847 85.3384 212.847 92.8784C212.847 100.418 202.847 106.538 200.997 113.488C199.067 120.688 204.607 130.978 200.997 137.278C197.387 143.578 185.587 143.988 180.397 149.178C175.207 154.368 174.887 166.078 168.497 169.768C162.107 173.458 151.907 167.878 144.717 169.768C137.767 171.628 131.637 181.628 124.097 181.628C116.557 181.628 110.437 171.628 103.487 169.768C96.2866 167.848 85.9967 173.388 79.6967 169.768C73.3967 166.148 72.9866 154.358 67.7966 149.178C62.6066 143.998 50.8966 143.658 47.1966 137.278C43.4966 130.898 49.0966 120.688 47.1966 113.488C45.3166 106.568 35.3167 100.448 35.3167 92.9084Z" fill="url(#paint2_linear)"/>
<path d="M221.097 119.038C156.64 111.668 91.5534 111.668 27.0967 119.038L22.4167 78.1279C89.9836 70.4079 158.21 70.4079 225.777 78.1279L221.097 119.038Z" fill="url(#paint3_linear)"/>
<path d="M51.7866 92.9082C51.7846 78.6038 56.0247 64.6201 63.9706 52.7256C71.9164 40.8311 83.2112 31.5601 96.4263 26.0851C109.641 20.6102 124.183 19.1771 138.213 21.9673C152.243 24.7574 165.13 31.6454 175.245 41.7602C185.359 51.8749 192.247 64.762 195.037 78.7917C197.828 92.8213 196.395 107.363 190.92 120.578C185.445 133.794 176.174 145.088 164.279 153.034C152.385 160.98 138.401 165.22 124.097 165.218C104.919 165.218 86.5265 157.6 72.9657 144.039C59.405 130.478 51.7866 112.086 51.7866 92.9082Z" fill="white"/>
<path d="M55.1968 92.9081C55.1968 79.2786 59.2385 65.9551 66.8109 54.6227C74.3833 43.2903 85.1461 34.4579 97.7384 29.2426C110.331 24.0272 124.187 22.6632 137.554 25.3229C150.922 27.9826 163.2 34.5467 172.837 44.1849C182.474 53.8231 189.036 66.1027 191.694 79.4705C194.352 92.8384 192.986 106.694 187.768 119.286C182.551 131.877 173.717 142.639 162.384 150.209C151.05 157.78 137.726 161.82 124.097 161.818C105.822 161.815 88.2975 154.554 75.3765 141.631C62.4555 128.708 55.1968 111.182 55.1968 92.9081V92.9081Z" fill="url(#paint4_linear)"/>
<path d="M75.8907 67.0381V55.6631H79.5548C80.56 55.6631 81.4636 55.8923 82.2657 56.3506C83.0678 56.8037 83.6928 57.4469 84.1407 58.2803C84.5938 59.1084 84.823 60.0381 84.8282 61.0693V61.5928C84.8282 62.6344 84.6068 63.5693 84.1641 64.3975C83.7266 65.2204 83.1068 65.8662 82.3048 66.335C81.5079 66.7985 80.6173 67.0329 79.6329 67.0381H75.8907ZM78.6329 57.7803V64.9287H79.586C80.3725 64.9287 80.9766 64.6501 81.3985 64.0928C81.8204 63.5303 82.0313 62.6969 82.0313 61.5928V61.1006C82.0313 60.0016 81.8204 59.1735 81.3985 58.6162C80.9766 58.0589 80.3621 57.7803 79.5548 57.7803H78.6329ZM95.8673 61.585C95.8673 62.6943 95.6615 63.6761 95.2501 64.5303C94.8386 65.3844 94.2527 66.0433 93.4923 66.5068C92.7371 66.9652 91.8751 67.1943 90.9063 67.1943C89.9376 67.1943 89.0782 66.973 88.3282 66.5303C87.5782 66.0824 86.9923 65.4443 86.5704 64.6162C86.1537 63.7881 85.935 62.8376 85.9141 61.7646V61.124C85.9141 60.0094 86.1173 59.0277 86.5235 58.1787C86.935 57.3245 87.5209 56.6657 88.2813 56.2021C89.047 55.7386 89.9167 55.5068 90.8907 55.5068C91.8542 55.5068 92.7136 55.736 93.4688 56.1943C94.224 56.6527 94.81 57.3063 95.2266 58.1553C95.6485 58.999 95.8621 59.9678 95.8673 61.0615V61.585ZM93.0782 61.1084C93.0782 59.9782 92.8881 59.1214 92.5079 58.5381C92.1329 57.9495 91.5938 57.6553 90.8907 57.6553C89.5157 57.6553 88.7891 58.6865 88.711 60.749L88.7032 61.585C88.7032 62.6995 88.8881 63.5563 89.2579 64.1553C89.6277 64.7542 90.1772 65.0537 90.9063 65.0537C91.599 65.0537 92.1329 64.7594 92.5079 64.1709C92.8829 63.5824 93.073 62.736 93.0782 61.6318V61.1084ZM106.484 63.1865C106.448 63.9782 106.234 64.6787 105.844 65.2881C105.453 65.8923 104.904 66.361 104.195 66.6943C103.492 67.0277 102.688 67.1943 101.781 67.1943C100.287 67.1943 99.1095 66.7074 98.2501 65.7334C97.3907 64.7594 96.961 63.3844 96.961 61.6084V61.0459C96.961 59.9313 97.1537 58.9574 97.5391 58.124C97.9298 57.2855 98.4897 56.6396 99.2188 56.1865C99.948 55.7282 100.792 55.499 101.75 55.499C103.13 55.499 104.24 55.8636 105.078 56.5928C105.917 57.3167 106.393 58.3167 106.508 59.5928H103.774C103.753 58.9001 103.578 58.4027 103.25 58.1006C102.922 57.7985 102.422 57.6475 101.75 57.6475C101.068 57.6475 100.568 57.9027 100.25 58.4131C99.9324 58.9235 99.7657 59.7386 99.7501 60.8584V61.6631C99.7501 62.8766 99.9011 63.7438 100.203 64.2646C100.51 64.7855 101.037 65.0459 101.781 65.0459C102.412 65.0459 102.893 64.8975 103.227 64.6006C103.56 64.3037 103.737 63.8324 103.758 63.1865H106.484ZM116.477 57.7803H113.063V67.0381H110.32V57.7803H106.969V55.6631H116.477V57.7803ZM127.055 61.585C127.055 62.6943 126.849 63.6761 126.438 64.5303C126.026 65.3844 125.44 66.0433 124.68 66.5068C123.925 66.9652 123.063 67.1943 122.094 67.1943C121.125 67.1943 120.266 66.973 119.516 66.5303C118.766 66.0824 118.18 65.4443 117.758 64.6162C117.341 63.7881 117.122 62.8376 117.102 61.7646V61.124C117.102 60.0094 117.305 59.0277 117.711 58.1787C118.122 57.3245 118.708 56.6657 119.469 56.2021C120.234 55.7386 121.104 55.5068 122.078 55.5068C123.042 55.5068 123.901 55.736 124.656 56.1943C125.412 56.6527 125.997 57.3063 126.414 58.1553C126.836 58.999 127.05 59.9678 127.055 61.0615V61.585ZM124.266 61.1084C124.266 59.9782 124.076 59.1214 123.695 58.5381C123.32 57.9495 122.781 57.6553 122.078 57.6553C120.703 57.6553 119.977 58.6865 119.899 60.749L119.891 61.585C119.891 62.6995 120.076 63.5563 120.445 64.1553C120.815 64.7542 121.365 65.0537 122.094 65.0537C122.787 65.0537 123.32 64.7594 123.695 64.1709C124.07 63.5824 124.26 62.736 124.266 61.6318V61.1084ZM132.695 63.0225H131.211V67.0381H128.469V55.6631H132.945C134.294 55.6631 135.349 55.9626 136.109 56.5615C136.87 57.1605 137.25 58.0068 137.25 59.1006C137.25 59.8923 137.089 60.5485 136.766 61.0693C136.448 61.5902 135.948 62.012 135.266 62.335L137.641 66.9209V67.0381H134.703L132.695 63.0225ZM131.211 60.9053H132.945C133.466 60.9053 133.857 60.7699 134.117 60.499C134.383 60.223 134.516 59.8402 134.516 59.3506C134.516 58.861 134.383 58.4782 134.117 58.2021C133.852 57.9209 133.461 57.7803 132.945 57.7803H131.211V60.9053ZM138.906 67.0381V55.6631H142.57C143.576 55.6631 144.479 55.8923 145.281 56.3506C146.083 56.8037 146.708 57.4469 147.156 58.2803C147.609 59.1084 147.839 60.0381 147.844 61.0693V61.5928C147.844 62.6344 147.622 63.5693 147.18 64.3975C146.742 65.2204 146.122 65.8662 145.32 66.335C144.524 66.7985 143.633 67.0329 142.649 67.0381H138.906ZM141.649 57.7803V64.9287H142.602C143.388 64.9287 143.992 64.6501 144.414 64.0928C144.836 63.5303 145.047 62.6969 145.047 61.5928V61.1006C145.047 60.0016 144.836 59.1735 144.414 58.6162C143.992 58.0589 143.378 57.7803 142.57 57.7803H141.649ZM152.172 67.0381H149.438V55.6631H152.172V67.0381ZM161.133 62.2178H156.82V64.9287H161.914V67.0381H154.078V55.6631H161.93V57.7803H156.82V60.1787H161.133V62.2178ZM172.117 57.7803H168.703V67.0381H165.961V57.7803H162.609V55.6631H172.117V57.7803ZM70.8399 81.0381H69.7091V73.4326H65.502V81.0381H64.377V72.5068H70.8399V81.0381ZM72.4337 77.8096C72.4337 77.1885 72.5548 76.6299 72.797 76.1338C73.043 75.6377 73.3829 75.2549 73.8165 74.9854C74.254 74.7158 74.752 74.5811 75.3106 74.5811C76.1739 74.5811 76.8712 74.8799 77.4024 75.4775C77.9376 76.0752 78.2052 76.8701 78.2052 77.8623V77.9385C78.2052 78.5557 78.086 79.1104 77.8477 79.6025C77.6134 80.0908 77.2755 80.4717 76.8341 80.7451C76.3966 81.0186 75.8927 81.1553 75.3223 81.1553C74.463 81.1553 73.7657 80.8564 73.2305 80.2588C72.6993 79.6611 72.4337 78.8701 72.4337 77.8857V77.8096ZM73.5235 77.9385C73.5235 78.6416 73.6856 79.2061 74.0098 79.6318C74.338 80.0576 74.7755 80.2705 75.3223 80.2705C75.8731 80.2705 76.3106 80.0557 76.6348 79.626C76.9591 79.1924 77.1212 78.5869 77.1212 77.8096C77.1212 77.1143 76.9552 76.5518 76.6231 76.1221C76.295 75.6885 75.8575 75.4717 75.3106 75.4717C74.7755 75.4717 74.3438 75.6846 74.0157 76.1104C73.6876 76.5361 73.5235 77.1455 73.5235 77.9385ZM84.668 74.6982V81.0381H83.5782V75.5947H81.422L81.293 77.9678C81.2227 79.0576 81.0391 79.8369 80.7423 80.3057C80.4493 80.7744 79.9825 81.0186 79.3419 81.0381H78.9083V80.083L79.2188 80.0596C79.5704 80.0205 79.8223 79.8174 79.9747 79.4502C80.127 79.083 80.2247 78.4033 80.2677 77.4111L80.3848 74.6982H84.668ZM91.588 81.0381H90.504V78.3311H87.5919V81.0381H86.502V74.6982H87.5919V77.4463H90.504V74.6982H91.588V81.0381ZM93.047 77.8096C93.047 77.1885 93.168 76.6299 93.4102 76.1338C93.6563 75.6377 93.9962 75.2549 94.4298 74.9854C94.8673 74.7158 95.3653 74.5811 95.9239 74.5811C96.7872 74.5811 97.4845 74.8799 98.0157 75.4775C98.5509 76.0752 98.8184 76.8701 98.8184 77.8623V77.9385C98.8184 78.5557 98.6993 79.1104 98.461 79.6025C98.2266 80.0908 97.8887 80.4717 97.4473 80.7451C97.0098 81.0186 96.5059 81.1553 95.9356 81.1553C95.0762 81.1553 94.379 80.8564 93.8438 80.2588C93.3126 79.6611 93.047 78.8701 93.047 77.8857V77.8096ZM94.1368 77.9385C94.1368 78.6416 94.2989 79.2061 94.6231 79.6318C94.9512 80.0576 95.3887 80.2705 95.9356 80.2705C96.4864 80.2705 96.9239 80.0557 97.2481 79.626C97.5723 79.1924 97.7345 78.5869 97.7345 77.8096C97.7345 77.1143 97.5684 76.5518 97.2364 76.1221C96.9083 75.6885 96.4708 75.4717 95.9239 75.4717C95.3887 75.4717 94.9571 75.6846 94.629 76.1104C94.3009 76.5361 94.1368 77.1455 94.1368 77.9385ZM100.272 74.6982H101.361V80.1533H104.279V74.6982H105.363V80.1533H106.119L106.014 82.9189H105.041V81.0381H100.272V74.6982ZM109.922 81.1553C109.063 81.1553 108.363 80.874 107.824 80.3115C107.285 79.7451 107.016 78.9893 107.016 78.0439V77.8447C107.016 77.2158 107.135 76.6553 107.373 76.1631C107.615 75.667 107.951 75.2803 108.381 75.0029C108.815 74.7217 109.283 74.5811 109.787 74.5811C110.611 74.5811 111.252 74.8525 111.709 75.3955C112.166 75.9385 112.395 76.7158 112.395 77.7275V78.1787H108.1C108.115 78.8037 108.297 79.3096 108.645 79.6963C108.996 80.0791 109.441 80.2705 109.981 80.2705C110.363 80.2705 110.688 80.1924 110.953 80.0361C111.219 79.8799 111.451 79.6729 111.65 79.415L112.313 79.9307C111.781 80.7471 110.984 81.1553 109.922 81.1553ZM109.787 75.4717C109.35 75.4717 108.982 75.6318 108.686 75.9521C108.389 76.2686 108.205 76.7139 108.135 77.2881H111.311V77.2061C111.279 76.6553 111.131 76.2295 110.865 75.9287C110.6 75.624 110.24 75.4717 109.787 75.4717ZM118.834 81.0381H117.75V78.3311H114.838V81.0381H113.748V74.6982H114.838V77.4463H117.75V74.6982H118.834V81.0381ZM125.76 81.0381H124.676V78.3311H121.764V81.0381H120.674V74.6982H121.764V77.4463H124.676V74.6982H125.76V81.0381ZM131.42 81.0381C131.357 80.9131 131.307 80.6904 131.268 80.3701C130.764 80.8936 130.162 81.1553 129.463 81.1553C128.838 81.1553 128.324 80.9795 127.922 80.6279C127.524 80.2725 127.324 79.8232 127.324 79.2803C127.324 78.6201 127.574 78.1084 128.074 77.7451C128.578 77.3779 129.285 77.1943 130.195 77.1943H131.25V76.6963C131.25 76.3174 131.137 76.0166 130.91 75.7939C130.684 75.5674 130.35 75.4541 129.908 75.4541C129.522 75.4541 129.197 75.5518 128.936 75.7471C128.674 75.9424 128.543 76.1787 128.543 76.4561H127.453C127.453 76.1396 127.565 75.835 127.787 75.542C128.014 75.2451 128.318 75.0107 128.701 74.8389C129.088 74.667 129.512 74.5811 129.973 74.5811C130.703 74.5811 131.275 74.7646 131.69 75.1318C132.104 75.4951 132.318 75.9971 132.334 76.6377V79.5557C132.334 80.1377 132.408 80.6006 132.557 80.9443V81.0381H131.42ZM129.621 80.2119C129.961 80.2119 130.283 80.124 130.588 79.9482C130.893 79.7725 131.113 79.5439 131.25 79.2627V77.9619H130.4C129.072 77.9619 128.408 78.3506 128.408 79.1279C128.408 79.4678 128.522 79.7334 128.748 79.9248C128.975 80.1162 129.266 80.2119 129.621 80.2119ZM138.879 74.6982V81.0381H137.789V78.5713H136.154L134.66 81.0381H133.488L135.082 78.4072C134.676 78.2588 134.363 78.0303 134.145 77.7217C133.93 77.4092 133.822 77.0459 133.822 76.6318C133.822 76.0537 134.039 75.5889 134.473 75.2373C134.906 74.8818 135.486 74.7021 136.213 74.6982H138.879ZM134.912 76.6436C134.912 76.9521 135.018 77.2021 135.229 77.3936C135.44 77.5811 135.719 77.6768 136.066 77.6807H137.789V75.5771H136.231C135.828 75.5771 135.508 75.6768 135.27 75.876C135.031 76.0713 134.912 76.3271 134.912 76.6436ZM147.082 76.4326C147.082 76.1357 146.969 75.9014 146.742 75.7295C146.516 75.5537 146.205 75.4658 145.811 75.4658C145.428 75.4658 145.107 75.5654 144.85 75.7646C144.596 75.9639 144.469 76.1982 144.469 76.4678H143.391C143.391 75.917 143.621 75.4658 144.082 75.1143C144.543 74.7627 145.119 74.5869 145.811 74.5869C146.553 74.5869 147.131 74.7471 147.545 75.0674C147.959 75.3838 148.166 75.8369 148.166 76.4268C148.166 76.7119 148.08 76.9736 147.908 77.2119C147.736 77.4502 147.492 77.6396 147.176 77.7803C147.914 78.0303 148.283 78.5225 148.283 79.2568C148.283 79.8389 148.059 80.2998 147.609 80.6396C147.16 80.9795 146.561 81.1494 145.811 81.1494C145.08 81.1494 144.477 80.9717 144 80.6162C143.527 80.2568 143.291 79.7725 143.291 79.1631H144.369C144.369 79.4717 144.506 79.7373 144.779 79.96C145.057 80.1787 145.4 80.2881 145.811 80.2881C146.225 80.2881 146.559 80.1924 146.813 80.001C147.066 79.8096 147.193 79.5615 147.193 79.2568C147.193 78.9014 147.086 78.6475 146.871 78.4951C146.66 78.3389 146.33 78.2607 145.881 78.2607H144.797V77.3467H145.975C146.713 77.3271 147.082 77.0225 147.082 76.4326ZM153.604 81.0381C153.541 80.9131 153.49 80.6904 153.451 80.3701C152.947 80.8936 152.346 81.1553 151.647 81.1553C151.022 81.1553 150.508 80.9795 150.106 80.6279C149.707 80.2725 149.508 79.8232 149.508 79.2803C149.508 78.6201 149.758 78.1084 150.258 77.7451C150.762 77.3779 151.469 77.1943 152.379 77.1943H153.434V76.6963C153.434 76.3174 153.32 76.0166 153.094 75.7939C152.867 75.5674 152.533 75.4541 152.092 75.4541C151.705 75.4541 151.381 75.5518 151.119 75.7471C150.857 75.9424 150.727 76.1787 150.727 76.4561H149.637C149.637 76.1396 149.748 75.835 149.971 75.542C150.197 75.2451 150.502 75.0107 150.885 74.8389C151.272 74.667 151.695 74.5811 152.156 74.5811C152.887 74.5811 153.459 74.7646 153.873 75.1318C154.287 75.4951 154.502 75.9971 154.518 76.6377V79.5557C154.518 80.1377 154.592 80.6006 154.74 80.9443V81.0381H153.604ZM151.805 80.2119C152.145 80.2119 152.467 80.124 152.772 79.9482C153.076 79.7725 153.297 79.5439 153.434 79.2627V77.9619H152.584C151.256 77.9619 150.592 78.3506 150.592 79.1279C150.592 79.4678 150.705 79.7334 150.932 79.9248C151.158 80.1162 151.449 80.2119 151.805 80.2119ZM159.867 79.6025L162.024 74.6982H163.377V81.0381H162.293V76.4268L160.242 81.0381H159.492L157.4 76.3271V81.0381H156.316V74.6982H157.723L159.867 79.6025ZM167.754 81.1553C166.895 81.1553 166.195 80.874 165.656 80.3115C165.117 79.7451 164.848 78.9893 164.848 78.0439V77.8447C164.848 77.2158 164.967 76.6553 165.205 76.1631C165.447 75.667 165.783 75.2803 166.213 75.0029C166.647 74.7217 167.115 74.5811 167.619 74.5811C168.443 74.5811 169.084 74.8525 169.541 75.3955C169.998 75.9385 170.227 76.7158 170.227 77.7275V78.1787H165.932C165.947 78.8037 166.129 79.3096 166.477 79.6963C166.828 80.0791 167.274 80.2705 167.813 80.2705C168.195 80.2705 168.52 80.1924 168.785 80.0361C169.051 79.8799 169.283 79.6729 169.482 79.415L170.145 79.9307C169.613 80.7471 168.816 81.1553 167.754 81.1553ZM167.619 75.4717C167.182 75.4717 166.815 75.6318 166.518 75.9521C166.221 76.2686 166.037 76.7139 165.967 77.2881H169.143V77.2061C169.111 76.6553 168.963 76.2295 168.697 75.9287C168.432 75.624 168.072 75.4717 167.619 75.4717ZM176.666 81.0381H175.582V78.3311H172.67V81.0381H171.58V74.6982H172.67V77.4463H175.582V74.6982H176.666V81.0381ZM182.326 81.0381C182.264 80.9131 182.213 80.6904 182.174 80.3701C181.67 80.8936 181.068 81.1553 180.369 81.1553C179.744 81.1553 179.231 80.9795 178.828 80.6279C178.43 80.2725 178.231 79.8232 178.231 79.2803C178.231 78.6201 178.481 78.1084 178.981 77.7451C179.484 77.3779 180.191 77.1943 181.102 77.1943H182.156V76.6963C182.156 76.3174 182.043 76.0166 181.816 75.7939C181.59 75.5674 181.256 75.4541 180.815 75.4541C180.428 75.4541 180.104 75.5518 179.842 75.7471C179.58 75.9424 179.449 76.1787 179.449 76.4561H178.359C178.359 76.1396 178.471 75.835 178.693 75.542C178.92 75.2451 179.225 75.0107 179.607 74.8389C179.994 74.667 180.418 74.5811 180.879 74.5811C181.609 74.5811 182.182 74.7646 182.596 75.1318C183.01 75.4951 183.225 75.9971 183.24 76.6377V79.5557C183.24 80.1377 183.315 80.6006 183.463 80.9443V81.0381H182.326ZM180.527 80.2119C180.867 80.2119 181.19 80.124 181.494 79.9482C181.799 79.7725 182.02 79.5439 182.156 79.2627V77.9619H181.307C179.979 77.9619 179.315 78.3506 179.315 79.1279C179.315 79.4678 179.428 79.7334 179.654 79.9248C179.881 80.1162 180.172 80.2119 180.527 80.2119ZM85.1134 91.8096C85.1134 91.1885 85.2345 90.6299 85.4766 90.1338C85.7227 89.6377 86.0626 89.2549 86.4962 88.9854C86.9337 88.7158 87.4317 88.5811 87.9903 88.5811C88.8536 88.5811 89.5509 88.8799 90.0821 89.4775C90.6173 90.0752 90.8848 90.8701 90.8848 91.8623V91.9385C90.8848 92.5557 90.7657 93.1104 90.5274 93.6025C90.293 94.0908 89.9552 94.4717 89.5137 94.7451C89.0762 95.0186 88.5723 95.1553 88.002 95.1553C87.1427 95.1553 86.4454 94.8564 85.9102 94.2588C85.379 93.6611 85.1134 92.8701 85.1134 91.8857V91.8096ZM86.2032 91.9385C86.2032 92.6416 86.3653 93.2061 86.6895 93.6318C87.0177 94.0576 87.4552 94.2705 88.002 94.2705C88.5528 94.2705 88.9903 94.0557 89.3145 93.626C89.6387 93.1924 89.8009 92.5869 89.8009 91.8096C89.8009 91.1143 89.6348 90.5518 89.3028 90.1221C88.9747 89.6885 88.5372 89.4717 87.9903 89.4717C87.4552 89.4717 87.0235 89.6846 86.6954 90.1104C86.3673 90.5361 86.2032 91.1455 86.2032 91.9385ZM95.0274 89.0615C95.8243 89.0615 96.461 89.3291 96.9376 89.8643C97.418 90.3955 97.6583 91.0967 97.6583 91.9678V92.0674C97.6583 92.665 97.543 93.2002 97.3126 93.6729C97.0821 94.1416 96.7501 94.5068 96.3165 94.7686C95.8868 95.0264 95.3907 95.1553 94.8282 95.1553C93.9766 95.1553 93.2911 94.8721 92.7716 94.3057C92.252 93.7354 91.9923 92.9717 91.9923 92.0146V91.4873C91.9923 90.1553 92.2384 89.0967 92.7305 88.3115C93.2266 87.5264 93.9571 87.0479 94.922 86.876C95.4688 86.7783 95.838 86.6592 96.0294 86.5186C96.2208 86.3779 96.3165 86.1846 96.3165 85.9385H97.2071C97.2071 86.4268 97.0958 86.8076 96.8731 87.0811C96.6544 87.3545 96.3028 87.5479 95.8184 87.6611L95.0098 87.8428C94.3653 87.9951 93.8809 88.2529 93.5567 88.6162C93.2364 88.9756 93.0274 89.4561 92.9298 90.0576C93.504 89.3936 94.2032 89.0615 95.0274 89.0615ZM94.8165 89.9521C94.2852 89.9521 93.8634 90.1318 93.5509 90.4912C93.2384 90.8467 93.0821 91.3408 93.0821 91.9736V92.0674C93.0821 92.7471 93.2384 93.2861 93.5509 93.6846C93.8673 94.0791 94.293 94.2764 94.8282 94.2764C95.3673 94.2764 95.793 94.0771 96.1055 93.6787C96.418 93.2803 96.5743 92.6982 96.5743 91.9326C96.5743 91.335 96.4161 90.8564 96.0997 90.4971C95.7872 90.1338 95.3595 89.9521 94.8165 89.9521ZM100.061 90.8838H101.707C102.426 90.8916 102.994 91.0791 103.412 91.4463C103.83 91.8135 104.039 92.3115 104.039 92.9404C104.039 93.5732 103.824 94.0811 103.395 94.4639C102.965 94.8467 102.387 95.0381 101.66 95.0381H98.9766V88.6982H100.061V90.8838ZM106.301 95.0381H105.211V88.6982H106.301V95.0381ZM100.061 91.7686V94.1533H101.672C102.078 94.1533 102.393 94.0498 102.615 93.8428C102.838 93.6318 102.949 93.3447 102.949 92.9814C102.949 92.6299 102.84 92.3428 102.621 92.1201C102.406 91.8936 102.104 91.7764 101.713 91.7686H100.061ZM112.981 95.0381H111.891V92.7412C111.414 92.8662 110.926 92.9287 110.426 92.9287C109.633 92.9287 109.027 92.7256 108.609 92.3193C108.195 91.9131 107.984 91.335 107.977 90.585V88.6924H109.061V90.6201C109.08 91.5654 109.535 92.0381 110.426 92.0381C110.926 92.0381 111.414 91.9756 111.891 91.8506V88.6982H112.981V95.0381ZM119.9 95.0381H118.816V92.3311H115.904V95.0381H114.815V88.6982H115.904V91.4463H118.816V88.6982H119.9V95.0381ZM121.359 91.8096C121.359 91.1885 121.481 90.6299 121.723 90.1338C121.969 89.6377 122.309 89.2549 122.742 88.9854C123.18 88.7158 123.678 88.5811 124.236 88.5811C125.1 88.5811 125.797 88.8799 126.328 89.4775C126.863 90.0752 127.131 90.8701 127.131 91.8623V91.9385C127.131 92.5557 127.012 93.1104 126.774 93.6025C126.539 94.0908 126.201 94.4717 125.76 94.7451C125.322 95.0186 124.818 95.1553 124.248 95.1553C123.389 95.1553 122.691 94.8564 122.156 94.2588C121.625 93.6611 121.359 92.8701 121.359 91.8857V91.8096ZM122.449 91.9385C122.449 92.6416 122.611 93.2061 122.936 93.6318C123.264 94.0576 123.701 94.2705 124.248 94.2705C124.799 94.2705 125.236 94.0557 125.561 93.626C125.885 93.1924 126.047 92.5869 126.047 91.8096C126.047 91.1143 125.881 90.5518 125.549 90.1221C125.221 89.6885 124.783 89.4717 124.236 89.4717C123.701 89.4717 123.27 89.6846 122.941 90.1104C122.613 90.5361 122.449 91.1455 122.449 91.9385ZM132.592 88.6982H133.676V95.0381H132.592V90.415L129.668 95.0381H128.584V88.6982H129.668V93.3271L132.592 88.6982ZM132.885 86.3896C132.885 86.8623 132.723 87.2432 132.399 87.5322C132.078 87.8174 131.656 87.96 131.133 87.96C130.609 87.96 130.186 87.8154 129.861 87.5264C129.537 87.2373 129.375 86.8584 129.375 86.3896H130.26C130.26 86.6631 130.334 86.8779 130.482 87.0342C130.631 87.1865 130.848 87.2627 131.133 87.2627C131.406 87.2627 131.619 87.1865 131.772 87.0342C131.928 86.8818 132.006 86.667 132.006 86.3896H132.885ZM141.024 95.1553C140.164 95.1553 139.465 94.874 138.926 94.3115C138.387 93.7451 138.117 92.9893 138.117 92.0439V91.8447C138.117 91.2158 138.236 90.6553 138.475 90.1631C138.717 89.667 139.053 89.2803 139.482 89.0029C139.916 88.7217 140.385 88.5811 140.889 88.5811C141.713 88.5811 142.354 88.8525 142.811 89.3955C143.268 89.9385 143.496 90.7158 143.496 91.7275V92.1787H139.201C139.217 92.8037 139.399 93.3096 139.746 93.6963C140.098 94.0791 140.543 94.2705 141.082 94.2705C141.465 94.2705 141.789 94.1924 142.055 94.0361C142.32 93.8799 142.553 93.6729 142.752 93.415L143.414 93.9307C142.883 94.7471 142.086 95.1553 141.024 95.1553ZM140.889 89.4717C140.451 89.4717 140.084 89.6318 139.787 89.9521C139.49 90.2686 139.307 90.7139 139.236 91.2881H142.412V91.2061C142.381 90.6553 142.232 90.2295 141.967 89.9287C141.701 89.624 141.342 89.4717 140.889 89.4717ZM144.703 94.1533L145.078 93.6904C145.5 93.1436 145.74 92.3232 145.799 91.2295L145.899 88.6982H149.982V94.1533H150.797V96.9014H149.713V95.0381H145.289V96.9014H144.205L144.211 94.1533H144.703ZM145.986 94.1533H148.899V89.7002H146.947L146.883 91.2119C146.816 92.4736 146.518 93.4541 145.986 94.1533ZM154.629 95.1553C153.77 95.1553 153.07 94.874 152.531 94.3115C151.992 93.7451 151.723 92.9893 151.723 92.0439V91.8447C151.723 91.2158 151.842 90.6553 152.08 90.1631C152.322 89.667 152.658 89.2803 153.088 89.0029C153.522 88.7217 153.99 88.5811 154.494 88.5811C155.318 88.5811 155.959 88.8525 156.416 89.3955C156.873 89.9385 157.102 90.7158 157.102 91.7275V92.1787H152.807C152.822 92.8037 153.004 93.3096 153.352 93.6963C153.703 94.0791 154.149 94.2705 154.688 94.2705C155.07 94.2705 155.395 94.1924 155.66 94.0361C155.926 93.8799 156.158 93.6729 156.357 93.415L157.02 93.9307C156.488 94.7471 155.691 95.1553 154.629 95.1553ZM154.494 89.4717C154.057 89.4717 153.69 89.6318 153.393 89.9521C153.096 90.2686 152.912 90.7139 152.842 91.2881H156.018V91.2061C155.986 90.6553 155.838 90.2295 155.572 89.9287C155.307 89.624 154.947 89.4717 154.494 89.4717ZM158.326 96.7373L157.711 96.3154C158.078 95.8037 158.27 95.2764 158.285 94.7334V93.7549H159.346V94.6045C159.346 94.999 159.248 95.3936 159.053 95.7881C158.861 96.1826 158.619 96.499 158.326 96.7373ZM60.9493 108.271C61.336 108.271 61.6739 108.153 61.963 107.919C62.252 107.685 62.4122 107.392 62.4434 107.04H63.4688C63.4493 107.403 63.3243 107.749 63.0938 108.077C62.8634 108.405 62.5548 108.667 62.168 108.862C61.7852 109.058 61.379 109.155 60.9493 109.155C60.086 109.155 59.3985 108.868 58.8868 108.294C58.379 107.716 58.1251 106.927 58.1251 105.927V105.745C58.1251 105.128 58.2384 104.579 58.4649 104.099C58.6915 103.618 59.0157 103.245 59.4376 102.979C59.8634 102.714 60.3653 102.581 60.9434 102.581C61.6544 102.581 62.2442 102.794 62.713 103.22C63.1856 103.646 63.4376 104.198 63.4688 104.878H62.4434C62.4122 104.468 62.2559 104.132 61.9747 103.87C61.6973 103.604 61.3536 103.472 60.9434 103.472C60.3927 103.472 59.9649 103.671 59.6602 104.069C59.3595 104.464 59.2091 105.036 59.2091 105.786V105.991C59.2091 106.722 59.3595 107.284 59.6602 107.679C59.961 108.073 60.3907 108.271 60.9493 108.271ZM72.8438 109.038H71.7598V106.331H68.8477V109.038H67.7579V102.698H68.8477V105.446H71.7598V102.698H72.8438V109.038ZM78.6915 102.698H79.7755V109.038H78.6915V104.415L75.7677 109.038H74.6837V102.698H75.7677V107.327L78.6915 102.698ZM85.002 104.433C85.002 104.136 84.8887 103.901 84.6622 103.729C84.4356 103.554 84.1251 103.466 83.7305 103.466C83.3477 103.466 83.0274 103.565 82.7696 103.765C82.5157 103.964 82.3887 104.198 82.3887 104.468H81.3106C81.3106 103.917 81.5411 103.466 82.002 103.114C82.463 102.763 83.0391 102.587 83.7305 102.587C84.4727 102.587 85.0509 102.747 85.4649 103.067C85.879 103.384 86.086 103.837 86.086 104.427C86.086 104.712 86.0001 104.974 85.8282 105.212C85.6563 105.45 85.4122 105.64 85.0958 105.78C85.8341 106.03 86.2032 106.522 86.2032 107.257C86.2032 107.839 85.9786 108.3 85.5294 108.64C85.0802 108.979 84.4805 109.149 83.7305 109.149C83.0001 109.149 82.3966 108.972 81.92 108.616C81.4473 108.257 81.211 107.772 81.211 107.163H82.2891C82.2891 107.472 82.4259 107.737 82.6993 107.96C82.9766 108.179 83.3204 108.288 83.7305 108.288C84.1446 108.288 84.4786 108.192 84.7325 108.001C84.9864 107.81 85.1134 107.562 85.1134 107.257C85.1134 106.901 85.0059 106.647 84.7911 106.495C84.5802 106.339 84.2501 106.261 83.8009 106.261H82.7169V105.347H83.8946C84.6329 105.327 85.002 105.022 85.002 104.433ZM89.5841 106.337H88.793V109.038H87.7032V102.698H88.793V105.382H89.502L91.6348 102.698H92.9473L90.4395 105.745L93.1583 109.038H91.7813L89.5841 106.337ZM98.1915 102.698H99.2755V109.038H98.1915V104.415L95.2677 109.038H94.1837V102.698H95.2677V107.327L98.1915 102.698ZM104.666 107.603L106.822 102.698H108.176V109.038H107.092V104.427L105.041 109.038H104.291L102.199 104.327V109.038H101.115V102.698H102.522L104.666 107.603ZM115.441 108.271C115.828 108.271 116.166 108.153 116.455 107.919C116.744 107.685 116.904 107.392 116.936 107.04H117.961C117.941 107.403 117.816 107.749 117.586 108.077C117.356 108.405 117.047 108.667 116.66 108.862C116.277 109.058 115.871 109.155 115.441 109.155C114.578 109.155 113.891 108.868 113.379 108.294C112.871 107.716 112.617 106.927 112.617 105.927V105.745C112.617 105.128 112.731 104.579 112.957 104.099C113.184 103.618 113.508 103.245 113.93 102.979C114.356 102.714 114.857 102.581 115.436 102.581C116.147 102.581 116.736 102.794 117.205 103.22C117.678 103.646 117.93 104.198 117.961 104.878H116.936C116.904 104.468 116.748 104.132 116.467 103.87C116.19 103.604 115.846 103.472 115.436 103.472C114.885 103.472 114.457 103.671 114.152 104.069C113.852 104.464 113.701 105.036 113.701 105.786V105.991C113.701 106.722 113.852 107.284 114.152 107.679C114.453 108.073 114.883 108.271 115.441 108.271ZM118.893 105.81C118.893 105.188 119.014 104.63 119.256 104.134C119.502 103.638 119.842 103.255 120.275 102.985C120.713 102.716 121.211 102.581 121.77 102.581C122.633 102.581 123.33 102.88 123.861 103.478C124.397 104.075 124.664 104.87 124.664 105.862V105.938C124.664 106.556 124.545 107.11 124.307 107.603C124.072 108.091 123.734 108.472 123.293 108.745C122.856 109.019 122.352 109.155 121.781 109.155C120.922 109.155 120.225 108.856 119.69 108.259C119.158 107.661 118.893 106.87 118.893 105.886V105.81ZM119.982 105.938C119.982 106.642 120.145 107.206 120.469 107.632C120.797 108.058 121.234 108.271 121.781 108.271C122.332 108.271 122.77 108.056 123.094 107.626C123.418 107.192 123.58 106.587 123.58 105.81C123.58 105.114 123.414 104.552 123.082 104.122C122.754 103.688 122.316 103.472 121.77 103.472C121.234 103.472 120.803 103.685 120.475 104.11C120.147 104.536 119.982 105.146 119.982 105.938ZM125.549 108.153L125.924 107.69C126.346 107.144 126.586 106.323 126.645 105.229L126.744 102.698H130.828V108.153H131.643V110.901H130.559V109.038H126.135V110.901H125.051L125.057 108.153H125.549ZM126.832 108.153H129.744V103.7H127.793L127.729 105.212C127.662 106.474 127.363 107.454 126.832 108.153ZM135.475 109.155C134.615 109.155 133.916 108.874 133.377 108.312C132.838 107.745 132.568 106.989 132.568 106.044V105.845C132.568 105.216 132.688 104.655 132.926 104.163C133.168 103.667 133.504 103.28 133.934 103.003C134.367 102.722 134.836 102.581 135.34 102.581C136.164 102.581 136.805 102.853 137.262 103.396C137.719 103.938 137.947 104.716 137.947 105.728V106.179H133.652C133.668 106.804 133.85 107.31 134.197 107.696C134.549 108.079 134.994 108.271 135.533 108.271C135.916 108.271 136.24 108.192 136.506 108.036C136.772 107.88 137.004 107.673 137.203 107.415L137.865 107.931C137.334 108.747 136.537 109.155 135.475 109.155ZM135.34 103.472C134.902 103.472 134.535 103.632 134.238 103.952C133.941 104.269 133.758 104.714 133.688 105.288H136.863V105.206C136.832 104.655 136.684 104.229 136.418 103.929C136.152 103.624 135.793 103.472 135.34 103.472ZM144.563 105.938C144.563 106.903 144.342 107.681 143.9 108.271C143.459 108.86 142.861 109.155 142.107 109.155C141.338 109.155 140.732 108.911 140.291 108.423V111.476H139.207V102.698H140.197L140.25 103.401C140.691 102.854 141.305 102.581 142.09 102.581C142.852 102.581 143.453 102.868 143.895 103.442C144.34 104.017 144.563 104.815 144.563 105.839V105.938ZM143.479 105.815C143.479 105.101 143.326 104.536 143.022 104.122C142.717 103.708 142.299 103.501 141.768 103.501C141.111 103.501 140.619 103.792 140.291 104.374V107.403C140.615 107.981 141.111 108.271 141.779 108.271C142.299 108.271 142.711 108.065 143.016 107.655C143.324 107.241 143.479 106.628 143.479 105.815ZM150.908 106.284H150.147V109.038H149.063V106.284H148.301L146.525 109.038H145.154L147.422 105.757L145.371 102.698H146.684L148.318 105.323H149.063V102.698H150.147V105.323H150.885L152.531 102.698H153.844L151.787 105.763L154.055 109.038H152.684L150.908 106.284ZM158.953 109.038C158.891 108.913 158.84 108.69 158.801 108.37C158.297 108.894 157.695 109.155 156.996 109.155C156.371 109.155 155.857 108.979 155.455 108.628C155.057 108.272 154.857 107.823 154.857 107.28C154.857 106.62 155.107 106.108 155.607 105.745C156.111 105.378 156.818 105.194 157.729 105.194H158.783V104.696C158.783 104.317 158.67 104.017 158.443 103.794C158.217 103.567 157.883 103.454 157.441 103.454C157.055 103.454 156.731 103.552 156.469 103.747C156.207 103.942 156.076 104.179 156.076 104.456H154.986C154.986 104.14 155.098 103.835 155.32 103.542C155.547 103.245 155.852 103.011 156.234 102.839C156.621 102.667 157.045 102.581 157.506 102.581C158.236 102.581 158.809 102.765 159.223 103.132C159.637 103.495 159.852 103.997 159.867 104.638V107.556C159.867 108.138 159.941 108.601 160.09 108.944V109.038H158.953ZM157.154 108.212C157.494 108.212 157.816 108.124 158.121 107.948C158.426 107.772 158.647 107.544 158.783 107.263V105.962H157.934C156.606 105.962 155.941 106.351 155.941 107.128C155.941 107.468 156.055 107.733 156.281 107.925C156.508 108.116 156.799 108.212 157.154 108.212ZM166.746 109.038H165.662V106.331H162.75V109.038H161.66V102.698H162.75V105.446H165.662V102.698H166.746V109.038ZM172.594 102.698H173.678V109.038H172.594V104.415L169.67 109.038H168.586V102.698H169.67V107.327L172.594 102.698ZM178.049 109.155C177.19 109.155 176.49 108.874 175.951 108.312C175.412 107.745 175.143 106.989 175.143 106.044V105.845C175.143 105.216 175.262 104.655 175.5 104.163C175.742 103.667 176.078 103.28 176.508 103.003C176.941 102.722 177.41 102.581 177.914 102.581C178.738 102.581 179.379 102.853 179.836 103.396C180.293 103.938 180.522 104.716 180.522 105.728V106.179H176.227C176.242 106.804 176.424 107.31 176.772 107.696C177.123 108.079 177.568 108.271 178.107 108.271C178.49 108.271 178.815 108.192 179.08 108.036C179.346 107.88 179.578 107.673 179.777 107.415L180.44 107.931C179.908 108.747 179.111 109.155 178.049 109.155ZM177.914 103.472C177.477 103.472 177.109 103.632 176.813 103.952C176.516 104.269 176.332 104.714 176.262 105.288H179.438V105.206C179.406 104.655 179.258 104.229 178.992 103.929C178.727 103.624 178.367 103.472 177.914 103.472ZM185.432 107.603L187.588 102.698H188.941V109.038H187.857V104.427L185.807 109.038H185.057L182.965 104.327V109.038H181.881V102.698H183.287L185.432 107.603ZM69.586 121.45L71.0626 116.698H72.2227L69.6739 124.017C69.2794 125.071 68.6524 125.599 67.793 125.599L67.588 125.581L67.1837 125.505V124.626L67.4766 124.649C67.8438 124.649 68.129 124.575 68.3321 124.427C68.5391 124.278 68.7091 124.007 68.8419 123.612L69.0821 122.968L66.8204 116.698H68.004L69.586 121.45ZM77.2911 117.595H74.3673V123.038H73.2774V116.698H77.2911V117.595ZM83.1973 116.698V123.038H82.1075V117.595H79.9512L79.8223 119.968C79.752 121.058 79.5684 121.837 79.2716 122.306C78.9786 122.774 78.5118 123.019 77.8712 123.038H77.4376V122.083L77.7481 122.06C78.0997 122.021 78.3516 121.817 78.504 121.45C78.6563 121.083 78.754 120.403 78.797 119.411L78.9141 116.698H83.1973ZM87.5684 123.155C86.7091 123.155 86.0098 122.874 85.4708 122.312C84.9317 121.745 84.6622 120.989 84.6622 120.044V119.845C84.6622 119.216 84.7813 118.655 85.0196 118.163C85.2618 117.667 85.5977 117.28 86.0274 117.003C86.461 116.722 86.9298 116.581 87.4337 116.581C88.2579 116.581 88.8985 116.853 89.3555 117.396C89.8126 117.938 90.0411 118.716 90.0411 119.728V120.179H85.7462C85.7618 120.804 85.9434 121.31 86.2911 121.696C86.6427 122.079 87.088 122.271 87.627 122.271C88.0098 122.271 88.3341 122.192 88.5997 122.036C88.8653 121.88 89.0977 121.673 89.297 121.415L89.9591 121.931C89.4278 122.747 88.6309 123.155 87.5684 123.155ZM87.4337 117.472C86.9962 117.472 86.629 117.632 86.3321 117.952C86.0352 118.269 85.8516 118.714 85.7813 119.288H88.9571V119.206C88.9259 118.655 88.7774 118.229 88.5118 117.929C88.2462 117.624 87.8868 117.472 87.4337 117.472ZM91.4005 123.038V116.698H93.8731C94.7169 116.698 95.3634 116.847 95.8126 117.144C96.2657 117.437 96.4923 117.868 96.4923 118.438C96.4923 118.731 96.4044 118.997 96.2286 119.235C96.0528 119.47 95.793 119.649 95.4493 119.774C95.8321 119.864 96.1387 120.04 96.3692 120.302C96.6036 120.563 96.7208 120.876 96.7208 121.239C96.7208 121.821 96.5059 122.267 96.0762 122.575C95.6505 122.884 95.047 123.038 94.2657 123.038H91.4005ZM92.4845 120.255V122.165H94.2774C94.7305 122.165 95.0684 122.081 95.2911 121.913C95.5177 121.745 95.6309 121.509 95.6309 121.204C95.6309 120.571 95.1661 120.255 94.2364 120.255H92.4845ZM92.4845 119.388H93.8848C94.9005 119.388 95.4083 119.091 95.4083 118.497C95.4083 117.903 94.9278 117.597 93.9669 117.577H92.4845V119.388ZM97.8692 119.81C97.8692 119.188 97.9903 118.63 98.2325 118.134C98.4786 117.638 98.8184 117.255 99.252 116.985C99.6895 116.716 100.188 116.581 100.746 116.581C101.609 116.581 102.307 116.88 102.838 117.478C103.373 118.075 103.641 118.87 103.641 119.862V119.938C103.641 120.556 103.522 121.11 103.283 121.603C103.049 122.091 102.711 122.472 102.27 122.745C101.832 123.019 101.328 123.155 100.758 123.155C99.8985 123.155 99.2012 122.856 98.6661 122.259C98.1348 121.661 97.8692 120.87 97.8692 119.886V119.81ZM98.9591 119.938C98.9591 120.642 99.1212 121.206 99.4454 121.632C99.7735 122.058 100.211 122.271 100.758 122.271C101.309 122.271 101.746 122.056 102.07 121.626C102.395 121.192 102.557 120.587 102.557 119.81C102.557 119.114 102.391 118.552 102.059 118.122C101.731 117.688 101.293 117.472 100.746 117.472C100.211 117.472 99.7794 117.685 99.4512 118.11C99.1231 118.536 98.9591 119.146 98.9591 119.938ZM104.525 122.153L104.9 121.69C105.322 121.144 105.563 120.323 105.621 119.229L105.721 116.698H109.805V122.153H110.619V124.901H109.535V123.038H105.111V124.901H104.027L104.033 122.153H104.525ZM105.809 122.153H108.721V117.7H106.77L106.705 119.212C106.639 120.474 106.34 121.454 105.809 122.153ZM111.533 119.81C111.533 119.188 111.654 118.63 111.897 118.134C112.143 117.638 112.482 117.255 112.916 116.985C113.354 116.716 113.852 116.581 114.41 116.581C115.274 116.581 115.971 116.88 116.502 117.478C117.037 118.075 117.305 118.87 117.305 119.862V119.938C117.305 120.556 117.186 121.11 116.947 121.603C116.713 122.091 116.375 122.472 115.934 122.745C115.496 123.019 114.992 123.155 114.422 123.155C113.563 123.155 112.865 122.856 112.33 122.259C111.799 121.661 111.533 120.87 111.533 119.886V119.81ZM112.623 119.938C112.623 120.642 112.785 121.206 113.109 121.632C113.438 122.058 113.875 122.271 114.422 122.271C114.973 122.271 115.41 122.056 115.734 121.626C116.059 121.192 116.221 120.587 116.221 119.81C116.221 119.114 116.055 118.552 115.723 118.122C115.395 117.688 114.957 117.472 114.41 117.472C113.875 117.472 113.443 117.685 113.115 118.11C112.787 118.536 112.623 119.146 112.623 119.938ZM118.764 123.038V116.698H121.236C122.08 116.698 122.727 116.847 123.176 117.144C123.629 117.437 123.856 117.868 123.856 118.438C123.856 118.731 123.768 118.997 123.592 119.235C123.416 119.47 123.156 119.649 122.813 119.774C123.195 119.864 123.502 120.04 123.732 120.302C123.967 120.563 124.084 120.876 124.084 121.239C124.084 121.821 123.869 122.267 123.44 122.575C123.014 122.884 122.41 123.038 121.629 123.038H118.764ZM119.848 120.255V122.165H121.641C122.094 122.165 122.432 122.081 122.654 121.913C122.881 121.745 122.994 121.509 122.994 121.204C122.994 120.571 122.529 120.255 121.6 120.255H119.848ZM119.848 119.388H121.248C122.264 119.388 122.772 119.091 122.772 118.497C122.772 117.903 122.291 117.597 121.33 117.577H119.848V119.388ZM132.598 116.698H133.682V123.038H132.598V118.415L129.674 123.038H128.59V116.698H129.674V121.327L132.598 116.698ZM143.578 123.038H142.494V120.331H139.582V123.038H138.492V116.698H139.582V119.446H142.494V116.698H143.578V123.038ZM145.037 119.81C145.037 119.188 145.158 118.63 145.4 118.134C145.647 117.638 145.986 117.255 146.42 116.985C146.857 116.716 147.356 116.581 147.914 116.581C148.777 116.581 149.475 116.88 150.006 117.478C150.541 118.075 150.809 118.87 150.809 119.862V119.938C150.809 120.556 150.69 121.11 150.451 121.603C150.217 122.091 149.879 122.472 149.438 122.745C149 123.019 148.496 123.155 147.926 123.155C147.066 123.155 146.369 122.856 145.834 122.259C145.303 121.661 145.037 120.87 145.037 119.886V119.81ZM146.127 119.938C146.127 120.642 146.289 121.206 146.613 121.632C146.941 122.058 147.379 122.271 147.926 122.271C148.477 122.271 148.914 122.056 149.238 121.626C149.563 121.192 149.725 120.587 149.725 119.81C149.725 119.114 149.559 118.552 149.227 118.122C148.899 117.688 148.461 117.472 147.914 117.472C147.379 117.472 146.947 117.685 146.619 118.11C146.291 118.536 146.127 119.146 146.127 119.938ZM157.524 119.938C157.524 120.903 157.303 121.681 156.861 122.271C156.42 122.86 155.822 123.155 155.068 123.155C154.299 123.155 153.693 122.911 153.252 122.423V125.476H152.168V116.698H153.158L153.211 117.401C153.652 116.854 154.266 116.581 155.051 116.581C155.813 116.581 156.414 116.868 156.856 117.442C157.301 118.017 157.524 118.815 157.524 119.839V119.938ZM156.44 119.815C156.44 119.101 156.287 118.536 155.982 118.122C155.678 117.708 155.26 117.501 154.729 117.501C154.072 117.501 153.58 117.792 153.252 118.374V121.403C153.576 121.981 154.072 122.271 154.74 122.271C155.26 122.271 155.672 122.065 155.977 121.655C156.285 121.241 156.44 120.628 156.44 119.815ZM162.557 121.603L164.713 116.698H166.066V123.038H164.982V118.427L162.932 123.038H162.182L160.09 118.327V123.038H159.006V116.698H160.412L162.557 121.603ZM167.525 119.81C167.525 119.188 167.647 118.63 167.889 118.134C168.135 117.638 168.475 117.255 168.908 116.985C169.346 116.716 169.844 116.581 170.402 116.581C171.266 116.581 171.963 116.88 172.494 117.478C173.029 118.075 173.297 118.87 173.297 119.862V119.938C173.297 120.556 173.178 121.11 172.94 121.603C172.705 122.091 172.367 122.472 171.926 122.745C171.488 123.019 170.984 123.155 170.414 123.155C169.555 123.155 168.857 122.856 168.322 122.259C167.791 121.661 167.525 120.87 167.525 119.886V119.81ZM168.615 119.938C168.615 120.642 168.777 121.206 169.102 121.632C169.43 122.058 169.867 122.271 170.414 122.271C170.965 122.271 171.402 122.056 171.727 121.626C172.051 121.192 172.213 120.587 172.213 119.81C172.213 119.114 172.047 118.552 171.715 118.122C171.387 117.688 170.949 117.472 170.402 117.472C169.867 117.472 169.436 117.685 169.107 118.11C168.779 118.536 168.615 119.146 168.615 119.938ZM178.758 116.698H179.842V123.038H178.758V118.415L175.834 123.038H174.75V116.698H175.834V121.327L178.758 116.698ZM179.051 114.39C179.051 114.862 178.889 115.243 178.565 115.532C178.244 115.817 177.822 115.96 177.299 115.96C176.775 115.96 176.352 115.815 176.027 115.526C175.703 115.237 175.541 114.858 175.541 114.39H176.426C176.426 114.663 176.5 114.878 176.649 115.034C176.797 115.187 177.014 115.263 177.299 115.263C177.572 115.263 177.785 115.187 177.938 115.034C178.094 114.882 178.172 114.667 178.172 114.39H179.051ZM109.277 131.062C110.074 131.062 110.711 131.329 111.188 131.864C111.668 132.396 111.908 133.097 111.908 133.968V134.067C111.908 134.665 111.793 135.2 111.563 135.673C111.332 136.142 111 136.507 110.566 136.769C110.137 137.026 109.641 137.155 109.078 137.155C108.227 137.155 107.541 136.872 107.022 136.306C106.502 135.735 106.242 134.972 106.242 134.015V133.487C106.242 132.155 106.488 131.097 106.981 130.312C107.477 129.526 108.207 129.048 109.172 128.876C109.719 128.778 110.088 128.659 110.279 128.519C110.471 128.378 110.566 128.185 110.566 127.938H111.457C111.457 128.427 111.346 128.808 111.123 129.081C110.904 129.354 110.553 129.548 110.068 129.661L109.26 129.843C108.615 129.995 108.131 130.253 107.807 130.616C107.486 130.976 107.277 131.456 107.18 132.058C107.754 131.394 108.453 131.062 109.277 131.062ZM109.066 131.952C108.535 131.952 108.113 132.132 107.801 132.491C107.488 132.847 107.332 133.341 107.332 133.974V134.067C107.332 134.747 107.488 135.286 107.801 135.685C108.117 136.079 108.543 136.276 109.078 136.276C109.617 136.276 110.043 136.077 110.356 135.679C110.668 135.28 110.824 134.698 110.824 133.933C110.824 133.335 110.666 132.856 110.35 132.497C110.037 132.134 109.609 131.952 109.066 131.952ZM115.758 137.155C114.899 137.155 114.199 136.874 113.66 136.312C113.121 135.745 112.852 134.989 112.852 134.044V133.845C112.852 133.216 112.971 132.655 113.209 132.163C113.451 131.667 113.787 131.28 114.217 131.003C114.65 130.722 115.119 130.581 115.623 130.581C116.447 130.581 117.088 130.853 117.545 131.396C118.002 131.938 118.231 132.716 118.231 133.728V134.179H113.936C113.951 134.804 114.133 135.31 114.481 135.696C114.832 136.079 115.277 136.271 115.816 136.271C116.199 136.271 116.524 136.192 116.789 136.036C117.055 135.88 117.287 135.673 117.486 135.415L118.149 135.931C117.617 136.747 116.82 137.155 115.758 137.155ZM115.623 131.472C115.186 131.472 114.818 131.632 114.522 131.952C114.225 132.269 114.041 132.714 113.971 133.288H117.147V133.206C117.115 132.655 116.967 132.229 116.701 131.929C116.436 131.624 116.076 131.472 115.623 131.472ZM124.688 130.698V137.038H123.598V131.595H121.441L121.313 133.968C121.242 135.058 121.059 135.837 120.762 136.306C120.469 136.774 120.002 137.019 119.361 137.038H118.928V136.083L119.238 136.06C119.59 136.021 119.842 135.817 119.994 135.45C120.147 135.083 120.244 134.403 120.287 133.411L120.404 130.698H124.688ZM128.402 134.337H127.611V137.038H126.522V130.698H127.611V133.382H128.32L130.453 130.698H131.766L129.258 133.745L131.977 137.038H130.6L128.402 134.337ZM136.822 137.038C136.76 136.913 136.709 136.69 136.67 136.37C136.166 136.894 135.565 137.155 134.865 137.155C134.24 137.155 133.727 136.979 133.324 136.628C132.926 136.272 132.727 135.823 132.727 135.28C132.727 134.62 132.977 134.108 133.477 133.745C133.981 133.378 134.688 133.194 135.598 133.194H136.652V132.696C136.652 132.317 136.539 132.017 136.313 131.794C136.086 131.567 135.752 131.454 135.311 131.454C134.924 131.454 134.6 131.552 134.338 131.747C134.076 131.942 133.945 132.179 133.945 132.456H132.856C132.856 132.14 132.967 131.835 133.19 131.542C133.416 131.245 133.721 131.011 134.104 130.839C134.49 130.667 134.914 130.581 135.375 130.581C136.106 130.581 136.678 130.765 137.092 131.132C137.506 131.495 137.721 131.997 137.736 132.638V135.556C137.736 136.138 137.811 136.601 137.959 136.944V137.038H136.822ZM135.024 136.212C135.363 136.212 135.686 136.124 135.99 135.948C136.295 135.772 136.516 135.544 136.652 135.263V133.962H135.803C134.475 133.962 133.811 134.351 133.811 135.128C133.811 135.468 133.924 135.733 134.15 135.925C134.377 136.116 134.668 136.212 135.024 136.212ZM139.459 136.47C139.459 136.282 139.514 136.126 139.623 136.001C139.736 135.876 139.904 135.813 140.127 135.813C140.35 135.813 140.518 135.876 140.631 136.001C140.748 136.126 140.807 136.282 140.807 136.47C140.807 136.649 140.748 136.8 140.631 136.921C140.518 137.042 140.35 137.103 140.127 137.103C139.904 137.103 139.736 137.042 139.623 136.921C139.514 136.8 139.459 136.649 139.459 136.47Z" fill="white"/>
<defs>
<linearGradient id="paint0_linear" x1="104.385" y1="136.408" x2="104.961" y2="86.8324" gradientUnits="userSpaceOnUse">
<stop stop-color="#FF0000"/>
<stop offset="1" stop-color="#FF7A00"/>
</linearGradient>
<linearGradient id="paint1_linear" x1="141.757" y1="0.0781226" x2="25.9771" y2="21.8513" gradientUnits="userSpaceOnUse">
<stop stop-color="#6CB71D"/>
<stop offset="1" stop-color="#208318"/>
</linearGradient>
<linearGradient id="paint2_linear" x1="140.969" y1="4.12842" x2="30.2601" y2="24.9514" gradientUnits="userSpaceOnUse">
<stop stop-color="#6CB71D"/>
<stop offset="1" stop-color="#208318"/>
</linearGradient>
<linearGradient id="paint3_linear" x1="107.932" y1="119.038" x2="108.556" y2="72.3347" gradientUnits="userSpaceOnUse">
<stop stop-color="#FF0000"/>
<stop offset="1" stop-color="#FF7A00"/>
</linearGradient>
<linearGradient id="paint4_linear" x1="137.217" y1="23.998" x2="51.2703" y2="40.1608" gradientUnits="userSpaceOnUse">
<stop stop-color="#6CB71D"/>
<stop offset="1" stop-color="#208318"/>
</linearGradient>
</defs>
</svg>
