<svg width="43" height="35" viewBox="0 0 43 35" fill="none" xmlns="http://www.w3.org/2000/svg">
<path d="M36.9692 1.23136L11.9957 26.2047L5.90441 20.124C5.29329 19.5129 4.46426 19.1695 3.6 19.1695C2.73573 19.1695 1.90723 19.5129 1.2961 20.124C0.684975 20.7352 0.341309 21.5639 0.341309 22.4282C0.341309 23.2925 0.684975 24.1212 1.2961 24.7324L9.68087 33.1281C9.98332 33.4329 10.3429 33.6748 10.7393 33.8399C11.1357 34.0049 11.5611 34.0899 11.9905 34.0899C12.4199 34.0899 12.8448 34.0049 13.2411 33.8399C13.6375 33.6748 13.9977 33.4329 14.3001 33.1281L41.588 5.83968C42.1652 5.22042 42.4795 4.40124 42.4641 3.55479C42.4488 2.70835 42.1055 1.90092 41.5062 1.30299C40.9069 0.705051 40.0983 0.3634 39.2518 0.350018C38.4053 0.336635 37.5872 0.652673 36.9692 1.23136Z" fill="url(#paint0_linear)"/>
<defs>
<linearGradient id="paint0_linear" x1="25.4099" y1="0.349609" x2="-0.366919" y2="6.40151" gradientUnits="userSpaceOnUse">
<stop stop-color="#6CB71D"/>
<stop offset="1" stop-color="#208318"/>
</linearGradient>
</defs>
</svg>
