<svg width="66" height="66" viewBox="0 0 66 66" fill="none" xmlns="http://www.w3.org/2000/svg">
<path fill-rule="evenodd" clip-rule="evenodd" d="M32.9403 0.479524C28.6601 0.473532 24.421 1.31297 20.4667 2.94947C16.5124 4.58597 12.9209 6.98726 9.89878 10.0153C3.79933 16.1192 0.373535 24.3918 0.373535 33.0168C0.373535 41.6418 3.79933 49.9143 9.89878 56.0182C13.6874 59.7842 18.3463 62.5598 23.4638 64.0993C28.5812 65.6388 33.9996 65.8949 39.2397 64.845C44.4798 63.7951 49.3803 61.4715 53.5079 58.0797C57.6354 54.6879 60.8629 50.3322 62.9051 45.3979C64.9472 40.4636 65.7411 35.1027 65.2164 29.789C64.6917 24.4753 62.8648 19.3727 59.897 14.9321C56.9292 10.4916 52.912 6.85 48.2006 4.32927C43.4892 1.80854 38.2288 0.486276 32.8843 0.479524H32.9403ZM36.6687 19.309L23.2278 32.7374C23.1725 32.8201 23.143 32.9174 23.143 33.0168C23.143 33.1163 23.1725 33.2134 23.2278 33.2961L36.6687 46.7245C36.7551 46.7791 36.8554 46.8082 36.9577 46.8082C37.06 46.8082 37.1602 46.7791 37.2466 46.7245L40.2293 43.7446L29.6593 33.2961C29.604 33.2134 29.5745 33.1163 29.5745 33.0168C29.5745 32.9174 29.604 32.8201 29.6593 32.7374L40.2293 22.289L37.2466 19.309C37.1602 19.2544 37.06 19.2254 36.9577 19.2254C36.8554 19.2254 36.7551 19.2544 36.6687 19.309Z" fill="#BEBEBE"/>
</svg>
