<svg width="21" height="49" viewBox="0 0 21 49" fill="none" xmlns="http://www.w3.org/2000/svg">
<path d="M6.77388 15.6919H3.33024C2.54552 15.6907 1.79328 15.3785 1.2384 14.8236C0.683516 14.2687 0.371275 13.5164 0.370117 12.7317V0.423035H1.90159V12.7339C1.90275 13.1123 2.05371 13.4747 2.32145 13.7421C2.58918 14.0094 2.9519 14.1598 3.33024 14.1604H6.77388C7.1526 14.1598 7.51565 14.0091 7.78345 13.7413C8.05125 13.4735 8.20195 13.1104 8.20252 12.7317V0.423035H9.734V12.7339C9.73226 13.5182 9.41977 14.2699 8.86495 14.8243C8.31014 15.3788 7.55822 15.6907 6.77388 15.6919V15.6919Z" fill="white"/>
<path d="M4.48314 0.421509H2.95166V14.929H4.48314V0.421509Z" fill="white"/>
<path d="M7.15233 0.421509H5.62085V14.929H7.15233V0.421509Z" fill="white"/>
<path d="M5.81785 14.9266H4.28638V48.4419H5.81785V14.9266Z" fill="white"/>
<path d="M20.1131 48.4574H16.0569V24.376C15.6193 22.9167 11.6528 9.43314 14.416 3.37287C15.5493 0.889691 16.9714 0.375549 17.9668 0.375549C18.642 0.382624 19.297 0.606588 19.8352 1.01439L20.1131 1.23317V48.4574ZM17.5511 46.9631H18.6188V2.01204C18.4129 1.91677 18.1893 1.86607 17.9624 1.86327C16.956 1.86327 16.2122 3.02281 15.7746 3.9964C13.1492 9.75256 17.4724 23.9056 17.5249 24.0434L17.5577 24.1528L17.5511 46.9631Z" fill="white"/>
</svg>
