<svg width="72" height="72" viewBox="0 0 72 72" fill="none" xmlns="http://www.w3.org/2000/svg">
<path d="M14.2018 47.3096C14.1686 47.2431 14.1258 47.1766 14.0878 47.1149L13.7839 47.2574L14.1021 47.1054C13.8124 46.6305 13.4325 46.0036 13.1238 45.3863C13.1238 45.2153 13.1238 45.0396 13.157 44.8781C13.1685 44.7483 13.1972 44.6205 13.2425 44.4982C13.3311 44.2865 13.4056 44.0691 13.4657 43.8476C14.1145 43.6959 14.7254 43.4131 15.2608 43.0166C15.5258 42.8333 15.728 42.573 15.8402 42.271C15.9019 42.1333 15.9589 41.9813 16.0349 41.7961C16.1177 41.6062 16.2162 41.4235 16.3293 41.25C16.4575 41.0505 16.5905 40.8511 16.7045 40.6469C16.7662 40.5424 16.8232 40.4427 16.8755 40.3429C16.9277 40.2432 16.9324 40.2385 16.9562 40.1862L17.0274 40.039C17.0723 39.9399 17.112 39.8384 17.1461 39.7351C17.1841 39.6395 17.2143 39.5411 17.2364 39.4406C17.2364 39.3884 17.2364 39.3409 17.2696 39.2934C17.3029 39.2459 17.2696 39.1984 17.2696 39.1509C17.2791 39.0562 17.2791 38.9608 17.2696 38.866C17.2569 38.7065 17.2347 38.548 17.2031 38.3911C17.1836 38.2916 17.1583 38.1932 17.1271 38.0967C17.1079 38.044 17.0841 37.9932 17.0559 37.9447C17.048 37.9295 17.0385 37.9151 17.0274 37.902L16.9704 37.9685C16.9324 38.0112 16.8755 38.0729 16.8042 38.1394C16.6063 38.324 16.3782 38.4734 16.1299 38.5811C15.8137 38.7365 15.5145 38.9243 15.2371 39.1415C14.9189 39.3552 14.5817 39.6163 14.1781 39.8443C13.8557 40.0263 13.5477 40.2327 13.2568 40.4617C13.0247 40.655 12.8396 40.8986 12.7154 41.174C12.5841 41.6156 12.5841 42.0858 12.7154 42.5274C12.7931 42.976 12.9771 43.3994 13.252 43.7622C13.1808 43.9759 13.0763 44.294 12.9813 44.5362C12.9412 44.6538 12.9111 44.7745 12.8911 44.8971C12.7304 44.5617 12.597 44.2139 12.4922 43.8571C12.4495 43.7099 12.3782 43.5105 12.2832 43.2778C12.1883 43.0451 12.0743 42.7744 11.9651 42.4799C11.7267 41.9018 11.5439 41.3023 11.4189 40.6896C11.3999 40.5788 11.381 40.4553 11.362 40.3192C11.362 40.1815 11.3335 40.0295 11.3145 39.8443C11.4747 39.6445 11.6073 39.4241 11.7086 39.1889C11.7086 39.113 11.7086 38.9277 11.7419 38.714C11.7595 38.4911 11.8277 38.2751 11.9413 38.0824C12.5267 38.1118 13.1099 37.9926 13.6367 37.7358C13.8645 37.6261 14.0808 37.494 14.2825 37.3416C14.4609 37.2232 14.6209 37.0792 14.7574 36.9142C15.1031 36.4396 15.4203 35.9448 15.7072 35.4325C15.7927 35.2853 15.8734 35.1381 15.9494 34.9956C16.0254 34.8532 16.0966 34.7155 16.1536 34.5872C16.2398 34.3963 16.2944 34.1926 16.3151 33.9841C16.3222 33.8432 16.3429 33.7032 16.3768 33.5662C16.3768 33.476 16.4196 33.3858 16.4386 33.2908C16.4575 33.1958 16.4813 33.1008 16.505 33.0106C16.5858 32.6449 16.6523 32.3268 16.5335 32.3363C16.441 32.3452 16.3501 32.366 16.2628 32.398C16.1511 32.4414 16.0431 32.4938 15.9399 32.5547C15.8157 32.6226 15.6952 32.6971 15.579 32.7779L15.1943 33.0438C15.0614 33.1341 14.9331 33.229 14.8002 33.3288C14.6672 33.4285 14.5342 33.5187 14.4013 33.6042C14.163 33.7721 13.9045 33.9093 13.6319 34.0126C13.2933 34.0965 12.9792 34.2592 12.7154 34.4875C12.5999 34.6102 12.4965 34.7438 12.4067 34.8864C12.345 34.9719 12.2832 35.0716 12.2168 35.1856C12.1503 35.2996 12.0648 35.4278 11.9793 35.5798C11.7055 36.0468 11.5705 36.5821 11.5899 37.1232C11.5976 37.3226 11.6295 37.5203 11.6849 37.712C11.7155 37.837 11.7704 37.9548 11.8463 38.0587C11.8152 38.167 11.7562 38.2652 11.6754 38.3436C11.5533 38.48 11.464 38.6424 11.4142 38.8185C11.3451 38.9998 11.2942 39.1875 11.2622 39.3789C11.2195 38.904 11.1673 38.3531 11.1055 37.845C11.0438 37.3369 11.001 36.748 10.9488 36.2399C10.9488 36.1164 10.9203 35.9929 10.9061 35.8742C10.8918 35.7555 10.9061 35.6415 10.8728 35.5323C10.8728 35.3186 10.8396 35.1239 10.8348 34.9719C10.8333 34.495 10.8682 34.0188 10.9393 33.5472C11.0745 33.4054 11.2358 33.291 11.4142 33.2101L11.5662 33.0106L11.8701 32.6307C11.9237 32.6597 11.9813 32.6805 12.0411 32.6924C12.4649 32.7417 12.8936 32.7289 13.3138 32.6544C13.7173 32.6247 14.108 32.4993 14.4535 32.2888C14.8287 31.9516 15.5268 31.8139 15.8782 31.5432C15.9713 31.4659 16.0432 31.3662 16.0871 31.2535C16.1104 31.1932 16.1295 31.1313 16.1441 31.0683C16.1629 31.0013 16.1772 30.933 16.1869 30.8641C16.1869 30.7929 16.1869 30.7169 16.2154 30.6456C16.2438 30.5744 16.2154 30.5032 16.2391 30.4272C16.2628 30.3512 16.2391 30.2847 16.2391 30.2135C16.2391 30.1422 16.2391 30.0758 16.2723 30.0093C16.357 29.66 16.483 29.322 16.6475 29.0025C16.733 28.8315 16.8137 28.6796 16.8755 28.5704L16.9752 28.3946C16.9752 28.3946 16.8422 28.4279 16.6618 28.4896C16.4535 28.5571 16.253 28.6462 16.0634 28.7556C15.6835 28.9883 15.3178 29.1545 14.8619 29.3967C14.5022 29.5405 14.1255 29.6379 13.7412 29.6864C13.309 29.7576 12.9006 29.8193 12.7914 29.8573C12.5667 29.9933 12.3727 30.1744 12.2215 30.3892C12.117 30.5222 12.0126 30.6599 11.9271 30.7881C11.8574 30.8877 11.7955 30.9925 11.7419 31.1015C11.7043 31.1814 11.6725 31.264 11.6469 31.3485C11.6146 31.4656 11.5892 31.5845 11.5709 31.7046C11.5542 31.8323 11.5542 31.9616 11.5709 32.0893C11.5742 32.2093 11.6068 32.3267 11.6659 32.4312C11.4758 32.605 11.2726 32.7637 11.058 32.9061C11.1435 32.5029 11.2085 32.0955 11.2527 31.6857C11.2527 31.5812 11.2527 31.4435 11.2955 31.2772C11.3382 31.111 11.3572 30.9258 11.3952 30.7216C11.4854 30.3132 11.5994 29.8478 11.7371 29.4014C12.0031 28.4991 12.3355 27.6871 12.383 27.5019C12.4407 27.2616 12.5137 27.0252 12.6014 26.7943C12.7816 26.666 12.978 26.5622 13.1855 26.4856L13.4087 26.4191H13.4752C13.8955 26.423 14.3137 26.4804 14.7194 26.5901C15.1124 26.679 15.5189 26.6903 15.9162 26.6233C16.0898 26.5965 16.2613 26.5568 16.4291 26.5046C16.5601 26.4617 16.6859 26.4043 16.8042 26.3336C16.9324 26.2529 17.0512 26.1817 17.1604 26.1247L17.4548 25.968L17.9297 25.7637L18.1434 25.664C18.2103 25.6296 18.2753 25.5915 18.3381 25.55C18.8071 25.1952 19.3214 24.9045 19.8673 24.6857C20.0175 24.6335 20.1635 24.57 20.3042 24.4958C20.4324 24.4341 20.5369 24.3676 20.6271 24.3153C20.7173 24.2631 20.7791 24.2061 20.8218 24.1729L20.874 24.1301L20.6556 24.0826L20.1237 23.9734L19.7818 23.9069L19.4304 23.8499L18.7465 23.7407C18.3429 23.679 17.8252 23.6077 17.3503 23.584C16.9497 23.5438 16.5452 23.5711 16.1536 23.6647C15.9465 23.7269 15.7472 23.8129 15.56 23.9212C15.3448 24.0548 15.1386 24.2023 14.9426 24.3628L14.7812 24.491C14.6672 24.586 14.5295 24.6952 14.3823 24.8377C14.3035 24.9162 14.2305 25.0004 14.1638 25.0894C14.0893 25.1909 14.0241 25.299 13.9691 25.4123C13.9234 25.5037 13.8726 25.5925 13.8171 25.6783C13.7649 25.7637 13.7127 25.8397 13.6604 25.911C13.6117 25.9786 13.5594 26.0436 13.5037 26.1057L13.3565 26.2671C13.2093 26.3431 12.8816 26.4761 12.6774 26.5711C13.064 25.6547 13.5279 24.773 14.0641 23.9354V23.9354C14.3348 23.4605 14.7242 22.8242 15.1326 22.259C15.2133 22.2116 15.2988 22.1641 15.3795 22.1261L15.6265 22.0026C15.7549 21.9405 15.8905 21.8942 16.0301 21.8649C16.1964 21.8364 16.4765 21.7509 16.7615 21.6749C17.2967 22.0749 17.9073 22.3624 18.5566 22.5202C18.725 22.5765 18.9014 22.6053 19.079 22.6057C19.2382 22.6052 19.3971 22.5909 19.5538 22.563C19.7201 22.563 19.8863 22.5012 20.081 22.4727C20.2993 22.4383 20.5201 22.4224 20.7411 22.4253C21.2292 22.4325 21.7174 22.4151 22.2037 22.373C22.6105 22.3483 23.0073 22.2365 23.3672 22.0453L23.5714 21.9219L23.7329 21.8126C23.8058 21.7564 23.8756 21.6961 23.9418 21.6322C23.9798 21.5986 24.0133 21.5603 24.0416 21.5182V21.4802H23.9513C23.8744 21.4652 23.7983 21.4462 23.7234 21.4232C23.6105 21.3861 23.4996 21.3433 23.391 21.295C23.2566 21.2354 23.1279 21.1639 23.0063 21.0813C22.8667 20.9902 22.7207 20.9093 22.5694 20.8391C22.4127 20.7584 22.2465 20.6919 22.0945 20.6207C21.7383 20.4735 21.3442 20.3262 20.912 20.1458C20.5737 19.983 20.2227 19.848 19.8625 19.7421C19.716 19.705 19.5667 19.6796 19.4161 19.6661C19.2471 19.6501 19.077 19.6501 18.908 19.6661C18.4305 19.7884 17.9913 20.0284 17.6305 20.3642C17.4243 20.5372 17.2336 20.7279 17.0607 20.9341C16.9347 21.0743 16.8336 21.2349 16.7615 21.409L16.3436 21.5182L15.8687 21.6274C15.7338 21.6586 15.6019 21.7015 15.4745 21.7557C15.5505 21.6607 15.6217 21.5657 15.6977 21.4802L15.9019 21.238C16.0301 21.0956 16.1441 20.9721 16.2343 20.8914C16.4718 20.6777 16.8232 20.236 17.2506 19.7611C17.6805 19.2691 18.1577 18.8206 18.6753 18.4219C18.7655 18.3554 18.8747 18.2747 18.9982 18.194L19.4114 17.928C19.6859 17.9589 19.9631 17.9589 20.2377 17.928C20.6051 17.7378 21.0075 17.6246 21.4202 17.5956C21.6819 18.0815 22.071 18.487 22.5457 18.7686C22.9274 19.0214 23.3524 19.2017 23.7994 19.3005C23.8896 19.3005 24.0036 19.3337 24.127 19.348L24.5497 19.3954L25.4995 19.4999L25.9744 19.5522H26.1976H26.4018C26.5188 19.5589 26.6362 19.5589 26.7532 19.5522H26.8957H27.0096C27.2972 19.4888 27.5894 19.4491 27.8834 19.4334H28.1209C28.1848 19.4263 28.2483 19.4152 28.3108 19.4002C28.4201 19.3765 28.4818 19.348 28.4628 19.2957C28.2163 18.898 27.8712 18.5708 27.4608 18.3459L27.0761 18.0942C26.9432 18.0135 26.8149 17.9328 26.6915 17.8473C26.4569 17.7037 26.2387 17.5349 26.0409 17.3439C25.912 17.2019 25.7723 17.0701 25.623 16.9498C25.5115 16.8619 25.3863 16.793 25.2525 16.7456C25.0891 16.6903 24.9204 16.6521 24.7492 16.6316L24.3787 16.5888L23.9039 16.5508C23.3245 16.5114 22.7449 16.6243 22.2227 16.8785C22.12 16.9265 22.0201 16.9804 21.9236 17.04C21.8419 17.0912 21.7641 17.1484 21.6909 17.2109C21.5857 17.2856 21.4968 17.381 21.4297 17.4911C21.311 17.5196 21.1874 17.5196 21.0687 17.4911C20.9852 17.48 20.9006 17.48 20.8171 17.4911C20.7121 17.4942 20.6074 17.5037 20.5036 17.5196C20.2941 17.5535 20.0876 17.6043 19.8863 17.6716C20.3612 17.3962 20.836 17.1112 21.3109 16.8263C21.7858 16.5413 22.3462 16.2612 22.8306 16C23.0728 15.8718 23.3055 15.753 23.5192 15.6533L25.0483 14.846C25.3809 14.8597 25.7101 14.9188 26.0266 15.0217C26.4753 15.1581 26.9462 15.2065 27.4133 15.1642C28.0134 15.1952 28.614 15.1147 29.1846 14.9267C29.7783 14.7225 30.728 13.825 31.3786 13.2266C31.9367 12.8172 32.591 12.5588 33.2782 12.4763C33.2782 12.4763 31.5211 11.0801 30.6426 11.2226C29.764 11.365 29.3319 11.6025 28.7952 11.6167C28.2586 11.631 28.3536 11.9966 27.2091 12.1581C26.839 12.2419 26.4914 12.405 26.1905 12.6362C25.8896 12.8674 25.6425 13.1612 25.4662 13.4973C25.3258 13.8303 25.1524 14.1485 24.9486 14.4471C23.3007 15.2069 21.5341 16.0475 20.9928 16.3466C20.4514 16.6458 19.91 16.9925 19.4684 17.2964C19.2499 17.4484 19.0457 17.5956 18.8653 17.7333C18.7703 17.7998 18.6848 17.8615 18.6041 17.928L18.3761 18.1037C18.3761 17.9945 18.4094 17.8568 18.4331 17.7286C18.4568 17.6004 18.4853 17.4864 18.5091 17.4057C18.5091 17.4057 18.5993 17.2822 18.6515 17.2109C18.7038 17.1397 18.775 17.0732 18.851 17.002C19.0202 16.8377 19.2047 16.6898 19.4019 16.5603C19.8012 16.2922 20.1636 15.9729 20.4799 15.6106C20.6461 15.4301 20.7886 15.2924 20.9073 15.1689C21.026 15.0454 21.1305 14.9457 21.216 14.8507C21.302 14.7587 21.3828 14.662 21.4582 14.561C21.5389 14.4613 21.6101 14.3521 21.7004 14.2191C21.8008 14.0622 21.8806 13.8931 21.9378 13.7157C22.009 13.521 22.0803 13.2978 22.1468 13.0651C22.2132 12.8324 22.2797 12.5902 22.3462 12.3528C22.4127 12.1154 22.4792 11.8779 22.5409 11.688C22.5774 11.5803 22.6252 11.4769 22.6834 11.3793C22.7449 11.2715 22.8165 11.1697 22.8971 11.0753C22.9773 10.9743 23.0629 10.8776 23.1535 10.7857C23.2438 10.6954 23.3435 10.6099 23.4337 10.5292C23.5936 10.3925 23.7617 10.2656 23.9371 10.1493L24.1603 10.0068H23.6854L23.163 10.0496L22.8591 10.0876L22.5362 10.1351L22.2037 10.192L21.8713 10.268C21.7637 10.2902 21.6544 10.3187 21.5436 10.3535C21.4328 10.3883 21.3284 10.4216 21.2302 10.4532C21.1305 10.4865 21.0308 10.5197 20.9405 10.5577C20.8513 10.5941 20.7641 10.6354 20.6793 10.6812C20.5331 10.7507 20.3973 10.8402 20.2757 10.9471C19.9577 11.2396 19.6639 11.5572 19.3971 11.8969C19.2879 12.0299 19.1929 12.1581 19.0884 12.2721C18.9868 12.3946 18.8773 12.5104 18.7608 12.6187C18.665 12.6999 18.5874 12.8002 18.5328 12.9132C18.4962 13.0048 18.4645 13.0983 18.4378 13.1934C18.3947 13.3288 18.3374 13.4593 18.2669 13.5828C18.1446 13.8 18.0065 14.0079 17.8537 14.2049C17.6461 14.5024 17.5215 14.85 17.4928 15.2117C17.4506 15.5946 17.5375 15.9807 17.7398 16.3086C17.9686 16.6306 18.1494 16.9841 18.2764 17.3582V17.3819C18.2782 17.4024 18.2782 17.4231 18.2764 17.4436C18.2764 17.4959 18.2764 17.5719 18.2764 17.6573C18.2764 17.7428 18.2526 17.8473 18.2336 17.9565C18.2102 18.068 18.1784 18.1775 18.1387 18.2842L17.7967 18.5549L17.4833 18.7971L17.1461 19.082C17.0227 19.1865 16.8992 19.3005 16.7662 19.4239C16.6333 19.5474 16.4955 19.6804 16.3483 19.8229C15.5979 20.5717 14.9131 21.3836 14.3015 22.2495C14.254 21.9646 14.2113 21.6512 14.1496 21.39C14.3063 21.2665 14.6245 21.0148 14.8904 20.7774C15.1178 20.6045 15.3207 20.4017 15.4935 20.1743C15.5303 20.0577 15.5416 19.9347 15.5268 19.8134C15.5268 19.6566 15.5268 19.4619 15.484 19.2482C15.4285 18.7994 15.411 18.3466 15.4318 17.8948C15.4845 17.4819 15.5816 17.0759 15.7215 16.6838C15.8611 16.3162 15.9131 15.9211 15.8734 15.5298C15.8402 15.3304 15.7927 15.0882 15.7452 14.8412C15.6977 14.5943 15.6502 14.3663 15.6027 14.1194C15.5733 13.8629 15.5078 13.6119 15.408 13.3738C15.408 13.3738 15.3321 13.4688 15.2418 13.578L14.8809 14.0149C14.7432 14.1859 14.5865 14.3853 14.406 14.599C14.2256 14.8127 14.0878 15.0312 13.9311 15.2591C13.6128 15.6954 13.267 16.111 12.8959 16.5034C12.602 16.7949 12.3638 17.1377 12.193 17.5149C12.1554 17.6387 12.1299 17.766 12.117 17.8948C12.1094 18.0261 12.1094 18.1577 12.117 18.2889C12.117 18.4362 12.117 18.6119 12.117 18.8303C12.117 19.0488 12.117 19.3052 12.079 19.6519C12.0543 19.8993 12.0852 20.1492 12.1693 20.3832C12.235 20.552 12.3532 20.6951 12.5064 20.7916C12.9466 21.0199 13.4001 21.2213 13.8646 21.3947C13.9026 21.7557 13.9644 22.2448 14.0166 22.6485L13.7269 23.0901L13.5797 23.3228C13.5275 23.4035 13.48 23.489 13.4325 23.5697C13.0906 24.1301 12.7391 24.776 12.4162 25.4693C12.0969 26.1312 11.8132 26.8097 11.5662 27.5019V27.5019C11.4363 27.2623 11.3252 27.013 11.2337 26.7563C11.1645 26.5921 11.1166 26.4197 11.0913 26.2434C11.0738 26.1031 11.1039 25.9609 11.1767 25.8397C11.5303 25.3269 11.6978 24.7086 11.6516 24.0874C11.6403 23.8351 11.6085 23.5842 11.5567 23.3371C11.5212 23.1666 11.4752 22.9985 11.4189 22.8337C11.3792 22.7244 11.3178 22.6242 11.2385 22.5392C10.8897 22.2724 10.6217 21.914 10.4644 21.504C10.3247 21.0924 10.1281 20.7023 9.88029 20.3452C9.71375 20.0704 9.51442 19.8169 9.28668 19.5902C9.17088 19.4921 9.06724 19.3805 8.978 19.2577C8.88777 19.1343 8.82129 19.0298 8.82129 19.0298C8.82129 19.0298 8.82129 19.1058 8.78804 19.2292C8.7548 19.3527 8.73106 19.5237 8.69307 19.7279C8.61233 20.141 8.50786 20.6777 8.38438 21.1858C8.38438 21.2475 8.35114 21.314 8.3369 21.3757C8.26566 21.6369 8.19443 21.8506 8.1137 22.0833C8.03296 22.316 7.96648 22.487 7.90474 22.677C7.84133 22.8584 7.79832 23.0464 7.77652 23.2373C7.7545 23.4359 7.76736 23.6368 7.81451 23.8309C7.86189 24.1111 7.93015 24.3873 8.01872 24.6572C8.1771 24.957 8.38231 25.2295 8.62658 25.4646C9.03908 25.8527 9.51028 26.1732 10.0228 26.4143C10.4977 26.666 10.8966 26.8892 10.9725 27.1409C11.02 27.3119 11.077 27.5113 11.134 27.7061C11.134 27.8058 11.1862 27.9008 11.21 27.991C11.2337 28.0812 11.2622 28.1667 11.2812 28.2379L11.1815 28.5514L11.096 28.8505C11.0343 29.0453 10.9868 29.2352 10.9393 29.4062C10.7778 30.0378 10.6591 30.6029 10.5736 31.1015C10.4882 31.6002 10.4264 32.0513 10.3884 32.4407C10.3884 32.5357 10.3884 32.6307 10.3884 32.7209C10.3884 32.8111 10.3884 32.9014 10.3884 32.9869C10.3884 33.1626 10.3884 33.3193 10.3884 33.4617C10.3884 33.6042 10.3884 33.7514 10.3884 33.8796C10.3884 34.0079 10.3884 34.1361 10.3884 34.2501C10.3884 34.364 10.3884 34.4163 10.3884 34.554C10.3219 34.4875 10.1795 34.3498 10.0228 34.1836C9.86605 34.0174 9.68084 33.8274 9.54787 33.6612C10.2365 32.7494 10.5879 31.9848 10.132 31.3342C9.67975 30.6544 9.30088 29.9285 9.00174 29.1687C8.81375 28.805 8.5555 28.4822 8.24192 28.2189C7.9255 27.9585 7.66674 27.635 7.48209 27.2692C7.43935 27.1694 7.39661 27.0792 7.34912 26.989C7.30163 26.8987 7.25889 26.8228 7.2114 26.7468C7.12612 26.6083 7.03255 26.4751 6.93122 26.3479C6.84099 26.2386 6.765 26.1532 6.71277 26.0962L6.62254 26.0107C6.62254 26.0107 6.5798 26.1247 6.52281 26.3241L6.42308 26.6803C6.38509 26.8133 6.3471 26.97 6.30436 27.1552C6.11991 27.9006 5.99604 28.6598 5.93394 29.4252C5.89325 30.2418 6.00766 31.0588 6.27112 31.8329C6.3376 32.0181 6.40883 32.1985 6.48482 32.3695C6.55688 32.5329 6.63936 32.6915 6.73176 32.8444C6.87681 33.0792 7.06733 33.2826 7.29213 33.4427C7.6196 33.6518 7.99263 33.7789 8.37964 33.8132C8.67417 33.8494 8.97126 33.8606 9.26768 33.8464C9.49088 34.0506 9.74258 34.2881 9.92778 34.5018C10.0953 34.6698 10.2391 34.8599 10.3552 35.0669C10.3498 36.009 10.3958 36.9507 10.4929 37.8877C10.594 38.8587 10.7526 39.8229 10.9678 40.7751C10.7557 40.6293 10.5527 40.4707 10.3599 40.3002V40.3002C10.1596 39.9639 10.0288 39.5909 9.97527 39.2032C9.8986 38.7547 9.74944 38.3216 9.53362 37.921C9.42915 37.712 9.35791 37.5411 9.29143 37.3938L9.10622 37.0139C9.0519 36.9068 8.99001 36.8036 8.92101 36.7053C8.84774 36.5907 8.76682 36.4812 8.67882 36.3776C8.38591 36.0649 8.05204 35.7934 7.68629 35.5703L7.04044 35.1524L6.42783 34.7582C6.23377 34.6303 6.06343 34.4696 5.92444 34.2833C5.78322 34.0988 5.65923 33.9016 5.55403 33.6944C5.47123 33.5402 5.39672 33.3817 5.33083 33.2195C5.28334 33.0913 5.2596 33.0106 5.2596 33.0106C5.2596 33.0106 5.19786 33.1483 5.10763 33.3763C5.06489 33.4902 5.0174 33.6232 4.96991 33.7752C4.92242 33.9271 4.87019 34.0886 4.82745 34.2501C4.64699 34.9387 4.54726 35.7507 4.75621 36.1876C4.86544 36.4108 4.96516 36.596 5.06489 36.7622C5.16462 36.9285 5.25485 37.0662 5.34508 37.1991C5.51316 37.438 5.65787 37.6924 5.77723 37.959C5.86482 38.1577 6.01268 38.3238 6.19988 38.4339C6.49107 38.6762 6.73429 38.971 6.91697 39.3029C7.12154 39.6096 7.39891 39.8609 7.72429 40.0342C8.08941 40.2509 8.50595 40.3657 8.93051 40.3667C9.36082 40.3484 9.7917 40.3851 10.2127 40.4759V40.4759L10.2745 40.5091C10.3451 40.5441 10.4133 40.5838 10.4787 40.6279C10.6719 40.7456 10.8505 40.8858 11.0105 41.0458C11.0533 41.2357 11.0818 41.3734 11.096 41.4494C11.2085 42.0449 11.356 42.6332 11.5377 43.2113C11.8489 44.1913 12.2396 45.1442 12.7059 46.0606C12.4162 45.9372 12.098 45.7994 11.8179 45.6997C11.8179 45.6095 11.7751 45.4718 11.7466 45.315C11.7181 45.1583 11.6849 44.9874 11.6469 44.8402C11.6469 44.7547 11.6137 44.6692 11.5947 44.5885C11.5757 44.5077 11.5567 44.4365 11.5377 44.3653C11.5112 44.2593 11.4679 44.1583 11.4094 44.0661C11.3191 43.9715 11.2109 43.8957 11.0913 43.8429L10.8301 43.7147L10.5309 43.5769C10.0705 43.3722 9.6232 43.1391 9.1917 42.8789C9.00516 42.7569 8.82743 42.6221 8.65982 42.4752C8.49361 42.3327 8.34639 42.1855 8.18493 42.0478C7.8933 41.7545 7.54402 41.5249 7.15916 41.3734L6.43258 41.1407L5.66325 40.908C5.39814 40.8106 5.12233 40.7453 4.84169 40.7133C4.87493 40.7513 5.00316 41.0173 5.19311 41.3829C5.28809 41.5634 5.39257 41.7724 5.51604 41.9861C5.63951 42.1998 5.76298 42.4277 5.9007 42.6462C6.03129 42.8645 6.1471 43.0914 6.24737 43.3252C6.29961 43.444 6.34235 43.5579 6.38984 43.6719L6.52756 44.0138C6.61304 44.2323 6.70327 44.4365 6.7935 44.617C6.86932 44.7747 6.97038 44.9191 7.09268 45.0444C7.18879 45.1382 7.29375 45.2225 7.40611 45.296C7.52251 45.3751 7.64298 45.4481 7.76703 45.5145L8.27041 45.8089C8.47462 45.9277 8.71681 46.0796 9.02074 46.2838C9.14558 46.3679 9.27746 46.441 9.4149 46.5023C9.52372 46.5501 9.63655 46.5883 9.75207 46.6162C9.9412 46.6574 10.1379 46.6476 10.3219 46.5878C10.7718 46.386 11.2109 46.1609 11.6374 45.9134L12.2453 46.1983L12.8911 46.488C12.9718 46.6352 13.0526 46.792 13.1428 46.9629C13.1903 47.0437 13.2378 47.1244 13.2805 47.2051C13.3233 47.2858 13.3328 47.2906 13.3565 47.3333H14.2018V47.3096Z" fill="url(#paint0_radial)"/>
<path d="M64.6259 48.3207C64.4664 48.3206 64.3073 48.3047 64.151 48.2732C63.8066 48.2409 63.46 48.2409 63.1157 48.2732C62.6342 48.2824 62.1557 48.351 61.691 48.4774C61.2226 48.5885 60.7348 48.5885 60.2664 48.4774C60.1436 48.4585 60.0187 48.4585 59.8959 48.4774C59.7725 48.5107 59.5778 48.5724 59.3498 48.6579C59.0884 48.7566 58.8345 48.8741 58.59 49.0093C58.0055 49.3026 57.5237 49.7663 57.2081 50.339C57.128 50.4649 57.0123 50.5641 56.8756 50.624C56.7003 50.7075 56.5174 50.7743 56.3295 50.8234C56.0373 50.8941 55.7406 50.9449 55.4415 50.9754C56.4529 49.8885 57.3444 48.696 58.1009 47.4184L57.4502 47.1098C56.9689 47.9847 56.4094 48.8144 55.7786 49.5887C55.7786 49.4842 55.7501 49.3512 55.7311 49.2325C55.7121 49.1138 55.7026 48.9951 55.6979 48.9191C55.7421 48.7747 55.7961 48.6335 55.8594 48.4964C55.8974 48.4205 55.9401 48.3397 55.9923 48.2542C56.0427 48.1656 56.0982 48.08 56.1585 47.9978C56.233 47.8971 56.2967 47.7889 56.3485 47.6749C56.3932 47.5778 56.4313 47.4779 56.4625 47.3757C56.5073 47.2198 56.5422 47.0611 56.5669 46.9008L56.5954 46.7108C56.6392 46.479 56.663 46.2439 56.6667 46.008C56.6656 45.8103 56.6368 45.6137 56.5812 45.4239C56.4492 45.0728 56.2509 44.7503 55.9971 44.4741C55.8546 44.2984 55.6979 44.1274 55.5222 43.966C55.3465 43.8045 55.2088 43.6478 55.0473 43.4911L54.5724 43.0162C54.4062 42.8595 54.2352 42.698 54.0975 42.5413C53.7888 42.2611 53.5466 42.0664 53.5466 42.0664C53.5214 42.1723 53.5071 42.2805 53.5039 42.3893C53.4941 42.5063 53.4941 42.6238 53.5039 42.7408C53.5083 42.8892 53.5258 43.037 53.5561 43.1824C53.6361 43.7256 53.6361 44.2776 53.5561 44.8208C53.5516 44.9607 53.5611 45.1007 53.5846 45.2387C53.5846 45.3717 53.6321 45.5141 53.6464 45.7136C53.6599 45.8144 53.6679 45.9158 53.6701 46.0175C53.6701 46.1315 53.6701 46.2549 53.6701 46.3927C53.6707 46.5179 53.6883 46.6425 53.7223 46.7631C53.7651 46.9154 53.8223 47.0633 53.8933 47.2047C54.0579 47.5404 54.2946 47.8356 54.5866 48.069C54.9077 48.3046 55.1939 48.5844 55.4367 48.9001V48.9238C55.4367 48.9238 55.4367 48.9571 55.4367 48.9808C55.4601 49.046 55.4792 49.1126 55.4937 49.1803C55.5395 49.3779 55.5508 49.582 55.5269 49.7834L55.2325 50.1016L54.9856 50.339C54.9523 50.3675 54.8906 50.434 54.8051 50.5242L54.4822 50.8709C54.2305 51.1463 53.8981 51.4788 53.5324 51.8207C53.1853 52.1564 52.8208 52.4734 52.4401 52.7705C52.2644 52.9034 52.103 53.0269 51.9653 53.1219C51.8444 53.206 51.7191 53.2837 51.5901 53.3546C51.3384 53.4923 50.9537 53.7725 50.4931 54.0812C50.5276 53.8491 50.5816 53.6203 50.6545 53.3973C50.7838 53.3889 50.9107 53.3584 51.0297 53.3071C51.1588 53.2548 51.2815 53.1879 51.3954 53.1076C51.5038 53.0398 51.6055 52.9619 51.6993 52.8749C51.7662 52.8153 51.8296 52.7519 51.8893 52.685C51.9641 52.5906 52.0338 52.4923 52.0982 52.3906C52.1742 52.2623 52.2549 52.1104 52.3262 51.9632C52.4479 51.7494 52.5194 51.5106 52.5351 51.2651C52.5066 51.1511 52.3499 50.8187 52.1884 50.453C52.0321 50.143 51.9217 49.8118 51.8608 49.47C51.8608 49.242 51.8323 49.0331 51.818 48.8384C51.8038 48.6437 51.818 48.4537 51.818 48.2542C51.8168 48.0584 51.7897 47.8636 51.7373 47.6749L51.6756 47.4754L51.6471 47.3947L51.6186 47.4422L51.5426 47.5609C51.4761 47.6606 51.3859 47.7983 51.2719 47.9456L51.1009 48.1688C51.0392 48.24 50.9775 48.316 50.9157 48.3825C50.8576 48.4492 50.7958 48.5126 50.7305 48.5724C50.6789 48.6256 50.6233 48.6748 50.5643 48.7196C50.3554 48.8764 50.0894 49.0378 49.852 49.1945C49.795 49.2373 49.738 49.28 49.6905 49.3228C49.6402 49.3605 49.594 49.4035 49.5528 49.451C49.4788 49.5316 49.4265 49.6296 49.4008 49.7359C49.3866 49.8478 49.3866 49.9611 49.4008 50.0731C49.4119 50.1974 49.4293 50.321 49.4531 50.4435C49.5029 50.6831 49.5029 50.9304 49.4531 51.1701C49.4327 51.533 49.508 51.8949 49.6715 52.2196C49.807 52.5857 50.001 52.9273 50.2461 53.2311C50.2866 53.2726 50.333 53.3078 50.3839 53.3356C50.3126 53.4638 50.2319 53.6253 50.1607 53.744L50.0372 53.9529C50.0407 54.0083 50.0407 54.0638 50.0372 54.1192C50.019 54.2403 49.9805 54.3575 49.9232 54.4658C49.4883 54.7362 49.0307 54.9682 48.5555 55.1592C48.2373 55.2779 47.7625 55.4346 47.2211 55.5771C46.6797 55.7195 46.0813 55.8763 45.5162 56.0282C44.9511 56.1802 44.3907 56.2752 43.8588 56.3796C43.9518 56.3411 44.0422 56.2967 44.1295 56.2467C44.2198 56.1944 44.3147 56.1422 44.405 56.0805C44.5566 55.9878 44.6875 55.8649 44.7896 55.7195C44.8473 55.6215 44.929 55.5398 45.0271 55.4821C45.377 55.5362 45.7349 55.5002 46.0671 55.3776C46.6059 55.2173 47.0883 54.9078 47.4585 54.4848C47.5677 54.3614 47.6627 54.2426 47.7435 54.1429C47.8242 54.0432 47.8954 53.9529 47.9572 53.8675L48.1044 53.649C48.1422 53.5882 48.1755 53.5247 48.2041 53.4591C48.2554 53.3389 48.2828 53.2098 48.2848 53.0792C48.2848 52.8977 48.2689 52.7165 48.2373 52.5378C48.212 52.2796 48.2216 52.0193 48.2658 51.7637C48.2658 51.626 48.3038 51.4788 48.3276 51.3363C48.3276 51.2651 48.3276 51.1938 48.3608 51.1226C48.3941 51.0514 48.3846 50.9801 48.3941 50.9089C48.4368 50.653 48.4606 50.3942 48.4653 50.1348C48.4742 49.945 48.4367 49.756 48.3561 49.5839C48.3323 49.5365 48.2563 49.5602 48.1566 49.6219C48.0968 49.6555 48.0396 49.6936 47.9857 49.7359L47.7862 49.8831C47.5518 50.0743 47.3042 50.2489 47.0454 50.4055C46.6599 50.6983 46.3275 51.0548 46.0623 51.4598C45.8771 51.6925 45.6872 51.9347 45.5162 52.1579C45.3453 52.3811 45.198 52.571 45.1078 52.7135C45.0102 52.8746 44.9321 53.0468 44.8751 53.2264C44.8041 53.4428 44.7532 53.6654 44.7231 53.8912C44.6467 54.4113 44.7226 54.9424 44.9416 55.4204C44.8608 55.5042 44.7699 55.5776 44.6709 55.6388C44.5698 55.6961 44.4651 55.7469 44.3575 55.7908C44.1438 55.8763 43.9538 55.9285 43.8826 55.9617C43.7729 56.0332 43.6711 56.116 43.5787 56.2087L43.4219 56.3701L43.308 56.4841C42.9565 56.5506 42.6431 56.5933 42.4057 56.6171C41.7185 56.6664 41.0281 56.6473 40.3446 56.5601C40.3446 56.5601 37.3671 56.7691 35.7524 57.3627C34.1378 56.7691 31.1602 56.5601 31.1602 56.5601C30.4768 56.6473 29.7864 56.6664 29.0992 56.6171C28.8665 56.5933 28.5483 56.5506 28.1969 56.4841L28.0829 56.3701L27.9262 56.2087C27.8348 56.1149 27.7328 56.032 27.6223 55.9617C27.5511 55.9285 27.3563 55.8763 27.1474 55.7908C27.0382 55.7469 26.932 55.6961 26.8292 55.6388C26.7317 55.5775 26.6423 55.5041 26.5633 55.4204C26.7809 54.942 26.8552 54.4109 26.777 53.8912C26.7469 53.6654 26.696 53.4428 26.625 53.2264C26.5681 53.0468 26.49 52.8746 26.3923 52.7135C26.3068 52.571 26.1549 52.3811 25.9887 52.1579C25.8225 51.9347 25.6277 51.683 25.4378 51.4598C25.1727 51.0548 24.8402 50.6983 24.4548 50.4055C24.1959 50.2489 23.9484 50.0743 23.7139 49.8831C23.6474 49.8309 23.581 49.7786 23.5145 49.7359C23.4605 49.6936 23.4034 49.6555 23.3435 49.6219C23.2438 49.5602 23.1726 49.5365 23.1441 49.5839C23.0652 49.7564 23.0294 49.9454 23.0396 50.1348C23.0425 50.3941 23.0647 50.6529 23.1061 50.9089C23.1061 50.9801 23.1061 51.0514 23.1393 51.1226C23.1726 51.1938 23.1393 51.2651 23.1726 51.3363C23.1726 51.4788 23.2153 51.626 23.239 51.7637C23.2743 52.0205 23.2743 52.281 23.239 52.5378C23.2111 52.7169 23.1968 52.8979 23.1963 53.0792C23.1959 53.2101 23.2234 53.3396 23.277 53.4591C23.3037 53.5256 23.3371 53.5893 23.3768 53.649C23.4209 53.725 23.4701 53.798 23.524 53.8675C23.581 53.9529 23.6522 54.0432 23.7329 54.1429C23.8137 54.2426 23.9086 54.3614 24.0226 54.4848C24.391 54.9076 24.8719 55.2172 25.4093 55.3776C25.7415 55.5002 26.0994 55.5362 26.4493 55.4821C26.5484 55.5384 26.6305 55.6204 26.6868 55.7195C26.7889 55.8649 26.9198 55.9878 27.0714 56.0805C27.1616 56.1422 27.2566 56.1944 27.3516 56.2467C27.4378 56.2957 27.5266 56.3401 27.6175 56.3796C27.0857 56.2752 26.511 56.1422 25.9602 56.0282C25.4093 55.9143 24.7967 55.729 24.2553 55.5771C23.7139 55.4251 23.239 55.2779 22.9256 55.1592C22.4489 54.9682 21.9897 54.7363 21.5532 54.4658C21.4981 54.3566 21.4597 54.2398 21.4392 54.1192C21.4357 54.0638 21.4357 54.0083 21.4392 53.9529C21.4392 53.9529 21.387 53.8675 21.3205 53.744C21.254 53.6205 21.1638 53.4638 21.0925 53.3356C21.1434 53.3078 21.1898 53.2726 21.2302 53.2311C21.4754 52.9273 21.6694 52.5857 21.8049 52.2196C21.9671 51.8944 22.0439 51.5332 22.0281 51.1701C21.9759 50.9307 21.9759 50.6829 22.0281 50.4435C22.0281 50.3153 22.0661 50.1918 22.0756 50.0731C22.0898 49.9611 22.0898 49.8478 22.0756 49.7359C22.052 49.6288 21.9994 49.5302 21.9236 49.451C21.8836 49.4023 21.8372 49.3592 21.7859 49.3228L21.6292 49.1945C21.3965 49.0378 21.1258 48.8764 20.9121 48.7196C20.8531 48.6748 20.7975 48.6256 20.7459 48.5724C20.6806 48.5126 20.6188 48.4492 20.5606 48.3825C20.4989 48.316 20.4372 48.24 20.3754 48.1688L20.2045 47.9456C20.0953 47.7983 20.005 47.6606 19.9338 47.5609L19.8578 47.4422L19.8293 47.3947L19.8008 47.4754L19.7391 47.6749C19.689 47.8641 19.6619 48.0586 19.6584 48.2542C19.6584 48.4537 19.6584 48.6437 19.6584 48.8384C19.6584 49.0331 19.6299 49.242 19.6204 49.47C19.555 49.8113 19.4432 50.1421 19.2879 50.453C19.1265 50.8187 18.9698 51.1511 18.9413 51.2651C18.9613 51.5118 19.0377 51.7506 19.1645 51.9632C19.2343 52.1097 19.312 52.2524 19.3972 52.3906C19.4586 52.4931 19.5268 52.5915 19.6014 52.685C19.6629 52.7517 19.7278 52.8151 19.7961 52.8749C19.8891 52.9608 19.9892 53.0386 20.0953 53.1076C20.2091 53.1879 20.3318 53.2548 20.4609 53.3071C20.5814 53.3589 20.7099 53.3894 20.8408 53.3973C20.91 53.6211 20.9624 53.8496 20.9975 54.0812C20.5227 53.7725 20.1522 53.4923 19.9005 53.3546C19.7725 53.2846 19.6488 53.2069 19.5301 53.1219C19.3782 53.0269 19.2167 52.9034 19.0552 52.7705C18.7086 52.4998 18.3192 52.1721 17.963 51.8207C17.6068 51.4693 17.2744 51.1511 17.0132 50.8709C16.885 50.7379 16.7805 50.6192 16.695 50.5242L16.5098 50.339L16.2629 50.1016L15.9684 49.7834C15.9436 49.5817 15.9565 49.3772 16.0064 49.1803C16.0197 49.1128 16.0371 49.0462 16.0587 48.9808V48.9238V48.9001C16.3015 48.5844 16.5876 48.3046 16.9087 48.069C17.2117 47.8419 17.46 47.5498 17.6353 47.2142C17.7063 47.0728 17.7636 46.9249 17.8063 46.7726C17.8403 46.652 17.8579 46.5274 17.8585 46.4022C17.8585 46.2644 17.8585 46.141 17.8585 46.027C17.8585 45.913 17.8585 45.8133 17.8585 45.7231C17.8585 45.5379 17.9013 45.3954 17.9202 45.2482C17.9438 45.1102 17.9533 44.9702 17.9487 44.8303C17.8767 44.2859 17.8847 43.7339 17.9725 43.1919C18.0019 43.0462 18.021 42.8986 18.0295 42.7502C18.0295 42.6173 18.0295 42.4986 18.0295 42.3988C18.0236 42.29 18.0077 42.1819 17.982 42.0759C17.982 42.0759 17.7398 42.2849 17.4311 42.5508C17.2744 42.6885 17.1082 42.85 16.9562 43.0257L16.4813 43.5006C16.3389 43.6383 16.1869 43.7903 16.0064 43.9755C15.826 44.1607 15.693 44.3079 15.5315 44.4836C15.2777 44.7598 15.0794 45.0823 14.9474 45.4334C14.8941 45.6236 14.8654 45.8199 14.8619 46.0175C14.8656 46.2534 14.8895 46.4885 14.9332 46.7203C14.9332 46.7821 14.9332 46.8438 14.9664 46.9103C14.9893 47.0706 15.0226 47.2292 15.0661 47.3852C15.0974 47.4874 15.1354 47.5873 15.1801 47.6844C15.2319 47.7984 15.2956 47.9066 15.3701 48.0073C15.4319 48.0894 15.489 48.1751 15.541 48.2637L15.6693 48.5059C15.7339 48.643 15.7894 48.7842 15.8355 48.9286V48.9286C15.8355 49.0046 15.8355 49.1186 15.8022 49.242C15.769 49.3655 15.769 49.4937 15.7547 49.5982C15.1636 48.881 14.6315 48.1171 14.1639 47.314H13.3565L13.4325 47.4327C13.7697 47.9978 14.1781 48.6152 14.6292 49.2325C15.0849 49.8441 15.5732 50.4306 16.0919 50.9896V50.9896C15.7912 50.9596 15.4929 50.9089 15.1991 50.8377C15.0125 50.7893 14.8311 50.7225 14.6577 50.6382C14.5198 50.5784 14.4025 50.4793 14.3206 50.3533C14.0064 49.7794 13.5242 49.3154 12.9386 49.0236C12.6941 48.8883 12.4402 48.7709 12.1788 48.6722C11.9509 48.5867 11.7562 48.5249 11.6327 48.4917C11.51 48.4725 11.385 48.4725 11.2623 48.4917C10.8015 48.5991 10.3221 48.5991 9.86133 48.4917C9.39667 48.3652 8.91815 48.2966 8.43666 48.2875C8.09074 48.2551 7.74256 48.2551 7.39665 48.2875C7.24031 48.319 7.08123 48.3349 6.92175 48.335C6.76029 48.335 6.62732 48.335 6.62732 48.335L6.78878 48.4679L7.20194 48.8099C7.54386 49.0948 7.98076 49.4652 8.38917 49.8404L8.54113 49.9781C8.75009 50.1776 8.9258 50.3628 9.08251 50.5385C9.23923 50.7142 9.38169 50.8756 9.52416 51.0134C9.66938 51.1654 9.82835 51.3037 9.99905 51.4265C10.1799 51.5538 10.3761 51.6575 10.5832 51.7352C10.8774 51.8562 11.1787 51.9593 11.4855 52.0439C11.8492 52.097 12.2187 52.097 12.5825 52.0439C13.1606 51.9587 13.7216 51.7824 14.2446 51.5215C14.6065 51.3043 15.0244 51.1985 15.4461 51.2176L16.0682 51.4028L16.657 51.5737C16.9895 51.9014 17.3076 52.2006 17.6068 52.4475C18.1292 52.9224 18.6183 53.2786 19.0647 53.5968C19.5111 53.915 19.9243 54.1761 20.29 54.3898C20.861 54.7319 21.4562 55.0319 22.0708 55.2874C22.1373 55.3159 22.2418 55.3586 22.3795 55.4251L21.8429 55.5533C21.6054 55.6103 21.33 55.6626 21.0925 55.71C20.4657 54.7603 19.8958 54.1097 19.0267 54.1382C18.7988 54.1382 18.5756 54.1382 18.3572 54.1382C18.1387 54.1382 17.925 54.1002 17.7065 54.0717L17.0512 53.9672L16.3626 53.8485C16.1338 53.8084 15.9006 53.7988 15.6693 53.82C15.4494 53.8365 15.2306 53.865 15.0139 53.9055C14.576 54.0039 14.1238 54.0216 13.6795 53.9577C13.2905 53.8789 12.8937 53.8455 12.497 53.858C12.3299 53.8585 12.1631 53.8728 11.9983 53.9007L12.2548 54.1524L12.5492 54.4278C12.6632 54.5323 12.7867 54.651 12.9291 54.7745C13.5783 55.3475 14.274 55.8653 15.0092 56.3227C15.8303 56.8065 16.7256 57.1514 17.6591 57.3437C18.3738 57.5328 19.1241 57.5426 19.8436 57.3722C20.1957 57.2259 20.5 56.9841 20.7221 56.6741C20.889 56.4606 21.0323 56.2298 21.1495 55.9855C21.4582 55.9095 21.8049 55.8193 22.0993 55.7528C22.3478 55.6892 22.6027 55.6542 22.8591 55.6483C23.2058 55.786 23.6379 55.9617 24.1413 56.1232C24.6447 56.2847 25.2241 56.4604 25.8367 56.5981C26.4493 56.7358 27.1047 56.8688 27.6555 56.9448C28.2064 57.0208 28.6955 57.0587 29.0802 57.0872C28.8808 57.2202 28.6053 57.4054 28.4201 57.4861C27.9865 57.5615 27.5431 57.5615 27.1094 57.4861C26.9522 57.4589 26.7937 57.4399 26.6345 57.4292H26.4208H26.2214H25.8699H25.5708C25.3096 57.4292 25.0959 57.4292 24.9107 57.4292C24.7254 57.4292 24.5782 57.4292 24.4358 57.4292C24.1485 57.4416 23.8627 57.4765 23.581 57.5336C23.3824 57.5724 23.1883 57.6313 23.0016 57.7093C22.7831 57.7948 22.5552 57.8946 22.313 58.0038L21.5864 58.3457L21.2302 58.5119L20.8978 58.6639C20.4023 58.8416 19.8734 58.9065 19.3497 58.8538C19.098 58.8538 18.8748 58.8111 18.7038 58.7873L18.4426 58.7399C18.4426 58.7399 18.5661 58.8586 18.7751 59.0438C18.984 59.229 19.2832 59.4664 19.6346 59.7039C19.9911 59.9502 20.3676 60.1663 20.7601 60.3497C20.9412 60.4351 21.1285 60.5065 21.3205 60.5634C21.4741 60.6145 21.6338 60.6449 21.7954 60.6537C21.9473 60.6537 22.085 60.6537 22.2133 60.6537H22.5789H22.9019L23.1963 60.6252L23.7282 60.5777C23.899 60.5681 24.0702 60.5681 24.2411 60.5777C24.4912 60.5869 24.7391 60.5278 24.9581 60.4067C25.1027 60.3443 25.2519 60.2935 25.4045 60.2548L25.7512 60.1788L26.2261 60.1075C26.4109 60.0733 26.591 60.0175 26.7627 59.9413C26.8588 59.9029 26.9524 59.8585 27.0429 59.8084C27.1379 59.7561 27.2281 59.6991 27.3136 59.6422C27.493 59.5269 27.6532 59.3843 27.7885 59.2195C27.9148 59.0697 28.0115 58.8973 28.0734 58.7114C28.1795 58.3342 28.3395 57.9743 28.5483 57.6429L28.6006 57.6001L28.781 57.4577L29.0517 57.2819C29.1569 57.2175 29.2664 57.1604 29.3794 57.111H29.6596H29.84L30.3149 57.1347H30.4147C31.8363 57.2084 33.238 57.5015 34.57 58.0038C33.5056 58.7925 32.6337 59.8122 32.0198 60.9861H33.2783C33.8722 59.9622 34.7408 59.125 35.7857 58.5689C36.831 59.1261 37.7008 59.963 38.2979 60.9861H39.5516C38.9363 59.8117 38.0628 58.792 36.9967 58.0038C38.3288 57.502 39.7304 57.2088 41.152 57.1347H41.2517L41.7266 57.111H41.907H42.1872C42.3012 57.1584 42.4108 57.2156 42.5149 57.2819L42.7856 57.4577L42.9708 57.6001L43.0183 57.6429C43.2294 57.9731 43.3895 58.3334 43.4932 58.7114C43.5515 58.8979 43.6468 59.0707 43.7734 59.2195C43.9099 59.3831 44.0699 59.5256 44.2483 59.6422L44.5189 59.8084C44.6111 59.8585 44.7063 59.9029 44.8039 59.9413C44.979 60.0142 45.1624 60.0653 45.35 60.0933L45.8249 60.1645L46.1716 60.2405C46.3237 60.2808 46.4729 60.3315 46.618 60.3925C46.8353 60.5136 47.0817 60.5728 47.3303 60.5634C47.5011 60.5539 47.6724 60.5539 47.8432 60.5634L48.3751 60.6109L48.6695 60.6394H48.9924H49.3581C49.4911 60.6394 49.6288 60.6394 49.776 60.6394C49.9376 60.6306 50.0973 60.6003 50.2509 60.5492C50.4431 60.4931 50.6305 60.4216 50.8113 60.3355C51.2059 60.1531 51.584 59.937 51.9415 59.6896C52.2882 59.4522 52.5826 59.2148 52.7963 59.0295C53.01 58.8443 53.1287 58.7256 53.1287 58.7256L52.8675 58.7731C52.7061 58.7968 52.4781 58.8253 52.2217 58.8396C51.6979 58.8922 51.169 58.8273 50.6735 58.6496L50.3411 58.4977L49.9849 58.3315L49.2584 57.9895C49.0162 57.8803 48.7835 57.7806 48.5698 57.6951C48.3833 57.6164 48.1891 57.5575 47.9904 57.5194C47.7087 57.462 47.4228 57.427 47.1356 57.4149C46.9979 57.4149 46.8459 57.4149 46.6607 57.4149C46.4755 57.4149 46.2665 57.4149 46.0006 57.4149H45.7062H45.35H45.1505H44.9368C44.7777 57.4259 44.6192 57.4449 44.462 57.4719C44.0283 57.5472 43.5849 57.5472 43.1513 57.4719V57.4719C42.9898 57.3912 42.6764 57.206 42.4912 57.073C42.8711 57.0445 43.3555 57.0065 43.9158 56.9305C44.4762 56.8545 45.0888 56.7406 45.7347 56.5838C46.3805 56.4271 46.9266 56.2704 47.43 56.109C47.9334 55.9475 48.3798 55.7623 48.7122 55.6341C48.9687 55.6399 49.2236 55.675 49.4721 55.7385C49.7807 55.805 50.1274 55.8953 50.4219 55.9712C50.5391 56.2155 50.6824 56.4464 50.8493 56.6598C51.0714 56.9698 51.3756 57.2116 51.7278 57.3579C52.4488 57.5283 53.2007 57.5185 53.917 57.3294C54.849 57.1372 55.7428 56.7922 56.5622 56.3084C57.2974 55.851 57.9931 55.3332 58.6422 54.7603C58.7847 54.6368 58.9129 54.5181 59.0269 54.4136L59.3166 54.1382L59.573 53.8865C59.4161 53.8597 59.2573 53.8454 59.0981 53.8437C58.6999 53.831 58.3015 53.8645 57.9109 53.9435C57.4666 54.0072 57.0144 53.9895 56.5764 53.8912C56.3598 53.8505 56.141 53.8219 55.9211 53.8057C55.6897 53.7846 55.4566 53.7942 55.2278 53.8342L54.5392 53.9529L53.8838 54.0574C53.6654 54.0859 53.4517 54.1097 53.2332 54.1239C53.0148 54.1382 52.7916 54.1239 52.5636 54.1239C51.6993 54.0954 51.1389 54.7318 50.5026 55.6958C50.2604 55.6483 49.9897 55.5961 49.7475 55.5391L49.2109 55.4109C49.3486 55.3444 49.4578 55.3016 49.5196 55.2731C50.1378 55.0206 50.7362 54.7222 51.3099 54.3803C51.6756 54.1666 52.0887 53.9055 52.5351 53.5873C52.9815 53.2691 53.4849 52.8939 53.993 52.438C54.2827 52.1911 54.5961 51.8919 54.9428 51.5642L55.5269 51.3933L56.1538 51.2081C56.5753 51.1902 56.9929 51.2958 57.3553 51.512C57.8763 51.7736 58.4358 51.9499 59.0126 52.0344C59.3764 52.0875 59.7459 52.0875 60.1096 52.0344C60.4164 51.9498 60.7177 51.8467 61.0119 51.7257C61.2185 51.647 61.4147 51.5433 61.5961 51.417C61.7668 51.2942 61.9257 51.1559 62.0709 51.0039L62.5173 50.529C62.6693 50.3533 62.845 50.1681 63.054 49.9686L63.2059 49.8309C63.6143 49.4557 64.0512 49.0853 64.3932 48.8004L64.8063 48.4584L64.9678 48.3255C64.9678 48.3255 64.7873 48.3207 64.6259 48.3207Z" fill="url(#paint1_radial)"/>
<path d="M60.5086 41.4444C60.5086 41.3684 60.5513 41.2307 60.5941 41.0407C60.7541 40.8808 60.9327 40.7405 61.1259 40.6228C61.1919 40.5798 61.2601 40.5402 61.3301 40.5041L61.3919 40.4709H61.4156C61.8366 40.3801 62.2675 40.3434 62.6978 40.3617C63.1238 40.3601 63.5417 40.2454 63.9088 40.0292C64.232 39.8546 64.5075 39.6035 64.7114 39.2979C64.8953 38.9655 65.1401 38.6706 65.4332 38.4288C65.619 38.3185 65.7653 38.1523 65.8511 37.954C65.9722 37.6873 66.1185 37.4329 66.288 37.1941C66.3735 37.0612 66.4685 36.9187 66.5682 36.7572C66.6679 36.5958 66.7676 36.4058 66.8721 36.1826C67.0811 35.7457 66.9861 34.9336 66.8009 34.245C66.7581 34.0741 66.7059 33.9079 66.6584 33.7702C66.6109 33.6324 66.5634 33.4852 66.5207 33.3712L66.3735 33.0056L66.2975 33.2145C66.2316 33.3767 66.1571 33.5352 66.0743 33.6894C65.9691 33.8966 65.8451 34.0937 65.7039 34.2783C65.5654 34.4634 65.3969 34.6239 65.2052 34.7532L64.5926 35.1473L63.942 35.5652C63.5763 35.7884 63.2424 36.0599 62.9495 36.3726C62.8545 36.4913 62.7786 36.5958 62.7073 36.7002C62.6401 36.7997 62.5782 36.9028 62.5221 37.0089C62.4651 37.1229 62.4081 37.2416 62.3417 37.3888C62.2752 37.536 62.1992 37.707 62.0995 37.916C61.8797 38.3152 61.7288 38.7487 61.6531 39.1982C61.6009 39.5855 61.4717 39.9585 61.2731 40.2952C61.0795 40.4646 60.8765 40.6231 60.6653 40.7701C60.8702 39.8169 61.0209 38.8529 61.1164 37.8827C61.21 36.9454 61.2544 36.0038 61.2494 35.0619C61.3659 34.8539 61.5114 34.6636 61.6816 34.4967C61.8858 34.283 62.1185 34.0218 62.3369 33.8414C62.6333 33.8557 62.9304 33.8446 63.225 33.8081C63.6133 33.7732 63.9877 33.6462 64.3172 33.4377C64.5379 33.2635 64.722 33.0472 64.8586 32.8014C64.951 32.6485 65.0335 32.4899 65.1055 32.3265C65.1815 32.1555 65.2527 31.9751 65.3192 31.7899C65.5827 31.0158 65.6971 30.1988 65.6564 29.3822C65.5943 28.6167 65.4704 27.8576 65.286 27.1122C65.248 26.9507 65.21 26.794 65.172 26.6373C65.134 26.4806 65.096 26.3808 65.0675 26.2811C65.0105 26.0817 64.9678 25.9677 64.9678 25.9677L64.8823 26.0532C64.8253 26.1102 64.7494 26.1956 64.6591 26.3049C64.5578 26.4321 64.4642 26.5653 64.3789 26.7038C64.3315 26.7797 64.2887 26.8605 64.2412 26.946C64.1937 27.0314 64.151 27.1264 64.1083 27.2261C63.9252 27.593 63.6662 27.9168 63.3484 28.1759C63.0315 28.4372 62.7714 28.7604 62.5838 29.1257C62.3054 29.881 61.9489 30.6052 61.5201 31.2865C61.0452 31.9371 61.4156 32.7111 62.1042 33.6134C61.9522 33.7797 61.767 33.9744 61.6293 34.1358C61.4916 34.2973 61.3301 34.4398 61.2636 34.5062V34.2023C61.2636 34.0883 61.2636 33.9649 61.2636 33.8319C61.2636 33.6989 61.2636 33.5612 61.2636 33.414C61.2636 33.2668 61.2636 33.1053 61.2352 32.9391C61.2352 32.8536 61.2352 32.7681 61.2352 32.6732C61.2352 32.5782 61.2352 32.4879 61.2067 32.393C61.1687 31.9988 61.1069 31.5572 61.0262 31.0538C60.9455 30.5504 60.8172 29.99 60.6558 29.3584C60.6083 29.1874 60.5608 28.9975 60.5038 28.8028C60.4706 28.7078 60.4421 28.6081 60.4136 28.5036L60.3139 28.1902C60.3139 28.1189 60.3614 28.0335 60.3851 27.9432C60.4088 27.853 60.4373 27.758 60.4658 27.6583C60.5181 27.4636 60.5751 27.2641 60.6225 27.0932C60.6985 26.8415 61.0974 26.6183 61.5723 26.3666C62.0855 26.1266 62.5569 25.806 62.9685 25.4168C63.2128 25.1817 63.418 24.9092 63.5764 24.6095C63.6648 24.3392 63.7347 24.0631 63.7853 23.7832C63.8311 23.5888 63.8423 23.3879 63.8186 23.1896C63.7968 22.9986 63.7538 22.8106 63.6903 22.6292C63.6286 22.4392 63.5526 22.2445 63.4814 22.0356C63.4102 21.8266 63.3294 21.5892 63.2582 21.328C63.2582 21.2663 63.2297 21.1998 63.2107 21.138C63.092 20.6299 62.9828 20.0933 62.9068 19.6801C62.864 19.4759 62.8308 19.3002 62.807 19.1815C62.7833 19.0628 62.7738 18.982 62.7738 18.982C62.7738 18.982 62.7073 19.0865 62.6171 19.21C62.5278 19.3327 62.4242 19.4443 62.3084 19.5424C62.0836 19.7717 61.8845 20.0249 61.7148 20.2975C61.467 20.6546 61.2704 21.0446 61.1307 21.4562C60.9637 21.8831 60.6767 22.2526 60.3044 22.52C60.2267 22.6063 60.1656 22.7061 60.1239 22.8144C60.0677 22.9792 60.0217 23.1473 59.9862 23.3178C59.9343 23.5649 59.9025 23.8159 59.8912 24.0681C59.845 24.6893 60.0126 25.3076 60.3661 25.8205C60.439 25.9417 60.4691 26.0838 60.4516 26.2241C60.4348 26.3987 60.3981 26.5707 60.3424 26.737C60.2479 26.9932 60.1352 27.2424 60.0052 27.4826V27.4826C59.763 26.8177 59.4686 26.1101 59.1456 25.4358C58.8227 24.7615 58.4665 24.1156 58.1246 23.5362L57.9726 23.2893L57.8254 23.0566C57.7305 22.8999 57.6307 22.7527 57.5357 22.6149C57.588 22.2113 57.6497 21.7221 57.6877 21.3612C58.1547 21.199 58.6114 21.0087 59.0554 20.7914C59.2086 20.6949 59.3268 20.5517 59.3926 20.383C59.4767 20.1489 59.5075 19.8991 59.4828 19.6516C59.4828 19.3192 59.4496 19.0533 59.4448 18.8301C59.4401 18.6069 59.4448 18.4359 59.4448 18.2887C59.4525 18.1574 59.4525 18.0258 59.4448 17.8945C59.4336 17.7659 59.4097 17.6386 59.3736 17.5146C59.2008 17.1375 58.961 16.7947 58.666 16.5031C58.2934 16.112 57.9475 15.6963 57.6307 15.2589C57.4835 15.0309 57.3173 14.8125 57.1558 14.5988C56.9944 14.3851 56.8377 14.1856 56.6809 14.0147L56.3248 13.5778C56.264 13.5142 56.2085 13.4459 56.1586 13.3736C56.056 13.6107 55.9903 13.8621 55.9639 14.1191C55.9116 14.3471 55.8641 14.594 55.8166 14.841C55.7691 15.0879 55.7217 15.3159 55.6932 15.5296C55.652 15.9204 55.7024 16.3155 55.8404 16.6835C55.9802 17.0756 56.0774 17.4816 56.1301 17.8945C56.1524 18.3462 56.1365 18.799 56.0826 19.248C56.0588 19.4617 56.0398 19.6564 56.0351 19.8131C56.0202 19.9344 56.0316 20.0575 56.0683 20.174C56.2433 20.4027 56.4495 20.6057 56.6809 20.7771L57.417 21.3897C57.36 21.6509 57.3125 21.9643 57.2651 22.2493C56.655 21.3821 55.9702 20.5701 55.2183 19.8226C55.0711 19.6801 54.9333 19.5424 54.8004 19.4237L54.4252 19.0818L54.0833 18.7968L53.7699 18.5546L53.4279 18.2839C53.3875 18.1778 53.3573 18.0681 53.3377 17.9563C53.3164 17.8575 53.3005 17.7576 53.2902 17.6571C53.2902 17.5716 53.2902 17.4956 53.2902 17.4434C53.2932 17.4229 53.2932 17.4021 53.2902 17.3816C53.2913 17.3738 53.2913 17.3658 53.2902 17.3579C53.418 16.9833 53.6004 16.6296 53.8316 16.3084C54.0434 15.9806 54.1357 15.5898 54.0928 15.2019C54.0641 14.8402 53.9395 14.4927 53.7319 14.1951C53.5791 13.9981 53.441 13.7902 53.3187 13.573C53.2522 13.4476 53.1951 13.3174 53.1477 13.1836C53.1233 13.0879 53.0915 12.9942 53.0528 12.9034C52.9982 12.7904 52.9206 12.6901 52.8248 12.609C52.7095 12.4994 52.6001 12.3836 52.4971 12.2623C52.3974 12.1483 52.2977 12.0201 52.1885 11.8871C51.9249 11.5462 51.6325 11.2284 51.3147 10.9374C51.1905 10.8315 51.0532 10.7422 50.9063 10.6714C50.8255 10.6287 50.74 10.5859 50.6498 10.5479L50.3554 10.4435C50.2528 10.4046 50.1482 10.3713 50.042 10.3437C49.9343 10.3121 49.8251 10.2836 49.7143 10.2583L49.3819 10.1823L49.0494 10.1253L48.7265 10.0778L48.4226 10.0398L47.9049 9.99707H47.4301C47.4301 9.99707 47.5203 10.0493 47.6533 10.1395C47.8286 10.2558 47.9967 10.3827 48.1566 10.5195C48.2516 10.6002 48.3466 10.6857 48.4368 10.7759C48.5289 10.8678 48.6161 10.9645 48.698 11.0656C48.7755 11.1623 48.8469 11.2638 48.9117 11.3695C48.9666 11.4682 49.0126 11.5715 49.0494 11.6782C49.1112 11.8824 49.1824 12.1103 49.2441 12.343C49.3059 12.5757 49.3771 12.8179 49.4436 13.0554C49.5101 13.2928 49.5813 13.5303 49.6525 13.706C49.7137 13.8817 49.7933 14.0504 49.89 14.2094C49.9802 14.3423 50.0562 14.4516 50.1322 14.5513C50.2082 14.651 50.2889 14.7412 50.3744 14.841C50.4599 14.9407 50.5643 15.0404 50.6878 15.1591L51.1152 15.6008C51.4291 15.9655 51.7919 16.2851 52.1932 16.5506C52.3881 16.6812 52.5709 16.829 52.7393 16.9922C52.8096 17.0582 52.8761 17.128 52.9388 17.2012C52.9902 17.2631 53.0378 17.3282 53.0813 17.3959V17.3959C53.105 17.4766 53.1335 17.5953 53.1572 17.7188C53.181 17.8423 53.2 17.9848 53.219 18.094L52.9863 17.9183C52.9056 17.8518 52.8201 17.79 52.7298 17.7236C52.5494 17.5858 52.3404 17.4386 52.122 17.2867C51.6803 16.978 51.1722 16.6551 50.6023 16.3369C50.0325 16.0187 48.2944 15.1876 46.6417 14.4373C46.432 14.1425 46.2522 13.8276 46.1051 13.497C45.9267 13.1562 45.6755 12.8587 45.3694 12.6257C45.0633 12.3926 44.7098 12.2297 44.3338 12.1483C43.1845 11.9869 43.2842 11.6259 42.7476 11.607C42.211 11.588 41.7978 11.3553 40.8955 11.2128C39.9932 11.0703 38.2599 12.4665 38.2599 12.4665C38.9473 12.5482 39.6018 12.8067 40.1595 13.2168C40.8101 13.8152 41.7598 14.7127 42.3535 14.917C42.9241 15.105 43.5247 15.1855 44.1248 15.1544C44.5919 15.197 45.0628 15.1486 45.5115 15.0119C45.828 14.909 46.1572 14.8499 46.4898 14.8362L48.0237 15.6435C48.2326 15.7433 48.4653 15.862 48.7075 15.9902C49.1824 16.2514 49.719 16.5458 50.2272 16.8165C50.7353 17.0872 51.2007 17.3864 51.6518 17.6618C51.4487 17.5951 51.2407 17.5443 51.0297 17.5099C50.9259 17.4939 50.8213 17.4844 50.7163 17.4814C50.6328 17.4702 50.5481 17.4702 50.4646 17.4814C50.3476 17.51 50.2254 17.51 50.1084 17.4814C50.0386 17.3733 49.9501 17.2785 49.8472 17.2012C49.7723 17.1386 49.6929 17.0815 49.6098 17.0302C49.5133 16.9706 49.4134 16.9167 49.3106 16.8688C48.789 16.6131 48.209 16.5 47.6295 16.5411L47.1546 16.5791L46.7889 16.6218C46.6161 16.6424 46.4459 16.6806 46.2808 16.7358C46.147 16.7832 46.0219 16.8522 45.9104 16.94C45.7622 17.0616 45.6225 17.1933 45.4925 17.3341C45.2954 17.5241 45.0789 17.6928 44.8466 17.8375L44.462 18.0845C44.329 18.1652 44.2008 18.2554 44.0773 18.3362C43.6658 18.5612 43.3192 18.8883 43.0705 19.286C43.0705 19.3382 43.1133 19.3667 43.2225 19.3904L43.4172 19.4237H43.6499C43.944 19.4389 44.2362 19.4787 44.5237 19.5424H44.6424H44.7802C44.8972 19.5492 45.0145 19.5492 45.1316 19.5424H45.3405H45.559L46.0339 19.4902L46.9837 19.3857L47.4016 19.3382C47.525 19.3382 47.639 19.3097 47.7292 19.2907C48.1762 19.1919 48.6012 19.0116 48.9829 18.7588C49.459 18.4774 49.8496 18.072 50.1132 17.5858C50.5244 17.6147 50.9253 17.7279 51.2909 17.9183C51.5655 17.9491 51.8427 17.9491 52.1172 17.9183L52.5304 18.1842C52.6539 18.2649 52.7631 18.3457 52.8581 18.4122C53.3748 18.8119 53.8519 19.2603 54.2827 19.7513C54.7149 20.2262 55.0616 20.6679 55.299 20.8816C55.3892 20.9623 55.5032 21.0858 55.6362 21.2283L55.8404 21.4705L56.0588 21.7459C55.9328 21.6925 55.8025 21.6496 55.6694 21.6177L55.1945 21.5084L54.7766 21.3992C54.7064 21.2242 54.605 21.0633 54.4774 20.9243C54.3045 20.7181 54.1138 20.5274 53.9076 20.3545C53.5547 20.0286 53.1276 19.7938 52.6634 19.6706C52.4959 19.6545 52.3274 19.6545 52.16 19.6706C52.0078 19.6836 51.8569 19.709 51.7088 19.7466C51.3486 19.8524 50.9976 19.9874 50.6593 20.1503C50.2272 20.345 49.833 20.4922 49.4768 20.6252C49.3011 20.6964 49.1349 20.7629 48.9782 20.8436C48.8269 20.9137 48.6809 20.9947 48.5413 21.0858C48.4203 21.1694 48.2915 21.241 48.1566 21.2995C48.0481 21.3478 47.9371 21.3906 47.8242 21.4277C47.7494 21.4512 47.6733 21.4703 47.5963 21.4847H47.5108C47.5166 21.4985 47.5247 21.5114 47.5345 21.5227C47.5591 21.566 47.5913 21.6046 47.6295 21.6367C47.6958 21.7006 47.7655 21.7609 47.8385 21.8171L47.9999 21.9264L48.2041 22.0498C48.5644 22.2329 48.9592 22.3381 49.3629 22.3585C49.8492 22.4005 50.3374 22.4179 50.8255 22.4107C51.0465 22.4079 51.2673 22.4238 51.4856 22.4582C51.6803 22.4867 51.8513 22.5247 52.0128 22.5485C52.1695 22.5763 52.3284 22.5906 52.4876 22.5912C52.6652 22.5908 52.8416 22.5619 53.01 22.5057C53.6493 22.3303 54.2468 22.0283 54.7671 21.6177C55.0521 21.6937 55.3322 21.7791 55.4985 21.8076C55.6385 21.8355 55.7742 21.8818 55.9021 21.9453L56.1491 22.0688C56.2338 22.1084 56.3163 22.1528 56.396 22.2018C56.8044 22.7669 57.1938 23.408 57.4645 23.8782C58.0025 24.7147 58.4665 25.5966 58.8512 26.5138C58.6375 26.4188 58.3193 26.2859 58.1768 26.2099L58.0296 26.0484C57.9821 25.9914 57.9252 25.9249 57.8729 25.8537C57.8207 25.7825 57.7684 25.7065 57.7162 25.621C57.6607 25.5352 57.61 25.4464 57.5642 25.3551C57.5111 25.2408 57.4458 25.1325 57.3695 25.0321C57.303 24.9443 57.2317 24.8603 57.1558 24.7805C57.0086 24.638 56.8661 24.5288 56.7522 24.4338L56.5907 24.3056C56.3948 24.1451 56.1885 23.9975 55.9734 23.8639C55.7861 23.7557 55.5869 23.6696 55.3797 23.6075C54.9881 23.5138 54.5836 23.4865 54.183 23.5267C53.7081 23.5267 53.1905 23.6217 52.7868 23.6835L52.1077 23.7927L51.7516 23.8497L51.4144 23.9162L50.8778 24.0254L50.6593 24.0729L50.7115 24.1156C50.7755 24.1665 50.8421 24.214 50.911 24.2581C51.0138 24.3238 51.12 24.384 51.2292 24.4385C51.3698 24.5127 51.5159 24.5762 51.6661 24.6285C52.2134 24.8473 52.7293 25.138 53.2 25.4928C53.2615 25.5363 53.3266 25.5745 53.3947 25.6068L53.6036 25.7065C53.7366 25.7635 53.8886 25.8252 54.0785 25.9107L54.3777 26.0674C54.4822 26.1244 54.6009 26.1956 54.7291 26.2764C54.8475 26.3471 54.9733 26.4044 55.1043 26.4473C55.2721 26.4995 55.4435 26.5392 55.6172 26.566C56.0144 26.633 56.421 26.6218 56.8139 26.5328C57.2197 26.4232 57.6378 26.3657 58.0581 26.3618H58.1056H58.1674L58.3906 26.4283C58.5981 26.5049 58.7945 26.6087 58.9747 26.737C59.0669 26.9678 59.1446 27.2041 59.2074 27.4446C59.2501 27.6156 59.5825 28.4276 59.8485 29.3442C59.9862 29.7906 60.1002 30.256 60.1904 30.6644C60.2331 30.8686 60.2664 31.0585 60.2901 31.22C60.3139 31.3814 60.3281 31.5239 60.3329 31.6284C60.3329 31.8943 60.4373 32.336 60.5276 32.8489C60.3145 32.7064 60.1129 32.5476 59.9245 32.374C59.9799 32.2682 60.0107 32.1514 60.0147 32.0321C60.029 31.9042 60.029 31.7752 60.0147 31.6474C60.0147 31.5192 59.9624 31.3957 59.934 31.2912C59.9083 31.2067 59.8766 31.1242 59.839 31.0443C59.7853 30.9352 59.7234 30.8304 59.6538 30.7308C59.5683 30.6026 59.4638 30.4649 59.3593 30.3319C59.2082 30.1172 59.0141 29.9361 58.7895 29.8001C58.6707 29.7621 58.2623 29.7003 57.8397 29.6291C57.4538 29.5805 57.0756 29.4832 56.7142 29.3394C56.2393 29.0972 55.8926 28.931 55.5175 28.6983C55.3257 28.5899 55.1237 28.5008 54.9143 28.4324C54.7339 28.3706 54.6009 28.3374 54.6009 28.3374L54.7006 28.5131C54.7624 28.6223 54.8431 28.7743 54.9286 28.9453C55.0931 29.2648 55.2191 29.6027 55.3038 29.952C55.3038 30.0185 55.3038 30.085 55.337 30.1562C55.3702 30.2275 55.337 30.2987 55.337 30.3699L55.3655 30.5884C55.3655 30.6596 55.3655 30.7356 55.3892 30.8068C55.3989 30.8758 55.4132 30.944 55.432 31.011C55.4466 31.074 55.4657 31.1359 55.489 31.1962C55.5346 31.308 55.6062 31.4073 55.6979 31.4859C56.0683 31.7756 56.7664 31.8943 57.1226 32.2315C57.4688 32.4406 57.8591 32.5658 58.2623 32.5972C58.6825 32.6716 59.1112 32.6844 59.535 32.6352C59.595 32.6241 59.6528 32.6033 59.706 32.5734L60.0099 32.9533L60.1619 33.1528C60.3326 33.235 60.4858 33.3495 60.613 33.49C60.6889 33.961 60.7238 34.4376 60.7175 34.9146C60.7175 35.0666 60.7175 35.2613 60.6795 35.475C60.6795 35.5842 60.6795 35.6982 60.6463 35.8169C60.6131 35.9357 60.6463 36.0591 60.6083 36.1826C60.5561 36.6907 60.4848 37.2559 60.4516 37.7877C60.4183 38.3196 60.3376 38.8325 60.2901 39.3216C60.2582 39.1303 60.2073 38.9426 60.1382 38.7613C60.0905 38.5843 60.0009 38.4214 59.877 38.2864C59.796 38.2088 59.7384 38.1101 59.7108 38.0014C59.783 37.8954 59.8375 37.7783 59.8722 37.6548C59.9259 37.4628 59.9562 37.2651 59.9624 37.0659C59.9819 36.5249 59.8468 35.9895 59.573 35.5225C59.4876 35.3705 59.4068 35.2423 59.3356 35.1283C59.2644 35.0144 59.2074 34.9146 59.1504 34.8292C59.0591 34.6876 58.9558 34.5542 58.8417 34.4303C58.576 34.202 58.2605 34.0393 57.9204 33.9554C57.6494 33.852 57.3925 33.7148 57.1558 33.547C57.0229 33.4615 56.8851 33.3665 56.7522 33.2715C56.6192 33.1765 56.491 33.0768 56.358 32.9866L55.9734 32.7206C55.8571 32.6398 55.7367 32.5653 55.6124 32.4974C55.5108 32.4366 55.4044 32.3842 55.2943 32.3407C55.2054 32.3086 55.1129 32.2879 55.0188 32.279C54.9048 32.279 54.9666 32.5877 55.0473 32.9533C55.0473 33.0436 55.0948 33.1385 55.1138 33.2335C55.1328 33.3285 55.1565 33.4187 55.1755 33.509C55.2082 33.6464 55.2304 33.7861 55.242 33.9269C55.2701 34.1483 55.3394 34.3625 55.4462 34.5585C55.5032 34.6867 55.5744 34.8244 55.6504 34.9669C55.7264 35.1093 55.8071 35.2566 55.8974 35.4038C56.1845 35.9159 56.5017 36.4107 56.8472 36.8854C56.9764 37.0487 57.1283 37.1926 57.2983 37.3128C57.501 37.4663 57.719 37.5984 57.9489 37.707C58.4739 37.9642 59.0557 38.0835 59.6395 38.0537C59.7531 38.2463 59.8213 38.4623 59.839 38.6853C59.8627 38.8942 59.8627 39.0794 59.8722 39.1602C59.9755 39.3944 60.1079 39.6145 60.2664 39.8155C60.2664 39.977 60.2331 40.129 60.2189 40.2904C60.2046 40.4519 60.1809 40.5516 60.1619 40.6608C60.0364 41.2729 59.8552 41.8722 59.6205 42.4512C59.5066 42.7456 59.3926 43.0116 59.2976 43.249C59.2026 43.4864 59.1314 43.6812 59.0886 43.8284C58.9838 44.1852 58.8504 44.533 58.6897 44.8684C58.672 44.7453 58.6418 44.6244 58.5995 44.5075C58.5045 44.2653 58.4001 43.9471 58.3288 43.7334C58.6049 43.3713 58.789 42.9476 58.8654 42.4987C58.9933 42.0566 58.9933 41.5873 58.8654 41.1452C58.7379 40.8705 58.5515 40.6273 58.3193 40.4329C58.0292 40.2028 57.7211 39.9964 57.398 39.8155C56.9944 39.5733 56.6572 39.3406 56.3438 39.1127C56.0585 38.9038 55.7531 38.724 55.432 38.5761C55.1837 38.4684 54.9556 38.319 54.7576 38.1344C54.6864 38.0679 54.6294 38.0062 54.5914 37.9634L54.5344 37.897C54.5234 37.9101 54.5138 37.9245 54.5059 37.9397C54.5059 37.9682 54.4679 38.0204 54.4347 38.0917C54.4036 38.1882 54.3782 38.2865 54.3587 38.3861C54.329 38.5431 54.3084 38.7016 54.297 38.861C54.2875 38.9557 54.2875 39.0512 54.297 39.1459C54.297 39.1934 54.297 39.2409 54.297 39.2884C54.3023 39.3382 54.3119 39.3874 54.3255 39.4356C54.3497 39.5355 54.3798 39.6338 54.4157 39.73C54.4499 39.8334 54.4895 39.9348 54.5344 40.034L54.6057 40.1812L54.6864 40.3379C54.7386 40.4376 54.7956 40.5374 54.8574 40.6418C54.9713 40.846 55.1043 41.0455 55.2325 41.245C55.3453 41.4196 55.4453 41.6021 55.5317 41.7911C55.6029 41.962 55.6647 42.114 55.7264 42.266C55.8335 42.5681 56.0329 42.8289 56.2963 43.0116C56.8317 43.4081 57.4426 43.6909 58.0914 43.8426C58.1515 44.0641 58.226 44.2815 58.3146 44.4932C58.3599 44.6155 58.3886 44.7432 58.4 44.8731C58.4233 45.0415 58.4344 45.2113 58.4333 45.3813C58.1246 45.9986 57.7447 46.6445 57.455 47.1004L58.1294 47.4233C58.1769 47.3378 58.2291 47.2571 58.2766 47.1763L58.4143 46.9342C58.5045 46.7774 58.5853 46.6207 58.666 46.4593L59.3118 46.1696L59.9197 45.8846C60.3462 46.1321 60.7853 46.3572 61.2352 46.559C61.4192 46.6188 61.6159 46.6287 61.805 46.5875C61.9206 46.5595 62.0334 46.5214 62.1422 46.4735C62.2796 46.4122 62.4115 46.3391 62.5364 46.2551C62.8403 46.0604 63.0825 45.9084 63.2867 45.7802L63.7901 45.4857C63.9141 45.4193 64.0346 45.3464 64.151 45.2673C64.2642 45.1949 64.3693 45.1105 64.4644 45.0156C64.5867 44.8903 64.6878 44.746 64.7636 44.5882C64.8538 44.4077 64.9441 44.2035 65.0295 43.9851C65.077 43.8759 65.1198 43.7619 65.1673 43.6432C65.2147 43.5244 65.2575 43.4152 65.3097 43.2965C65.4097 43.0616 65.5272 42.8346 65.6611 42.6174C65.7941 42.3989 65.9223 42.1757 66.0411 41.9573C66.1598 41.7388 66.269 41.5346 66.3687 41.3542C66.5539 40.9885 66.6869 40.7226 66.7154 40.6846C66.4348 40.7165 66.159 40.7819 65.8938 40.8793L65.1245 41.112L64.3979 41.3447C64.0131 41.4961 63.6638 41.7258 63.3722 42.019C63.2155 42.1567 63.0682 42.304 62.8973 42.4464C62.728 42.5934 62.5487 42.7282 62.3607 42.8501C61.9377 43.0996 61.5 43.3232 61.0499 43.5197L60.7508 43.6574L60.4896 43.7856C60.3699 43.8384 60.2618 43.9143 60.1714 44.0088C60.1129 44.1011 60.0696 44.2021 60.0432 44.308C60.0432 44.3792 60.0052 44.4505 59.9909 44.5312L59.934 44.7829C59.9007 44.9539 59.8675 45.1296 59.8342 45.2578C59.801 45.386 59.7772 45.5522 59.763 45.6425C59.4828 45.7422 59.1694 45.8799 58.8749 46.0034C59.3412 45.0869 59.7319 44.134 60.0432 43.154C60.2331 42.5942 60.3885 42.0232 60.5086 41.4444V41.4444Z" fill="url(#paint2_radial)"/>
<path d="M19.4684 38.2674C24.9059 38.1724 30.3482 38.1249 35.7857 38.087L43.9443 38.0537H52.103V38.5286H43.9443L35.7857 38.4526L27.627 38.3861L19.4684 38.2674ZM19.4684 38.2674L27.627 38.1534L35.7857 38.087L43.9443 38.0537H52.103V38.5286H43.9443L35.7857 38.4526C30.3482 38.4146 24.9059 38.3671 19.4684 38.2674Z" fill="#FFCF78"/>
<path d="M36.0326 71.6429C45.421 71.578 54.4051 67.8137 61.0356 61.1668C64.3177 57.8808 66.9177 53.9783 68.6861 49.6839C70.4423 45.392 71.3254 40.7931 71.2838 36.1559C71.2423 31.5188 70.2768 26.9365 68.4439 22.6768C66.6036 18.4249 63.9406 14.5789 60.6082 11.3601C53.8812 4.87617 44.8836 1.28258 35.5407 1.34826C26.1978 1.41394 17.2516 5.13366 10.6164 11.7115C7.32161 14.9706 4.71051 18.8545 2.93608 23.1357C1.16164 27.4168 0.259565 32.0091 0.282717 36.6433C0.300502 41.2848 1.24837 45.8756 3.07033 50.1445C4.89532 54.4215 7.5487 58.2951 10.8776 61.5419C17.6069 68.0993 26.6512 71.7375 36.0468 71.6666L36.0326 71.6429ZM36.0326 71.6429C26.6286 71.7483 17.5625 68.1409 10.8016 61.6037C7.44507 58.362 4.76272 54.4885 2.90887 50.2063C1.06346 45.9164 0.0915622 41.3018 0.0499774 36.6321C0.00839266 31.9624 0.897952 27.3312 2.66667 23.0092C4.44616 18.6896 7.06235 14.7645 10.3647 11.4598C17.0431 4.77122 26.089 0.984818 35.5407 0.9217C44.9924 0.858582 54.088 4.52384 60.8552 11.1227C64.2052 14.3829 66.8764 18.2743 68.7146 22.5723C70.5435 26.8691 71.4976 31.4872 71.5212 36.157C71.5449 40.8267 70.6376 45.4543 68.8524 49.7694C66.1387 56.2396 61.5783 61.7665 55.7411 65.6593C49.9039 69.5522 43.0488 71.6384 36.0326 71.6571V71.6429Z" fill="black"/>
<path d="M24.1271 65.4075C23.9662 65.4849 23.7906 65.5271 23.6121 65.5312C23.4335 65.5353 23.2561 65.5012 23.0919 65.4312C22.9068 65.3554 22.7435 65.2346 22.617 65.0798C22.4951 64.9302 22.4018 64.7596 22.3415 64.5764C22.2851 64.3886 22.2594 64.193 22.2655 63.997C22.2731 63.7973 22.3182 63.6007 22.3985 63.4177C22.4776 63.2312 22.5921 63.0619 22.7357 62.919C22.8732 62.7799 23.0339 62.6658 23.2106 62.5819C23.3858 62.5037 23.5745 62.4601 23.7662 62.4536C23.9939 62.4525 24.2188 62.5043 24.4232 62.6048C24.6276 62.7053 24.8058 62.8519 24.9439 63.033C25.0666 63.2186 25.1386 63.4331 25.1529 63.6551L24.792 63.7263C24.7845 63.5419 24.7234 63.3637 24.6163 63.2135C24.5063 63.0693 24.3606 62.9563 24.1936 62.8858C24.0578 62.8258 23.9095 62.7998 23.7615 62.8098C23.62 62.8201 23.4823 62.8606 23.3578 62.9285C23.2261 62.9959 23.1084 63.0878 23.0111 63.1992C22.9078 63.3127 22.8243 63.4427 22.7642 63.5839C22.6974 63.7338 22.6588 63.8948 22.6502 64.0588C22.6409 64.2095 22.6586 64.3607 22.7024 64.5052C22.7456 64.6423 22.815 64.7697 22.9066 64.8803C23.0037 64.9904 23.1236 65.0779 23.2581 65.1368C23.4247 65.2022 23.6041 65.229 23.7826 65.215C23.9611 65.201 24.1341 65.1466 24.2886 65.056L24.4548 64.6666L23.8469 64.4007L23.9657 64.13L24.8774 64.5242L24.2601 65.9488L23.9609 65.8159L24.1271 65.4075Z" fill="black"/>
<path d="M26.3258 66.2669C26.4784 66.3194 26.6422 66.3309 26.8007 66.3001C26.93 66.27 27.0504 66.2098 27.1521 66.1244C27.256 66.0346 27.3428 65.9268 27.4085 65.8062C27.48 65.6783 27.5373 65.5429 27.5795 65.4026L28.0544 63.9162L28.4248 64.0349L27.9499 65.5213C27.8906 65.7114 27.8077 65.8933 27.703 66.0627C27.6095 66.2205 27.4851 66.3578 27.3373 66.4663C27.1972 66.5697 27.0343 66.6381 26.8624 66.6658C26.6562 66.6927 26.4465 66.6716 26.2498 66.6041C26.0433 66.5429 25.8533 66.4358 25.6942 66.2906C25.5646 66.166 25.4683 66.0109 25.414 65.8395C25.3578 65.6665 25.3352 65.4843 25.3475 65.3029C25.3632 65.1095 25.3998 64.9184 25.4567 64.733L25.9316 63.2466L26.2878 63.3606L25.8129 64.8517C25.7665 64.9935 25.7362 65.1401 25.7227 65.2886C25.7077 65.4254 25.7174 65.5637 25.7512 65.697C25.7877 65.8225 25.8527 65.9379 25.9411 66.0342C26.048 66.1425 26.1802 66.2225 26.3258 66.2669V66.2669Z" fill="black"/>
<path d="M27.9167 67.0934L29.7878 64.3105L30.1012 64.377L30.7091 67.6538L30.3007 67.5683L30.1297 66.6185L28.8618 66.3573L28.3252 67.1599L27.9167 67.0934ZM29.8496 64.7854L28.9995 66.0676L30.106 66.2956L29.8496 64.7854Z" fill="black"/>
<path d="M31.2837 67.749L31.6161 64.6812L32.9316 64.8284C33.0602 64.839 33.1843 64.8814 33.2925 64.9518C33.4001 65.0169 33.4924 65.1043 33.5632 65.2083C33.6343 65.3109 33.6873 65.4249 33.7199 65.5455C33.7521 65.6629 33.7634 65.785 33.7531 65.9064C33.7414 66.0111 33.7142 66.1136 33.6724 66.2103C33.6327 66.3039 33.5781 66.3905 33.5109 66.4667C33.449 66.5422 33.3733 66.605 33.2877 66.652C33.2009 66.7004 33.1059 66.7326 33.0076 66.7469L33.6202 68.0054L33.1785 67.9532L32.6039 66.7754L31.7918 66.6852L31.6684 67.7869L31.2837 67.749ZM31.8298 66.3243L32.7796 66.4288C32.8552 66.4343 32.9311 66.4246 33.0028 66.4003C33.0717 66.3709 33.1345 66.3291 33.188 66.2768C33.2425 66.2204 33.2859 66.1544 33.3162 66.0821C33.3511 66.0071 33.3735 65.9269 33.3827 65.8446C33.397 65.7629 33.397 65.6794 33.3827 65.5977C33.3602 65.5204 33.3266 65.4468 33.283 65.3792C33.2402 65.3167 33.1853 65.2634 33.1215 65.2225C33.0577 65.1842 32.9865 65.1599 32.9126 65.1513L31.9865 65.0706L31.8298 66.3243Z" fill="black"/>
<path d="M33.9858 68.0336L35.2965 64.9658H35.6147L36.8399 68.0669H36.422L36.0706 67.1598H34.7789L34.4037 68.0574L33.9858 68.0336ZM35.4485 65.4217L34.8596 66.8464H35.9851L35.4485 65.4217Z" fill="black"/>
<path d="M37.6376 65.6592L37.8561 68.0004L37.4667 68.0384L37.177 64.9706L37.4809 64.9421L39.6084 67.1551L39.3852 64.7807L39.7747 64.7427L40.0596 67.8105L39.7319 67.839L37.6376 65.6592Z" fill="black"/>
<path d="M42.6336 64.5288L41.5936 64.733L42.1207 67.4209L41.7408 67.4969L41.2089 64.809L40.1641 65.018L40.0977 64.6761L42.5671 64.2012L42.6336 64.5288Z" fill="black"/>
<path d="M45.6777 66.1295L45.7774 66.4619L43.7686 67.0508L42.9091 64.0922L44.8799 63.5176L44.9796 63.85L43.3839 64.3106L43.6641 65.2604L45.0508 64.8568L45.141 65.1655L43.7544 65.5739L44.0535 66.5949L45.6777 66.1295Z" fill="black"/>
<path d="M48.28 65.1323L48.4082 65.4552L46.4612 66.2198L45.3357 63.3704L47.2353 62.6201L47.3635 62.943L45.8153 63.5509L46.181 64.5007L47.5249 63.9736L47.6437 64.2727L46.3092 64.7856L46.7081 65.7354L48.28 65.1323Z" fill="black"/>
<path d="M49.0826 65.156L47.6912 62.4111L48.6409 61.9362C48.8371 61.8332 49.0518 61.7703 49.2725 61.751C49.4646 61.7361 49.6575 61.7636 49.8377 61.8317C50.0154 61.9011 50.177 62.0062 50.3126 62.1404C50.6095 62.441 50.8026 62.8288 50.8634 63.2469C50.8887 63.4381 50.8725 63.6325 50.8159 63.8168C50.7575 63.9933 50.662 64.1552 50.5358 64.2917C50.403 64.4474 50.2419 64.5763 50.0609 64.6716L49.0826 65.156ZM50.3126 62.7815C50.2376 62.6368 50.1416 62.5039 50.0276 62.3874C49.9275 62.2834 49.806 62.2024 49.6715 62.1499C49.5371 62.0975 49.3926 62.0764 49.2488 62.0882C49.0833 62.0972 48.9215 62.1409 48.7739 62.2164L48.1661 62.5251L49.2488 64.6526L49.8567 64.3487C50.0004 64.2769 50.128 64.1768 50.2318 64.0542C50.3234 63.9431 50.3898 63.8135 50.4265 63.6743C50.4552 63.5301 50.4552 63.3817 50.4265 63.2374C50.414 63.0853 50.3771 62.9362 50.3173 62.7958L50.3126 62.7815Z" fill="black"/>
<path d="M24.2172 35.3898C24.2362 35.3202 24.2552 35.23 24.2742 35.1192C24.2742 35.0147 24.3074 34.8817 24.3217 34.7202C24.3359 34.5588 24.3217 34.3736 24.3502 34.1504C24.3787 33.9272 24.3502 33.6755 24.3502 33.3811V29.9998C24.3576 29.7641 24.3385 29.5284 24.2932 29.297C24.2658 29.1583 24.2195 29.0241 24.1555 28.8981C24.115 28.8191 24.0584 28.7495 23.9893 28.6939C23.9382 28.6605 23.8905 28.6224 23.8468 28.5799V28.5799L25.338 27.9673C25.3147 28.0563 25.2972 28.1467 25.2857 28.238C25.2618 28.3715 25.246 28.5062 25.2382 28.6416C25.2382 28.8031 25.2382 28.993 25.205 29.2115C25.1718 29.4299 25.205 29.6864 25.205 29.9808V33.3621C25.205 33.6565 25.205 33.9129 25.205 34.1361C25.205 34.3593 25.205 34.5445 25.2335 34.706C25.262 34.8675 25.262 34.9957 25.2762 35.1049C25.2905 35.2141 25.3142 35.2996 25.3332 35.3756H24.2172V35.3898Z" fill="black"/>
<path d="M26.6583 31.7139C26.6609 31.3679 26.7055 31.0234 26.7912 30.6881C26.8745 30.3671 26.9974 30.0576 27.1569 29.7669C27.3091 29.4852 27.4958 29.2236 27.7125 28.988C27.9298 28.7549 28.1773 28.5521 28.4486 28.3849C28.7166 28.2145 29.0077 28.0833 29.3129 27.9955C29.9335 27.8166 30.5919 27.8166 31.2125 27.9955C31.5172 28.0868 31.808 28.2194 32.0768 28.3897C32.3478 28.5571 32.5954 28.7599 32.8128 28.9928C33.2709 29.4698 33.5981 30.0571 33.7626 30.6976C33.8484 31.0328 33.8915 31.3774 33.8909 31.7234C33.8922 32.0694 33.8491 32.4141 33.7626 32.7492C33.6769 33.0701 33.5525 33.3795 33.3922 33.6705C33.236 33.9546 33.0446 34.2179 32.8223 34.454C32.3851 34.9217 31.831 35.2644 31.2172 35.4466C30.5964 35.6234 29.9385 35.6234 29.3176 35.4466C29.0131 35.3569 28.7223 35.2259 28.4533 35.0571C27.9075 34.7125 27.4595 34.2334 27.1521 33.6657C26.9934 33.3745 26.8706 33.0652 26.7865 32.7444C26.6996 32.4078 26.6565 32.0615 26.6583 31.7139V31.7139ZM27.4228 31.7139C27.4217 31.9908 27.4552 32.2668 27.5226 32.5355C27.5859 32.7934 27.6817 33.0423 27.8075 33.2763C27.924 33.5096 28.0727 33.7254 28.2491 33.9174C28.4205 34.1005 28.6153 34.2602 28.8285 34.3923C29.0402 34.5291 29.2705 34.6347 29.5124 34.7057C29.7599 34.7824 30.0178 34.8209 30.2769 34.8197C30.5374 34.8221 30.7967 34.7852 31.0463 34.7105C31.2884 34.6363 31.5199 34.5309 31.7348 34.397C31.948 34.2649 32.1428 34.1053 32.3142 33.9222C32.4857 33.7314 32.634 33.521 32.7559 33.2953C32.8817 33.0608 32.979 32.8121 33.0455 32.5545C33.1165 32.2864 33.1516 32.0102 33.15 31.7329C33.154 31.3257 33.0815 30.9214 32.9363 30.5409C32.7962 30.1771 32.5901 29.8422 32.3285 29.5531C32.0709 29.2717 31.7612 29.0427 31.4167 28.8788C31.0658 28.715 30.6831 28.6307 30.2959 28.6319C29.9085 28.6283 29.5253 28.7127 29.1752 28.8788C28.831 29.0392 28.5214 29.265 28.2634 29.5437C28.0026 29.8334 27.7967 30.1681 27.6555 30.5314C27.5008 30.9131 27.4218 31.3211 27.4228 31.7329V31.7139Z" fill="black"/>
<path d="M34.7076 31.7233C34.7107 31.3789 34.7553 31.036 34.8406 30.7023C34.9239 30.3812 35.0467 30.0718 35.2063 29.781C35.3657 29.4989 35.5569 29.236 35.7761 28.9974C35.9947 28.7657 36.242 28.563 36.5122 28.3943C36.7822 28.2275 37.0727 28.0966 37.3765 28.0049C38.0049 27.8245 38.6714 27.8245 39.2998 28.0049C39.6044 28.0945 39.8952 28.2256 40.1641 28.3943C40.4353 28.5635 40.6829 28.7679 40.9002 29.0022C41.1221 29.2386 41.3135 29.5019 41.4701 29.7858C41.7981 30.3814 41.9701 31.0504 41.9701 31.7304C41.9701 32.4105 41.7981 33.0794 41.4701 33.6751C41.1591 34.2416 40.7098 34.7203 40.1641 35.0665C39.8929 35.233 39.6007 35.3624 39.2951 35.4512C38.9871 35.5441 38.667 35.5905 38.3453 35.5889C38.0238 35.5882 37.704 35.5419 37.3955 35.4512C37.0908 35.3599 36.8 35.2273 36.5312 35.0571C36.261 34.8884 36.0137 34.6857 35.7951 34.4539C35.5747 34.2157 35.3849 33.9509 35.23 33.6656C34.9092 33.0674 34.7458 32.3973 34.7551 31.7186L34.7076 31.7233ZM35.4722 31.7471C35.4696 32.2916 35.6017 32.8284 35.8569 33.3094C35.9766 33.538 36.125 33.7502 36.2985 33.9411C36.6387 34.3185 37.0755 34.596 37.5617 34.7436C37.8093 34.8203 38.0671 34.8588 38.3263 34.8576C38.587 34.8584 38.8464 34.8199 39.0956 34.7436C39.3384 34.6731 39.5701 34.5693 39.7842 34.4349C39.9965 34.3016 40.1912 34.142 40.3636 33.96C40.8987 33.3559 41.1958 32.5778 41.1994 31.7708C41.2005 31.3584 41.1248 30.9493 40.9762 30.5646C40.8351 30.2012 40.6291 29.8665 40.3684 29.5768C40.1093 29.2982 39.8 29.071 39.4566 28.9072C39.1065 28.7411 38.7233 28.6567 38.3358 28.6603C37.949 28.6575 37.5663 28.7402 37.2151 28.9025C36.8717 29.0662 36.5623 29.2934 36.3033 29.572C35.7641 30.1733 35.4679 30.9537 35.4722 31.7613V31.7471Z" fill="black"/>
<path d="M42.8615 29.8333C42.8594 29.5728 42.9094 29.3144 43.0087 29.0735C43.0995 28.8416 43.2333 28.6289 43.4029 28.4466C43.5688 28.2698 43.7671 28.1263 43.987 28.024C44.2099 27.9196 44.4532 27.8661 44.6993 27.8673C44.9471 27.8695 45.1916 27.9245 45.4164 28.0287C45.6395 28.128 45.8399 28.2718 46.0053 28.4514C46.176 28.6329 46.3098 28.8458 46.3995 29.0782C46.4993 29.3207 46.5493 29.5807 46.5467 29.8428C46.5492 30.3552 46.3535 30.8486 46.0006 31.22C45.8326 31.3967 45.6328 31.5401 45.4117 31.6427C45.1868 31.7456 44.9419 31.7975 44.6946 31.7946C44.4485 31.7958 44.2052 31.7422 43.9823 31.6379C43.7628 31.537 43.5645 31.3952 43.3981 31.22C43.2307 31.036 43.0973 30.8238 43.004 30.5931C42.9087 30.3512 42.8603 30.0933 42.8615 29.8333V29.8333ZM43.4504 29.8333C43.4498 30.0118 43.482 30.1889 43.5454 30.3557C43.6065 30.515 43.6967 30.6615 43.8113 30.7879C43.9223 30.9094 44.0563 31.0079 44.2055 31.0775C44.3547 31.1459 44.5163 31.183 44.6804 31.1868C44.8446 31.1843 45.0064 31.1471 45.1552 31.0775C45.3038 31.0068 45.4375 30.9085 45.5494 30.7879C45.6615 30.6623 45.75 30.5175 45.8106 30.3604C45.8756 30.1939 45.9094 30.0168 45.9103 29.8381C45.9114 29.6549 45.8792 29.4731 45.8153 29.3014C45.7538 29.141 45.6637 28.9929 45.5494 28.8645C45.4395 28.7405 45.3054 28.6402 45.1552 28.5701C45.0014 28.498 44.8336 28.4607 44.6637 28.4607C44.4939 28.4607 44.3261 28.498 44.1722 28.5701C44.0223 28.6385 43.8881 28.7371 43.7781 28.8598C43.6627 28.9874 43.5725 29.1356 43.5121 29.2967C43.4557 29.4745 43.4347 29.6617 43.4504 29.8476V29.8333ZM48.8072 27.8008L49.2061 28.0762L44.4999 35.703L44.101 35.4275L48.8072 27.8008ZM46.8506 33.6467C46.8508 33.3864 46.9008 33.1284 46.9978 32.8869C47.091 32.6551 47.2262 32.4425 47.3967 32.26C47.5627 32.0831 47.7609 31.9397 47.9808 31.8374C48.2019 31.7325 48.4438 31.6789 48.6884 31.6806C48.9336 31.6848 49.1753 31.7387 49.399 31.8391C49.6227 31.9395 49.8236 32.0843 49.9896 32.2648C50.2516 32.5497 50.4276 32.9028 50.4973 33.2835C50.567 33.6641 50.5277 34.0568 50.3838 34.416C50.2931 34.6462 50.1575 34.8561 49.9849 35.0334C49.819 35.2103 49.6207 35.3537 49.4008 35.456C49.1757 35.5585 48.931 35.6104 48.6837 35.608C48.4376 35.6091 48.1943 35.5556 47.9714 35.4513C47.7535 35.3499 47.5569 35.2081 47.392 35.0334C47.2234 34.8521 47.0897 34.6412 46.9978 34.4113C46.898 34.1689 46.848 33.9088 46.8506 33.6467ZM47.4347 33.6467C47.4355 33.9975 47.5657 34.3357 47.8004 34.5965C47.9104 34.7192 48.0446 34.8178 48.1946 34.8862C48.3438 34.9545 48.5054 34.9917 48.6694 34.9954C48.8338 34.9936 48.9958 34.9564 49.1443 34.8862C49.2943 34.8178 49.4285 34.7192 49.5385 34.5965C49.6536 34.4723 49.7439 34.3272 49.8044 34.1691C49.8678 34.0022 49.9 33.8252 49.8994 33.6467C49.902 33.465 49.8697 33.2844 49.8044 33.1148C49.7469 32.9535 49.6581 32.805 49.5432 32.6779C49.4324 32.5549 49.2985 32.4548 49.1491 32.3835C49.0014 32.3101 48.8391 32.2712 48.6742 32.2695C48.5098 32.2706 48.3477 32.3079 48.1993 32.3787C48.0494 32.4516 47.9142 32.5514 47.8004 32.6732C47.6883 32.8032 47.5985 32.9508 47.5345 33.1101C47.4672 33.2859 47.4333 33.4727 47.4347 33.6609V33.6467Z" fill="black"/>
<path d="M26.0409 44.2749C26.0656 44.2393 26.0863 44.2011 26.1026 44.1609C26.128 44.0968 26.1455 44.0298 26.1549 43.9615C26.1549 43.8475 26.1928 43.7193 26.2166 43.5768C26.2403 43.4343 26.2593 43.2824 26.2831 43.1019C26.3068 42.9214 26.3306 42.7837 26.3543 42.627C26.3781 42.4703 26.4018 42.3041 26.4208 42.1521C26.4398 42.0002 26.4635 41.8387 26.4873 41.6772C26.511 41.5158 26.5253 41.3923 26.5395 41.2688C26.5538 41.1454 26.5728 41.0409 26.5823 40.9459C26.5918 40.8509 26.5823 40.7892 26.5823 40.7417H26.8909L28.4248 43.6338L29.9445 40.7417H30.1772L30.5761 43.6623C30.5846 43.742 30.5972 43.8213 30.6141 43.8997C30.6229 43.9559 30.6356 44.0115 30.6521 44.0659C30.6618 44.1048 30.6745 44.1429 30.6901 44.1799C30.6985 44.2063 30.7096 44.2318 30.7233 44.2559V44.2559H30.1344C30.1449 44.2282 30.1528 44.1996 30.1582 44.1704C30.161 44.1214 30.161 44.0722 30.1582 44.0232V43.9567C30.1582 43.933 30.1582 43.9092 30.1582 43.8855L29.8495 41.511L28.4248 44.2369H28.2586L26.796 41.5158C26.739 41.9004 26.6867 42.2614 26.644 42.589C26.644 42.7315 26.6108 42.874 26.5918 43.0117C26.5728 43.1494 26.5585 43.2824 26.5443 43.4058C26.53 43.5293 26.5205 43.6338 26.511 43.724C26.5074 43.792 26.5074 43.8602 26.511 43.9282C26.5084 43.9773 26.5084 44.0264 26.511 44.0754C26.508 44.1118 26.508 44.1483 26.511 44.1847C26.511 44.2179 26.511 44.2511 26.511 44.2749H26.0361H26.0409Z" fill="black"/>
<path d="M32.8936 40.7038C33.1498 40.7006 33.4043 40.7457 33.6439 40.8367C33.8647 40.9212 34.0665 41.0487 34.2375 41.2119C34.4089 41.3764 34.5433 41.5755 34.6317 41.796C34.7288 42.0324 34.7773 42.286 34.7741 42.5416C34.7745 42.7014 34.757 42.8606 34.7219 43.0165C34.686 43.1651 34.6317 43.3087 34.5604 43.4439C34.4927 43.5791 34.4081 43.7051 34.3087 43.8191C34.2067 43.9321 34.0901 44.0311 33.9621 44.1135C33.829 44.1972 33.6852 44.2627 33.5347 44.3082C33.3706 44.3528 33.2013 44.3751 33.0313 44.3747C32.774 44.3769 32.5183 44.3335 32.2762 44.2465C32.0554 44.162 31.8536 44.0345 31.6826 43.8713C31.5128 43.7073 31.3786 43.5101 31.2884 43.2919C31.1906 43.054 31.1422 42.7988 31.146 42.5416C31.1449 42.3815 31.164 42.222 31.2029 42.0667C31.2367 41.9181 31.2894 41.7745 31.3597 41.6393C31.4262 41.5034 31.5109 41.3772 31.6114 41.2641C31.7111 41.1487 31.828 41.0494 31.958 40.9697C32.0899 40.8825 32.2339 40.8153 32.3854 40.7703C32.5511 40.7256 32.722 40.7033 32.8936 40.7038V40.7038ZM33.0313 44.142C33.1947 44.1413 33.3563 44.1073 33.5062 44.0423C33.654 43.977 33.7854 43.8797 33.8908 43.7573C34.008 43.6183 34.0953 43.4566 34.1473 43.2824C34.2069 43.0838 34.2357 42.8772 34.2328 42.6698C34.2348 42.4344 34.2061 42.1997 34.1473 41.9717C34.0979 41.7704 34.0109 41.5803 33.8908 41.4114C33.7822 41.2553 33.6371 41.1282 33.4682 41.0409C33.2846 40.9471 33.0807 40.8998 32.8746 40.9032C32.7112 40.9046 32.5498 40.9385 32.3997 41.0029C32.2519 41.066 32.1203 41.1618 32.015 41.2831C31.8999 41.4228 31.8143 41.5843 31.7633 41.758C31.6999 41.9559 31.6695 42.1629 31.6731 42.3706C31.6714 42.606 31.7001 42.8407 31.7586 43.0687C31.808 43.2715 31.895 43.4631 32.015 43.6338C32.1254 43.7913 32.272 43.92 32.4424 44.009C32.6246 44.1016 32.827 44.1473 33.0313 44.142V44.142Z" fill="black"/>
<path d="M35.458 40.7607L37.9702 43.4534V41.7248C37.9702 41.5871 37.9702 41.4636 37.9702 41.3591C37.9702 41.2546 37.9702 41.1644 37.9702 41.0884C37.9702 41.0124 37.9702 40.9507 37.9702 40.8985C37.9702 40.8462 37.9702 40.8035 37.9417 40.7702H38.3738C38.3699 40.8129 38.3699 40.8558 38.3738 40.8985C38.37 40.9617 38.37 41.0252 38.3738 41.0884C38.3738 41.1644 38.3738 41.2546 38.3738 41.3591C38.3738 41.4636 38.3738 41.5871 38.3738 41.7248V44.3367H38.1601L35.648 41.644V43.3252C35.648 43.4629 35.648 43.5863 35.648 43.6908C35.648 43.7953 35.648 43.8855 35.648 43.9568C35.648 44.028 35.648 44.0992 35.648 44.1467C35.648 44.1942 35.648 44.2417 35.6765 44.2749H35.3108C35.3108 44.2401 35.3203 44.1974 35.3393 44.1467C35.3434 44.0835 35.3434 44.02 35.3393 43.9568C35.3393 43.8855 35.3393 43.7953 35.3393 43.6908C35.3393 43.5863 35.3393 43.4629 35.3393 43.3252V41.7248C35.3393 41.5871 35.3393 41.4636 35.3393 41.3591C35.3393 41.2546 35.3393 41.1644 35.3393 41.0884C35.3431 41.0252 35.3431 40.9617 35.3393 40.8985C35.3393 40.8446 35.3298 40.8019 35.3108 40.7702L35.458 40.7607Z" fill="black"/>
<path d="M39.618 40.7607H40.1689H40.5963C40.677 40.7663 40.7579 40.7663 40.8385 40.7607L40.7198 41.0884L40.5298 41.0457L40.3066 41.0172H39.998H39.8602H39.7035H39.5231V42.3611H39.998H40.3399L40.6343 42.3231L40.5583 42.6793L40.2117 42.6413L39.884 42.6081H39.5421V44.1515C39.7368 44.1515 39.9125 44.1515 40.0739 44.1515L40.4966 44.0945C40.6343 44.0945 40.7625 44.0422 40.8765 44.0138L40.8053 44.4079H39.0292C39.0292 44.3731 39.0387 44.3303 39.0577 44.2797C39.0577 44.2322 39.0577 44.1657 39.0814 44.0897C39.1052 44.0137 39.0814 43.9283 39.0814 43.8238C39.0814 43.7193 39.0814 43.5958 39.0814 43.4581V41.8577C39.0814 41.72 39.0814 41.5965 39.0814 41.4921C39.0814 41.3876 39.0814 41.2974 39.0814 41.2214C39.0814 41.1454 39.0814 41.0837 39.0577 41.0314C39.0339 40.9792 39.0577 40.9365 39.0292 40.9032L39.618 40.7607Z" fill="black"/>
<path d="M42.8806 42.5936V43.3249C42.8806 43.4627 42.8806 43.5861 42.8806 43.6906C42.8806 43.7951 42.8806 43.8853 42.8806 43.9565C42.8806 44.0278 42.8806 44.099 42.8806 44.1465C42.8806 44.194 42.8806 44.2415 42.9091 44.2747H42.3249C42.3249 44.2399 42.3344 44.1972 42.3534 44.1465C42.3572 44.0832 42.3572 44.0198 42.3534 43.9565C42.3591 43.868 42.3591 43.7792 42.3534 43.6906C42.3534 43.5861 42.3534 43.4627 42.3534 43.3249V42.6458L41.2612 41.1499C41.2232 41.0977 41.19 41.0502 41.152 41.0075L41.0475 40.8982L40.962 40.8175L40.9003 40.77H41.6364C41.6441 40.8335 41.6601 40.8958 41.6838 40.9552C41.7285 41.063 41.7859 41.165 41.8548 41.2592L42.6574 42.3657L43.4409 41.2117C43.4409 41.1689 43.4932 41.1262 43.5217 41.0834L43.5977 40.96C43.6193 40.9267 43.6383 40.8917 43.6546 40.8555C43.6581 40.8271 43.6581 40.7984 43.6546 40.77H44.1295L43.9871 40.9077C43.9145 40.9837 43.8493 41.0664 43.7924 41.1547L42.8806 42.5936Z" fill="black"/>
<path d="M29.8116 47.7652C29.8116 47.6274 29.8116 47.504 29.8116 47.3995C29.8116 47.295 29.8116 47.2048 29.8116 47.1288C29.8116 47.0528 29.8116 46.9911 29.8116 46.9388C29.8116 46.8866 29.8116 46.8439 29.7831 46.8106H30.087C30.166 46.8161 30.2454 46.8161 30.3244 46.8106C30.4226 46.8106 30.5508 46.8106 30.7091 46.8106C30.8473 46.8092 30.985 46.8284 31.1175 46.8676C31.2332 46.9023 31.3412 46.9587 31.4357 47.0338C31.5257 47.1056 31.5987 47.1964 31.6494 47.2998C31.7022 47.4126 31.7282 47.5361 31.7254 47.6607C31.7277 47.764 31.7117 47.8669 31.6779 47.9646C31.6364 48.0416 31.5799 48.1094 31.5117 48.1641C31.4548 48.2319 31.3855 48.2883 31.3075 48.3303C31.2268 48.3772 31.1407 48.4139 31.051 48.4395C31.1801 48.4579 31.3062 48.493 31.4262 48.544C31.534 48.5909 31.6334 48.655 31.7206 48.7339C31.8013 48.8069 31.866 48.8959 31.9106 48.9951C31.955 49.102 31.9776 49.2166 31.9771 49.3323C31.9874 49.4796 31.9622 49.6273 31.9035 49.7628C31.8448 49.8984 31.7544 50.0178 31.6399 50.1111C31.3378 50.3047 30.9816 50.3962 30.6236 50.3723H30.4527H30.2532H30.0585H29.7261C29.7261 50.3406 29.7356 50.2979 29.7546 50.2441C29.7546 50.1966 29.7546 50.1301 29.7546 50.0541C29.7546 49.9781 29.7546 49.8927 29.7546 49.7882C29.7546 49.6837 29.7546 49.5602 29.7546 49.4225L29.8116 47.7652ZM30.2532 48.3968H30.3767H30.4907C30.5942 48.3968 30.697 48.3792 30.7946 48.3445C30.8827 48.3169 30.9626 48.268 31.0273 48.2021C31.0935 48.1349 31.1438 48.0538 31.1745 47.9646C31.2129 47.8565 31.2306 47.7421 31.2267 47.6274C31.2291 47.5295 31.2163 47.4318 31.1887 47.3377C31.1673 47.256 31.1285 47.1798 31.0748 47.1145C31.0235 47.0529 30.9584 47.0041 30.8848 46.9721C30.8029 46.9409 30.716 46.9248 30.6284 46.9246H30.4669H30.3482H30.2532V48.3968ZM30.7281 48.582C30.6364 48.5762 30.5444 48.5762 30.4527 48.582L30.277 48.6057V49.3513C30.277 49.5412 30.277 49.7027 30.277 49.8262C30.277 49.9497 30.2769 50.0494 30.3054 50.1301L30.4907 50.1539H30.6379C30.8796 50.1722 31.1191 50.0974 31.3075 49.9449C31.3826 49.8598 31.4398 49.7604 31.4757 49.6527C31.5116 49.545 31.5255 49.4312 31.5164 49.318C31.5168 49.2129 31.4992 49.1085 31.4642 49.0094C31.433 48.9204 31.3828 48.8394 31.317 48.7719C31.2349 48.7069 31.1391 48.6614 31.0368 48.639C30.93 48.6011 30.8176 48.5819 30.7044 48.582H30.7281Z" fill="black"/>
<path d="M34.9593 50.3247C34.9593 50.3247 34.9593 50.3247 34.9593 50.2867C34.9616 50.2725 34.9616 50.2581 34.9593 50.244C34.9656 50.1887 34.9656 50.133 34.9593 50.0777C34.9421 49.9978 34.9167 49.9198 34.8833 49.845L34.5889 49.1755H33.0265L32.7463 49.8261L32.6656 50.0255C32.6392 50.0953 32.6263 50.1694 32.6276 50.244C32.6248 50.2613 32.6248 50.2789 32.6276 50.2962C32.6239 50.3053 32.6239 50.3156 32.6276 50.3247H32.1527C32.1962 50.2743 32.233 50.2184 32.2619 50.1585C32.3047 50.0777 32.3522 49.9828 32.4044 49.8593L33.7911 46.7393H33.9858L35.3107 49.7311C35.344 49.8023 35.3725 49.8688 35.4105 49.9353L35.5007 50.1157C35.5292 50.168 35.5577 50.2107 35.5814 50.2487L35.6242 50.3152L34.9593 50.3247ZM33.3779 48.9523H34.4749L33.7863 47.3899L33.1167 48.9617L33.3779 48.9523Z" fill="black"/>
<path d="M38.7537 47.3426C38.6163 47.2164 38.4548 47.1195 38.2788 47.0576C38.0921 46.9876 37.8941 46.9522 37.6947 46.9532C37.5018 46.951 37.3101 46.9848 37.1296 47.0529C36.9643 47.1113 36.8147 47.2072 36.6927 47.3331C36.564 47.4694 36.4653 47.6312 36.403 47.808C36.3342 48.0031 36.3005 48.2089 36.3033 48.4158C36.2996 48.6536 36.3316 48.8905 36.3983 49.1187C36.4569 49.3242 36.5553 49.5162 36.6879 49.6838C36.816 49.843 36.9783 49.9712 37.1628 50.059C37.3746 50.1543 37.605 50.2013 37.8372 50.1967C37.93 50.1974 38.0226 50.1862 38.1126 50.1634C38.2042 50.145 38.2934 50.1163 38.3786 50.078C38.4633 50.0396 38.5444 49.9935 38.6207 49.9402C38.6955 49.8845 38.7639 49.8208 38.825 49.7503H38.8534L38.6587 50.2489C38.5284 50.2993 38.3931 50.3359 38.2551 50.3581C38.1078 50.3851 37.9584 50.3979 37.8087 50.3961C37.5296 50.3994 37.2519 50.3561 36.9871 50.2679C36.7494 50.1862 36.53 50.0587 36.3413 49.8928C36.1613 49.7325 36.0186 49.5347 35.9234 49.3134C35.8202 49.0768 35.7684 48.8211 35.7714 48.5631C35.7692 48.4026 35.79 48.2427 35.8331 48.0882C35.8706 47.9379 35.9298 47.7939 36.0088 47.6608C36.1643 47.3804 36.3944 47.1486 36.6737 46.9912C36.8224 46.9037 36.9821 46.8367 37.1486 46.7917C37.3321 46.7474 37.5202 46.725 37.709 46.7252C38.0062 46.7223 38.3018 46.7705 38.5828 46.8677L38.7537 47.3426Z" fill="black"/>
<path d="M39.3046 50.3155C39.3046 50.2838 39.3141 50.2411 39.3331 50.1872C39.3331 50.1398 39.3331 50.0733 39.3331 49.9973C39.3331 49.9213 39.3331 49.8358 39.3331 49.7314C39.3331 49.6269 39.3331 49.5034 39.3331 49.3657V47.7653C39.3331 47.6276 39.3331 47.5041 39.3331 47.3996C39.3331 47.2952 39.3331 47.2049 39.3331 47.1289C39.3331 47.053 39.3331 46.9912 39.3331 46.939C39.3331 46.8868 39.3331 46.844 39.3046 46.8108H39.8887C39.8887 46.8424 39.8792 46.8852 39.8602 46.939C39.8566 47.0023 39.8566 47.0657 39.8602 47.1289C39.8602 47.2049 39.8602 47.2952 39.8602 47.3996C39.8602 47.5041 39.8602 47.6276 39.8602 47.7653V48.3114L41.2849 47.1384C41.4463 47.0102 41.5271 46.8962 41.5271 46.8013H42.2109C42.1059 46.8285 42.0063 46.8734 41.9165 46.9342C41.8075 47.0073 41.7029 47.0866 41.603 47.1717L40.3493 48.2307L41.8595 49.9071L42.0209 50.0733L42.1397 50.1825C42.1695 50.2072 42.2012 50.2294 42.2346 50.249L42.3249 50.306H41.6078C41.6003 50.2861 41.5907 50.267 41.5793 50.249L41.5223 50.1778L41.4558 50.1018L41.3893 50.0305L39.8602 48.3399V49.3467C39.8602 49.4844 39.8602 49.6079 39.8602 49.7124C39.8602 49.8168 39.8602 49.9071 39.8602 49.9783C39.8564 50.0416 39.8564 50.105 39.8602 50.1683C39.8602 50.2221 39.8697 50.2648 39.8887 50.2965H39.3046V50.3155Z" fill="black"/>
<defs>
<radialGradient id="paint0_radial" cx="0" cy="0" r="1" gradientUnits="userSpaceOnUse" gradientTransform="translate(1996.21 3290.63) scale(1004.38 1309.04)">
<stop stop-color="#FFFBC9"/>
<stop offset="0.11" stop-color="#F8F0B8"/>
<stop offset="0.34" stop-color="#E7D48B"/>
<stop offset="0.37" stop-color="#E4D085"/>
<stop offset="0.69" stop-color="#DBB340"/>
<stop offset="1" stop-color="#AD8A49"/>
</radialGradient>
<radialGradient id="paint1_radial" cx="0" cy="0" r="1" gradientUnits="userSpaceOnUse" gradientTransform="translate(6132.38 2617.41) scale(2660.33 862.738)">
<stop stop-color="#FFFBC9"/>
<stop offset="0.11" stop-color="#F8F0B8"/>
<stop offset="0.34" stop-color="#E7D48B"/>
<stop offset="0.37" stop-color="#E4D085"/>
<stop offset="0.69" stop-color="#DBB340"/>
<stop offset="1" stop-color="#AD8A49"/>
</radialGradient>
<radialGradient id="paint2_radial" cx="0" cy="0" r="1" gradientUnits="userSpaceOnUse" gradientTransform="translate(4073.78 3303.88) scale(1009.6 1315.16)">
<stop stop-color="#FFFBC9"/>
<stop offset="0.11" stop-color="#F8F0B8"/>
<stop offset="0.34" stop-color="#E7D48B"/>
<stop offset="0.37" stop-color="#E4D085"/>
<stop offset="0.69" stop-color="#DBB340"/>
<stop offset="1" stop-color="#AD8A49"/>
</radialGradient>
</defs>
</svg>
