<svg width="66" height="66" viewBox="0 0 66 66" fill="none" xmlns="http://www.w3.org/2000/svg">
<path fill-rule="evenodd" clip-rule="evenodd" d="M33.5335 0.479524C29.2534 0.473532 25.0143 1.31297 21.06 2.94947C17.1057 4.58597 13.5142 6.98726 10.492 10.0153C4.39259 16.1192 0.966797 24.3918 0.966797 33.0168C0.966797 41.6418 4.39259 49.9143 10.492 56.0182C14.2806 59.7842 18.9396 62.5598 24.057 64.0993C29.1745 65.6388 34.5928 65.8949 39.8329 64.845C45.073 63.7951 49.9735 61.4715 54.1011 58.0797C58.2287 54.6879 61.4562 50.3322 63.4984 45.3979C65.5405 40.4636 66.3343 35.1027 65.8097 29.789C65.285 24.4753 63.458 19.3727 60.4902 14.9321C57.5225 10.4916 53.5053 6.85 48.7939 4.32927C44.0825 1.80854 38.822 0.486276 33.4776 0.479524H33.5335ZM37.2619 19.309L23.8211 32.7374C23.7658 32.8201 23.7362 32.9174 23.7362 33.0168C23.7362 33.1163 23.7658 33.2134 23.8211 33.2961L37.2619 46.7245C37.3484 46.7791 37.4486 46.8082 37.5509 46.8082C37.6532 46.8082 37.7534 46.7791 37.8399 46.7245L40.8226 43.7446L30.2526 33.2961C30.1973 33.2134 30.1677 33.1163 30.1677 33.0168C30.1677 32.9174 30.1973 32.8201 30.2526 32.7374L40.8226 22.289L37.8399 19.309C37.7534 19.2544 37.6532 19.2254 37.5509 19.2254C37.4486 19.2254 37.3484 19.2544 37.2619 19.309Z" fill="url(#paint0_linear)"/>
<defs>
<linearGradient id="paint0_linear" x1="39.6499" y1="0.479491" x2="-0.885058" y2="8.10233" gradientUnits="userSpaceOnUse">
<stop stop-color="#6CB71D"/>
<stop offset="1" stop-color="#208318"/>
</linearGradient>
</defs>
</svg>
