<svg width="67" height="70" viewBox="0 0 67 70" fill="none" xmlns="http://www.w3.org/2000/svg">
<path d="M28.1768 4.37546C27.9536 4.00251 28.1768 3.55467 27.7275 3.54119C26.8932 3.51573 26.2866 3.12031 25.7429 2.55564L25.2217 2.04041C25.5422 1.86067 25.2681 1.10579 25.984 1.27504C26.1338 1.30949 26.4888 1.10728 26.4993 0.993452C26.5352 0.563586 26.8123 0.422794 27.0789 0.598036C27.2467 0.708872 27.8728 0.849663 27.4204 1.36191C27.371 1.41732 27.5298 1.73635 27.6616 1.85618C28.009 2.17071 28.0135 1.82772 28.0031 1.62402C27.9881 1.34244 28.6741 1.12526 28.0779 0.801735C28.1828 0.717859 28.2802 0.580061 28.3955 0.562088C28.639 0.539827 28.8838 0.536323 29.1279 0.551605C29.1683 0.653454 29.2088 0.7568 29.2507 0.858649L29.4994 0.551605C29.736 0.476715 30.0985 0.27002 30.1853 0.352398C30.6122 0.773277 30.7156 0.0243813 31.084 0.159182C31.3551 0.259534 31.6936 0.178654 32.0022 0.178654C32.3107 0.178654 32.6642 0.0812988 32.9188 0.198126C33.7036 0.557596 34.4495 0.0708127 35.2104 0.180151C35.6747 0.247552 36.1376 0.382354 36.6004 0.380857C37.0632 0.379359 37.5634 0.223588 38.0487 0.187641C38.5407 0.147951 39.0351 0.147951 39.527 0.187641C40.6504 0.287993 41.7737 0.403322 42.8851 0.578564C43.0633 0.605524 43.1472 1.0279 43.3479 1.1657C43.5127 1.27204 43.8616 2.22613 44.0144 1.13424C44.0144 1.07433 44.1956 0.970985 44.2451 0.993452C44.7139 1.20464 45.2576 1.35292 45.6021 1.69741C45.8357 1.93107 45.7788 2.44631 45.8687 2.83873C45.909 2.94594 45.9645 3.04682 46.0334 3.13828C46.1301 3.07319 46.2169 2.9945 46.2911 2.90463C46.4109 2.71141 46.4828 2.48525 46.6161 2.30551C46.6581 2.26289 46.7101 2.2314 46.7674 2.21389C46.8247 2.19637 46.8854 2.19337 46.9441 2.20516C47.6271 2.49274 48.2756 2.93009 48.9826 3.07238C49.7315 3.22216 49.8528 3.77035 50.1314 4.26163C50.7575 3.63705 51.2667 4.26163 51.5034 4.59563C51.8029 5.01501 52.6686 5.47034 51.9257 6.2432C51.8913 6.27765 52.089 6.6476 52.2493 6.73448C52.6701 6.96064 52.4979 6.55324 52.5488 6.39597C52.6222 6.19228 52.6866 5.98708 52.7555 5.78188C52.8228 5.93975 52.8764 6.10311 52.9158 6.27016C52.9427 6.4499 52.9158 6.63862 52.9158 6.82434C52.9397 7.38152 53.1045 7.1239 53.413 6.97412C53.7216 6.82434 54.2383 6.57272 54.4016 7.24522C54.138 7.29615 53.7396 7.07747 53.6797 7.52531C53.6617 7.66161 53.9058 7.83385 54.0301 7.98812C53.9433 8.1379 53.8489 8.28019 53.7725 8.43746C53.5254 8.93173 53.6227 9.33613 54.0526 9.6986C54.4825 10.0611 54.6622 9.6986 54.9513 9.50539C55.2403 9.31217 55.5714 9.23578 55.8859 9.10847C56.2783 9.68662 56.6513 10.2812 57.0841 10.8279C57.1545 10.9163 57.5005 10.786 57.7192 10.756C57.7192 11.0556 57.6533 11.4016 57.7641 11.6637C57.8914 11.9633 58.1715 12.2044 58.4127 12.4425C58.4576 12.4875 58.6388 12.4216 58.7377 12.3707C58.7661 12.3557 58.7527 12.1804 58.7047 12.1235C58.5445 11.9363 58.2794 11.797 58.2075 11.5873C58.1161 11.3267 58.1775 11.0122 58.173 10.7216C58.3917 10.8549 58.6808 10.9403 58.8171 11.132C59.2859 11.7925 59.6543 12.5294 60.1531 13.1645C60.6024 13.7366 61.2435 14.1935 60.7178 15.0382C61.1911 15.2734 60.7178 16.2155 61.582 16.1945C61.6509 16.1945 61.7318 16.56 61.8037 16.7562C61.5952 16.7937 61.383 16.8063 61.1716 16.7936C61.0128 16.7667 60.872 16.5645 60.7223 16.56C60.6443 16.57 60.5704 16.6004 60.5078 16.6479C60.4453 16.6955 60.3963 16.7587 60.3658 16.8311C60.3596 16.9142 60.3742 16.9975 60.4082 17.0736C60.4422 17.1496 60.4945 17.2161 60.5605 17.2669C60.8728 17.4161 61.208 17.5118 61.552 17.55C62.8132 17.6564 62.9585 18.5221 62.9465 19.5121H62.584C62.6379 18.892 61.4622 19.28 61.7363 18.4801L61.1237 18.5565C61.2734 18.9879 60.6743 19.617 61.6389 19.9929C61.7512 20.0288 61.6928 19.957 61.6389 19.8851L61.4726 20.0498C61.5429 20.1108 61.618 20.1659 61.6973 20.2146C61.7108 20.2221 61.7722 20.1442 61.6434 19.9929C61.6434 19.1676 62.223 19.6544 62.5885 19.5121C62.6289 19.6155 62.6694 19.7188 62.7113 19.8207L62.9599 19.5121C63.1097 19.7757 64.1252 22.1827 64.0698 22.2381C63.4288 22.8761 63.6984 23.1532 64.4308 23.4258C65.0059 23.64 64.7962 24.2481 64.8936 24.8472C64.7708 24.8188 64.7079 24.7214 64.6465 24.7244C64.4847 24.7404 64.3245 24.7689 64.1672 24.8098C64.1881 24.8922 64.2091 25.0449 64.2301 25.0434C64.4662 25.0483 64.6981 24.9797 64.8936 24.8472C65.1572 25.2966 65.7294 26.9187 65.5436 27.049C64.7213 27.6271 65.4882 28.1529 65.6065 28.6082C65.8192 29.429 66.0094 30.0865 65.948 30.9372C65.9286 31.229 65.9964 31.5199 66.1427 31.773C66.3839 32.1639 66.1203 32.119 65.8956 32.1475C65.4897 32.1999 65.5811 32.3527 65.7938 32.5698C66.1907 32.9712 65.644 33.1854 65.6215 33.4685C65.608 33.6722 66.0139 33.9029 66.2311 34.12C66.1323 34.2069 66.0454 34.3432 65.9316 34.3732C65.3429 34.5304 65.5167 34.8225 65.7668 35.1475C65.9166 35.3527 66.0484 35.5819 66.1877 35.8006C65.1183 35.9369 65.9181 36.2619 66.0768 36.5929C66.2161 36.8925 66.3569 37.3508 66.2266 37.565C66.0289 37.8765 66.0769 37.9619 66.2416 38.2599C66.4633 38.6464 66.3584 38.7093 65.8282 38.5415C65.5152 38.4397 65.2291 38.3678 65.1962 38.8411L64.8876 38.9639L65.1962 39.214C65.1587 39.3129 65.1243 39.4117 65.0838 39.5136C65.0344 39.6349 64.979 39.7562 64.934 39.8775C65.0374 39.9045 65.1602 39.9824 65.2336 39.9509C65.4777 39.8521 65.7069 39.7113 65.9406 39.5885C66.2895 39.9734 66.2401 40.3598 65.9406 40.7418C65.5212 41.2915 65.6874 41.633 66.312 41.8172C66.3225 42.1332 65.6844 42.4448 66.3225 42.7803C66.4438 42.8447 66.5546 43.2296 66.5127 43.2566C66.1008 43.5771 66.7538 43.7508 66.6131 43.8946C66.4723 44.0384 66.1637 43.962 65.9705 44.0579C65.707 44.1657 65.4729 44.3346 65.2875 44.5506C65.2021 44.6705 65.3399 44.9476 65.3759 45.1498C65.5032 45.0284 65.6275 44.9011 65.7638 44.7903C65.7998 44.7603 65.8806 44.7903 65.9406 44.7903V45.5392C65.8418 45.563 65.747 45.6008 65.659 45.6515C65.6365 45.6695 65.6979 45.8013 65.7204 45.8762C65.8135 45.8112 65.8891 45.7243 65.9406 45.6231C66.4977 45.5077 66.2566 45.0779 66.312 44.7963C66.4618 44.973 66.983 44.3844 66.8931 45.1887C66.7793 46.2207 65.7264 47.2032 66.649 48.3341C66.7254 48.4299 66.4064 48.8119 66.3315 49.083C66.2865 49.2477 67.0534 49.423 66.3465 49.6057C66.2536 49.6296 65.996 49.357 65.9585 49.1893C65.8941 48.8972 65.9585 48.5767 65.9346 48.2726C65.9106 47.9686 65.8297 47.702 65.7743 47.4174C65.4747 47.5792 65.0479 47.672 64.9191 47.9192C64.7902 48.1663 64.946 48.5692 65.0494 48.8793C65.0928 49.0066 65.3309 49.068 65.4807 49.1593C65.2456 49.2163 65.2471 49.7824 64.8217 49.4589C64.7453 49.402 64.5791 49.4589 64.4532 49.4709C64.5027 49.6356 64.4997 49.8783 64.603 49.9487C64.8847 50.1435 65.2001 50.2842 65.5332 50.3636C66.2476 50.5133 65.9181 51.0016 65.8716 51.3506C65.8192 51.743 65.0853 50.6017 65.1872 51.6127C65.2291 52.0216 65.0658 52.4844 65.5332 52.7615C65.4598 52.8334 65.3834 52.9727 65.3145 52.9652C65.1452 52.9173 64.8457 52.8379 64.8457 52.7675C64.7858 51.6906 64.2945 52.4515 64.2061 52.6657C64.0908 52.9458 64.1447 53.3382 64.2391 53.6482C64.3334 53.9583 64.6075 54.2324 64.7348 54.5469C65.0344 55.2718 64.4802 55.1625 63.9859 55.1715H64.0683C64.0447 55.0727 64.0069 54.9778 63.956 54.8899C63.938 54.8659 63.8062 54.9288 63.7313 54.9513C63.7966 55.0447 63.8841 55.1204 63.9859 55.1715C63.8197 55.7466 63.4932 56.3023 63.3419 56.9014C63.0992 57.869 62.7637 57.3867 62.3908 57.0332C62.3578 57.0018 62.271 57.0332 62.2096 57.0332C62.2011 56.725 62.2374 56.4173 62.3174 56.1196C62.3533 56.0072 62.2815 56.0656 62.2096 56.1196L62.3743 56.2858C62.4358 56.2161 62.4914 56.1415 62.5406 56.0626C62.5406 56.0492 62.4687 55.9878 62.3174 56.1151C61.928 56.3412 61.4966 56.1016 61.4652 56.7397V56.6618C61.3664 56.6856 61.2716 56.7234 61.1836 56.7741C61.1611 56.7921 61.2225 56.9239 61.245 56.9988C61.3381 56.9338 61.4137 56.8468 61.4652 56.7456C61.7274 56.8047 61.9797 56.9016 62.2141 57.0332C62.2141 57.4032 62.2785 57.7821 62.1946 58.1386C62.1182 58.4621 62.9225 58.6329 62.3069 58.9848C62.3908 59.0777 62.4702 59.2424 62.5615 59.2514C63.0199 59.2904 63.0558 59.5944 62.8761 59.861C62.7847 59.9973 62.4432 59.9629 62.2141 60.0108C62.1736 59.9075 62.1317 59.8056 62.0912 59.7023L61.8426 60.0108C61.1761 60.2789 61.4831 60.6983 61.6374 61.1282C61.6868 61.2645 61.5955 61.4816 61.5116 61.6314C61.3334 61.9505 61.1671 61.7812 61.0038 61.5925C60.8951 61.4463 60.7648 61.3175 60.6174 61.2105C60.0183 60.8406 60.9005 60.6833 60.8346 60.2115C60.8705 60.0992 60.7986 60.1576 60.7267 60.2115L60.893 60.3763C60.9535 60.3062 61.0086 60.2316 61.0578 60.1531C61.0578 60.1396 60.9859 60.0782 60.8346 60.2055C59.6289 60.6788 58.9534 59.4566 57.9004 59.5899C57.8615 59.5899 57.7716 59.5031 57.7761 59.4656C57.9124 58.3917 57.2489 58.1326 56.3772 58.0502C56.3307 58.0502 56.2783 57.7327 56.2948 57.5709C56.3314 57.3899 56.3881 57.2136 56.464 57.0452C56.294 57.0579 56.1268 57.0963 55.9683 57.159C55.8177 57.267 55.6835 57.3962 55.5699 57.5425C54.8674 58.2914 54.9138 58.6568 55.8065 59.2574C55.9443 59.3488 56.4221 59.4566 56.1061 59.539C54.8929 59.861 56.0147 60.3328 56.0806 60.3388C56.4341 60.3703 56.6273 60.4257 56.6513 60.8511C56.6722 61.2525 56.3218 61.892 57.2084 61.913C57.3582 61.913 56.8625 62.9615 56.5539 62.9615C56.503 62.9615 56.3742 62.7158 56.4041 62.6619C56.7531 62.1317 55.9832 61.7752 56.175 61.2435C56.1959 61.1896 55.6268 60.8091 55.3212 60.7942C55.1505 60.7852 54.9213 61.1986 54.7865 61.4562C54.7116 61.606 54.8524 61.9055 54.7596 61.9909C54.2578 62.4762 54.5139 62.59 55.0232 62.6904C55.0876 62.7023 55.0981 63.0034 55.1325 63.1712C55.0022 63.1562 54.8704 63.1367 54.7401 63.1262C54.5289 63.1082 54.3177 63.0963 54.1065 63.0813C54.099 63.249 54.0152 63.4917 54.0945 63.5711C54.6263 64.0998 54.2174 64.0384 53.8204 64.1058C53.5408 64.173 53.283 64.3107 53.0716 64.5057C52.6971 64.8262 53.1809 65.5287 52.5488 65.7638C52.7076 65.8237 52.9517 65.984 53.0161 65.9301C53.7336 65.331 53.8699 65.8941 54.0316 66.4109C54.3042 67.2826 54.2428 67.2212 54.0017 67.4443C53.3591 68.0435 53.103 67.4219 52.7765 67.0924C52.5518 66.8662 52.4425 66.4678 52.1864 66.3435C51.8553 66.1862 51.4929 66.3435 51.2248 66.6745C51.1514 66.7643 50.8713 66.688 50.6856 66.688C50.5942 66.5636 50.5238 66.3644 50.407 66.3315C50.1254 66.2506 49.736 66.3105 50.1823 65.8717C50.2857 65.7713 50.2213 65.4703 50.3231 65.4074C51.072 64.946 50.4819 64.5222 50.3141 64.0863C50.424 64.0584 50.5291 64.0139 50.6257 63.9545C51.1664 63.4842 51.6861 63.0364 51.084 62.2171C50.9342 62.0224 50.8908 61.4682 51.5198 61.4592C51.6142 61.4592 51.8284 61.0533 51.773 60.935C51.6232 60.6249 51.3656 60.3703 51.1499 60.0932C50.7979 60.7073 50.6152 59.8371 50.3141 59.9988V59.6274C51.0316 59.4536 50.5448 58.8785 50.7949 58.3423C50.8309 58.2299 50.759 58.2884 50.6856 58.3423L50.8518 58.5085C50.9128 58.4383 50.9679 58.3632 51.0166 58.2839C51.0241 58.2704 50.9462 58.2105 50.7949 58.3378C50.2617 58.519 49.6446 58.3962 50.3021 59.1151C50.389 59.2095 50.3141 59.4492 50.3141 59.6229C49.9352 59.6738 49.6027 59.6034 49.384 59.2529C49.3226 59.5285 49.2013 59.8101 49.2342 60.0767C49.2447 60.1891 49.5802 60.3628 49.748 60.3418C49.9502 60.3194 50.1299 60.1187 50.3201 59.9943C50.4324 61.5985 50.4175 61.588 49.721 62.6664C49.6401 62.7922 49.8603 63.1157 49.9412 63.3389C49.4469 63.2146 48.9841 63.4887 48.9092 63.8526C48.7205 64.7993 47.8922 64.8397 47.2811 65.1872C47.1418 65.2651 46.8602 65.1437 46.7629 65.2366C45.8642 66.1113 44.6435 66.2851 43.5366 66.6939C43.4123 66.7404 43.3434 66.9306 43.2491 67.0549L42.5631 67.2991L43.2491 68.1693C43.2176 68.725 42.7862 68.4853 42.5002 68.5407C42.3451 68.305 42.1766 68.0785 41.9954 67.8622C41.8416 67.7249 41.6739 67.6039 41.4951 67.5013C41.4592 67.7244 41.4217 67.9506 41.3858 68.1693H41.0129L40.6414 67.7978C40.5088 67.6546 40.3577 67.5296 40.1921 67.4264H40.2819C40.2581 67.3276 40.2203 67.2328 40.1696 67.1448C40.1516 67.1208 40.0198 67.1837 39.9449 67.2062C40.0058 67.3057 40.0908 67.3881 40.1921 67.4458C40.3579 67.5488 40.509 67.6738 40.6414 67.8173L41.0129 68.1887C41.0548 68.2921 41.0952 68.3939 41.1357 68.4973L41.3858 68.1887C41.5086 68.2861 41.7138 68.3625 41.7438 68.4883C41.91 69.1608 40.6369 68.7879 40.9245 69.5832C40.7942 69.5173 40.6669 69.4005 40.5321 69.3945C39.7053 69.351 39.8551 68.3535 39.2515 68.1049C39.3428 67.9221 39.4971 67.7469 39.5121 67.5582C39.536 67.2586 39.5121 66.8572 39.0717 67.326C39.0582 67.341 38.7931 67.1972 38.7961 67.1358C38.847 66.1083 37.7087 65.3999 38.0382 64.3065C37.9109 64.3065 37.7267 64.2496 37.6683 64.3065C37.5045 64.4699 37.3805 64.6687 37.3058 64.8876C37.1785 65.319 36.9344 65.2845 36.6393 65.1093C36.536 65.0479 36.4386 64.8502 36.3787 64.8667C35.829 65.0164 35.2868 65.1842 34.7431 65.3504C35.1091 65.5909 35.4593 65.8545 35.7916 66.1398C36.0911 66.4393 36.157 66.0394 36.3248 66.0229C36.518 66.005 36.7262 66.1218 36.9239 66.1727C36.8145 66.3465 36.6842 66.6805 36.6004 66.6685C35.9264 66.5771 35.6867 66.8362 35.8065 67.4893C35.9114 68.0614 35.6433 68.1917 35.0981 68.1947C33.6692 68.2037 32.2523 68.2097 30.9747 67.4369C30.9342 67.3335 30.8938 67.2317 30.8519 67.1283L30.6092 67.4458C30.3022 67.4458 29.8603 67.5776 29.7105 67.4249C28.6846 66.3644 27.6241 66.8572 26.5322 67.2347C26.1383 67.371 25.6845 67.1403 25.334 67.6495C25.0899 68.0015 25.0839 67.5237 25.0419 67.3605C24.9266 66.9111 24.5596 67.1283 24.293 67.0744C24.4623 66.2057 23.6265 66.0125 23.2341 66.0155C22.3354 66.0229 21.6569 65.5751 20.9649 65.1947C19.9435 64.633 18.9115 64.3424 17.7492 64.4652C17.1501 64.5296 16.5839 64.5042 16.1016 63.9575C15.8889 63.7208 15.3273 63.7942 14.9229 63.7298C14.6548 63.6879 14.2653 63.8661 14.3702 63.1876C14.4061 63.0753 14.3342 63.1337 14.2608 63.1876L14.4271 63.3539C14.4877 63.2839 14.5428 63.2093 14.5919 63.1307C14.5993 63.1157 14.5215 63.0558 14.3702 63.1831C14.238 63.3 14.0657 63.3612 13.8894 63.3539C13.6857 62.4956 12.6912 62.3848 12.2883 61.6464C12.107 61.3154 11.3746 61.209 10.8728 61.1431C10.0536 61.0338 9.48889 60.5755 8.90326 60.0572C6.31957 57.7611 4.92812 54.773 3.84073 51.5843C3.39139 50.2902 3.09184 48.9302 2.35642 47.7529C1.80523 46.8722 2.01043 45.8298 1.65396 44.8936C1.3544 44.0878 1.34092 43.1697 1.18066 42.3055C1.17017 42.244 0.981452 42.2156 0.8811 42.1722C0.8811 40.6908 0.8811 39.2095 0.8811 37.7282C0.8811 37.4047 1.05784 36.9554 0.424274 36.9449C0.329914 36.9449 0.240047 36.5944 0.148682 36.4057C0.35987 36.3742 0.580044 36.2903 0.779249 36.3263C0.945504 36.3562 1.14771 36.8011 1.22859 36.3398C1.30902 35.8569 1.29478 35.3629 1.18665 34.8854C1.08779 34.4136 0.639956 35.5819 0.515639 34.8015C0.46771 34.502 0.530618 34.183 0.50216 33.8774C0.457226 33.4131 0.601014 33.1974 1.10128 33.2468C1.60154 33.2963 1.87563 32.9548 1.98347 32.5189C2.13325 31.8973 2.3729 31.2548 2.32497 30.6407C2.27554 29.9876 2.69792 29.5353 2.74884 28.9407C2.89113 27.2931 4.14478 23.6205 4.82777 22.0299C5.98706 19.3339 7.61366 16.9509 9.42599 14.6743L9.79893 14.3028C10.3546 14.2713 10.1135 13.8415 10.2782 13.3892C10.3142 13.2768 10.2423 13.3352 10.1704 13.3892L10.3351 13.5554C10.3962 13.4854 10.4518 13.4108 10.5014 13.3322C10.5014 13.3173 10.4295 13.2573 10.2782 13.3847C10.1966 13.4196 10.1057 13.4263 10.0199 13.4034C9.93406 13.3806 9.85838 13.3297 9.80493 13.2588C9.71885 13.1243 9.64801 12.9807 9.59374 12.8305C9.41999 13.0042 9.17136 13.1525 9.09647 13.3622C9.04555 13.512 9.20731 13.7591 9.33013 13.9209C9.47023 14.0655 9.62769 14.1923 9.79893 14.2983L9.42599 14.6698C8.99312 14.4226 8.55277 14.1845 8.13339 13.9209C8.07797 13.8849 8.13339 13.6797 8.13339 13.5539C8.13339 13.4281 8.13339 13.2124 8.10194 13.2064C7.92522 13.1829 7.74656 13.1773 7.56873 13.1899C7.56873 12.8814 7.50432 12.5534 7.58969 12.2718C7.6541 12.0636 7.91472 11.9168 8.08846 11.7416C8.17533 11.9258 8.24722 12.2568 8.35057 12.2658C8.57824 12.2883 8.82088 12.149 9.22678 12.1834C9.33911 12.2194 9.2807 12.1475 9.22678 12.0756L9.06052 12.2403C9.13076 12.3013 9.20591 12.3564 9.28519 12.4051C9.29867 12.4126 9.35858 12.3347 9.23127 12.1834C9.01859 11.8479 8.99013 11.4255 8.93171 11.4211C8.20379 11.3701 8.12441 10.7336 8.35656 10.425C8.85083 9.77199 8.88828 9.04257 9.12044 8.32812C9.37955 7.54029 10.1165 6.90972 10.6452 6.20875C10.7457 6.28561 10.8359 6.37523 10.9133 6.47536C11.0626 6.74566 11.1883 7.02828 11.2892 7.32011V7.23474C11.1905 7.25856 11.0957 7.29639 11.0076 7.34707C10.9852 7.36504 11.0466 7.49685 11.0691 7.57174C11.1625 7.50717 11.2382 7.42012 11.2892 7.31861C11.4315 7.15685 11.6397 7.11192 11.7011 6.9921C11.9656 6.50487 12.3324 6.08074 12.7765 5.74893C13.2079 5.54823 13.3757 4.42938 14.1485 5.364C14.186 5.41043 14.469 5.28911 14.6158 5.20523C14.9813 4.99704 15.0652 4.65554 15.0082 4.26163C15.9399 4.08638 16.8865 4.51775 17.854 3.94859C18.3633 3.64903 18.2539 3.71793 18.0383 3.32551C17.9289 3.1263 17.1141 2.40587 18.2495 2.32199C18.227 2.23559 18.209 2.14811 18.1955 2.05988C18.1791 1.92957 18.1716 1.79776 18.1611 1.66746C18.2839 1.66746 18.5041 1.63301 18.5146 1.66746C18.6643 2.13327 18.9324 2.45379 19.4282 2.55115C19.2784 2.94357 20.1696 3.30005 19.4717 3.70894C19.6316 3.89609 19.8114 4.06533 20.0079 4.2137C20.0513 4.24066 20.3074 4.03696 20.3793 3.89617C20.5815 3.48727 20.6549 2.98851 20.9335 2.65001C21.3154 2.18569 21.4577 1.99098 20.6909 2.02393C20.5336 2.03142 20.3718 1.9101 20.2116 1.84869C20.3644 1.77096 20.5258 1.71116 20.6924 1.67045C20.9365 1.6405 21.2915 1.76781 21.4158 1.64499C21.9655 1.12226 22.1916 1.64499 22.5077 1.9116C22.8237 2.1782 22.957 2.44032 22.6125 2.82075C22.4762 2.97053 22.4732 3.25661 22.4463 3.48577C22.3804 4.06092 22.4073 4.47581 23.1173 3.91114C23.2506 3.8048 23.5981 3.89317 23.8063 3.98454C23.8946 4.02348 23.8901 4.29757 23.9021 4.46682C23.9021 4.4863 23.7104 4.56568 23.6565 4.53422C23.4902 4.43537 23.3165 4.06392 23.2071 4.53422C23.1802 4.65704 23.4123 4.94012 23.5681 4.98356C23.8005 5.01866 24.038 4.97601 24.2436 4.86224C24.6046 4.68101 25.0299 4.50726 25.2561 4.20321C25.7489 3.53969 26.3046 3.61608 26.8108 4.02348C27.2152 4.35149 27.6151 4.2092 28.1888 4.37246C28.3011 4.40841 28.2427 4.33652 28.1888 4.26312L28.0001 4.43237C28.0703 4.49337 28.1454 4.54847 28.2247 4.59713C28.2442 4.60462 28.2996 4.52524 28.1768 4.37546ZM41.9789 64.1237L41.7632 64.3005L41.9295 64.4652C41.99 64.3951 42.0451 64.3205 42.0943 64.2421C42.0943 64.2286 42.0224 64.1672 41.7632 64.4652L41.4547 64.5881C41.558 64.6704 41.6599 64.7543 42.6529 65.0629C42.4747 64.9775 42.2911 64.9039 42.1032 64.8427C41.9888 64.8299 41.8732 64.8299 41.7587 64.8427C41.8441 64.967 41.9085 65.1587 42.0209 65.1962C42.1332 65.2336 42.3204 65.1437 41.7587 64.8427C41.7632 64.7139 41.7632 64.5896 41.9789 64.1237V64.1237ZM57.5949 54.463L57.3792 54.6382L57.5439 54.8045C57.6054 54.7343 57.661 54.6591 57.7102 54.5798C57.7102 54.5664 57.6383 54.5064 57.3792 54.9693V54.8045C57.2801 54.8271 57.1851 54.865 57.0976 54.9168C57.0736 54.9333 57.1351 55.0666 57.159 55.1415C57.2324 55.0846 57.3058 55.0277 57.5949 54.463ZM59.208 52.0471L59.0313 51.8314L58.8665 51.9976C58.9366 52.0582 59.0112 52.1132 59.0897 52.1624C59.1031 52.1624 59.1646 52.0905 58.8665 51.8314V51.4599C58.9893 51.3356 59.1136 51.2113 59.6154 50.425C59.6154 50.055 59.6663 49.8483 59.6019 49.6896C59.5375 49.5308 59.3727 49.2882 59.2155 49.2537C59.0103 49.2073 58.7661 49.3271 58.54 49.3765C58.5765 49.5924 58.6404 49.8028 58.7302 50.0026C58.9099 50.3022 59.3578 50.4325 59.2529 50.9013C59.2439 50.9462 59.3638 51.0271 59.4342 51.0765C59.4342 51.0765 59.548 51.0016 59.5555 50.9522C59.5914 50.7155 59.6094 50.4759 59.2439 51.084L58.8725 51.4554L58.5639 51.5783C58.6598 51.6651 58.7631 51.7475 59.208 52.0471ZM59.9569 27.1508L59.7816 26.9337L59.6034 27.0999C59.6736 27.1609 59.7488 27.216 59.8281 27.2647C59.8416 27.2647 59.9015 27.1928 59.4372 26.9337H59.6034C59.5796 26.8349 59.5418 26.7401 59.4911 26.6521C59.4731 26.6296 59.3413 26.691 59.2664 26.7135C59.3293 26.7869 59.3862 26.8558 59.9509 27.1553L59.9569 27.1508ZM62.56 23.0634L62.3833 22.8462L62.2185 23.0124C62.2883 23.0734 62.3629 23.1285 62.4417 23.1772C62.4552 23.1847 62.5166 23.1053 62.0523 22.8462H62.2185C62.1947 22.7475 62.1569 22.6526 62.1062 22.5646C62.0882 22.5421 61.9564 22.6035 61.88 22.626C61.9325 22.6994 61.9894 22.7728 62.5541 23.0634H62.56ZM18.6808 6.33606L18.5056 6.12038L18.3393 6.28664C18.4093 6.34726 18.4839 6.40235 18.5625 6.45139C18.5775 6.45139 18.6374 6.3795 18.3393 6.12038C18.3393 5.99607 18.3393 5.87325 18.564 4.85475C18.4793 5.03325 18.4058 5.21683 18.3438 5.40444C18.331 5.51891 18.331 5.63446 18.3438 5.74893C18.4681 5.66356 18.6599 5.59915 18.6973 5.48682C18.7347 5.37448 18.6434 5.18726 18.3438 5.74893L18.0353 5.87175C18.2426 6.03721 18.458 6.19217 18.6808 6.33606V6.33606ZM58.504 16.4986L58.1221 16.7232C58.1805 16.7816 58.2539 16.897 58.2928 16.8865C58.4771 16.8287 58.6577 16.7597 58.8335 16.6798C58.7407 16.6274 58.6463 16.5764 58.1221 17.0617V16.897C58.0231 16.9201 57.9282 16.958 57.8405 17.0093C57.818 17.0258 57.8795 17.1591 57.9019 17.234C57.9753 17.1816 58.0487 17.1201 58.504 16.5031V16.4986ZM64.645 42.5361H64.8097C64.7866 42.4372 64.7487 42.3422 64.6974 42.2545C64.6809 42.2321 64.5476 42.2935 64.4727 42.3174C64.5296 42.3908 64.5865 42.4672 65.2096 42.9166L64.9954 42.5406C64.937 42.599 64.8217 42.6724 64.8322 42.7114C64.8907 42.8961 64.9603 43.0771 65.0404 43.2536C65.0838 43.1592 65.1362 43.0648 64.6495 42.5406L64.645 42.5361ZM63.4707 44.66C63.276 44.4982 63.2116 44.4009 63.1502 44.4039C62.9883 44.4196 62.828 44.4486 62.6709 44.4907C62.6918 44.5716 62.7128 44.7244 62.7338 44.7244C62.933 44.7244 63.1337 44.6944 63.5396 44.0534L63.3269 44.2301L63.4932 44.3964C63.5538 44.3264 63.6089 44.2518 63.6579 44.1732C63.6654 44.1612 63.5875 44.1013 63.4752 44.6645L63.4707 44.66ZM11.8524 11.3267H12.0187C11.9948 11.228 11.957 11.1331 11.9063 11.0451C11.8883 11.0226 11.7565 11.0841 11.6817 11.1065C11.7386 11.1799 11.7955 11.2563 12.9263 11.8315C12.6372 11.6337 12.4171 11.4765 12.1864 11.3357C12.1699 11.3267 12.0366 11.439 12.0261 11.5019C11.9962 11.8015 11.9932 12.1011 12.4246 12.0651C12.5249 12.0561 12.6193 11.9782 11.8524 11.3267ZM63.7433 36.0612C63.5998 35.902 63.4413 35.7571 63.27 35.6283C63.2086 35.5909 63.0633 35.6942 62.9555 35.7332C63.0603 35.8964 63.1337 36.1061 63.2805 36.2065C63.3599 36.2589 63.5666 36.1226 64.0803 35.4576L63.6999 35.6822C63.7568 35.7407 63.8302 35.856 63.8691 35.8455C64.0538 35.7875 64.2349 35.7184 64.4113 35.6388C64.3169 35.5834 64.2226 35.5325 63.7433 36.0612ZM64.278 46.2566H64.4428C64.4196 46.1577 64.3818 46.0628 64.3304 45.975C64.3125 45.9526 64.1806 46.014 64.1058 46.0364C64.2074 46.1708 64.2827 46.3233 64.3274 46.4858C64.4772 46.8632 64.5671 47.0999 64.6584 47.3365C64.8526 47.1329 65.0216 46.9066 65.1617 46.6625C65.1932 46.5966 64.9475 46.3405 64.7873 46.2716C64.6959 46.2372 64.5162 46.3974 64.278 46.2566ZM64.1282 41.9984C64.0174 41.9085 63.92 41.7917 63.8901 41.8082C63.5754 41.9417 63.281 42.1187 63.0154 42.3339C62.942 42.4058 63.0768 42.7503 63.1786 42.933C63.2505 43.0648 63.4258 43.1382 63.5561 43.2326C63.8285 42.6511 64.0714 42.0562 64.284 41.4502L64.0683 41.627L64.2346 41.7917C64.2955 41.722 64.3507 41.6474 64.3993 41.5685C64.4098 41.5611 64.3304 41.4996 64.1312 41.9984H64.1282ZM62.5016 50.3351C62.8012 50.4145 62.7308 50.3845 62.7233 50.395C62.5481 50.6871 62.3788 50.9821 62.2096 51.2772C62.3309 51.3386 62.4896 51.4809 62.5675 51.445C62.8881 51.2952 63.0453 52.1714 63.4093 51.5663C63.4837 51.4693 63.5697 51.3818 63.6654 51.3057C63.3659 51.051 63.0558 50.7979 62.2096 51.6247V51.4599C62.1104 51.4826 62.0155 51.5205 61.928 51.5723C61.904 51.5903 61.9654 51.7221 61.9894 51.7969C62.0658 51.74 62.1392 51.6831 62.5046 50.3351H62.5016ZM62.951 47.4893C62.9652 47.3709 62.9652 47.2512 62.951 47.1328C62.8296 46.8767 63.237 46.372 62.6859 46.3839C62.5226 46.3839 62.3294 46.9112 62.2245 47.2227C62.1646 47.4551 62.1646 47.6988 62.2245 47.9312C62.241 48.012 62.4417 48.0809 62.5675 48.1034C62.6649 48.1169 62.8461 48.06 62.8671 47.9971C62.933 47.7799 62.945 47.5477 62.2096 48.2801V48.1139C62.1107 48.1372 62.0157 48.175 61.928 48.2262C61.904 48.2442 61.9654 48.376 61.9894 48.4509C62.0658 48.3955 62.1392 48.3385 62.9555 47.4953L62.951 47.4893ZM13.2409 8.87332C13.4026 8.67861 13.5 8.6142 13.497 8.55279C13.4811 8.39093 13.4521 8.23063 13.4101 8.0735C13.3292 8.09447 13.1764 8.11694 13.1764 8.13641C13.1764 8.33711 13.2064 8.53632 13.4386 10.9612C13.7576 10.8819 14.3028 11.1724 14.2264 10.5478C14.186 10.2108 13.8475 9.93076 14.2159 9.54882C14.2683 9.4949 13.9298 8.90926 13.6662 8.76548C13.5164 8.68759 13.1525 9.01561 12.8859 9.1594C13.0043 9.38154 13.1379 9.59524 13.2858 9.79895C13.6557 10.2483 13.7007 10.5374 13.0012 10.5988C12.9668 10.5988 12.9503 10.816 12.9248 10.9328C13.1031 10.9433 13.2828 10.9522 13.2409 8.87332ZM58.7047 57.4107H58.871C58.8472 57.3119 58.8093 57.2171 58.7587 57.1291C58.7407 57.1066 58.6089 57.168 58.5325 57.1905C58.6156 57.3018 58.7356 57.3798 58.871 57.4107V58.1596C58.7713 58.1818 58.6757 58.2197 58.5879 58.2719C58.5654 58.2884 58.6269 58.4217 58.6508 58.4966C58.7621 58.4141 58.8402 58.2946 58.871 58.1596C59.1481 58.3737 59.4701 58.8126 59.6948 58.7587C60.3718 58.6089 60.7297 58.7107 60.7432 59.4611C60.7432 59.4956 60.905 59.5255 60.9919 59.557C61.0263 59.4492 61.1087 59.3293 61.0862 59.235C61.0326 58.9567 60.9387 58.6878 60.8076 58.4366C60.5393 58.0029 60.2436 57.5867 59.9224 57.1905C59.891 57.1485 59.6783 57.2564 59.5465 57.2833C59.2684 57.341 58.9874 57.3835 58.7047 57.4107V57.4107ZM10.8728 12.6582L10.6976 12.4425L10.5314 12.6073C10.6014 12.6679 10.676 12.723 10.7545 12.7721C10.7695 12.7721 10.8294 12.7017 9.74501 10.088C9.88281 10.6512 10.0281 11.2129 10.1569 11.779C10.2153 12.0426 10.0206 12.4366 10.5314 12.4425C10.464 12.0576 10.6527 11.785 10.8489 11.4705C10.9328 11.3357 10.5868 10.9777 10.5493 10.7081C10.5609 10.607 10.5977 10.5104 10.6563 10.4272C10.7149 10.344 10.7935 10.2768 10.8848 10.2318C11.2188 10.1285 11.5873 10.1345 11.9423 10.0955C11.6336 9.89652 11.3402 9.67473 11.0646 9.43199C10.8773 9.24327 10.795 8.9527 10.6302 8.73552C10.5958 8.68909 10.398 8.73552 10.2962 8.78495C10.2588 8.80442 10.2677 8.9512 10.2812 9.03658C10.3022 9.16988 10.3456 9.29869 10.3786 9.4305C9.93973 9.42001 9.68061 9.58027 10.8728 12.6582ZM45.8238 62.8237L45.6485 62.608L45.4823 62.7727C45.5525 62.8342 45.6276 62.8898 45.7069 62.939C45.7204 62.9465 45.7803 62.8671 44.2915 63.0888C44.5252 62.9255 44.6495 62.7802 44.8023 62.7398C45.9136 62.4402 46.3465 61.3663 47.1538 60.7223C47.2751 60.6264 47.2287 60.3209 47.2601 60.1112C47.0504 60.102 46.8404 60.1207 46.6355 60.1666C46.1353 60.3478 45.6515 60.5695 45.8432 61.2705C45.8537 61.3064 45.6365 61.4442 45.632 61.4397C45.1902 60.9544 45.1707 61.2016 45.0614 61.6704C45.0254 61.8201 44.4233 61.8067 44.1193 61.949C43.9275 62.0388 43.6445 62.3623 43.6834 62.4372C43.8077 62.6814 44.0624 62.8611 45.8238 62.8237ZM40.6803 63.8721C41.1701 63.4423 40.8721 63.1232 40.4961 63.3943C40.0348 63.7223 39.6169 63.6789 39.1556 63.7313C39.0791 63.7471 39.0077 63.7815 38.9476 63.8314C38.8876 63.8812 38.8407 63.9451 38.8111 64.0174C38.8104 64.0996 38.8277 64.181 38.8618 64.2558C38.896 64.3306 38.9462 64.397 39.0088 64.4503C39.1271 64.5506 39.4132 64.5057 39.4746 64.612C40.0827 65.6515 40.0333 65.614 40.6729 65.0179C41.1536 64.5806 41.0728 64.2541 40.6788 63.8751L40.6803 63.8721ZM21.8591 2.05389C21.8037 2.15424 21.7093 2.25309 21.6989 2.35344C21.6659 3.06639 21.8681 3.85123 21.0833 4.32903C21.063 4.36678 21.0523 4.40898 21.0523 4.45185C21.0523 4.49472 21.063 4.53692 21.0833 4.57467C21.3933 4.85325 21.6824 5.17378 22.0553 5.35351C22.253 5.44937 22.7114 5.54972 22.7833 5.10488C22.8042 4.97158 22.5691 4.67651 22.4253 4.65554C21.925 4.58964 22.0763 4.23317 22.0673 3.96656C22.0494 3.41088 22.0673 2.8552 22.0523 2.30102C22.0449 2.22014 21.922 2.14226 21.8591 2.05389ZM64.3184 36.8715C63.7433 37.1096 63.2445 37.171 63.1547 37.3897C63.0393 37.6758 63.2505 38.0937 63.3299 38.4531C63.3611 38.5631 63.4059 38.6688 63.4632 38.7677C63.4707 38.7797 63.5501 38.7677 63.589 38.7482C64.0159 38.564 64.5221 37.6818 64.4398 37.2504C64.4105 37.1208 64.3699 36.994 64.3184 36.8715V36.8715ZM62.7817 53.0776C62.268 53.5269 61.8516 53.789 61.6015 54.1605C61.4697 54.3582 61.8531 54.7596 61.5251 55.0457C61.6898 55.0891 61.9549 55.2179 62.0044 55.161C62.3039 54.818 62.5301 54.4226 62.8102 54.0661C62.9105 53.9388 63.2251 53.819 63.2146 53.792C63.0891 53.543 62.9443 53.3041 62.7817 53.0776V53.0776ZM14.2713 6.5128L13.8774 6.74346C13.9957 6.90972 14.1156 7.07298 14.2324 7.23923C14.5963 7.75597 15.2239 7.11941 15.6059 7.55676C15.6493 7.45042 15.7556 7.33209 15.7272 7.24223C15.5684 6.5832 15.0741 6.45139 14.2713 6.5128ZM62.274 40.8601C62.593 40.4722 62.9689 40.1696 62.918 40.0468C62.7817 39.7218 62.4687 39.4686 62.1976 39.211C62.1781 39.1931 61.8456 39.4072 61.8591 39.4686C61.9534 39.894 62.1017 40.3074 62.274 40.8601ZM50.2752 5.88673C50.6421 5.69501 50.9537 5.55422 51.2353 5.36849C51.2907 5.33105 51.2742 5.08841 51.2113 4.99554C51.1229 4.86524 50.8698 4.67651 50.8413 4.69599C50.5571 4.93381 50.2931 5.19482 50.052 5.47633C50.025 5.51078 50.1673 5.68303 50.2752 5.88673ZM30.7889 3.9396C31.0885 3.56815 31.3806 3.23714 31.6277 2.87767C31.6472 2.84921 31.3955 2.61406 31.2473 2.50622C31.2015 2.49735 31.1543 2.50057 31.1101 2.51554C31.066 2.53051 31.0265 2.55672 30.9956 2.59159C30.8471 2.90054 30.72 3.21932 30.6152 3.54568C30.5942 3.62357 30.7036 3.74788 30.7889 3.9396ZM17.0303 8.66363L16.4761 7.98363C16.3533 8.13341 16.1526 8.28319 16.1271 8.45693C16.0882 8.71605 15.9923 9.12794 16.4821 9.08301C16.6438 9.06653 16.7876 8.85534 17.0303 8.66213V8.66363ZM52.3197 65.2306C52.1085 65.0404 52.0021 64.8667 51.8808 64.8562C51.731 64.8427 51.4554 64.9625 51.4524 65.0359C51.4562 65.3218 51.4903 65.6065 51.5543 65.8851C51.5543 65.8851 51.6531 65.9076 51.6741 65.8851C51.8748 65.6904 52.0695 65.4867 52.3197 65.2306ZM29.9472 1.64499C29.7974 1.53265 29.6671 1.34543 29.4979 1.31248C29.2852 1.27504 29.0485 1.3679 28.8253 1.40534L29.6776 2.03441L29.9472 1.64499ZM57.1051 56.4745C56.9943 56.0447 56.9358 55.8245 56.8789 55.6043C56.798 55.7137 56.6513 55.823 56.6483 55.9323C56.6642 56.1598 56.7028 56.3851 56.7636 56.6048L57.1051 56.4745ZM64.2286 50.2917L63.7792 50.4564L64.263 51.0885C64.3244 50.9941 64.4503 50.8908 64.4368 50.8099C64.3855 50.6304 64.3157 50.4567 64.2286 50.2917V50.2917ZM62.4118 27.3321L62.8955 26.8078C62.7907 26.727 62.6125 26.5592 62.596 26.5757C62.4477 26.7022 62.3234 26.8544 62.229 27.025C62.1991 27.073 62.3309 27.2048 62.4118 27.3321ZM15.0202 9.91428C15.1467 9.77671 15.2581 9.62608 15.3527 9.46494C15.3857 9.39754 15.2883 9.26424 15.2494 9.16539L14.6248 9.65666C14.7192 9.71957 14.8195 9.78098 15.0202 9.91428ZM14.487 8.78495L14.9363 8.59922L14.4241 8.00011C14.3672 8.09447 14.2474 8.20381 14.2653 8.28319C14.3215 8.45773 14.3958 8.62591 14.487 8.78495V8.78495ZM57.5754 53.2408L57.4376 53.5628C57.5395 53.6048 57.6563 53.6991 57.7372 53.6767C57.857 53.6452 57.9543 53.5269 58.0607 53.4445L57.5754 53.2408ZM63.6849 52.4919C63.5995 52.3556 63.5456 52.2058 63.5022 52.2088C63.3366 52.232 63.1737 52.2706 63.0154 52.3242C63.0618 52.405 63.1037 52.5533 63.1547 52.5563C63.3329 52.5539 63.5104 52.5343 63.6849 52.4979V52.4919ZM48.0704 3.97106C47.8961 3.93307 47.7186 3.912 47.5402 3.90815C47.4893 3.90815 47.4473 4.05793 47.4009 4.1403C47.5593 4.19341 47.7222 4.23152 47.8877 4.25414C47.9296 4.25713 47.9836 4.10736 48.0704 3.97106ZM20.228 6.07844C20.1367 5.94065 20.0783 5.84778 20.0124 5.75342C19.9349 5.89963 19.8765 6.05517 19.8386 6.21624C19.8296 6.30161 19.9509 6.40197 20.0124 6.49633L20.228 6.07844ZM21.2375 6.48285C21.2757 6.30854 21.2973 6.13101 21.302 5.95263C21.302 5.90171 21.1522 5.85827 21.0683 5.81184C21.0154 5.97022 20.9772 6.13318 20.9545 6.29862C20.9515 6.34355 21.1012 6.39747 21.2375 6.48584V6.48285ZM65.0119 40.7597L65.5002 40.556C65.4066 40.4606 65.2971 40.382 65.1767 40.3239C65.0928 40.3014 64.976 40.3958 64.8771 40.4392L65.0119 40.7597ZM63.3569 34.3192L63.1412 33.9927C63.0636 34.1387 63.0056 34.2943 62.9689 34.4555C62.9584 34.5424 63.0798 34.6428 63.1412 34.7356C63.2176 34.5918 63.2925 34.4451 63.3569 34.3207V34.3192ZM63.7508 32.3542C63.601 32.2583 63.5051 32.1385 63.4183 32.1475C63.257 32.1847 63.1014 32.2431 62.9555 32.3212C63.0498 32.3826 63.1457 32.4979 63.237 32.4949C63.4133 32.4693 63.5857 32.4225 63.7508 32.3557V32.3542ZM60.7552 31.3461L60.5395 31.0196C60.4614 31.1655 60.403 31.3212 60.3658 31.4824C60.3568 31.5693 60.4766 31.6697 60.5395 31.764C60.6144 31.6187 60.6908 31.472 60.7552 31.3491V31.3461ZM61.9175 30.8444L61.5955 30.7081C61.5535 30.8099 61.4592 30.9253 61.4816 31.0076C61.5384 31.1285 61.6171 31.2377 61.7138 31.3297L61.9175 30.8444ZM60.1771 29.4574C60.1531 29.5158 60.0962 29.6476 60.0408 29.778C60.1426 29.8214 60.2579 29.9158 60.3403 29.8933C60.4605 29.8355 60.5695 29.7569 60.6623 29.6611L60.1771 29.4574ZM59.9674 25.37C59.882 25.2337 59.8281 25.0839 59.7831 25.0869C59.62 25.1126 59.4596 25.1532 59.3038 25.2082C59.3503 25.2891 59.3937 25.4374 59.4446 25.4404C59.6207 25.4339 59.7957 25.4108 59.9674 25.3715V25.37ZM60.0572 14.1021L59.855 13.6138C59.7587 13.7061 59.68 13.8153 59.6229 13.9358C59.5989 14.0212 59.6948 14.138 59.7367 14.2354L60.0572 14.1021ZM34.0871 1.24358L34.3267 1.11178C34.2863 1.06984 34.2354 0.988958 34.2039 0.994949C34.1166 1.02368 34.0331 1.06291 33.9553 1.11178L34.0871 1.24358ZM42.4522 1.54314C42.4103 1.46525 42.3654 1.38437 42.3204 1.30349C42.28 1.34393 42.1976 1.39486 42.2051 1.42482C42.2336 1.51242 42.2723 1.59637 42.3204 1.67495L42.4522 1.54314ZM26.0934 1.79776L25.9616 1.66596C25.9127 1.7438 25.8735 1.82729 25.8447 1.91459C25.8447 1.94604 25.9196 1.99547 25.9616 2.03741L26.0934 1.79776ZM27.2092 2.27706L27.0759 2.03741C27.0355 2.07785 26.9531 2.12878 26.9606 2.15873C26.9891 2.24633 27.0278 2.33028 27.0759 2.40886L27.2092 2.27706ZM27.9581 2.54067L27.8263 2.40886C27.7772 2.48707 27.7379 2.57109 27.7095 2.65899C27.7095 2.68895 27.7844 2.73987 27.8263 2.78031C27.8653 2.69943 27.9102 2.61855 27.9521 2.54067H27.9581ZM45.4328 2.54067L45.301 2.40886C45.2519 2.48707 45.2126 2.57109 45.1842 2.65899C45.1842 2.68895 45.2591 2.73987 45.301 2.78031C45.34 2.69943 45.3849 2.61855 45.4268 2.54067H45.4328ZM45.1692 4.02797C45.2112 4.10586 45.2561 4.18674 45.301 4.26612C45.343 4.22568 45.4238 4.17475 45.4178 4.1448C45.3888 4.05713 45.3496 3.97318 45.301 3.89467L45.1692 4.02797ZM28.8883 4.58515L29.1279 4.45334C29.086 4.4114 29.0365 4.32903 29.0051 4.33651C28.9178 4.36525 28.8343 4.40448 28.7564 4.45334L28.8883 4.58515ZM16.7262 5.6995L16.858 5.5677C16.7798 5.51854 16.6958 5.47929 16.6079 5.45087C16.5779 5.45087 16.527 5.52576 16.4866 5.5677L16.7262 5.6995ZM18.1057 7.29315L17.9739 7.42496C18.0517 7.47382 18.1352 7.51305 18.2225 7.54178C18.254 7.54178 18.3034 7.46689 18.3453 7.42496L18.1057 7.29315ZM15.4186 8.11544L15.5504 8.35508C15.5924 8.31314 15.6733 8.26222 15.6673 8.23226C15.6383 8.1446 15.599 8.06065 15.5504 7.98213L15.4186 8.11544ZM9.46942 8.48689C9.51286 8.56477 9.55779 8.64565 9.60123 8.72654C9.64316 8.6846 9.72554 8.63517 9.71805 8.60372C9.68932 8.51641 9.65009 8.43293 9.60123 8.35508L9.46942 8.48689ZM52.4919 10.452C52.4485 10.3741 52.4035 10.2932 52.3601 10.2123C52.3182 10.2543 52.2358 10.3037 52.2433 10.3352C52.272 10.4225 52.3112 10.5059 52.3601 10.5838L52.4919 10.452ZM59.6633 16.3967L59.7951 16.53C59.8443 16.4518 59.8835 16.3678 59.912 16.2799C59.912 16.2499 59.8371 16.199 59.7951 16.1586L59.6633 16.3967ZM57.2459 16.5824L57.0062 16.7157C57.0482 16.7562 57.0991 16.8386 57.1291 16.8311C57.2165 16.8023 57.3005 16.7636 57.3792 16.7157L57.2459 16.5824ZM58.555 17.4047L58.6883 17.6444C58.7287 17.6024 58.8111 17.553 58.8036 17.5215C58.7748 17.4345 58.7361 17.3511 58.6883 17.2729L58.555 17.4047ZM63.7613 28.5528C63.8032 28.6306 63.8481 28.7115 63.8931 28.7924C63.9335 28.7505 64.0159 28.701 64.0084 28.6696C63.9796 28.5826 63.9409 28.4992 63.8931 28.421C63.8436 28.4614 63.7972 28.5033 63.7538 28.5528H63.7613ZM64.636 28.7924C64.5955 28.8328 64.5132 28.8838 64.5206 28.9137C64.5492 29.0013 64.5879 29.0853 64.636 29.1639C64.6779 29.1219 64.7588 29.0725 64.7528 29.041C64.7217 28.9534 64.68 28.8699 64.6285 28.7924H64.636ZM60.8645 32.826L61.1012 32.6971C61.0593 32.6552 61.0098 32.5743 60.9784 32.5803C60.8911 32.6091 60.8076 32.6483 60.7297 32.6971L60.8645 32.826ZM65.0584 33.3052L64.8187 33.4371C64.8606 33.479 64.9116 33.5599 64.9415 33.5539C65.0293 33.5252 65.1133 33.4859 65.1917 33.4371L65.0584 33.3052ZM1.5596 33.7546L1.4263 33.6228C1.3782 33.7014 1.33949 33.7853 1.31096 33.8729C1.30348 33.9029 1.38585 33.9538 1.4263 33.9942L1.5596 33.7546ZM65.0658 36.1705L65.1991 36.0387C65.1208 35.9898 65.0368 35.9506 64.949 35.9219C64.9191 35.9219 64.8681 35.9968 64.8262 36.0387L65.0658 36.1705ZM32.9832 39.5151L33.2229 39.3833C33.1824 39.3413 33.1315 39.2605 33.1015 39.2664C33.0136 39.2949 32.9296 39.3341 32.8514 39.3833L32.9832 39.5151ZM64.1372 44.639C64.1866 44.6884 64.2271 44.7304 64.269 44.7708C64.3179 44.693 64.3571 44.6095 64.3858 44.5222C64.3858 44.4907 64.311 44.4413 64.269 44.3994C64.2121 44.4802 64.1672 44.5611 64.1252 44.639H64.1372ZM59.849 47.69L59.9809 47.5582C59.903 47.5093 59.8195 47.4701 59.7322 47.4414C59.7008 47.4414 59.6513 47.5163 59.6094 47.5582L59.849 47.69ZM58.0682 49.0979C58.0262 49.02 57.9813 48.9392 57.9364 48.8583C57.8944 48.9002 57.8136 48.9496 57.8195 48.9811C57.8483 49.0684 57.8875 49.1519 57.9364 49.2297L58.0682 49.0979ZM57.0062 51.6442C56.9658 51.6022 56.9149 51.5213 56.8849 51.5273C56.797 51.5558 56.713 51.595 56.6348 51.6442C56.6767 51.6846 56.7262 51.767 56.7576 51.7595C56.8446 51.7312 56.928 51.693 57.0062 51.6457V51.6442ZM58.3617 52.2553L58.1221 52.3871C58.164 52.429 58.2135 52.5099 58.2449 52.5039C58.3322 52.4752 58.4157 52.4359 58.4935 52.3871L58.3617 52.2553ZM57.1395 52.8903L57.3792 52.7585C57.3373 52.7181 57.2878 52.6357 57.2564 52.6432C57.169 52.6723 57.0851 52.711 57.0062 52.7585L57.1395 52.8903ZM59.184 56.157L59.0522 55.9174C59.0103 55.9593 58.9294 56.0087 58.9354 56.0402C58.9641 56.1275 59.0034 56.211 59.0522 56.2888L59.184 56.157ZM46.2731 62.3683L46.4064 62.608C46.4468 62.566 46.5292 62.5166 46.5217 62.4852C46.4929 62.3982 46.4542 62.3147 46.4064 62.2365L46.2731 62.3683ZM42.4477 62.7398L42.3159 62.608C42.2681 62.6862 42.2294 62.7696 42.2006 62.8566C42.2006 62.8881 42.2755 62.9375 42.3159 62.9794C42.3653 62.8986 42.4103 62.8177 42.4522 62.7398H42.4477ZM41.9445 63.3509C41.9025 63.3913 41.8217 63.4422 41.8277 63.4722C41.8561 63.5601 41.8953 63.6441 41.9445 63.7223C41.9864 63.6804 42.0673 63.631 42.0613 63.5995C42.034 63.5124 41.9963 63.4289 41.949 63.3509H41.9445ZM51.3716 64.3334L51.2398 64.0938C51.1978 64.1357 51.1169 64.1852 51.1229 64.2166C51.1517 64.3039 51.1909 64.3874 51.2398 64.4652L51.3716 64.3334ZM39.3458 65.9481C39.3054 65.9885 39.223 66.0394 39.2305 66.0694C39.259 66.157 39.2977 66.2409 39.3458 66.3195C39.3878 66.2776 39.4686 66.2281 39.4626 66.1967C39.4339 66.1094 39.3947 66.0259 39.3458 65.9481Z" fill="#6CB71D"/>
<path d="M27.0205 38.4934C27.3749 38.652 27.7126 38.8457 28.0285 39.0715C28.5277 39.4949 29.038 40.1674 29.5592 41.089L29.6341 41.2388L29.6701 41.3511L29.7824 41.5009C29.7959 41.5161 29.8062 41.5339 29.8127 41.5532C29.8191 41.5725 29.8216 41.593 29.8198 41.6132C30.2644 42.8828 30.4548 44.2274 30.38 45.5704C30.2909 46.2354 30.1281 46.8885 29.8947 47.5175V47.6673L29.8573 47.8905V48.0028C29.7963 48.3063 29.6828 48.5967 29.5218 48.861C29.5218 48.8865 29.4708 48.9494 29.372 49.0483L29.1848 49.2355V49.3478C28.982 49.6496 28.7577 49.9364 28.5138 50.2061L28.2891 50.3918L28.2516 50.3558C28.2262 50.5056 28.0285 50.7033 27.6525 50.955C27.1253 51.293 26.5747 51.5934 26.005 51.8536C25.9924 51.8655 25.9776 51.8748 25.9614 51.881C25.9452 51.8872 25.9279 51.8901 25.9106 51.8896C25.8934 51.8894 25.8764 51.8926 25.8604 51.899C25.8445 51.9054 25.83 51.915 25.8177 51.927C25.7236 51.9448 25.6346 51.9831 25.5571 52.0394C25.5005 52.0719 25.4347 52.0851 25.3699 52.0768L24.9206 52.1891C24.5896 52.2687 24.2523 52.3188 23.9126 52.3389L23.5022 52.4123C23.3493 52.4128 23.1976 52.4381 23.0528 52.4872C22.4278 52.4834 21.8062 52.3958 21.2046 52.2266C20.7448 52.1186 20.2998 51.9557 19.879 51.7413L19.5061 51.5166C19.4551 51.4927 19.4432 51.4298 19.4671 51.3294L19.2439 51.1437L19.1691 51.0688L19.0567 50.9939L18.9818 50.9564C19.0897 50.9085 19.1905 50.846 19.2814 50.7707C19.1067 50.3713 18.9948 49.2385 18.9459 47.3722L18.871 47.2988V46.55C18.8211 46.3793 18.8211 46.1979 18.871 46.0272V45.7277L18.9459 44.3452L18.9818 44.0097C19.0095 43.8874 19.022 43.7621 19.0193 43.6368C19.0193 43.2623 19.0073 42.9148 18.9818 42.5883L18.9459 41.7286L18.9084 40.8703C18.8835 40.5468 18.871 40.1609 18.871 39.7125C18.871 39.2632 18.883 38.8678 18.9084 38.5143V37.2442C18.8793 37.1736 18.8665 37.0973 18.871 37.021C18.8691 36.9322 18.8817 36.8436 18.9084 36.7589V36.01C18.8949 35.9948 18.8846 35.977 18.8781 35.9577C18.8717 35.9384 18.8693 35.918 18.871 35.8977C18.8646 35.8448 18.8779 35.7915 18.9084 35.7479V35.673C18.9324 35.4004 18.9459 35.0395 18.9459 34.5901H18.871L18.9459 34.2546C18.9698 33.955 18.9574 32.8472 18.9084 30.931V30.0009L18.8336 29.9275C18.8311 29.863 18.8439 29.7989 18.871 29.7403V29.6279C18.871 29.4048 18.895 28.8686 18.9459 28.0223V27.6494C18.937 27.5239 18.9491 27.3978 18.9818 27.2764V26.9769C18.9773 26.7874 19.0026 26.5983 19.0567 26.4167C19.0618 26.4174 19.067 26.417 19.0719 26.4154C19.0768 26.4138 19.0812 26.411 19.0849 26.4074C19.0885 26.4037 19.0913 26.3993 19.0929 26.3944C19.0945 26.3895 19.0949 26.3843 19.0942 26.3792L19.0567 26.3058H19.1316L19.0942 26.231V26.1935L19.1691 26.1561C19.1742 26.1568 19.1793 26.1564 19.1842 26.1548C19.1891 26.1532 19.1936 26.1504 19.1972 26.1468C19.2009 26.1431 19.2036 26.1387 19.2052 26.1338C19.2068 26.1289 19.2073 26.1237 19.2065 26.1186L19.3188 25.9314H19.3937V25.8939C19.4974 25.8625 19.603 25.8375 19.7098 25.8191C19.8145 25.7987 19.9207 25.7866 20.0273 25.7831L20.1771 25.8191L20.4017 25.9314H20.5126L20.55 25.9688L20.6249 25.9314C21.23 25.7431 21.859 25.6422 22.4927 25.6318C23.0565 25.6472 23.6181 25.7093 24.1717 25.8176C24.4645 25.8638 24.752 25.939 25.0299 26.0422C25.6935 26.3979 26.3086 26.8373 26.8602 27.3498L26.9351 27.4606L27.01 27.5355C27.0339 27.5355 27.1088 27.5984 27.2332 27.7228C27.923 28.6558 28.4065 29.7249 28.6516 30.8591C28.7051 31.142 28.7302 31.4295 28.7264 31.7174L28.6905 32.616C28.6986 32.7313 28.7233 32.8448 28.7639 32.953L28.8013 33.0639V33.2885C28.7892 33.4896 28.7642 33.6898 28.7264 33.8877C28.7146 33.9 28.7053 33.9145 28.6991 33.9305C28.693 33.9464 28.69 33.9634 28.6905 33.9805C28.6909 33.9979 28.6877 34.0151 28.681 34.0311C28.6743 34.0471 28.6642 34.0615 28.6516 34.0734L28.5407 34.298L28.5782 34.3729L28.2412 35.2716L28.0914 35.4963L28.018 35.4588V35.5697C28.0107 35.6845 27.9804 35.7967 27.929 35.8996C27.8775 36.0025 27.8059 36.094 27.7184 36.1688C27.3703 36.6138 26.9962 37.0379 26.5981 37.4389L26.4873 37.5512L26.3749 37.6246C26.3095 37.6976 26.2338 37.7607 26.1503 37.8119L25.7773 37.9991L25.7024 38.0365C26.1567 38.1417 26.5985 38.2948 27.0205 38.4934V38.4934ZM22.1661 38.0275L22.3908 37.9901H22.6514C22.7008 37.9901 22.7263 37.9781 22.7263 37.9526H22.8761C23.9964 37.5782 24.8427 36.9931 25.4148 36.1972V36.1223L25.4897 35.9726C25.5344 35.8629 25.5714 35.7503 25.6006 35.6356C25.6277 35.5446 25.6654 35.4571 25.7129 35.375L25.7878 35.2252L26.0125 34.4418L26.0873 34.2546L26.1248 34.0299C26.1547 33.8574 26.1667 33.6822 26.1607 33.5072C26.1607 33.2596 26.0988 32.6749 25.975 31.7533C25.8252 30.9565 25.7384 30.5341 25.7129 30.4832C25.7144 30.4631 25.7119 30.443 25.7054 30.424C25.699 30.4049 25.6888 30.3874 25.6755 30.3723C25.6311 30.2917 25.6055 30.2021 25.6006 30.1102V30.0353C25.5886 30.0231 25.5792 30.0086 25.573 29.9926C25.5668 29.9766 25.564 29.9596 25.5646 29.9425C25.565 29.9253 25.5618 29.9082 25.5554 29.8922C25.549 29.8762 25.5394 29.8618 25.5272 29.8496L25.4523 29.7373L25.4148 29.6998V29.5501L25.1902 29.0273H25.1542L25.1168 28.8775C24.8465 28.3424 24.4799 27.8615 24.0354 27.4591C23.9077 27.3204 23.7553 27.2066 23.586 27.1236L23.5126 27.0862C23.4843 27.0822 23.4579 27.0691 23.4377 27.0488C23.4174 27.0286 23.4043 27.0023 23.4003 26.9739C22.8012 26.7502 22.3653 26.6384 22.0927 26.6384C21.9042 26.6467 21.7167 26.6717 21.5326 26.7132C21.4797 26.7064 21.4262 26.7197 21.3828 26.7507C21.4577 27.4996 21.4936 28.1077 21.4936 28.5795C21.4936 29.0039 21.4876 29.3274 21.4757 29.5501C21.4637 29.7727 21.4577 29.9345 21.4577 30.0353C21.4552 30.2227 21.4672 30.41 21.4936 30.5955L21.5311 31.1182V32.5366C21.5311 33.3095 21.5446 33.7828 21.5685 33.9565V34.2561C21.5602 34.3209 21.5734 34.3867 21.606 34.4433V34.5931C21.6319 34.9676 21.6444 36.1748 21.6434 38.2148L21.7932 38.1039C21.9097 38.0494 22.0375 38.0232 22.1661 38.0275V38.0275ZM22.1287 38.9262C22.0443 38.9003 21.9564 38.8877 21.8681 38.8888C21.7932 38.8888 21.7557 38.8393 21.7557 38.739C21.7557 38.715 21.7183 38.7015 21.6434 38.7015V39.0745C21.6434 39.3501 21.5935 40.099 21.4936 41.3212L21.606 41.7316L21.6434 41.8439C21.6923 42.165 21.7049 42.4906 21.6808 42.8145C21.6924 42.9036 21.6795 42.9942 21.6434 43.0766C21.5989 43.1566 21.5732 43.2457 21.5685 43.3372L21.6434 43.4495C21.6102 43.609 21.5976 43.7721 21.606 43.9348V44.5699L21.5685 44.8694H21.4577C21.5311 44.9698 21.5685 45.169 21.5685 45.4685C21.5685 45.6932 21.5625 45.9793 21.5505 46.3268C21.5371 46.6758 21.5505 47.0757 21.5685 47.525V47.7122C21.5446 47.7871 21.5446 47.8366 21.5685 47.862L21.606 48.0852V48.2709L21.5685 48.4956V48.6828C21.5726 48.8594 21.5977 49.0349 21.6434 49.2055C21.6417 49.2258 21.6441 49.2462 21.6506 49.2656C21.657 49.2849 21.6673 49.3027 21.6808 49.3179C21.684 49.4274 21.7236 49.5328 21.7932 49.6174L21.8306 49.6923C21.8631 49.801 21.8758 49.9146 21.8681 50.0278C21.8728 50.2173 21.8475 50.4064 21.7932 50.588C21.7872 50.7085 21.7484 50.825 21.6808 50.925L21.606 50.9984C22.1732 51.098 22.748 51.1481 23.3239 51.1482C24.1068 51.1703 24.8848 51.0168 25.6006 50.6988L25.6755 50.6239C25.8747 50.4742 25.975 50.3873 25.975 50.3633C26.0372 50.3281 26.0938 50.2836 26.1428 50.2315C26.2042 50.1701 26.2356 50.1267 26.2356 50.1012C26.3073 49.9887 26.3957 49.8876 26.4977 49.8017C26.6931 49.5416 26.8679 49.2667 27.0205 48.9794L27.2436 48.53C27.4923 47.9579 27.6291 47.0742 27.654 45.8789C27.6821 45.5938 27.6946 45.3073 27.6915 45.0207C27.6981 44.7959 27.6856 44.5709 27.654 44.3482C27.6605 44.2954 27.6471 44.242 27.6166 44.1984C27.5707 44.0929 27.5581 43.9758 27.5806 43.8629V43.7506C27.5844 43.6744 27.5716 43.5982 27.5432 43.5274L27.4683 43.3027L27.5058 43.2279L27.4683 43.1545C27.434 42.9271 27.384 42.7024 27.3185 42.482H27.2811L27.2436 42.2573C27.0692 41.6013 26.7785 40.9819 26.3854 40.4285L26.0499 39.9792L25.975 39.9417L25.9001 39.8294V39.7919C25.6143 39.5007 25.271 39.2722 24.8921 39.1209C24.6674 39.0206 24.2451 38.9966 23.622 39.046L23.1726 39.082H23.0978L22.9869 39.1569V39.1209L22.912 39.1569H22.8371C22.8117 39.1823 22.7997 39.1823 22.7997 39.1569H22.7248L22.4253 39.2318C22.4253 39.2078 22.4118 39.2078 22.3878 39.2318H22.3504C22.3199 39.2289 22.2905 39.2191 22.2646 39.2029C22.2386 39.1868 22.2167 39.1649 22.2006 39.1389C22.1512 39.0775 22.1392 39.0326 22.1631 39.0086L22.238 38.9711C22.2241 38.9561 22.2072 38.9441 22.1883 38.9358C22.1695 38.9276 22.1492 38.9233 22.1287 38.9232V38.9262Z" fill="white"/>
<path d="M33.6468 51.5992C33.5839 51.4374 33.5405 51.3176 33.5165 51.2442V51.057H33.479V50.9072H33.4416C33.3907 50.9072 33.3907 50.8817 33.4416 50.8323V50.72C33.2918 49.9212 33.2045 48.4154 33.1795 46.2026L33.142 46.0903C33.0926 46.0409 33.0926 45.954 33.142 45.8282V45.3429C33.1162 45.2585 33.1035 45.1706 33.1046 45.0823L33.142 44.7827V44.5596C33.1742 44.3244 33.1867 44.0869 33.1795 43.8496C33.1725 43.6621 33.1851 43.4744 33.2169 43.2894C33.2154 43.1765 33.228 43.0638 33.2544 42.9539V42.6184C33.2544 42.269 33.2419 41.9454 33.2169 41.6479L33.1795 40.9754L33.142 40.2265C33.1181 39.9539 33.1046 39.6423 33.1046 39.2933V37.2803C33.0782 37.2215 33.0654 37.1575 33.0672 37.0931L33.1046 36.8699V36.4595C33.1089 36.3828 33.0961 36.3061 33.0672 36.2349V36.16C33.0672 36.0851 33.0806 36.0491 33.1046 36.0491V35.0411H33.0672L33.1046 34.779C33.1306 34.4066 33.1061 33.3985 33.0312 31.755C33.0304 31.5676 33.0424 31.3805 33.0672 31.1948C33.0804 31.0693 33.0682 30.9425 33.0312 30.8219L32.9938 30.7095C32.9873 30.6567 33.0007 30.6033 33.0312 30.5597V30.4504C33.0312 30.2767 33.0557 29.6671 33.1046 28.6216V28.1723C33.0964 27.9972 33.109 27.8217 33.142 27.6495C33.1414 27.5119 33.154 27.3744 33.1795 27.2391C33.1731 27.0641 33.1857 26.8888 33.2169 26.7164C33.2044 26.615 33.2173 26.5121 33.2544 26.4169L33.2169 26.306C33.2169 26.2551 33.2289 26.2311 33.2544 26.2311H33.2918V26.0439L33.3293 26.0065L33.3667 25.969C33.3789 25.9569 33.3885 25.9424 33.395 25.9264C33.4014 25.9105 33.4045 25.8934 33.4042 25.8762C33.4034 25.8589 33.4064 25.8417 33.4129 25.8257C33.4193 25.8097 33.4291 25.7952 33.4416 25.7833C33.4416 25.7578 33.4656 25.7204 33.5165 25.671L33.5539 25.5961V25.5586C33.7463 25.4892 33.9486 25.4513 34.1531 25.4463C34.1674 25.4473 34.1814 25.4511 34.1942 25.4576C34.2071 25.464 34.2185 25.4729 34.2279 25.4837C34.2718 25.5193 34.3229 25.5449 34.3777 25.5586C34.4197 25.5759 34.4579 25.6014 34.49 25.6335C34.5222 25.6657 34.5476 25.7038 34.5649 25.7458C34.5649 25.7698 34.5769 25.7698 34.6024 25.7458H34.6758L34.7507 25.969C34.9926 26.1047 35.1982 26.2969 35.3498 26.5292L35.4996 26.8287C35.5994 28.3265 35.6493 29.3096 35.6493 29.7779C35.6239 30.1269 35.6104 30.4863 35.6104 30.8608C35.6028 31.2118 35.6279 31.5628 35.6853 31.9092C35.6853 32.3586 35.6988 32.7929 35.7227 33.2153V34.779C35.721 34.7993 35.7234 34.8197 35.7299 34.839C35.7363 34.8584 35.7466 34.8761 35.7602 34.8913C35.7737 34.9065 35.784 34.9243 35.7905 34.9437C35.7969 34.963 35.7993 34.9834 35.7976 35.0037C35.7976 35.5029 35.8101 35.9024 35.8351 36.2019L35.8725 38.7407L35.7602 40.6084C35.7659 40.7358 35.7911 40.8616 35.8351 40.9814L35.91 41.0562C35.9414 41.3412 35.9539 41.6279 35.9474 41.9145C35.9569 41.9914 35.9439 42.0694 35.91 42.1391C35.8831 42.1694 35.8625 42.2047 35.8497 42.2431C35.8368 42.2814 35.8318 42.322 35.8351 42.3623L35.8725 42.4372V43.4857L35.7976 43.7463C35.7931 43.7407 35.7874 43.7361 35.781 43.733C35.7745 43.7299 35.7674 43.7283 35.7602 43.7283C35.753 43.7283 35.7459 43.7299 35.7394 43.733C35.7329 43.7361 35.7272 43.7407 35.7227 43.7463C35.8111 43.8643 35.8512 44.0116 35.8351 44.1582C35.8401 44.4582 35.8276 44.7583 35.7976 45.0568C35.7976 45.2066 35.7976 45.3923 35.7797 45.617C35.7677 45.8782 35.7737 46.14 35.7976 46.4004V46.5876C35.7737 46.6864 35.7737 46.7493 35.7976 46.7733C35.7909 46.8262 35.8043 46.8796 35.8351 46.9231V47.0729L35.7976 47.2975C35.7712 47.3558 35.7584 47.4193 35.7602 47.4833C35.7564 47.8072 35.7689 48.1311 35.7976 48.4538C35.8112 48.469 35.8215 48.4868 35.8279 48.5061C35.8344 48.5254 35.8368 48.5459 35.8351 48.5662C35.8402 48.7098 35.8787 48.8503 35.9474 48.9766C35.9816 49.0349 36.0069 49.098 36.0223 49.1638C36.031 49.6888 35.9934 50.2135 35.91 50.732C35.8631 50.8914 35.8256 51.0534 35.7976 51.2172C35.7862 51.32 35.761 51.4208 35.7227 51.5168C35.7196 51.573 35.7136 51.629 35.7048 51.6846C35.7033 51.7203 35.692 51.755 35.6722 51.7849C35.6524 51.8147 35.6248 51.8385 35.5924 51.8538C35.5018 51.8817 35.4071 51.8939 35.3123 51.8898C35.2869 51.8898 35.2375 51.9527 35.1626 52.077L35.0892 52.2642L34.6039 52.1519C34.3397 52.1391 34.0826 52.062 33.855 51.9272C33.7537 51.8417 33.6811 51.7272 33.6468 51.5992V51.5992Z" fill="white"/>
<path d="M47.3665 26.2298C47.5402 26.2298 47.7529 26.3421 48.0016 26.5653C48.0734 26.6377 48.1634 26.6894 48.2622 26.715C48.3131 26.715 48.3505 26.7525 48.3745 26.8274L48.4868 26.9771L48.5243 26.9397L48.7115 27.2767C48.7165 27.2772 48.7216 27.2765 48.7264 27.2748C48.7311 27.2731 48.7354 27.2703 48.739 27.2668C48.7426 27.2632 48.7453 27.2589 48.747 27.2541C48.7488 27.2494 48.7494 27.2443 48.749 27.2393H48.7864C48.8141 27.2675 48.8387 27.2987 48.8598 27.3321L48.9721 27.4999C49.5932 28.7201 50.1284 30.4066 50.5778 32.5594C51.0404 34.8187 51.3407 37.1081 51.4764 39.4103L51.5139 39.7458C51.5399 40.2497 51.5399 40.7546 51.5139 41.2586C51.4899 41.9176 51.4644 42.4478 51.439 42.8447C51.3969 43.3711 51.3224 43.8943 51.2158 44.4114C51.0088 45.5622 50.722 46.6973 50.3576 47.8084C50.1674 48.3092 49.9427 48.7961 49.6851 49.2657C49.1109 50.2643 48.4514 51.0132 47.7065 51.5124C46.9915 52.0017 46.145 52.2628 45.2786 52.2613C44.9148 52.2596 44.5521 52.222 44.1957 52.149C43.0514 51.9004 41.9939 51.0666 41.0234 49.6477C40.9724 49.5728 40.8975 49.4545 40.7987 49.2927C40.6921 49.1158 40.6047 48.928 40.5381 48.7325C40.4632 48.5213 40.3748 48.2532 40.276 47.9297C40.1516 47.6077 40.0768 47.407 40.0528 47.3306L39.903 46.8453C39.8774 46.7439 39.8464 46.6439 39.8102 46.5458C39.7732 46.4477 39.7417 46.3477 39.7158 46.2462V46.0215C39.542 45.1229 39.4052 44.2641 39.3054 43.4453H39.2335V42.6245L39.1901 40.4857C39.1901 37.6469 39.3398 35.3693 39.6394 33.6528L39.939 32.3467L40.2385 31.1485L40.276 30.8879C40.291 30.7898 40.3229 30.695 40.3703 30.6078C40.4317 30.4715 40.4871 30.3397 40.5381 30.2154C40.8297 29.5313 41.1598 28.8642 41.5266 28.2173C41.8269 27.7342 42.1845 27.2891 42.5915 26.8918C42.8874 26.5308 43.2734 26.2544 43.7104 26.0905C44.1696 25.9419 44.6478 25.8602 45.1303 25.8478C45.4678 25.8409 45.8053 25.8655 46.1383 25.9212L46.3615 25.9587L46.5861 25.9961V26.0335H46.8468C46.9237 26.0518 46.9989 26.0769 47.0714 26.1084C47.1354 26.1423 47.1974 26.1798 47.2572 26.2208L47.3665 26.2298ZM48.5647 46.1294C48.5647 46.2792 48.5767 46.3525 48.6022 46.3525C48.6276 46.3525 48.6396 46.2911 48.6396 46.1668C48.5887 45.8433 48.6261 45.3445 48.7519 44.669C48.7759 44.5192 48.7939 44.3889 48.8074 44.2766C48.8128 44.1933 48.8315 44.1114 48.8628 44.034C49.0137 42.77 49.0888 41.4981 49.0874 40.2251C49.0874 39.626 49.074 39.1766 49.05 38.8771L49.0126 37.8286L48.9002 37.0438L48.8628 36.7442L48.9002 36.3713C48.8508 35.9219 48.8253 35.7123 48.8253 35.7362C48.7005 34.6908 48.5762 33.857 48.4524 33.2349C48.3957 32.9505 48.3182 32.6706 48.2202 32.3976C48.1453 32.1984 48.0705 32.0112 47.9956 31.8375C47.9701 31.7626 47.9461 31.6877 47.9207 31.6323C47.9042 31.584 47.8788 31.5393 47.8458 31.5005C47.7709 31.3008 47.5967 30.7017 47.3231 29.7031C47.2302 29.3366 47.1182 28.9751 46.9876 28.6202L46.658 27.6047C46.6634 27.5162 46.6507 27.4275 46.6206 27.3441C46.5818 27.2882 46.5562 27.2242 46.5457 27.1569C46.5338 27.09 46.5083 27.0263 46.4708 26.9697C46.0836 26.8405 45.6804 26.7654 45.2726 26.7465C44.6255 26.7465 44.0908 27.1569 43.6685 27.9777C42.637 30.0438 42.0034 32.2855 41.8007 34.5859C41.6279 36.2854 41.5409 37.9926 41.5401 39.7009C41.5401 40.5726 41.5526 41.2216 41.5775 41.648C41.6266 41.8946 41.6512 42.1454 41.6509 42.3969L41.7633 43.1802C42.0731 44.6228 42.4733 46.0445 42.9615 47.4369C43.4338 48.782 43.8572 49.7031 44.2316 50.2004C44.7309 50.7995 45.2801 51.099 45.8792 51.099C46.0427 51.0868 46.2049 51.0618 46.3645 51.0241C46.4666 50.9849 46.5594 50.9246 46.6368 50.8472C46.7143 50.7698 46.7745 50.677 46.8138 50.5748C47.0535 50.2573 47.2659 49.9201 47.4489 49.5668C47.4628 49.4916 47.4952 49.4211 47.5432 49.3616C47.5719 49.338 47.5915 49.3052 47.5987 49.2687L47.7844 48.8943L47.8218 48.7086C47.8967 48.4839 48.0834 47.8244 48.382 46.73L48.4569 46.5053L48.5318 46.2447L48.5647 46.1294Z" fill="white"/>
<path d="M19.0134 16.5959C18.8636 16.5959 18.7722 16.3548 18.7722 16.1466C18.7646 16.0887 18.7718 16.0297 18.793 15.9753C18.8142 15.9208 18.8488 15.8726 18.8936 15.8351C19.3759 15.6044 19.8581 15.182 20.4408 15.182C20.4935 15.1749 20.5472 15.1793 20.5981 15.1947C20.6491 15.2102 20.6961 15.2364 20.736 15.2717C20.7759 15.3069 20.8078 15.3503 20.8295 15.3989C20.8512 15.4475 20.8621 15.5002 20.8617 15.5535C20.8617 16.1526 20.6205 16.7802 20.6205 17.4227C20.6205 17.9949 20.661 18.558 20.7014 19.1407C20.7014 20.2356 20.9725 21.3005 21.3649 22.3355C21.3735 22.3615 21.3771 22.389 21.3754 22.4163C21.3646 22.5184 21.3164 22.6129 21.2401 22.6815C21.1637 22.7501 21.0647 22.788 20.962 22.7878C20.9012 22.79 20.8412 22.7728 20.7908 22.7386C20.7404 22.7044 20.7023 22.655 20.6819 22.5976C20.1892 21.2496 20.0379 19.7518 20.0379 18.2165C20.0282 17.4707 20.099 16.726 20.2491 15.9953C19.9315 16.1032 19.3129 16.5959 19.0134 16.5959Z" fill="white"/>
<path d="M24.6136 15.6611C24.6157 15.6365 24.6229 15.6125 24.6346 15.5907C24.6717 15.515 24.7286 15.4506 24.7992 15.4045C24.8699 15.3583 24.9517 15.3321 25.036 15.3286C26.9831 15.4604 27.8189 17.6097 27.8189 19.2888C27.8189 21.0157 26.5727 22.7142 24.7739 22.7247C23.1173 22.7247 22.5841 20.7446 22.5841 19.3981C22.5841 18.0516 23.1473 16.2213 24.6136 15.6611ZM26.9846 19.0671C26.9846 17.7311 26.4829 16.3037 25.2472 15.9831C25.1858 16.0625 24.8652 16.1329 24.7439 16.1329C23.5682 16.2827 23.2881 18.3796 23.2881 19.3891C23.2881 20.4735 23.6296 22.0612 25.0255 22.1421C26.4829 22.1211 26.9846 20.2938 26.9846 19.0671Z" fill="white"/>
<path d="M30.7546 15.6613C30.7569 15.6368 30.7635 15.613 30.7741 15.5909C30.8105 15.5141 30.8671 15.4486 30.9378 15.4014C31.0084 15.3542 31.0906 15.327 31.1755 15.3228C33.1151 15.4546 33.9599 17.6039 33.9599 19.2829C33.9599 21.0099 32.7137 22.7084 30.9149 22.7188C29.2568 22.7188 28.7251 20.7388 28.7251 19.3922C28.7251 18.0457 29.2868 16.2214 30.7546 15.6613ZM33.1256 19.0672C33.1256 17.7312 32.6238 16.3038 31.3867 15.9833C31.3268 16.0627 31.0047 16.1331 30.8849 16.1331C29.7091 16.2828 29.4276 18.3797 29.4276 19.3892C29.4276 20.4736 29.7691 22.0613 31.1665 22.1422C32.6238 22.1212 33.1256 20.2939 33.1256 19.0672Z" fill="white"/>
<path d="M35.116 16.7365C35.2762 16.7365 35.3376 16.9566 35.3376 17.1274C35.3376 17.6501 36.0611 17.8508 36.5359 17.8508C36.8279 17.8508 37.4705 17.6307 37.4705 17.2517C37.4705 16.7485 36.3142 16.5178 35.8828 16.5178C35.4814 16.5178 35.0681 16.6181 34.8584 16.6181C34.737 16.6181 34.6666 16.4774 34.6666 16.3186C34.6588 16.2397 34.676 16.1604 34.7158 16.0918C34.7556 16.0233 34.8159 15.969 34.8883 15.9367C35.1406 15.8712 35.4006 15.841 35.6612 15.8468C36.6662 15.8468 37.9932 16.1883 37.9932 17.1424C37.9932 17.9167 37.2788 18.5084 36.4355 18.5084C35.6612 18.5084 34.8883 18.047 34.8883 17.1828C34.8898 16.8458 34.9962 16.7365 35.116 16.7365ZM40.0287 15.8378C40.1605 15.8378 40.2699 15.8977 40.2699 16.0085C40.2679 16.0466 40.2569 16.0837 40.2379 16.1167C40.2189 16.1498 40.1924 16.1779 40.1605 16.1988C38.2509 18.1788 36.6632 20.4989 35.6672 23.0122C35.6477 23.183 35.447 23.2833 35.2852 23.2833C35.1954 23.2833 35.1145 23.2429 35.1145 23.1425C35.1171 23.0977 35.1273 23.0537 35.1444 23.0122C36.1465 20.3406 37.7287 17.9245 39.7771 15.9381C39.8086 15.903 39.8475 15.8752 39.891 15.8568C39.9345 15.8384 39.9815 15.8299 40.0287 15.8318V15.8378ZM38.131 19.8069C38.131 19.6452 38.2104 19.5074 38.3722 19.5074C39.2154 19.759 40.1995 20.4225 40.1995 21.4275C40.1995 22.151 39.4775 22.5823 38.793 22.5823C38.161 22.5823 37.6487 22.0102 37.6487 21.3467C37.6571 21.1101 37.7193 20.8785 37.8306 20.6695C37.942 20.4606 38.0995 20.2798 38.2913 20.1409C38.2393 20.1012 38.1977 20.0496 38.1698 19.9904C38.1419 19.9313 38.1286 19.8663 38.131 19.8009V19.8069ZM38.5624 20.2563C38.592 20.3221 38.6058 20.3939 38.6028 20.466C38.6028 20.8075 38.1101 20.9992 38.1101 21.4305C38.1101 21.7825 38.492 21.9443 38.814 21.9443C39.0956 21.9443 39.6977 21.7945 39.6977 21.4006C39.6977 20.9153 38.9743 20.433 38.5624 20.2533V20.2563Z" fill="white"/>
<path d="M43.6174 18.7589C44.4822 17.7716 45.6577 17.1086 46.95 16.8792C45.9496 17.4631 45.0639 18.2245 44.3364 19.1259C43.8128 19.746 43.4195 20.4653 43.1801 21.2408C43.1247 21.431 43.0827 21.6152 43.0498 21.789C44.0278 21.5299 47.1297 20.5608 49.0514 17.5188C49.7435 16.4142 50.2023 15.1796 50.3994 13.8911C49.5869 13.6928 48.7462 13.6371 47.9146 13.7264C44.9999 14.0469 41.6718 16.2726 41.6583 18.9027C41.6583 19.3446 41.7467 20.1219 42.4072 21.0775C42.6271 20.2219 43.0412 19.4285 43.6174 18.7589V18.7589Z" fill="white"/>
</svg>
