<svg width="67" height="67" viewBox="0 0 67 67" fill="none" xmlns="http://www.w3.org/2000/svg">
<path d="M33.1783 65.4957C50.7511 65.4957 64.9967 51.2501 64.9967 33.6773C64.9967 16.1045 50.7511 1.85889 33.1783 1.85889C15.6055 1.85889 1.35986 16.1045 1.35986 33.6773C1.35986 51.2501 15.6055 65.4957 33.1783 65.4957Z" fill="#8BC34A"/>
<path d="M33.1784 66.5477C26.6773 66.5477 20.3221 64.6199 14.9166 61.0081C9.51116 57.3962 5.2981 52.2626 2.81022 46.2563C0.322351 40.2501 -0.328595 33.641 0.939712 27.2647C2.20802 20.8885 5.3386 15.0316 9.93559 10.4346C14.5326 5.83763 20.3895 2.70704 26.7657 1.43874C33.1419 0.170431 39.7511 0.821369 45.7573 3.30924C51.7636 5.79712 56.8972 10.0102 60.509 15.4157C64.1209 20.8212 66.0487 27.1763 66.0487 33.6774C66.038 42.3919 62.5714 50.7463 56.4094 56.9084C50.2473 63.0704 41.8928 66.537 33.1784 66.5477V66.5477ZM33.1784 2.91084C27.0933 2.91084 21.1449 4.71527 16.0854 8.09594C11.0259 11.4766 7.08243 16.2817 4.75378 21.9036C2.42513 27.5254 1.81584 33.7115 3.00298 39.6797C4.19011 45.6478 7.12035 51.1299 11.4231 55.4327C15.7259 59.7355 21.208 62.6657 27.1761 63.8528C33.1443 65.04 39.3304 64.4307 44.9523 62.102C50.5741 59.7734 55.3792 55.83 58.7599 50.7704C62.1405 45.7109 63.945 39.7625 63.945 33.6774C63.9356 25.5205 60.6911 17.7003 54.9233 11.9325C49.1555 6.16469 41.3353 2.92021 33.1784 2.91084V2.91084Z" fill="#33691E"/>
<path d="M7.97949 39.4474C7.94806 39.3135 7.94342 39.1748 7.96586 39.0392C7.98831 38.9035 8.03737 38.7737 8.11024 38.6571C8.1831 38.5405 8.27833 38.4395 8.39042 38.3599C8.5025 38.2803 8.62924 38.2236 8.76331 38.1932V38.1932C9.03491 38.1295 9.32068 38.1763 9.55777 38.3233C9.79486 38.4703 9.96385 38.7055 10.0276 38.9771V38.9771C10.0598 39.1116 10.0651 39.2511 10.043 39.3877C10.021 39.5243 9.97215 39.6551 9.89926 39.7726C9.82638 39.8902 9.73092 39.9921 9.61841 40.0726C9.50589 40.153 9.37855 40.2104 9.24373 40.2413C9.16553 40.2583 9.08601 40.2684 9.00605 40.2717V40.2717C8.76645 40.2725 8.53379 40.1911 8.34696 40.0411C8.16012 39.8911 8.03042 39.6815 7.97949 39.4474V39.4474ZM57.1433 40.1452C56.8723 40.0813 56.6373 39.9135 56.4888 39.678C56.3403 39.4425 56.2902 39.1581 56.3494 38.886C56.4121 38.6144 56.5796 38.3785 56.8155 38.2298C57.0513 38.0811 57.3364 38.0316 57.6085 38.0921V38.0921C57.7437 38.122 57.8717 38.1783 57.9849 38.2579C58.0982 38.3376 58.1945 38.4389 58.2683 38.556C58.3422 38.6731 58.3921 38.8037 58.4151 38.9402C58.4381 39.0767 58.4338 39.2164 58.4025 39.3513V39.3513C58.352 39.5824 58.2243 39.7894 58.0405 39.9383C57.8567 40.0872 57.6276 40.1691 57.3911 40.1705V40.1705C57.3078 40.1707 57.2248 40.1622 57.1433 40.1452ZM7.32714 33.7027C7.32911 33.5641 7.35844 33.4273 7.41345 33.3001C7.46847 33.1729 7.54807 33.0578 7.64769 32.9615C7.74731 32.8652 7.865 32.7895 7.99397 32.7387C8.12294 32.688 8.26066 32.6633 8.39921 32.666V32.666C8.67818 32.666 8.94573 32.7768 9.14299 32.9741C9.34025 33.1713 9.45105 33.4389 9.45105 33.7178V33.7178C9.45105 33.9968 9.34025 34.2643 9.14299 34.4616C8.94573 34.6589 8.67818 34.7697 8.39921 34.7697V34.7697C8.2581 34.7724 8.11789 34.7467 7.98691 34.6941C7.85594 34.6415 7.73689 34.5631 7.63686 34.4636C7.53682 34.364 7.45785 34.2453 7.40464 34.1146C7.35143 33.9839 7.32508 33.8438 7.32714 33.7027V33.7027ZM56.9259 33.6015C56.9245 33.4634 56.9506 33.3265 57.0027 33.1986C57.0548 33.0707 57.1317 32.9544 57.2291 32.8566C57.3266 32.7587 57.4424 32.6812 57.5701 32.6285C57.6977 32.5758 57.8346 32.549 57.9727 32.5497C58.2521 32.5483 58.5207 32.6577 58.7197 32.8539C58.9187 33.05 59.0319 33.317 59.0346 33.5965V33.5965C59.0333 33.8764 58.9215 34.1444 58.7236 34.3423C58.5257 34.5403 58.2576 34.652 57.9777 34.6534V34.6534C57.7022 34.6481 57.4399 34.5349 57.247 34.3382C57.0541 34.1415 56.946 33.877 56.9461 33.6015H56.9259ZM8.75825 29.2171C8.4855 29.1545 8.24873 28.9862 8.0999 28.7492C7.95106 28.5122 7.90231 28.2258 7.96432 27.9529V27.9529C8.027 27.6801 8.19528 27.4434 8.43228 27.2945C8.66929 27.1457 8.95566 27.0969 9.22856 27.1589V27.1589C9.50062 27.2228 9.73654 27.3914 9.88516 27.628C10.0338 27.8647 10.0831 28.1504 10.0225 28.4232V28.4232C9.96852 28.6521 9.83974 28.8564 9.65656 29.0039C9.47337 29.1514 9.24624 29.2335 9.0111 29.2374V29.2374C8.92635 29.2391 8.84164 29.2324 8.75825 29.2171V29.2171ZM56.2937 28.3271C56.2316 28.0549 56.2796 27.7692 56.4275 27.5323C56.5753 27.2954 56.8108 27.1267 57.0826 27.0629C57.2171 27.0306 57.3567 27.0254 57.4932 27.0474C57.6298 27.0694 57.7606 27.1183 57.8782 27.1912C57.9957 27.264 58.0977 27.3595 58.1781 27.472C58.2586 27.5845 58.3159 27.7119 58.3469 27.8467V27.8467C58.379 27.9815 58.3841 28.1214 58.3617 28.2583C58.3394 28.3951 58.2901 28.5261 58.2167 28.6437C58.1433 28.7613 58.0473 28.8632 57.9342 28.9434C57.8211 29.0236 57.6933 29.0806 57.558 29.1109V29.1109C57.4803 29.131 57.4005 29.1412 57.3203 29.1413V29.1413C57.0865 29.1346 56.8614 29.0513 56.6796 28.9042C56.4977 28.7571 56.3693 28.5544 56.314 28.3271H56.2937ZM10.3461 23.8972C10.2202 23.8386 10.1071 23.7556 10.0135 23.653C9.91979 23.5505 9.84736 23.4304 9.80034 23.2997C9.75333 23.169 9.73265 23.0302 9.73954 22.8915C9.74642 22.7528 9.78073 22.6168 9.84045 22.4914V22.4914C9.89857 22.3656 9.98106 22.2527 10.0832 22.159C10.1853 22.0654 10.3049 21.993 10.4352 21.9459C10.5655 21.8989 10.7038 21.8782 10.8422 21.885C10.9806 21.8918 11.1162 21.926 11.2412 21.9857V21.9857C11.3672 22.0443 11.4802 22.1273 11.5739 22.2298C11.6676 22.3324 11.74 22.4525 11.787 22.5832C11.834 22.7139 11.8547 22.8526 11.8478 22.9914C11.841 23.1301 11.8066 23.2661 11.7469 23.3915V23.3915C11.6623 23.5706 11.5284 23.7218 11.361 23.8275C11.1935 23.9332 10.9993 23.9889 10.8013 23.9882C10.6514 23.9905 10.5028 23.9594 10.3664 23.8972H10.3461ZM54.5187 23.3207C54.4589 23.1949 54.4245 23.0586 54.4176 22.9195C54.4106 22.7803 54.4313 22.6412 54.4782 22.5101C54.5252 22.379 54.5977 22.2585 54.6914 22.1554C54.7852 22.0524 54.8983 21.969 55.0244 21.9098V21.9098C55.1498 21.8501 55.2858 21.8158 55.4246 21.8089C55.5633 21.802 55.702 21.8227 55.8327 21.8697C55.9634 21.9167 56.0835 21.9892 56.1861 22.0828C56.2886 22.1765 56.3716 22.2896 56.4303 22.4155V22.4155C56.5497 22.6698 56.5636 22.961 56.4688 23.2254C56.374 23.4898 56.1783 23.7059 55.9246 23.8264C55.781 23.8956 55.6238 23.9319 55.4644 23.9326V23.9326C55.2686 23.9264 55.0783 23.8659 54.9149 23.7579C54.7515 23.6498 54.6213 23.4984 54.539 23.3207H54.5187Z" fill="#33691E"/>
<path d="M52.9868 36.3577C54.6822 25.8675 47.5525 15.989 37.0623 14.2937C26.572 12.5983 16.6936 19.7279 14.9982 30.2181C13.3029 40.7084 20.4325 50.5868 30.9227 52.2822C41.413 53.9776 51.2914 46.8479 52.9868 36.3577Z" fill="#33691E"/>
<path d="M33.1784 53.9054C29.1777 53.9054 25.2669 52.7191 21.9404 50.4964C18.614 48.2738 16.0213 45.1146 14.4903 41.4184C12.9593 37.7223 12.5587 33.6551 13.3392 29.7313C14.1197 25.8075 16.0463 22.2032 18.8752 19.3743C21.7041 16.5454 25.3083 14.6189 29.2322 13.8384C33.156 13.0579 37.2231 13.4585 40.9193 14.9895C44.6155 16.5205 47.7746 19.1131 49.9973 22.4396C52.2199 25.766 53.4063 29.6769 53.4063 33.6776C53.3983 39.0399 51.2645 44.1803 47.4728 47.972C43.6811 51.7637 38.5407 53.8974 33.1784 53.9054V53.9054ZM33.1784 15.5382C29.5932 15.5382 26.0885 16.6013 23.1074 18.5929C20.1263 20.5845 17.8026 23.4153 16.4302 26.7274C15.0577 30.0395 14.6981 33.6841 15.3968 37.2006C16.0955 40.717 17.8212 43.9474 20.3556 46.4832C22.89 49.019 26.1193 50.7464 29.6354 51.4471C33.1515 52.1478 36.7963 51.7902 40.1092 50.4196C43.422 49.049 46.2541 46.7269 48.2474 43.7469C50.2407 40.7669 51.3056 37.2628 51.3076 33.6776C51.3023 28.8711 49.3905 24.2629 45.9918 20.8642C42.5931 17.4655 37.985 15.5537 33.1784 15.5484V15.5382Z" fill="#33691E"/>
<path d="M16.9254 16.4281C16.9153 16.5349 16.8826 16.6384 16.8293 16.7315C16.7681 16.8529 16.6859 16.9624 16.5866 17.0552C16.4697 17.1782 16.3329 17.2808 16.182 17.3586C16.1248 17.3875 16.0616 17.4025 15.9974 17.4025C15.9333 17.4025 15.8701 17.3875 15.8129 17.3586C15.3527 17.1209 14.9785 16.9287 14.6902 16.7871C14.402 16.6455 14.1592 16.509 13.9519 16.3826L13.9266 16.4129C14.1491 16.6607 14.3514 16.8832 14.5385 17.0804L15.0897 17.6569C15.2718 17.839 15.4538 18.0261 15.6308 18.2183C15.8078 18.4104 16.0101 18.6279 16.2275 18.8655C16.1865 18.9552 16.1356 19.04 16.0758 19.1184C16.0068 19.2133 15.9307 19.3029 15.8483 19.3864C15.7119 19.5389 15.5373 19.6524 15.3426 19.7151C15.2604 19.7326 15.175 19.7272 15.0957 19.6995C15.0163 19.6719 14.9461 19.6231 14.8925 19.5583L12.0252 16.3522C12.0091 16.224 12.0247 16.0937 12.0707 15.973C12.144 15.7658 12.2674 15.5799 12.4298 15.4319C12.5922 15.2545 12.7952 15.1191 13.0214 15.0374C13.2155 14.9834 13.4227 15.0032 13.603 15.0931L14.048 15.3004L14.5537 15.5583L15.0594 15.8263L15.5145 16.064L15.5449 16.0387C15.3072 15.6089 15.0796 15.1891 14.8622 14.7846C14.6447 14.38 14.4728 14.0311 14.3565 13.7378C14.3913 13.6289 14.4407 13.5251 14.5031 13.4293C14.5836 13.3039 14.6787 13.1885 14.7863 13.0854C14.9415 12.9136 15.1334 12.7788 15.3476 12.691C15.4209 12.6568 15.5017 12.6422 15.5824 12.6484C15.663 12.6546 15.7406 12.6814 15.8078 12.7264C15.9039 12.7871 16.0404 12.8933 16.2275 13.0399L16.8394 13.5456L17.5525 14.1373L18.2756 14.7441C18.5082 14.9413 18.7156 15.1183 18.9027 15.2852C19.0898 15.4521 19.2364 15.5785 19.3376 15.6696C19.3113 15.775 19.2686 15.8757 19.2112 15.9679C19.1393 16.0803 19.0544 16.1838 18.9583 16.2764C18.8312 16.4126 18.6734 16.5166 18.4981 16.5798C18.4147 16.6024 18.3267 16.6017 18.2438 16.5776C18.1608 16.5535 18.0861 16.507 18.0278 16.4433C17.5727 16.032 17.1681 15.6578 16.8142 15.3206C16.4602 14.9818 16.1618 14.7037 15.9191 14.4812L15.8887 14.5115C16.005 14.7037 16.1416 14.9565 16.2983 15.265C16.4551 15.5735 16.6675 15.978 16.9254 16.4281Z" fill="#33691E"/>
<path d="M18.3969 10.6028C18.4777 10.4702 18.5764 10.3494 18.6902 10.2437C18.828 10.1018 18.9845 9.97934 19.1554 9.87965C19.3717 9.74781 19.6097 9.65535 19.8583 9.60657C19.9534 9.58386 20.0524 9.58299 20.1479 9.60401C20.2433 9.62503 20.3328 9.6674 20.4095 9.72794C20.6472 9.92516 20.9152 10.1628 21.2136 10.4359L22.1238 11.2905L23.0442 12.1705L23.8382 12.9391C23.8123 13.0569 23.7546 13.1654 23.6713 13.2526C23.5645 13.3755 23.438 13.4798 23.2971 13.5611C23.1984 13.6203 23.0932 13.6678 22.9835 13.7027C22.9044 13.7318 22.8196 13.7422 22.7357 13.7331C22.6597 13.7225 22.5871 13.6949 22.5233 13.6521C22.4484 13.602 22.3774 13.5462 22.311 13.4853L21.8862 13.0605L20.5714 13.8342C20.6219 14.0011 20.6674 14.1781 20.7231 14.3399C20.7787 14.5017 20.8242 14.6888 20.8697 14.8456C20.8161 14.9129 20.7569 14.9755 20.6927 15.0327C20.614 15.1045 20.5275 15.1673 20.4348 15.2198C20.2526 15.3477 20.0354 15.4165 19.8128 15.417C19.7331 15.4114 19.6561 15.3857 19.5889 15.3424C19.5217 15.2991 19.4665 15.2395 19.4285 15.1692C19.3879 15.0997 19.3572 15.0248 19.3375 14.9467L19.2616 14.6686C19.2211 14.5219 19.1706 14.3298 19.1149 14.1022C19.0593 13.8747 19.0087 13.6218 18.9481 13.3538C18.8874 13.0858 18.8267 12.8127 18.7711 12.5244L18.6092 11.7153C18.5587 11.4625 18.5132 11.2096 18.4778 11.0377C18.4424 10.8658 18.412 10.709 18.3969 10.6028ZM19.8179 11.0225C19.8684 11.2703 19.9241 11.5282 19.9898 11.8367C20.0555 12.1452 20.1213 12.4334 20.2073 12.7318L21.1074 12.2008C20.8849 11.9783 20.6674 11.7659 20.45 11.5586L19.8634 11.0023L19.8179 11.0225Z" fill="#33691E"/>
<path d="M26.1845 12.5092L25.871 12.5951C25.7496 12.6305 25.6282 12.6558 25.4968 12.6811L25.0973 12.7367C24.9711 12.7492 24.8441 12.7492 24.718 12.7367C24.5787 12.7436 24.4412 12.7034 24.3275 12.6227C24.2137 12.542 24.1304 12.4254 24.0909 12.2917L22.9127 8.53438C22.8936 8.48872 22.8838 8.43973 22.8838 8.39025C22.8838 8.34077 22.8936 8.29179 22.9127 8.24613C22.961 8.15527 23.0304 8.07726 23.1149 8.01856C23.3296 7.86737 23.5603 7.74019 23.8027 7.63929C24.0505 7.53309 24.278 7.45218 24.4803 7.38644C24.8645 7.26163 25.2648 7.19349 25.6687 7.18417C26.0161 7.17661 26.361 7.24387 26.6801 7.38139C26.9981 7.51935 27.2776 7.73287 27.4943 8.00339C27.9906 8.64776 28.2448 9.44606 28.2124 10.2588C28.1914 10.6031 28.0891 10.9376 27.914 11.2348C27.7381 11.5361 27.4981 11.795 27.2111 11.9933C26.8968 12.2159 26.5507 12.3898 26.1845 12.5092ZM25.3703 11.4978L25.5928 11.427C25.6765 11.4093 25.7592 11.3874 25.8406 11.3612C26.0116 11.3099 26.1724 11.2295 26.316 11.1235C26.4505 11.0274 26.5584 10.8986 26.6295 10.7493C26.7073 10.592 26.7488 10.4192 26.7509 10.2436C26.7517 10.0131 26.7141 9.78412 26.6396 9.566C26.5488 9.16381 26.306 8.81229 25.962 8.58495C25.8099 8.49782 25.6405 8.44498 25.4658 8.43013C25.2911 8.41528 25.1153 8.43878 24.9506 8.49898L24.7231 8.57989C24.6472 8.61023 24.5713 8.64058 24.4904 8.68103L25.3703 11.4978Z" fill="#33691E"/>
<path d="M29.0265 7.19909C29.0105 7.09499 29.0161 6.98869 29.043 6.88687C29.07 6.78505 29.1178 6.68991 29.1833 6.60743C29.2533 6.52938 29.338 6.46596 29.4326 6.42083C29.5272 6.37569 29.6298 6.34974 29.7345 6.34447L32.5057 6.09668C32.5561 6.16862 32.5969 6.24681 32.6271 6.3293C32.6683 6.42931 32.6939 6.53505 32.703 6.64283C32.7193 6.72283 32.7193 6.80535 32.7028 6.88533C32.6862 6.96532 32.6536 7.0411 32.6069 7.10807C32.5619 7.15801 32.5075 7.19849 32.4467 7.22714C32.3859 7.2558 32.32 7.27204 32.2529 7.27495L30.483 7.43677L30.5537 8.21554L32.445 8.04867C32.4957 8.11946 32.5381 8.19581 32.5715 8.27623C32.6087 8.37546 32.6325 8.47919 32.6423 8.58471C32.674 8.74572 32.6413 8.91275 32.5512 9.04995C32.5085 9.10116 32.4552 9.14257 32.3949 9.17136C32.3347 9.20016 32.269 9.21566 32.2023 9.21683L30.6599 9.35842L30.7408 10.2383L32.8951 10.0411C32.9477 10.1143 32.9902 10.1943 33.0215 10.2788C33.0627 10.3788 33.0883 10.4845 33.0974 10.5923C33.1248 10.7556 33.0905 10.9232 33.0013 11.0626C32.9568 11.1135 32.9025 11.1549 32.8417 11.1844C32.7809 11.214 32.7148 11.231 32.6473 11.2346L30.1947 11.4571C30.091 11.472 29.9854 11.4654 29.8845 11.4376C29.7835 11.4097 29.6894 11.3612 29.6081 11.2952C29.5296 11.2256 29.4659 11.141 29.4207 11.0463C29.3756 10.9516 29.3499 10.8488 29.3451 10.744L29.0265 7.19909Z" fill="#33691E"/>
<path d="M38.463 7.91218C38.5631 7.89331 38.6646 7.88316 38.7664 7.88184C38.9024 7.87748 39.0385 7.89108 39.171 7.9223C39.3688 7.961 39.5564 8.0402 39.7222 8.15492C39.7831 8.19487 39.8336 8.24871 39.8697 8.31201C39.9057 8.3753 39.9262 8.44625 39.9295 8.51902C39.9295 8.76175 39.9295 8.98426 39.9295 9.18654C39.9295 9.38882 39.9295 9.5911 39.9548 9.78326C39.9801 9.97542 39.9548 10.1575 39.9548 10.3446C39.9548 10.5317 39.9548 10.7239 39.9548 10.9261H39.9953C40.1217 10.6025 40.243 10.294 40.3492 10.0007C40.4554 9.7074 40.5667 9.4141 40.6678 9.13091L40.9662 8.28134L41.2696 7.43177C41.4949 7.37124 41.7321 7.37124 41.9573 7.43177C42.1465 7.46627 42.3219 7.55398 42.463 7.68462C42.5263 7.75054 42.5705 7.83237 42.591 7.92141C42.6115 8.01045 42.6075 8.10338 42.5794 8.19032C42.5369 8.36175 42.4845 8.5306 42.4226 8.69602C42.3467 8.90841 42.2557 9.15114 42.1495 9.4141C42.0433 9.67707 41.9321 9.9552 41.8056 10.2434C41.6792 10.5317 41.5578 10.8048 41.4365 11.0627C41.3151 11.3206 41.1938 11.5684 41.0774 11.7605C40.989 11.9257 40.8894 12.0845 40.7791 12.2359C40.64 12.3008 40.4875 12.332 40.3341 12.3269C40.1349 12.3369 39.9354 12.3164 39.7424 12.2662C39.5189 12.2235 39.3059 12.1376 39.1153 12.0134C39.0474 11.9765 38.9888 11.9244 38.9441 11.8613C38.8994 11.7982 38.8697 11.7257 38.8574 11.6493C38.8372 11.4133 38.822 11.1352 38.8119 10.8149C38.8119 10.4963 38.8119 10.1423 38.7816 9.76304L38.3012 10.7744C38.1393 11.093 37.9978 11.361 37.8764 11.5835C37.7489 11.6469 37.6091 11.6814 37.4668 11.6847C37.2782 11.6946 37.0892 11.6776 36.9054 11.6341C36.678 11.5809 36.4598 11.494 36.2582 11.3762C36.1821 11.3366 36.1147 11.2823 36.06 11.2163C36.0053 11.1502 35.9643 11.074 35.9396 10.9919C35.9077 10.8353 35.8891 10.6762 35.8839 10.5165C35.8839 10.3092 35.8839 10.0715 35.8586 9.80855C35.8334 9.54558 35.8586 9.26239 35.8586 8.95897C35.8586 8.65555 35.8586 8.35214 35.889 8.04872C35.9193 7.74531 35.9244 7.452 35.9446 7.16881C35.9649 6.88562 35.9901 6.62266 36.0205 6.38498C36.1362 6.32496 36.2609 6.28397 36.3896 6.26361C36.5427 6.22854 36.7018 6.22854 36.8549 6.26361C37.0365 6.29855 37.2037 6.38654 37.3353 6.51646C37.3924 6.58649 37.4344 6.66755 37.4588 6.75456C37.4831 6.84157 37.4893 6.93266 37.4769 7.02215C37.4364 7.6037 37.401 8.08412 37.3707 8.46845C37.3404 8.85278 37.3151 9.17137 37.2948 9.4141C37.2746 9.65684 37.2594 9.85406 37.2443 9.9906C37.2291 10.1271 37.2443 10.2333 37.219 10.3092H37.2645C37.3606 10.1018 37.4567 9.91474 37.5426 9.73775C37.6286 9.56076 37.7196 9.38376 37.8106 9.23205C37.9017 9.08034 37.9927 8.86289 38.0938 8.66061C38.195 8.45833 38.3416 8.1802 38.463 7.91218Z" fill="#33691E"/>
<path d="M43.343 13.6215C43.2469 13.6031 43.1522 13.5777 43.0598 13.5456C42.9334 13.5077 42.81 13.4603 42.6906 13.404C42.5874 13.3565 42.4892 13.2989 42.3973 13.2321C42.3224 13.1789 42.2603 13.1099 42.2152 13.0298C42.1744 12.9522 42.1568 12.8644 42.1647 12.777C42.186 12.6588 42.2252 12.5445 42.281 12.4381L44.1622 8.39258L44.4454 8.47855C44.5703 8.51399 44.6921 8.55966 44.8095 8.61509C44.9151 8.66089 45.0152 8.71857 45.1078 8.78702C45.1823 8.83707 45.2431 8.90485 45.2848 8.98424C45.3276 9.06305 45.3452 9.15303 45.3354 9.24214C45.3218 9.36015 45.2876 9.47484 45.2343 9.58097L43.343 13.6215Z" fill="#33691E"/>
<path d="M46.1242 10.6225C46.1272 10.5316 46.1426 10.4414 46.1697 10.3545C46.203 10.245 46.2524 10.141 46.3164 10.046C46.3565 9.97091 46.4111 9.9045 46.4771 9.85067C46.543 9.79684 46.6191 9.75668 46.7007 9.7325C46.7703 9.71967 46.8418 9.72159 46.9107 9.73814C46.9795 9.75469 47.0441 9.7855 47.1002 9.82859L50.1344 11.8514C50.1292 11.9425 50.1122 12.0326 50.0838 12.1194C50.0523 12.2287 50.0046 12.3327 49.9422 12.4279C49.9014 12.5033 49.8459 12.5699 49.779 12.6237C49.7122 12.6776 49.6353 12.7176 49.5528 12.7414C49.484 12.7535 49.4134 12.7512 49.3456 12.7347C49.2777 12.7181 49.2139 12.6877 49.1584 12.6453L48.3796 12.1396L46.2203 15.3761C46.1281 15.3422 46.0386 15.3016 45.9523 15.2547C45.8343 15.198 45.721 15.1321 45.6135 15.0575C45.5166 14.9968 45.4267 14.9256 45.3454 14.8451C45.2804 14.7819 45.2288 14.7062 45.1937 14.6226C45.1682 14.5368 45.1682 14.4454 45.1937 14.3596C45.2256 14.2439 45.2769 14.1345 45.3454 14.036L47.1609 11.3204L46.1242 10.6225Z" fill="#33691E"/>
<path d="M50.9789 19.7505C50.8957 19.6971 50.8162 19.638 50.7412 19.5735C50.6365 19.494 50.5384 19.4061 50.4479 19.3106C50.3677 19.2292 50.2964 19.1393 50.2355 19.0425C50.1841 18.9688 50.1512 18.8839 50.1394 18.7948C50.1271 18.7061 50.143 18.6159 50.185 18.5369C50.2399 18.4317 50.3136 18.3374 50.4024 18.2587L51.3481 17.3434L50.2254 16.1803L48.855 17.5255C48.7724 17.4729 48.693 17.4155 48.6173 17.3535C48.5164 17.2695 48.4202 17.18 48.3291 17.0855C48.2487 17.0047 48.1759 16.9167 48.1116 16.8225C48.0623 16.7459 48.0295 16.6598 48.0155 16.5697C48.0063 16.4812 48.022 16.3918 48.061 16.3118C48.1182 16.2066 48.1935 16.1125 48.2835 16.0336L51.4795 12.9438C51.5352 12.9792 51.611 13.0399 51.7223 13.1259C51.8252 13.2039 51.9216 13.2901 52.0105 13.3838C52.0909 13.4646 52.1637 13.5526 52.228 13.6468C52.2765 13.7238 52.3092 13.8098 52.324 13.8996C52.3333 13.9882 52.3176 14.0775 52.2785 14.1575C52.2198 14.2616 52.1447 14.3555 52.056 14.4357L51.0901 15.3712L52.2077 16.5343L53.6287 15.1689L53.8664 15.3459C53.9682 15.427 54.0645 15.5149 54.1547 15.6089C54.2362 15.6886 54.3091 15.7767 54.3721 15.8718C54.4229 15.9477 54.4558 16.0342 54.4682 16.1247C54.4775 16.2132 54.4617 16.3026 54.4227 16.3826C54.3656 16.4877 54.2902 16.5819 54.2002 16.6607L50.9789 19.7505Z" fill="#33691E"/>
<path d="M7.81766 45.6928C7.74827 45.6032 7.68572 45.5085 7.63056 45.4096C7.55252 45.2812 7.48325 45.1478 7.42322 45.0101C7.36839 44.8917 7.32602 44.768 7.29679 44.6409C7.27395 44.5393 7.27395 44.434 7.29679 44.3324C7.32112 44.235 7.37393 44.1469 7.4485 44.0796C7.54892 43.9868 7.66545 43.9131 7.79237 43.8621L12.4498 41.8394L12.6369 42.1276C12.7148 42.2526 12.7841 42.3827 12.8443 42.517C12.8985 42.6373 12.9409 42.7626 12.9707 42.8912C12.9936 42.9928 12.9936 43.0981 12.9707 43.1997C12.9464 43.2971 12.8936 43.3852 12.819 43.4525C12.7173 43.5437 12.6011 43.6172 12.4751 43.67L7.81766 45.6928Z" fill="#33691E"/>
<path d="M11.7874 51.7815C11.6418 51.7502 11.5073 51.6804 11.398 51.5792C11.2407 51.4457 11.1028 51.2908 10.9884 51.119C10.857 50.9322 10.7563 50.7257 10.69 50.5071C10.662 50.3851 10.6587 50.2586 10.6804 50.1352C10.7021 50.0119 10.7484 49.8942 10.8165 49.789L11.8683 47.8977L12.1869 47.3617C12.288 47.1999 12.4044 47.0128 12.5459 46.8105L12.5055 46.765C12.2324 46.9875 11.9543 47.1999 11.6559 47.4072L10.7912 48.014L9.56739 48.8484C9.4835 48.7775 9.4057 48.6997 9.33477 48.6158C9.23694 48.5117 9.14734 48.4001 9.06675 48.2821C8.99292 48.1785 8.9286 48.0685 8.87458 47.9534C8.82893 47.8664 8.80959 47.768 8.81895 47.6702C8.82718 47.574 8.8603 47.4816 8.91503 47.4021C8.99336 47.294 9.09111 47.2014 9.20328 47.1291L13.1578 44.3882C13.3317 44.3921 13.4991 44.4544 13.6332 44.5652C13.7965 44.6856 13.9384 44.8326 14.0529 45.0001C14.1858 45.1871 14.2851 45.3959 14.3462 45.617C14.3758 45.7379 14.3803 45.8635 14.3594 45.9861C14.3385 46.1088 14.2927 46.2258 14.2248 46.3301L13.1781 48.2315L12.8645 48.7625C12.7634 48.9293 12.642 49.1114 12.5004 49.3187L12.5358 49.3541C12.8089 49.1316 13.082 48.9243 13.3652 48.722C13.6484 48.5197 13.9265 48.3174 14.2147 48.1202L15.4942 47.2302C15.5755 47.3038 15.6532 47.3814 15.7268 47.4628C15.8231 47.5683 15.9126 47.6798 15.9948 47.7966C16.1354 47.9734 16.22 48.1883 16.2375 48.4135C16.2375 48.5905 16.1111 48.7675 15.8532 48.9496L11.7874 51.7815Z" fill="#33691E"/>
<path d="M17.8659 56.2773C17.7751 56.4032 17.6481 56.4984 17.5018 56.5503C17.3567 56.5806 17.2069 56.5806 17.0618 56.5503C16.9407 56.5285 16.8221 56.4946 16.7078 56.4492C16.5646 56.3946 16.4244 56.3322 16.2881 56.2621C16.136 56.1838 15.9891 56.096 15.8481 55.9991C15.702 55.9032 15.5618 55.7985 15.4284 55.6856C15.0895 55.4059 14.7946 55.0769 14.5536 54.7096C14.3305 54.3732 14.179 53.9945 14.1085 53.5971C14.0426 53.2026 14.065 52.7984 14.1743 52.4137C14.3046 51.9798 14.5252 51.5782 14.8216 51.2355C15.1181 50.8654 15.4951 50.5679 15.924 50.3657C16.3008 50.1896 16.7116 50.0982 17.1275 50.0977C17.5369 50.0993 17.9422 50.18 18.321 50.3353C18.71 50.4937 19.0718 50.7121 19.3931 50.9826C19.7909 51.2845 20.1073 51.6808 20.3134 52.1356C20.3898 52.2823 20.4228 52.4478 20.4085 52.6126C20.3941 52.7774 20.3331 52.9347 20.2325 53.0661C20.1361 53.1862 20.0057 53.2743 19.8583 53.3189C19.7272 53.358 19.5896 53.37 19.4537 53.3543C19.3757 53.1465 19.281 52.9452 19.1705 52.7526C19.0353 52.51 18.8551 52.2955 18.6396 52.1204C18.4669 51.9615 18.2646 51.8381 18.0442 51.7574C17.8238 51.6767 17.5896 51.6402 17.3551 51.6501C17.1218 51.6755 16.8963 51.7488 16.6927 51.8654C16.4891 51.9821 16.3117 52.1395 16.1718 52.3278C15.9985 52.5228 15.8645 52.7494 15.7773 52.9953C15.7076 53.1983 15.6834 53.4141 15.7065 53.6274C15.7324 53.8271 15.7977 54.0196 15.8987 54.1938C16.0096 54.3711 16.1479 54.5299 16.3083 54.6641C16.4038 54.7473 16.5091 54.8187 16.6219 54.8765C16.7004 54.918 16.7836 54.9502 16.8696 54.9726L17.4512 54.2747L16.6623 53.6173C16.683 53.5184 16.7135 53.4219 16.7533 53.329C16.8019 53.2147 16.8685 53.1088 16.9505 53.0155C17.0542 52.8668 17.2123 52.7651 17.3905 52.7323C17.5426 52.725 17.6915 52.7777 17.8052 52.879L19.0492 53.9207C19.1158 53.9685 19.1718 54.0295 19.2136 54.1C19.2554 54.1705 19.282 54.249 19.2919 54.3303C19.2965 54.4128 19.284 54.4953 19.2553 54.5727C19.2266 54.6502 19.1822 54.7209 19.125 54.7804L17.8659 56.2773Z" fill="#33691E"/>
<path d="M21.4058 57.1268L20.6169 58.8007C20.5411 58.8007 20.4349 58.7552 20.2882 58.7096C20.146 58.6645 20.0074 58.6088 19.8736 58.5428C19.753 58.491 19.6393 58.4248 19.5347 58.3455C19.4504 58.2866 19.3812 58.2086 19.3325 58.118C19.2911 58.0278 19.2737 57.9286 19.2819 57.8297C19.2999 57.694 19.341 57.5623 19.4033 57.4403L21.3401 53.3391C21.384 53.2328 21.4674 53.1477 21.5727 53.1015C21.6874 53.0672 21.8079 53.0569 21.9267 53.0711C22.1847 53.1024 22.4389 53.16 22.6852 53.2431C22.9772 53.3411 23.2627 53.4577 23.5399 53.592C24.2066 53.8483 24.7629 54.3294 25.1126 54.9523C25.2353 55.2118 25.296 55.4963 25.2899 55.7833C25.2837 56.0703 25.2109 56.3519 25.0772 56.6059C24.9313 56.9392 24.681 57.2161 24.3641 57.3948C24.0757 57.5575 23.7541 57.6526 23.4235 57.673C23.4994 58.0573 23.5753 58.4214 23.6612 58.7703C23.7396 59.0672 23.7938 59.3699 23.8231 59.6755C23.684 59.839 23.4929 59.9497 23.282 59.9891C23.0806 60.0237 22.8735 59.9936 22.6903 59.9031C22.5775 59.8516 22.472 59.7852 22.3768 59.7059C22.3033 59.6373 22.2418 59.557 22.1947 59.4682C22.1471 59.3794 22.113 59.2839 22.0936 59.185C22.0685 59.0803 22.0516 58.9737 22.043 58.8664L21.866 57.3493L21.4058 57.1268ZM22.4981 56.2267C22.6818 56.3273 22.8962 56.3561 23.0999 56.3076C23.1971 56.2734 23.2858 56.2186 23.36 56.1471C23.4341 56.0755 23.4921 55.9888 23.5298 55.8929C23.5768 55.8005 23.6013 55.6983 23.6013 55.5945C23.6013 55.4908 23.5768 55.3886 23.5298 55.2962C23.3958 55.0652 23.1871 54.8868 22.9381 54.7905L22.7257 54.6995L22.5386 54.6438L21.9216 55.9485L22.4981 56.2267Z" fill="#33691E"/>
<path d="M26.3666 55.9283C26.3855 55.8094 26.4284 55.6956 26.4927 55.5939C26.5571 55.4921 26.6415 55.4046 26.7408 55.3366C26.8429 55.2747 26.9563 55.2339 27.0745 55.2166C27.1926 55.1992 27.313 55.2056 27.4286 55.2355L30.5386 55.8979C30.5682 55.9953 30.5885 56.0952 30.5993 56.1963C30.6165 56.3187 30.6165 56.443 30.5993 56.5655C30.5762 56.7519 30.482 56.9222 30.3363 57.0408C30.2015 57.1182 30.0419 57.14 29.8913 57.1015L27.9039 56.6818L27.7219 57.5566L29.8407 58.0067C29.9126 58.2184 29.9249 58.4459 29.8761 58.6641C29.8549 58.8499 29.7624 59.0203 29.6182 59.1395C29.5541 59.1797 29.4824 59.2063 29.4076 59.2176C29.3328 59.2289 29.2565 59.2247 29.1833 59.2052L27.4488 58.836L27.2415 59.8474L29.6587 60.3531C29.6926 60.4493 29.713 60.5497 29.7194 60.6515C29.7285 60.7751 29.7199 60.8994 29.6941 61.0206C29.6733 61.2092 29.5788 61.3819 29.4311 61.501C29.3655 61.5421 29.2923 61.5696 29.2158 61.5817C29.1394 61.5939 29.0612 61.5905 28.9861 61.5719L26.2149 60.9852C26.096 60.9685 25.9819 60.9269 25.8799 60.8634C25.778 60.7998 25.6906 60.7155 25.6232 60.6161C25.5601 60.5136 25.5186 60.3992 25.5012 60.2801C25.4838 60.161 25.4909 60.0396 25.5221 59.9233L26.3666 55.9283Z" fill="#33691E"/>
<path d="M33.6841 61.956H33.3099C33.1683 61.956 33.0217 61.956 32.87 61.9307L32.4148 61.8701C32.2715 61.8498 32.1308 61.8142 31.9951 61.7639C31.8399 61.7268 31.7014 61.639 31.6016 61.5145C31.5017 61.39 31.4463 61.2357 31.4439 61.0761L31.3124 56.5855C31.3056 56.5283 31.3111 56.4702 31.3285 56.4153C31.346 56.3604 31.375 56.3098 31.4136 56.2669C31.4963 56.1837 31.5965 56.1197 31.7068 56.0798C31.99 55.9799 32.2834 55.9121 32.5817 55.8775C32.8851 55.8421 33.1633 55.8169 33.406 55.8068C33.8658 55.7904 34.3255 55.8398 34.7714 55.9534C35.1612 56.0514 35.5252 56.2325 35.8384 56.4844C36.1445 56.7364 36.387 57.0569 36.5464 57.4199C36.886 58.2866 36.9164 59.244 36.6323 60.1305C36.501 60.5011 36.2865 60.8367 36.0053 61.1115C35.716 61.3857 35.371 61.5944 34.9939 61.7234C34.5721 61.8687 34.1302 61.9472 33.6841 61.956ZM33.1026 60.5654C33.1734 60.5654 33.2593 60.5654 33.3655 60.5906C33.4615 60.5981 33.5578 60.5981 33.6538 60.5906C33.8577 60.5894 34.0598 60.5517 34.2505 60.4794C34.4275 60.4118 34.5867 60.3046 34.7157 60.1659C34.8509 60.0122 34.9509 59.831 35.009 59.6349C35.0796 59.3816 35.1086 59.1186 35.095 58.8561C35.1166 58.3837 34.9574 57.9208 34.65 57.5615C34.5082 57.4203 34.3378 57.3112 34.1502 57.2414C33.9627 57.1716 33.7624 57.1428 33.5628 57.157H33.2897L33.0065 57.1924L33.1026 60.5654Z" fill="#33691E"/>
<path d="M40.2581 60.8685C40.1586 60.9197 40.0555 60.9637 39.9496 61C39.81 61.0537 39.6663 61.096 39.5198 61.1264C39.3921 61.1576 39.2617 61.1762 39.1304 61.182C39.0268 61.1867 38.9235 61.1694 38.827 61.1315C38.7362 61.0874 38.6592 61.0191 38.6045 60.9342C38.5342 60.8154 38.4846 60.6854 38.4578 60.5499L37.3251 55.5992L37.6386 55.4727C37.7769 55.4188 37.9188 55.3749 38.0634 55.3412C38.191 55.3096 38.3214 55.291 38.4528 55.2856C38.5569 55.28 38.6608 55.2991 38.7562 55.3412C38.8478 55.3818 38.9252 55.4487 38.9787 55.5334C39.0482 55.6527 39.0977 55.7825 39.1254 55.9177L40.2581 60.8685Z" fill="#33691E"/>
<path d="M40.2279 55.8574C40.1729 55.7503 40.1418 55.6325 40.1366 55.5121C40.1315 55.3918 40.1524 55.2718 40.1981 55.1603C40.2437 55.0488 40.313 54.9485 40.4011 54.8663C40.4891 54.7842 40.594 54.7221 40.7083 54.6842L43.6414 53.4604C43.7238 53.5203 43.797 53.5919 43.8588 53.6728C43.9375 53.7667 44.0007 53.8726 44.0459 53.9864C44.0904 54.0684 44.1182 54.1585 44.1278 54.2514C44.1373 54.3442 44.1284 54.4381 44.1016 54.5275C44.0705 54.5979 44.0253 54.6611 43.9687 54.7133C43.9122 54.7655 43.8455 54.8055 43.7729 54.8309L41.9018 55.6147L42.2457 56.439L44.2432 55.6046C44.3243 55.664 44.3974 55.7337 44.4606 55.8119C44.5393 55.9058 44.6025 56.0117 44.6477 56.1255C44.7387 56.2907 44.7605 56.4853 44.7084 56.6666C44.6776 56.7357 44.633 56.7978 44.5773 56.8491C44.5217 56.9004 44.4561 56.9398 44.3847 56.9649L42.7513 57.6476L43.1407 58.5832L45.4214 57.6274C45.5055 57.687 45.5805 57.7586 45.6439 57.8398C45.7209 57.9349 45.7839 58.0405 45.8311 58.1533C45.8768 58.2359 45.9053 58.3268 45.9148 58.4207C45.9244 58.5146 45.9148 58.6094 45.8867 58.6995C45.8578 58.771 45.814 58.8355 45.7582 58.8887C45.7024 58.9419 45.6358 58.9826 45.563 59.0079L42.9688 60.0952C42.8622 60.1511 42.7446 60.1829 42.6243 60.1885C42.5041 60.1941 42.384 60.1732 42.2727 60.1274C42.1613 60.0816 42.0614 60.012 41.9798 59.9234C41.8983 59.8349 41.8371 59.7295 41.8006 59.6148L40.2279 55.8574Z" fill="#33691E"/>
<path d="M51.9397 54.5071C51.9131 54.6543 51.8486 54.792 51.7526 54.9066C51.6208 55.0649 51.4696 55.2059 51.3025 55.3264C51.1207 55.4648 50.9174 55.5724 50.7008 55.6449C50.5796 55.6777 50.4531 55.6857 50.3288 55.6683C50.2046 55.6509 50.0851 55.6085 49.9776 55.5438L48.0559 54.5324C47.8587 54.4313 47.6767 54.3301 47.5098 54.234C47.3429 54.138 47.1558 54.0267 46.9434 53.8952L46.903 53.9357C47.1305 54.1987 47.353 54.4768 47.5705 54.76L48.2077 55.6095L49.0977 56.808C49.0265 56.8916 48.9505 56.971 48.8701 57.0457C48.7683 57.1452 48.6602 57.2381 48.5465 57.3239C48.4456 57.3993 48.3391 57.4669 48.2279 57.5261C48.1384 57.5707 48.0396 57.5933 47.9396 57.5919C47.8439 57.5856 47.7514 57.5542 47.6716 57.5008C47.5614 57.4258 47.4655 57.3316 47.3884 57.2227L44.5211 53.3997C44.52 53.2268 44.575 53.0582 44.6779 52.9192C44.7938 52.7543 44.9355 52.6092 45.0976 52.4894C45.2831 52.3509 45.4897 52.2433 45.7095 52.1708C45.8299 52.139 45.9555 52.1316 46.0788 52.149C46.2021 52.1663 46.3207 52.2081 46.4276 52.2719L48.3594 53.2581C48.5515 53.3592 48.7336 53.4553 48.9005 53.5514C49.0674 53.6474 49.2595 53.7638 49.4669 53.8952L49.5023 53.8598C49.2747 53.5969 49.0522 53.3289 48.8398 53.0507C48.6274 52.7726 48.42 52.5046 48.2127 52.2264L47.2822 50.9723C47.3534 50.8888 47.4294 50.8094 47.5098 50.7346C47.6104 50.6337 47.7186 50.5407 47.8334 50.4565C48.0053 50.3099 48.2162 50.2167 48.4403 50.1885C48.6173 50.1885 48.7993 50.3048 48.9915 50.5576L51.9397 54.5071Z" fill="#33691E"/>
<path d="M49.9877 50.4413C49.8852 50.4246 49.7851 50.3957 49.6894 50.3554C49.5672 50.3047 49.4531 50.2366 49.3505 50.1531C49.2705 50.0991 49.202 50.0297 49.1491 49.9489C49.0961 49.8682 49.0597 49.7777 49.042 49.6828C49.0354 49.6029 49.0454 49.5226 49.0715 49.4468C49.0976 49.3711 49.1393 49.3016 49.1937 49.2428L51.8487 45.9912C51.953 46.0072 52.0549 46.0361 52.1521 46.0772C52.2732 46.1268 52.3858 46.195 52.4858 46.2795C52.5672 46.3326 52.6369 46.4016 52.6908 46.4825C52.7447 46.5633 52.7816 46.6542 52.7994 46.7498C52.8082 46.9106 52.7537 47.0685 52.6477 47.1897L51.97 48.019L55.4138 50.8358C55.3634 50.9364 55.3077 51.0343 55.247 51.1291C55.1668 51.2557 55.0789 51.3773 54.984 51.4932C54.9034 51.5956 54.8118 51.6889 54.7109 51.7713C54.6329 51.8413 54.5392 51.8916 54.4378 51.918C54.342 51.9452 54.2404 51.9452 54.1445 51.918C54.0161 51.8693 53.8978 51.7973 53.7956 51.7056L50.903 49.344L49.9877 50.4413Z" fill="#33691E"/>
<path d="M56.0208 45.6474C55.8084 45.8598 55.6061 46.0418 55.4089 46.2036C55.2324 46.3559 55.0348 46.4819 54.8223 46.5778C54.6242 46.6623 54.4105 46.7037 54.1952 46.6992C53.9491 46.6868 53.7089 46.6194 53.4923 46.502C53.2629 46.3952 53.0627 46.2346 52.9086 46.0339C52.7546 45.8331 52.6512 45.5982 52.6073 45.349C52.5183 44.7261 52.6431 44.0915 52.9613 43.5487C53.0751 43.3178 53.207 43.0963 53.3558 42.8863C53.4798 42.7128 53.626 42.5564 53.7907 42.421C53.9224 42.3125 54.0786 42.2379 54.2458 42.2036C54.4006 42.1746 54.5606 42.1977 54.7009 42.2693C54.8391 42.3337 54.9552 42.4375 55.0347 42.5677C55.1032 42.6869 55.1511 42.8168 55.1763 42.952C55.0034 43.0649 54.8469 43.201 54.711 43.3566C54.5348 43.5506 54.3867 43.7685 54.2711 44.0039C54.1596 44.1925 54.0986 44.4067 54.0941 44.6258C54.0918 44.6906 54.1077 44.7547 54.1399 44.811C54.172 44.8673 54.2192 44.9135 54.2761 44.9444C54.3164 44.9666 54.3616 44.9782 54.4076 44.9782C54.4536 44.9782 54.4988 44.9666 54.5391 44.9444C54.6583 44.8739 54.7658 44.7852 54.8577 44.6815L55.237 44.3022C55.5911 43.9081 56.028 43.5973 56.5164 43.3919C56.7297 43.3146 56.9573 43.2845 57.1835 43.3037C57.4096 43.3229 57.6289 43.391 57.8261 43.5032C58.0571 43.6126 58.2584 43.7757 58.4133 43.979C58.5681 44.1822 58.672 44.4197 58.7162 44.6714C58.7996 45.3385 58.6591 46.0144 58.3167 46.593C58.1961 46.8416 58.0503 47.0771 57.8817 47.2959C57.739 47.4885 57.5686 47.6589 57.376 47.8016C57.2289 47.9201 57.0555 48.0016 56.8704 48.0393C56.7012 48.0708 56.5264 48.0458 56.3728 47.9682C56.2193 47.8905 56.0956 47.7644 56.0208 47.6095C55.9565 47.4657 55.9189 47.3115 55.9095 47.1543C56.1369 47.0446 56.3466 46.9014 56.5315 46.7295C56.743 46.5332 56.9147 46.298 57.0372 46.0367C57.1581 45.8394 57.218 45.6106 57.2092 45.3793C57.2018 45.3118 57.1782 45.2471 57.1403 45.1907C57.1025 45.1344 57.0515 45.088 56.9917 45.0557C56.9416 45.0273 56.885 45.0124 56.8274 45.0124C56.7698 45.0124 56.7132 45.0273 56.663 45.0557C56.5269 45.14 56.4013 45.2401 56.2888 45.3541L56.0208 45.6474Z" fill="#33691E"/>
<path d="M26.22 42.3098C26.2383 42.5525 26.1799 42.7948 26.0531 43.0026C25.9153 43.1785 25.7433 43.3247 25.5475 43.4325C25.3857 43.5241 25.2166 43.6019 25.0418 43.6651C24.8178 43.7467 24.5878 43.8109 24.354 43.8572C24.0953 43.9154 23.8337 43.9593 23.5702 43.9887C23.2998 44.0189 23.028 44.0341 22.756 44.0342C22.0709 44.0381 21.389 43.9393 20.7332 43.7409C20.1326 43.5603 19.5751 43.2592 19.0948 42.856C18.623 42.4542 18.2479 41.9512 17.9974 41.3844C17.7142 40.7395 17.5761 40.0404 17.5928 39.3363C17.5706 38.6079 17.7123 37.8838 18.0075 37.2174C18.2832 36.6336 18.6816 36.1161 19.1757 35.7004C19.6645 35.2938 20.2279 34.9863 20.8344 34.7952C21.4557 34.5973 22.1039 34.4967 22.756 34.4968C23.5322 34.4607 24.3052 34.617 25.0064 34.9519C25.2429 35.0512 25.4464 35.2156 25.5932 35.426C25.74 35.6363 25.8241 35.884 25.8357 36.1403C25.8417 36.3796 25.7727 36.6147 25.6385 36.8129C25.5222 36.9915 25.3708 37.1446 25.1935 37.263C24.8952 37.0889 24.5822 36.9417 24.2579 36.823C23.8539 36.6717 23.425 36.598 22.9937 36.6056C22.6256 36.5836 22.2569 36.6358 21.9094 36.7592C21.5619 36.8825 21.2427 37.0745 20.9709 37.3236C20.7176 37.5862 20.5214 37.8983 20.3943 38.2403C20.2673 38.5822 20.2122 38.9468 20.2326 39.311C20.2222 39.7165 20.2909 40.1202 20.4349 40.4994C20.5513 40.8124 20.7382 41.0944 20.981 41.3237C21.208 41.5365 21.4766 41.7001 21.7699 41.8041C22.0796 41.9077 22.4041 41.9607 22.7307 41.9609C22.9263 41.9632 23.1214 41.9428 23.3123 41.9002C23.4477 41.8726 23.5787 41.8267 23.7017 41.7636V40.3578H22.1037C22.0297 40.22 21.972 40.074 21.9317 39.9229C21.8742 39.7397 21.8452 39.5486 21.8457 39.3565C21.8339 39.2168 21.8496 39.0761 21.8921 38.9425C21.9347 38.8089 22.0031 38.6849 22.0935 38.5778C22.1788 38.4981 22.279 38.4361 22.3884 38.3953C22.4977 38.3545 22.6141 38.3357 22.7307 38.3401H25.2592C25.3863 38.3317 25.5137 38.3494 25.6337 38.392C25.7537 38.4346 25.8637 38.5013 25.9571 38.5879C26.0438 38.6801 26.1106 38.7892 26.1532 38.9084C26.1958 39.0276 26.2134 39.1544 26.2049 39.2807L26.22 42.3098Z" fill="white"/>
<path d="M34.1898 41.5665C34.0397 41.6847 33.8679 41.7723 33.6841 41.8244C33.453 41.8944 33.2125 41.9285 32.9711 41.9255C32.6686 41.9344 32.367 41.8881 32.081 41.789C31.9739 41.7527 31.8768 41.6917 31.7977 41.6109C31.7186 41.53 31.6598 41.4316 31.6259 41.3237C31.3478 40.4489 31.1202 39.7358 30.9382 39.1947C30.7561 38.6537 30.6196 38.1834 30.5184 37.7687H30.4426C30.4173 38.3553 30.392 38.8913 30.3768 39.3717C30.3617 39.8522 30.3515 40.3275 30.3465 40.7877C30.3414 41.2479 30.3465 41.7081 30.3161 42.1784C30.2858 42.6487 30.2807 43.1645 30.2504 43.7308C30.087 43.7915 29.9174 43.8339 29.7447 43.8573C29.5359 43.8933 29.3245 43.9119 29.1126 43.9129C28.7628 43.9309 28.4142 43.8577 28.1012 43.7005C27.9742 43.622 27.8721 43.509 27.8067 43.3747C27.7414 43.2404 27.7155 43.0904 27.732 42.942L28.1669 35.311C28.301 35.1353 28.4741 34.9934 28.6726 34.8963C29.0251 34.7264 29.4147 34.6481 29.8054 34.6688C30.2341 34.6486 30.6612 34.7337 31.0494 34.9166C31.3554 35.0976 31.5881 35.3804 31.7068 35.7156C31.7978 35.9583 31.8939 36.2213 31.9951 36.5398C32.0962 36.8584 32.2075 37.1669 32.3137 37.4956L32.6171 38.4767C32.7182 38.8003 32.8092 39.0936 32.8851 39.3515H32.9609C33.2037 38.5121 33.443 37.7013 33.679 36.9191C33.9218 36.1403 34.1392 35.4829 34.3364 34.957C34.5185 34.8636 34.7124 34.7955 34.9129 34.7547C35.1741 34.7016 35.4406 34.6796 35.7069 34.689C36.1173 34.6754 36.5259 34.7496 36.9054 34.9064C37.0398 34.9568 37.1593 35.0401 37.253 35.1489C37.3467 35.2576 37.4115 35.3881 37.4414 35.5284C37.4819 35.7257 37.5274 36.0341 37.5678 36.4488C37.6083 36.8635 37.6639 37.3287 37.7145 37.8445C37.7651 38.3603 37.8106 38.9116 37.8611 39.4931C37.9117 40.0747 37.9572 40.6259 38.0027 41.1569C38.0483 41.6878 38.0887 42.1682 38.119 42.6234C38.1494 43.0785 38.1646 43.4072 38.1747 43.6348C38.0097 43.7326 37.8306 43.8042 37.6437 43.8471C37.4113 43.8988 37.1737 43.9225 36.9357 43.918C36.606 43.9286 36.2785 43.861 35.98 43.7207C35.8448 43.6476 35.7335 43.5373 35.6591 43.4029C35.5847 43.2684 35.5504 43.1155 35.5602 42.9622C35.4995 41.8749 35.4641 40.8939 35.449 40.0291C35.4338 39.1644 35.4085 38.4362 35.3782 37.8445H35.3074C35.2062 38.2339 35.0596 38.7245 34.8725 39.3111C34.6854 39.8977 34.473 40.6461 34.1898 41.5665Z" fill="white"/>
<path d="M39.3327 39.24C39.3184 38.5346 39.4438 37.8334 39.7019 37.1768C39.9185 36.6173 40.2535 36.1113 40.6838 35.6932C41.114 35.2752 41.6295 34.955 42.1949 34.7545C43.4021 34.3364 44.7148 34.3364 45.9219 34.7545C46.4849 34.9549 47.0012 35.2681 47.439 35.6749C47.8812 36.102 48.2262 36.6194 48.4504 37.1919C48.7043 37.8496 48.8279 38.5503 48.8145 39.2552C48.826 39.9627 48.7042 40.6661 48.4555 41.3285C48.2361 41.9036 47.8905 42.422 47.4441 42.8456C47.0092 43.2563 46.4921 43.57 45.927 43.766C44.7066 44.1875 43.38 44.1875 42.1595 43.766C41.5926 43.563 41.0768 43.2389 40.648 42.8162C40.2191 42.3935 39.8876 41.8824 39.6766 41.3184C39.4291 40.6542 39.3124 39.9485 39.3327 39.24V39.24ZM42.023 39.24C41.9706 39.9581 42.1671 40.6724 42.5793 41.2628C42.7648 41.4745 42.9935 41.6441 43.2499 41.7602C43.5063 41.8764 43.7845 41.9365 44.066 41.9365C44.3475 41.9365 44.6258 41.8764 44.8822 41.7602C45.1386 41.6441 45.3672 41.4745 45.5528 41.2628C45.9128 40.6495 46.1027 39.9512 46.1027 39.24C46.1027 38.5288 45.9128 37.8305 45.5528 37.2172C45.3749 36.9966 45.1477 36.8207 44.8895 36.7039C44.6312 36.5871 44.3492 36.5326 44.066 36.5446C43.7841 36.5365 43.5041 36.5928 43.2473 36.7094C42.9905 36.8259 42.7637 36.9996 42.5843 37.2172C42.1657 37.8047 41.967 38.5208 42.023 39.24V39.24Z" fill="white"/>
<path d="M26.9482 33.0453C26.7787 33.2019 26.5713 33.3117 26.3464 33.3639C26.0364 33.4462 25.7165 33.4853 25.3957 33.4802C25.04 33.4824 24.6864 33.426 24.349 33.3133C24.1682 33.2413 24.0035 33.134 23.8646 32.9977C23.7257 32.8614 23.6153 32.6988 23.5398 32.5194L22.0581 29.4852C21.9115 29.1767 21.775 28.8834 21.6586 28.6104C21.5423 28.3373 21.4058 28.0187 21.2693 27.6597H21.1782C21.2187 28.2008 21.2389 28.7469 21.244 29.3032C21.249 29.8594 21.244 30.4106 21.244 30.9517V33.2678C21.0774 33.3084 20.9085 33.3388 20.7383 33.3588C20.517 33.3887 20.294 33.4039 20.0708 33.4044C19.8759 33.4063 19.6813 33.3911 19.4892 33.3588C19.3358 33.336 19.191 33.2732 19.0695 33.1768C18.9527 33.0815 18.8651 32.9554 18.8166 32.8127C18.7498 32.6176 18.719 32.412 18.7256 32.2059V24.762C18.8861 24.5472 19.1112 24.3895 19.3678 24.3119C19.6655 24.2093 19.9784 24.158 20.2933 24.1602C20.6525 24.1602 21.0094 24.2183 21.3502 24.3322C21.5296 24.403 21.693 24.5094 21.8303 24.645C21.9676 24.7806 22.0761 24.9425 22.1492 25.121L23.6663 28.1552C23.8129 28.4637 23.9494 28.757 24.0708 29.0301C24.1922 29.3032 24.3186 29.6218 24.4602 29.9808H24.531C24.4905 29.4397 24.4703 28.9037 24.4602 28.3626C24.4501 27.8215 24.4602 27.2854 24.4602 26.7494V24.3271C24.6266 24.2856 24.7955 24.2552 24.9659 24.2361C25.1854 24.206 25.4068 24.1908 25.6284 24.1906C25.981 24.1677 26.3326 24.2486 26.6398 24.4232C26.7717 24.5438 26.8721 24.6949 26.9321 24.8633C26.992 25.0317 27.0097 25.2122 26.9836 25.3891L26.9482 33.0453Z" fill="white"/>
<path d="M28.445 28.8128C28.4307 28.1074 28.5562 27.4062 28.8142 26.7495C29.0377 26.1767 29.3827 25.6591 29.8256 25.2325C30.2523 24.8237 30.7607 24.5101 31.3174 24.3121C32.5245 23.894 33.8372 23.894 35.0444 24.3121C35.6152 24.5103 36.1366 24.8293 36.5729 25.2473C37.0093 25.6654 37.3503 26.1726 37.5729 26.7344C37.8267 27.392 37.9504 28.0928 37.937 28.7976C37.9489 29.5035 37.8271 30.2053 37.5779 30.8659C37.358 31.4406 37.0124 31.9589 36.5665 32.383C36.1316 32.7937 35.6145 33.1074 35.0494 33.3034C34.4453 33.5162 33.8087 33.6223 33.1682 33.6169C32.5256 33.6232 31.8869 33.5153 31.282 33.2983C30.7161 33.0967 30.1991 32.7779 29.7649 32.3628C29.3325 31.9326 28.9964 31.4155 28.7788 30.8457C28.5405 30.1951 28.4273 29.5054 28.445 28.8128V28.8128ZM31.1353 28.8128C31.0846 29.5308 31.2809 30.2445 31.6916 30.8356C31.8772 31.0472 32.1058 31.2168 32.3622 31.333C32.6186 31.4492 32.8969 31.5093 33.1784 31.5093C33.4598 31.5093 33.7381 31.4492 33.9945 31.333C34.2509 31.2168 34.4795 31.0472 34.6651 30.8356C35.0252 30.2223 35.215 29.524 35.215 28.8128C35.215 28.1016 35.0252 27.4033 34.6651 26.79C34.4872 26.5693 34.26 26.3935 34.0018 26.2767C33.7436 26.1599 33.4615 26.1053 33.1784 26.1174C32.8957 26.1072 32.6144 26.1616 32.3559 26.2764C32.0975 26.3912 31.8685 26.5634 31.6865 26.7799C31.2783 27.375 31.0905 28.094 31.1556 28.8128H31.1353Z" fill="white"/>
<path d="M47.616 33.0453C47.4445 33.2019 47.2354 33.3117 47.0091 33.3639C46.6991 33.4465 46.3792 33.4857 46.0584 33.4802C45.7028 33.4816 45.3493 33.4252 45.0116 33.3133C44.8312 33.2417 44.667 33.1345 44.5289 32.9981C44.3907 32.8617 44.2815 32.6989 44.2076 32.5194L42.7259 29.4852C42.5742 29.1767 42.4427 28.8834 42.3213 28.6104C42.2 28.3373 42.0735 28.0187 41.9319 27.6597H41.846C41.8814 28.2008 41.9067 28.7469 41.9117 29.3032C41.9168 29.8594 41.9117 30.4106 41.9117 30.9517V33.2678C41.7454 33.3094 41.5764 33.3398 41.406 33.3588C41.1865 33.3889 40.9651 33.4041 40.7436 33.4044C40.5471 33.4063 40.3508 33.3911 40.1569 33.3588C40.0051 33.3358 39.862 33.273 39.7423 33.1768C39.6254 33.0806 39.5364 32.9549 39.4844 32.8127C39.4195 32.6172 39.3904 32.4117 39.3984 32.2059V24.762C39.5568 24.545 39.7827 24.3868 40.0406 24.3119C40.3383 24.2093 40.6512 24.158 40.9661 24.1602C41.3237 24.1601 41.6789 24.2182 42.0179 24.3322C42.1982 24.4027 42.3623 24.5089 42.5005 24.6445C42.6387 24.7801 42.748 24.9422 42.822 25.121L44.3138 28.1552C44.4655 28.4637 44.602 28.757 44.7183 29.0301C44.8346 29.3032 44.9712 29.6218 45.1077 29.9808H45.1836C45.1431 29.4397 45.1178 28.9037 45.1077 28.3626C45.0976 27.8215 45.1077 27.2854 45.1077 26.7494V24.3271C45.2743 24.2866 45.4432 24.2561 45.6134 24.2361C45.8347 24.206 46.0576 24.1908 46.2809 24.1906C46.6335 24.1677 46.9851 24.2486 47.2923 24.4232C47.4232 24.5446 47.5229 24.6958 47.5828 24.8639C47.6426 25.0321 47.661 25.2123 47.6362 25.3891L47.616 33.0453Z" fill="white"/>
</svg>
