<svg width="520" height="528" viewBox="0 0 520 528" fill="none" xmlns="http://www.w3.org/2000/svg">
<mask id="mask0" mask-type="alpha" maskUnits="userSpaceOnUse" x="0" y="0" width="520" height="528">
<rect width="520" height="528" fill="#C4C4C4"/>
</mask>
<g mask="url(#mask0)">
<g filter="url(#filter0_d)">
<path d="M439.782 439.798C539.917 339.663 539.917 177.313 439.782 77.1778C339.648 -22.957 177.297 -22.957 77.1622 77.1778C-22.9726 177.313 -22.9726 339.663 77.1622 439.798C177.297 539.933 339.648 539.933 439.782 439.798Z" fill="#EBEBEB"/>
</g>
<path d="M507.194 335.671C542.103 200.394 460.739 62.4303 325.462 27.5208C190.185 -7.38865 52.2217 73.9754 17.3122 209.253C-17.5973 344.53 63.7668 482.493 199.044 517.403C334.321 552.312 472.284 470.948 507.194 335.671Z" fill="white"/>
<path d="M255.282 510.276C124.189 510.276 17.5256 403.739 17.5256 272.646C17.5256 141.554 124.153 35.0166 255.282 35.0166H258.89C375.026 35.0166 433.445 35.0166 463.16 64.9842C492.875 94.9517 493.002 154.346 493.002 272.574C493.038 403.684 386.374 510.276 255.282 510.276ZM255.282 38.625C126.571 38.625 21.8737 143.575 21.8737 272.285C21.8737 400.996 126.517 505.802 255.282 505.802C384.047 505.802 488.689 401.159 488.689 272.466C488.689 155.41 488.689 96.4492 460.111 67.6363C431.533 38.8234 373.131 38.625 257.14 38.625H255.282Z" fill="url(#paint0_linear)"/>
<path d="M64.4415 98.1452C64.9106 87.32 73.4625 73.933 91.378 71.6777C97.2056 72.1288 97.2056 73.4819 92.2621 76.6212C83.7463 77.5233 76.1327 82.4487 73.4264 89.2505C82.4473 86.5623 88.2388 93.7429 88.6898 100.473C89.1228 108.086 83.2772 112.579 77.0167 113.102C70.7562 113.625 64.4415 108.916 64.4415 98.1452ZM100.345 98.1452C100.796 87.32 109.366 73.933 127.245 71.6777C133.091 72.1288 133.091 73.4819 128.165 76.6212C119.632 77.5233 112.018 82.4487 109.312 89.2505C118.333 86.5623 124.106 93.7429 124.575 100.473C125.026 108.086 119.163 112.579 112.902 113.102C106.641 113.625 100.345 108.916 100.345 98.1452Z" fill="url(#paint1_linear)"/>
<path d="M440.344 457.847C439.911 468.672 431.323 482.077 413.444 484.314C407.598 483.863 407.598 482.51 412.542 479.371C421.057 478.486 428.779 473.543 431.395 466.741C422.374 469.448 416.583 462.267 416.132 455.537C415.681 447.905 421.545 443.431 427.787 442.908C434.03 442.385 440.344 447.076 440.344 457.847ZM476.23 457.847C475.797 468.672 467.209 482.077 449.329 484.314C443.483 483.863 443.483 482.51 448.427 479.371C456.961 478.486 464.574 473.543 467.263 466.741C458.242 469.448 452.468 462.267 452.017 455.537C451.566 447.905 457.43 443.431 463.672 442.908C469.915 442.385 476.32 447.076 476.32 457.847H476.23Z" fill="url(#paint2_linear)"/>
</g>
<defs>
<filter id="filter0_d" x="-108.148" y="-104.132" width="733.241" height="733.241" filterUnits="userSpaceOnUse" color-interpolation-filters="sRGB">
<feFlood flood-opacity="0" result="BackgroundImageFix"/>
<feColorMatrix in="SourceAlpha" type="matrix" values="0 0 0 0 0 0 0 0 0 0 0 0 0 0 0 0 0 0 127 0"/>
<feOffset dy="4"/>
<feGaussianBlur stdDeviation="2"/>
<feColorMatrix type="matrix" values="0 0 0 0 0 0 0 0 0 0 0 0 0 0 0 0 0 0 0.25 0"/>
<feBlend mode="normal" in2="BackgroundImageFix" result="effect1_dropShadow"/>
<feBlend mode="normal" in="SourceGraphic" in2="effect1_dropShadow" result="shape"/>
</filter>
<linearGradient id="paint0_linear" x1="217.469" y1="510.276" x2="245.034" y2="36.5034" gradientUnits="userSpaceOnUse">
<stop stop-color="#FF0000"/>
<stop offset="1" stop-color="#FF7A00"/>
</linearGradient>
<linearGradient id="paint1_linear" x1="92.7464" y1="113.141" x2="94.2316" y2="71.7208" gradientUnits="userSpaceOnUse">
<stop stop-color="#FF0000"/>
<stop offset="1" stop-color="#FF7A00"/>
</linearGradient>
<linearGradient id="paint2_linear" x1="437.274" y1="484.314" x2="438.756" y2="442.911" gradientUnits="userSpaceOnUse">
<stop stop-color="#FF0000"/>
<stop offset="1" stop-color="#FF7A00"/>
</linearGradient>
</defs>
</svg>
