<svg width="193" height="86" viewBox="0 0 193 86" fill="none" xmlns="http://www.w3.org/2000/svg">
<path d="M34.2541 9.42725H17.4995C17.2024 9.42686 16.9081 9.48499 16.6335 9.59833C16.3588 9.71166 16.1092 9.87798 15.8989 10.0878C15.6885 10.2976 15.5215 10.5468 15.4075 10.8211C15.2934 11.0954 15.2345 11.3896 15.2341 11.6867V14.7367C15.2341 15.0341 15.2927 15.3285 15.4066 15.6032C15.5205 15.8779 15.6874 16.1274 15.8978 16.3375C16.1082 16.5476 16.358 16.7142 16.6328 16.8277C16.9076 16.9412 17.2021 16.9995 17.4995 16.9991H34.2244C42.5928 16.9991 49.7511 19.9692 55.6992 25.9094C61.6789 31.8832 64.648 39.0819 64.6066 47.5056C64.5773 55.5312 61.3666 63.2177 55.6785 68.8797C49.7323 74.8021 42.578 77.7683 34.2156 77.7781H17.4995C17.2021 77.7777 16.9076 77.836 16.6328 77.9495C16.358 78.063 16.1082 78.2296 15.8978 78.4397C15.6874 78.6498 15.5205 78.8994 15.4066 79.1741C15.2927 79.4487 15.2341 79.7432 15.2341 80.0405V83.0876C15.2341 83.3849 15.2927 83.6794 15.4066 83.9541C15.5205 84.2287 15.6874 84.4783 15.8978 84.6884C16.1082 84.8985 16.358 85.0651 16.6328 85.1786C16.9076 85.2921 17.2021 85.3504 17.4995 85.35H34.2541C44.6539 85.35 53.5533 81.6761 60.9524 74.3283C68.1292 67.1856 72.1765 57.4858 72.2051 47.3605C72.2051 36.9113 68.4956 27.9773 61.0768 20.5585C53.6579 13.1396 44.717 9.42922 34.2541 9.42725Z" fill="#008CCF"/>
<path d="M86.2739 0.659231C78.7317 0.629619 72.5664 13.3925 72.5338 21.7875C72.5072 28.6813 76.6233 34.5208 82.2792 36.3834V36.4367H82.3325V81.5331C82.3325 84.0758 83.595 85.3482 86.1199 85.3501C88.6448 85.3521 89.9083 84.0798 89.9103 81.5331V36.3597H90.1857C95.7587 34.4645 99.8244 28.7138 99.8511 21.8971C99.8836 13.5109 93.8191 0.688843 86.2739 0.659231ZM93.1261 28.8116C91.9981 30.3248 90.4918 31.5146 88.7583 32.2614C88.533 32.3615 88.2901 32.4163 88.0436 32.4226C87.7971 32.4288 87.5518 32.3865 87.3216 32.2979C87.0914 32.2094 86.881 32.0764 86.7022 31.9065C86.5235 31.7366 86.3799 31.5332 86.2798 31.3079C86.1797 31.0825 86.1249 30.8396 86.1186 30.5931C86.1124 30.3466 86.1547 30.1013 86.2432 29.8711C86.3318 29.641 86.4648 29.4305 86.6347 29.2518C86.8045 29.073 87.008 28.9295 87.2333 28.8293C91.9802 26.718 93.0343 20.7955 89.9784 13.3362C89.8032 12.8776 89.8144 12.3686 90.0096 11.9181C90.2047 11.4676 90.5683 11.1113 91.0227 10.9253C91.477 10.7393 91.9861 10.7383 92.4411 10.9227C92.8962 11.1071 93.261 11.4621 93.4578 11.9119C96.271 18.7523 96.0518 24.8554 93.1261 28.8116Z" fill="#008CCF"/>
<path d="M146.241 66.3449C145.164 66.3449 144.127 66.9974 143.132 68.3023C142.14 69.6082 141.415 70.5913 140.965 71.2635C137.411 75.6165 132.638 77.7881 126.644 77.7782C120.919 77.7782 116.181 75.6372 112.43 71.3553L148.279 50.6504C149.534 49.9555 150.161 48.927 150.159 47.5648C150.159 44.882 148.226 42.0195 144.361 38.9773C141.513 36.6782 138.297 34.8762 134.85 33.6471C132.215 32.704 129.442 32.2037 126.644 32.1665C119.328 32.1665 113.066 34.7625 107.858 39.9545C102.65 45.1465 100.046 51.4016 100.046 58.7198C100.046 66.0735 102.65 72.3453 107.858 77.5354C113.066 82.7254 119.328 85.3303 126.644 85.35C131.277 85.35 135.746 84.1409 140.05 81.7225C144.353 79.3042 147.567 76.0923 149.691 72.0867C150.009 71.4718 150.187 70.7943 150.212 70.1027C150.22 69.5992 150.118 69.1 149.913 68.6398C149.709 68.1796 149.407 67.7694 149.028 67.4376C148.276 66.7257 147.277 66.3339 146.241 66.3449V66.3449ZM107.624 58.7494C107.624 53.5554 109.481 49.0928 113.194 45.3617C116.908 41.6306 121.382 39.765 126.617 39.765C132.303 39.765 137.047 41.9168 140.849 46.2205L108.61 64.8169C107.951 62.8622 107.618 60.8123 107.624 58.7494V58.7494Z" fill="#008CCF"/>
<path d="M7.18249 73.4639C6.28243 73.4479 5.38862 73.6162 4.556 73.9584C3.72338 74.3006 2.96956 74.8096 2.3409 75.4539C1.69557 76.0813 1.18576 76.8344 0.842984 77.6667C0.500206 78.4989 0.331741 79.3926 0.347998 80.2925V83.9733C0.346403 84.1447 0.380009 84.3146 0.446734 84.4725C0.51346 84.6304 0.611885 84.773 0.735918 84.8913C0.855104 85.016 0.998556 85.115 1.15744 85.1823C1.31633 85.2495 1.4873 85.2835 1.65982 85.2822H12.7081C13.0536 85.2768 13.3834 85.1372 13.6277 84.8929C13.872 84.6486 14.0116 84.3188 14.017 83.9733V80.2925C14.0332 79.3926 13.8648 78.4989 13.522 77.6667C13.1792 76.8344 12.6694 76.0813 12.0241 75.4539C11.3954 74.8096 10.6416 74.3006 9.80899 73.9584C8.97637 73.6162 8.08255 73.4479 7.18249 73.4639V73.4639ZM11.3963 82.6644H2.96868V80.2955C2.95852 79.7403 3.06234 79.189 3.27372 78.6756C3.48509 78.1622 3.79953 77.6976 4.19758 77.3106C4.58482 76.9125 5.04938 76.5979 5.5627 76.3861C6.07602 76.1742 6.62725 76.0696 7.18249 76.0787C7.73774 76.0696 8.28897 76.1742 8.80229 76.3861C9.31561 76.5979 9.78017 76.9125 10.1674 77.3106C10.5651 77.6973 10.8793 78.1614 11.0907 78.6743C11.302 79.1871 11.4061 79.7379 11.3963 80.2925V82.6644Z" fill="#008CCF"/>
<path d="M7.18252 58.9332C6.28217 58.9171 5.38807 59.0856 4.55536 59.4283C3.72266 59.7711 2.96902 60.2808 2.34092 60.9261C1.06462 62.2119 0.348389 63.9501 0.348389 65.7618C0.348389 67.5734 1.06462 69.3117 2.34092 70.5974C2.96902 71.2427 3.72266 71.7524 4.55536 72.0952C5.38807 72.438 6.28217 72.6065 7.18252 72.5903C8.08286 72.6065 8.97696 72.438 9.80967 72.0952C10.6424 71.7524 11.396 71.2427 12.0241 70.5974C13.3004 69.3117 14.0166 67.5734 14.0166 65.7618C14.0166 63.9501 13.3004 62.2119 12.0241 60.9261C11.396 60.2808 10.6424 59.7711 9.80967 59.4283C8.97696 59.0856 8.08286 58.9171 7.18252 58.9332ZM10.1674 68.7437C9.78004 69.1413 9.31539 69.4555 8.80206 69.6668C8.28872 69.8782 7.73757 69.9822 7.18252 69.9726C6.62746 69.9822 6.07631 69.8782 5.56298 69.6668C5.04964 69.4555 4.58499 69.1413 4.19761 68.7437C3.41045 67.9515 2.96866 66.88 2.96866 65.7632C2.96866 64.6464 3.41045 63.575 4.19761 62.7828C4.58441 62.3842 5.0489 62.0692 5.56232 61.8573C6.07574 61.6454 6.62718 61.5411 7.18252 61.5509C7.73786 61.5411 8.28929 61.6454 8.80272 61.8573C9.31614 62.0692 9.78062 62.3842 10.1674 62.7828C10.9546 63.575 11.3964 64.6464 11.3964 65.7632C11.3964 66.88 10.9546 67.9515 10.1674 68.7437V68.7437Z" fill="#008CCF"/>
<path d="M11.1032 45.9985C10.7512 46.0089 10.4165 46.1532 10.1672 46.4019C9.91794 46.6506 9.77294 46.9851 9.76178 47.337C9.78164 47.6808 9.92338 48.0063 10.1615 48.255C10.3303 48.4504 10.4577 48.5867 10.5228 48.6636C11.1456 49.4748 11.4529 50.4845 11.3875 51.5051C11.3222 52.5257 10.8886 53.4879 10.1675 54.213C9.78009 54.6106 9.31543 54.9248 8.8021 55.1361C8.28876 55.3474 7.73761 55.4515 7.18256 55.4419C6.62751 55.4515 6.07635 55.3474 5.56302 55.1361C5.04968 54.9248 4.58503 54.6106 4.19765 54.213C3.47647 53.4879 3.04295 52.5257 2.9776 51.5051C2.91224 50.4845 3.2195 49.4748 3.8423 48.6636C4.01109 48.4623 4.13842 48.3261 4.20357 48.255C4.44174 48.0063 4.58348 47.6808 4.60334 47.337C4.6035 47.1616 4.56757 46.9879 4.49778 46.827C4.42799 46.666 4.32583 46.5211 4.19765 46.4013C4.07747 46.2738 3.93243 46.1723 3.77149 46.103C3.61055 46.0337 3.43712 45.9982 3.2619 45.9985C2.82068 45.9985 2.338 46.3302 1.82275 46.9965C0.857821 48.1962 0.335027 49.6914 0.34214 51.231C0.327845 52.1306 0.498102 53.0235 0.842399 53.8547C1.18669 54.6859 1.69772 55.4378 2.34392 56.0637C2.97132 56.7093 3.72435 57.2195 4.55655 57.5628C5.38875 57.906 6.28247 58.0751 7.18256 58.0596C8.08265 58.0751 8.97637 57.906 9.80857 57.5628C10.6408 57.2195 11.3938 56.7093 12.0212 56.0637C12.6663 55.4372 13.1763 54.6852 13.5195 53.854C13.8628 53.0229 14.0321 52.1302 14.0171 51.231C14.0242 49.6914 13.5014 48.1962 12.5364 46.9965C12.0232 46.3292 11.5454 45.9966 11.1032 45.9985Z" fill="#008CCF"/>
<path d="M12.7082 38.9836H2.96878V36.6146C2.97439 36.441 2.94475 36.268 2.88164 36.1061C2.81853 35.9443 2.72326 35.7969 2.60159 35.6729C2.47769 35.5511 2.33033 35.4557 2.16846 35.3926C2.00658 35.3295 1.83357 35.2999 1.65992 35.3057C1.48627 35.2987 1.31303 35.3276 1.15108 35.3906C0.989124 35.4537 0.841947 35.5495 0.718778 35.6722C0.595608 35.7948 0.499103 35.9415 0.435316 36.1032C0.371529 36.2648 0.341835 36.4379 0.348098 36.6116V43.9703C0.341417 44.1442 0.3708 44.3176 0.434401 44.4796C0.498001 44.6416 0.594441 44.7887 0.717655 44.9117C0.84087 45.0346 0.988191 45.1307 1.15035 45.194C1.31251 45.2572 1.48601 45.2862 1.65992 45.2791C1.83357 45.2849 2.00658 45.2553 2.16846 45.1922C2.33033 45.1291 2.47769 45.0337 2.60159 44.9119C2.72326 44.7879 2.81853 44.6406 2.88164 44.4787C2.94475 44.3169 2.97439 44.1439 2.96878 43.9703V41.6013H12.7082C12.882 41.6071 13.055 41.577 13.2166 41.5128C13.3781 41.4486 13.5246 41.3517 13.6469 41.2282C13.8846 40.9728 14.0168 40.6369 14.0168 40.288C14.0168 39.9391 13.8846 39.6032 13.6469 39.3478C13.5239 39.2259 13.377 39.1306 13.2155 39.068C13.054 39.0053 12.8813 38.9766 12.7082 38.9836V38.9836Z" fill="#008CCF"/>
<path d="M7.18253 21.8467C6.28247 21.8308 5.38865 21.999 4.55604 22.3412C3.72342 22.6835 2.9696 23.1924 2.34094 23.8367C1.06445 25.123 0.348145 26.8617 0.348145 28.6738C0.348145 30.486 1.06445 32.2247 2.34094 33.511C2.96903 34.1563 3.72267 34.666 4.55538 35.0088C5.38808 35.3515 6.28219 35.52 7.18253 35.5039C8.08288 35.52 8.97698 35.3515 9.80968 35.0088C10.6424 34.666 11.396 34.1563 12.0241 33.511C13.3006 32.2247 14.0169 30.486 14.0169 28.6738C14.0169 26.8617 13.3006 25.123 12.0241 23.8367C11.3955 23.1924 10.6416 22.6835 9.80903 22.3412C8.97641 21.999 8.08259 21.8308 7.18253 21.8467V21.8467ZM10.1674 31.6543C9.78063 32.0529 9.31615 32.3679 8.80273 32.5798C8.28931 32.7917 7.73787 32.8959 7.18253 32.8862C6.62719 32.8959 6.07575 32.7917 5.56233 32.5798C5.04891 32.3679 4.58443 32.0529 4.19762 31.6543C3.41047 30.8621 2.96867 29.7906 2.96867 28.6738C2.96867 27.557 3.41047 26.4856 4.19762 25.6934C4.58486 25.2953 5.04942 24.9807 5.56274 24.7689C6.07606 24.557 6.62729 24.4524 7.18253 24.4615C7.73777 24.4524 8.289 24.557 8.80233 24.7689C9.31565 24.9807 9.78021 25.2953 10.1674 25.6934C10.9546 26.4856 11.3964 27.557 11.3964 28.6738C11.3964 29.7906 10.9546 30.8621 10.1674 31.6543Z" fill="#008CCF"/>
<path d="M14.0348 12.67C14.0425 12.4052 13.9695 12.1443 13.8254 11.922C13.6814 11.6997 13.4732 11.5264 13.2284 11.4252C12.9835 11.324 12.7137 11.2997 12.4548 11.3554C12.1958 11.4111 11.9599 11.5443 11.7784 11.7372L8.95039 14.577C8.70377 13.6492 8.15066 12.8321 7.38095 12.2584C6.6182 11.6701 5.67898 11.3571 4.71585 11.37C4.14178 11.3586 3.57143 11.4646 3.03981 11.6815C2.50819 11.8984 2.02651 12.2217 1.62433 12.6315C1.21141 13.0333 0.885138 13.5154 0.665637 14.0481C0.446136 14.5808 0.338053 15.1529 0.348047 15.7289V18.7968C0.347795 18.9681 0.382606 19.1376 0.450337 19.295C0.518069 19.4524 0.617289 19.5942 0.741889 19.7118C0.859481 19.8372 1.00173 19.9369 1.15971 20.0047C1.31768 20.0724 1.48797 20.1068 1.65987 20.1056H12.7082C12.9671 20.1025 13.2195 20.0236 13.4342 19.8787C13.6489 19.7339 13.8164 19.5293 13.9162 19.2904C14.0161 19.0514 14.0437 18.7884 13.9959 18.5339C13.948 18.2794 13.8267 18.0444 13.6469 17.8581C13.5246 17.7346 13.3781 17.638 13.2165 17.5743C13.0549 17.5105 12.8818 17.4811 12.7082 17.4879H9.72623L13.6232 13.585C13.7513 13.4692 13.854 13.3281 13.9249 13.1706C13.9957 13.0131 14.0331 12.8427 14.0348 12.67ZM6.48666 17.4879H2.96873V15.7289C2.96793 15.4984 3.01298 15.27 3.10128 15.0571C3.18958 14.8442 3.31935 14.6509 3.48304 14.4886C3.64673 14.3263 3.84107 14.1981 4.05475 14.1116C4.26844 14.0252 4.49719 13.982 4.72769 13.9848C4.95898 13.9828 5.18835 14.0269 5.40245 14.1144C5.61656 14.2019 5.81112 14.3311 5.97481 14.4945C6.1385 14.6579 6.26805 14.8523 6.35592 15.0662C6.4438 15.2802 6.48824 15.5095 6.48666 15.7408V17.4879Z" fill="#008CCF"/>
<path d="M192.037 76.9549C190.526 74.9028 188.779 74.5593 186.831 75.8859L186.781 75.9215C185.208 77.174 183.559 77.7781 181.85 77.7781C180.848 77.7931 179.853 77.6012 178.929 77.2145C178.004 76.8278 177.169 76.2545 176.475 75.5306C175.758 74.8308 175.191 73.9923 174.808 73.0663C174.425 72.1403 174.235 71.146 174.249 70.1441V33.6441L186.982 33.5849C189.523 33.5849 190.794 32.3234 190.796 29.8004C190.798 27.2775 189.524 26.016 186.973 26.016H174.24V13.2383C174.24 10.6976 172.977 9.42725 170.452 9.42725C167.927 9.42725 166.664 10.6976 166.662 13.2383V26.016H154.166C151.625 26.016 150.354 27.2775 150.352 29.8004C150.35 32.3234 151.621 33.5849 154.166 33.5849L166.662 33.6441V70.1382C166.674 74.1685 168.28 78.0304 171.129 80.8806C173.979 83.7307 177.84 85.3375 181.871 85.35C184.727 85.35 187.201 84.8278 189.292 83.7835C189.998 83.3786 190.669 82.9161 191.299 82.4006C192.57 81.2309 193.6 79.0811 192.037 76.9549Z" fill="#008CCF"/>
</svg>
