<svg width="800" height="922" viewBox="0 0 800 922" fill="none" xmlns="http://www.w3.org/2000/svg">
<path d="M338.399 15.1395C342.526 15.1395 345.871 11.794 345.871 7.66715C345.871 3.5403 342.526 0.194824 338.399 0.194824C334.272 0.194824 330.926 3.5403 330.926 7.66715C330.926 11.794 334.272 15.1395 338.399 15.1395Z" fill="#00C2FF"/>
<path d="M416.41 21.6556C414.967 21.6556 413.557 21.2278 412.358 20.4265C411.159 19.6251 410.224 18.4861 409.672 17.1535C409.12 15.8208 408.975 14.3545 409.257 12.9398C409.538 11.5251 410.233 10.2256 411.253 9.20564C412.273 8.18569 413.572 7.49112 414.987 7.20972C416.402 6.92832 417.868 7.07273 419.201 7.62472C420.533 8.17671 421.672 9.11147 422.473 10.3108C423.275 11.5101 423.703 12.9201 423.703 14.3626C423.703 16.2968 422.934 18.1518 421.567 19.5195C420.199 20.8872 418.344 21.6556 416.41 21.6556Z" fill="#00C2FF"/>
<path d="M492.298 41.4722C496.227 41.4722 499.412 38.2873 499.412 34.3585C499.412 30.4298 496.227 27.2449 492.298 27.2449C488.37 27.2449 485.185 30.4298 485.185 34.3585C485.185 38.2873 488.37 41.4722 492.298 41.4722Z" fill="#00C2FF"/>
<path d="M563.465 74.1112C562.085 74.1171 560.734 73.713 559.585 72.95C558.435 72.187 557.538 71.0997 557.007 69.8259C556.476 68.5522 556.336 67.1494 556.603 65.7957C556.871 64.442 557.535 63.1984 558.511 62.2226C559.486 61.2469 560.73 60.583 562.084 60.3152C563.438 60.0475 564.84 60.1879 566.114 60.7187C567.388 61.2495 568.475 62.1468 569.238 63.2966C570.001 64.4464 570.405 65.797 570.399 67.1769C570.399 69.016 569.669 70.7798 568.368 72.0802C567.068 73.3807 565.304 74.1112 563.465 74.1112Z" fill="#00C2FF"/>
<path d="M627.966 118.497C626.623 118.503 625.308 118.11 624.188 117.368C623.069 116.626 622.194 115.568 621.676 114.329C621.158 113.09 621.019 111.725 621.278 110.407C621.536 109.088 622.18 107.877 623.128 106.925C624.075 105.973 625.284 105.324 626.601 105.06C627.918 104.795 629.284 104.928 630.525 105.441C631.767 105.953 632.828 106.823 633.575 107.939C634.322 109.056 634.721 110.369 634.721 111.712C634.721 113.506 634.01 115.227 632.744 116.499C631.478 117.77 629.76 118.489 627.966 118.497Z" fill="#00C2FF"/>
<path d="M683.889 173.224C687.537 173.224 690.494 170.267 690.494 166.618C690.494 162.97 687.537 160.013 683.889 160.013C680.241 160.013 677.283 162.97 677.283 166.618C677.283 170.267 680.241 173.224 683.889 173.224Z" fill="#00C2FF"/>
<path d="M729.59 236.708C728.317 236.708 727.074 236.331 726.016 235.623C724.959 234.916 724.135 233.91 723.65 232.734C723.164 231.558 723.039 230.265 723.289 229.017C723.54 227.77 724.155 226.625 725.056 225.728C725.958 224.83 727.106 224.22 728.355 223.976C729.603 223.731 730.896 223.863 732.07 224.354C733.243 224.845 734.245 225.673 734.948 226.734C735.65 227.794 736.022 229.04 736.016 230.312C736.016 231.155 735.849 231.989 735.526 232.767C735.203 233.545 734.729 234.251 734.132 234.846C733.535 235.44 732.826 235.91 732.047 236.23C731.267 236.55 730.432 236.712 729.59 236.708Z" fill="#00C2FF"/>
<path d="M769.776 301.794C770.325 298.387 768.009 295.181 764.603 294.632C761.197 294.083 757.991 296.399 757.441 299.805C756.892 303.211 759.208 306.417 762.614 306.966C766.02 307.516 769.227 305.2 769.776 301.794Z" fill="#00C2FF"/>
<path d="M785.094 382.329C783.912 382.329 782.756 381.979 781.773 381.322C780.79 380.665 780.024 379.731 779.571 378.639C779.119 377.547 779.001 376.345 779.231 375.185C779.462 374.026 780.031 372.96 780.867 372.124C781.703 371.288 782.768 370.719 783.928 370.488C785.088 370.258 786.289 370.376 787.382 370.829C788.474 371.281 789.408 372.047 790.065 373.03C790.721 374.013 791.072 375.169 791.072 376.351C791.072 377.937 790.442 379.457 789.321 380.578C788.2 381.699 786.68 382.329 785.094 382.329Z" fill="#00C2FF"/>
<path d="M793.194 460.101C792.012 460.101 790.856 459.751 789.873 459.094C788.89 458.437 788.124 457.503 787.671 456.411C787.219 455.319 787.101 454.117 787.331 452.957C787.562 451.798 788.131 450.732 788.967 449.896C789.803 449.06 790.868 448.491 792.028 448.26C793.187 448.03 794.389 448.148 795.482 448.601C796.574 449.053 797.508 449.819 798.165 450.802C798.821 451.785 799.172 452.941 799.172 454.123C799.172 455.709 798.542 457.229 797.421 458.35C796.3 459.471 794.78 460.101 793.194 460.101Z" fill="#00C2FF"/>
<path d="M787.904 538.142C786.776 538.136 785.675 537.797 784.741 537.166C783.806 536.535 783.079 535.641 782.651 534.597C782.224 533.554 782.115 532.407 782.338 531.301C782.562 530.196 783.108 529.182 783.908 528.386C784.707 527.591 785.724 527.05 786.831 526.832C787.938 526.614 789.084 526.729 790.125 527.162C791.167 527.595 792.057 528.327 792.683 529.265C793.309 530.203 793.643 531.306 793.643 532.433C793.635 533.95 793.027 535.402 791.951 536.472C790.876 537.542 789.421 538.142 787.904 538.142Z" fill="#00C2FF"/>
<path d="M769.313 614.121C768.212 614.127 767.134 613.806 766.216 613.198C765.298 612.591 764.581 611.725 764.155 610.71C763.73 609.694 763.616 608.576 763.827 607.495C764.038 606.415 764.565 605.421 765.341 604.641C766.117 603.86 767.108 603.328 768.187 603.111C769.267 602.894 770.386 603.002 771.404 603.422C772.421 603.842 773.291 604.555 773.903 605.47C774.516 606.384 774.842 607.46 774.842 608.561C774.842 610.031 774.261 611.44 773.225 612.482C772.189 613.524 770.782 614.113 769.313 614.121Z" fill="#00C2FF"/>
<path d="M737.81 685.706C736.743 685.712 735.699 685.401 734.809 684.812C733.92 684.223 733.226 683.383 732.815 682.399C732.404 681.414 732.295 680.33 732.502 679.284C732.708 678.237 733.221 677.276 733.975 676.522C734.73 675.767 735.691 675.254 736.738 675.048C737.784 674.841 738.868 674.95 739.852 675.361C740.837 675.772 741.677 676.466 742.266 677.355C742.854 678.245 743.166 679.289 743.16 680.356C743.16 681.058 743.021 681.754 742.752 682.403C742.484 683.052 742.09 683.642 741.593 684.139C741.096 684.636 740.506 685.03 739.857 685.299C739.208 685.568 738.512 685.706 737.81 685.706Z" fill="#00C2FF"/>
<path d="M694.38 750.805C693.349 750.811 692.339 750.51 691.479 749.941C690.619 749.372 689.948 748.56 689.551 747.608C689.153 746.657 689.048 745.609 689.248 744.597C689.447 743.586 689.943 742.656 690.672 741.927C691.402 741.198 692.331 740.702 693.343 740.502C694.354 740.303 695.402 740.408 696.354 740.805C697.305 741.203 698.117 741.874 698.686 742.734C699.256 743.594 699.556 744.603 699.551 745.634C699.551 746.313 699.417 746.986 699.157 747.613C698.897 748.24 698.516 748.811 698.036 749.291C697.556 749.771 696.986 750.152 696.358 750.412C695.731 750.671 695.059 750.805 694.38 750.805Z" fill="#00C2FF"/>
<path d="M640.579 807.535C639.584 807.541 638.609 807.25 637.778 806.701C636.948 806.151 636.3 805.367 635.916 804.449C635.532 803.53 635.43 802.518 635.623 801.541C635.816 800.564 636.295 799.667 636.999 798.963C637.703 798.259 638.6 797.78 639.577 797.587C640.554 797.394 641.566 797.496 642.485 797.88C643.404 798.264 644.188 798.912 644.737 799.742C645.287 800.573 645.577 801.547 645.571 802.543C645.563 803.865 645.035 805.13 644.1 806.064C643.166 806.998 641.901 807.527 640.579 807.535Z" fill="#00C2FF"/>
<path d="M577.812 854.222C576.853 854.222 575.916 853.937 575.119 853.404C574.322 852.87 573.701 852.112 573.336 851.226C572.97 850.339 572.876 849.364 573.065 848.424C573.254 847.484 573.719 846.621 574.399 845.945C575.079 845.269 575.945 844.81 576.886 844.627C577.827 844.444 578.802 844.544 579.686 844.915C580.57 845.286 581.324 845.911 581.853 846.711C582.381 847.512 582.66 848.451 582.654 849.41C582.646 850.689 582.133 851.912 581.225 852.814C580.318 853.716 579.091 854.222 577.812 854.222Z" fill="#00C2FF"/>
<path d="M507.781 889.431C506.857 889.431 505.955 889.157 505.187 888.643C504.42 888.13 503.822 887.4 503.47 886.546C503.118 885.692 503.028 884.753 503.21 883.848C503.392 882.942 503.839 882.112 504.495 881.461C505.15 880.81 505.983 880.368 506.89 880.192C507.796 880.015 508.735 880.112 509.586 880.469C510.438 880.827 511.164 881.429 511.672 882.2C512.181 882.97 512.45 883.875 512.444 884.798C512.444 885.409 512.323 886.014 512.088 886.578C511.854 887.142 511.51 887.654 511.076 888.085C510.643 888.515 510.129 888.856 509.563 889.087C508.997 889.318 508.392 889.435 507.781 889.431Z" fill="#00C2FF"/>
<path d="M432.789 912.058C431.902 912.058 431.035 911.795 430.298 911.302C429.56 910.81 428.986 910.109 428.646 909.29C428.307 908.471 428.218 907.569 428.391 906.7C428.564 905.83 428.991 905.031 429.618 904.404C430.245 903.777 431.044 903.35 431.914 903.177C432.784 903.004 433.685 903.093 434.504 903.432C435.324 903.772 436.024 904.346 436.516 905.084C437.009 905.821 437.272 906.688 437.272 907.574C437.272 908.763 436.8 909.904 435.959 910.745C435.118 911.585 433.978 912.058 432.789 912.058Z" fill="#00C2FF"/>
<path d="M354.987 921.383C354.136 921.383 353.304 921.131 352.596 920.658C351.888 920.185 351.336 919.513 351.01 918.726C350.685 917.94 350.599 917.074 350.766 916.24C350.932 915.405 351.342 914.638 351.944 914.036C352.545 913.434 353.312 913.024 354.147 912.858C354.982 912.692 355.848 912.777 356.634 913.103C357.421 913.429 358.093 913.98 358.566 914.688C359.039 915.396 359.291 916.228 359.291 917.079C359.283 918.218 358.827 919.309 358.022 920.114C357.216 920.919 356.126 921.375 354.987 921.383Z" fill="#00C2FF"/>
<path d="M276.707 917.348C275.891 917.348 275.094 917.106 274.416 916.653C273.737 916.2 273.209 915.556 272.896 914.802C272.584 914.048 272.503 913.219 272.662 912.419C272.821 911.619 273.214 910.884 273.791 910.307C274.367 909.73 275.102 909.337 275.903 909.178C276.703 909.019 277.532 909.101 278.286 909.413C279.039 909.725 279.684 910.254 280.137 910.932C280.59 911.61 280.832 912.408 280.832 913.224C280.832 914.318 280.397 915.367 279.624 916.14C278.85 916.914 277.801 917.348 276.707 917.348Z" fill="#00C2FF"/>
<path d="M200.25 899.952C199.474 899.952 198.714 899.723 198.068 899.293C197.421 898.863 196.915 898.252 196.614 897.537C196.313 896.821 196.23 896.032 196.375 895.27C196.52 894.507 196.887 893.804 197.43 893.249C197.973 892.693 198.667 892.311 199.427 892.149C200.186 891.986 200.976 892.052 201.699 892.337C202.421 892.622 203.043 893.113 203.487 893.75C203.931 894.387 204.178 895.141 204.195 895.917C204.203 896.442 204.107 896.963 203.913 897.45C203.719 897.937 203.43 898.381 203.063 898.756C202.696 899.131 202.259 899.43 201.776 899.635C201.293 899.841 200.775 899.948 200.25 899.952Z" fill="#00C2FF"/>
<path d="M127.889 869.615C127.138 869.615 126.404 869.392 125.78 868.975C125.155 868.558 124.669 867.965 124.381 867.272C124.094 866.578 124.019 865.815 124.165 865.078C124.312 864.342 124.673 863.666 125.204 863.135C125.735 862.604 126.412 862.243 127.148 862.096C127.884 861.95 128.647 862.025 129.341 862.312C130.035 862.599 130.628 863.086 131.045 863.71C131.462 864.334 131.684 865.068 131.684 865.819C131.688 866.319 131.593 866.814 131.404 867.276C131.214 867.739 130.935 868.159 130.582 868.512C130.228 868.865 129.808 869.145 129.346 869.334C128.883 869.524 128.388 869.619 127.889 869.615Z" fill="#00C2FF"/>
<path d="M61.833 827.172C61.1164 827.178 60.4143 826.971 59.8157 826.577C59.217 826.183 58.7488 825.621 58.4704 824.96C58.1921 824.3 58.1163 823.572 58.2524 822.868C58.3886 822.165 58.7306 821.518 59.2352 821.009C59.7398 820.5 60.3841 820.153 61.0865 820.011C61.7888 819.869 62.5175 819.939 63.1801 820.211C63.8427 820.484 64.4093 820.948 64.808 821.543C65.2068 822.138 65.4197 822.839 65.4197 823.555C65.4237 824.029 65.3338 824.499 65.1553 824.937C64.9768 825.376 64.7132 825.775 64.3798 826.111C64.0463 826.447 63.6496 826.714 63.2125 826.896C62.7754 827.078 62.3065 827.172 61.833 827.172Z" fill="#00C2FF"/>
<path d="M3.93725 774.208C5.8356 774.208 7.3745 772.669 7.3745 770.771C7.3745 768.872 5.8356 767.333 3.93725 767.333C2.0389 767.333 0.5 768.872 0.5 770.771C0.5 772.669 2.0389 774.208 3.93725 774.208Z" fill="#00C2FF"/>
<path d="M338.399 50.1397C342.526 50.1397 345.871 46.7942 345.871 42.6674C345.871 38.5405 342.526 35.1951 338.399 35.1951C334.272 35.1951 330.926 38.5405 330.926 42.6674C330.926 46.7942 334.272 50.1397 338.399 50.1397Z" fill="#00C2FF"/>
<path d="M415.573 56.9549C414.147 56.9608 412.751 56.5434 411.563 55.7555C410.374 54.9676 409.446 53.8447 408.896 52.529C408.347 51.2133 408.2 49.764 408.474 48.3647C408.749 46.9654 409.432 45.6791 410.439 44.6688C411.445 43.6584 412.728 42.9693 414.126 42.689C415.524 42.4086 416.974 42.5495 418.292 43.0938C419.61 43.6381 420.737 44.5614 421.53 45.7466C422.323 46.9318 422.746 48.3257 422.746 49.7516C422.746 51.6569 421.991 53.4846 420.647 54.8346C419.302 56.1846 417.478 56.947 415.573 56.9549Z" fill="#00C2FF"/>
<path d="M490.117 77.8169C493.93 77.8169 497.021 74.7257 497.021 70.9125C497.021 67.0993 493.93 64.0081 490.117 64.0081C486.303 64.0081 483.212 67.0993 483.212 70.9125C483.212 74.7257 486.303 77.8169 490.117 77.8169Z" fill="#00C2FF"/>
<path d="M559.46 112.13C558.145 112.136 556.858 111.751 555.762 111.024C554.667 110.297 553.811 109.262 553.306 108.048C552.8 106.834 552.666 105.498 552.921 104.208C553.176 102.918 553.808 101.733 554.738 100.803C555.668 99.8731 556.853 99.2405 558.143 98.9854C559.433 98.7303 560.77 98.8643 561.983 99.3702C563.197 99.8761 564.233 100.731 564.96 101.827C565.687 102.923 566.071 104.21 566.066 105.525C566.066 107.277 565.37 108.957 564.131 110.195C562.892 111.434 561.212 112.13 559.46 112.13Z" fill="#00C2FF"/>
<path d="M621.241 158.608C619.981 158.614 618.747 158.246 617.696 157.55C616.645 156.854 615.825 155.861 615.338 154.699C614.852 153.536 614.721 152.255 614.964 151.018C615.206 149.781 615.81 148.644 616.699 147.751C617.588 146.857 618.722 146.248 619.958 146C621.194 145.752 622.476 145.876 623.641 146.357C624.806 146.838 625.802 147.654 626.503 148.702C627.203 149.749 627.578 150.981 627.578 152.242C627.582 153.076 627.421 153.903 627.104 154.676C626.787 155.448 626.321 156.15 625.732 156.742C625.144 157.333 624.444 157.803 623.673 158.123C622.902 158.443 622.076 158.608 621.241 158.608Z" fill="#00C2FF"/>
<path d="M673.457 215.547C672.275 215.547 671.119 215.197 670.136 214.54C669.153 213.883 668.387 212.95 667.935 211.857C667.482 210.765 667.364 209.563 667.594 208.403C667.825 207.244 668.394 206.179 669.23 205.343C670.066 204.507 671.132 203.937 672.291 203.707C673.451 203.476 674.653 203.594 675.745 204.047C676.837 204.499 677.771 205.265 678.428 206.249C679.085 207.232 679.435 208.387 679.435 209.57C679.435 211.155 678.805 212.676 677.684 213.797C676.563 214.918 675.043 215.547 673.457 215.547Z" fill="#00C2FF"/>
<path d="M714.317 281.125C713.167 281.13 712.042 280.795 711.084 280.16C710.126 279.525 709.378 278.62 708.935 277.559C708.493 276.498 708.375 275.33 708.598 274.202C708.821 273.075 709.374 272.039 710.187 271.226C710.999 270.413 712.035 269.86 713.163 269.638C714.29 269.415 715.459 269.532 716.52 269.975C717.58 270.417 718.486 271.165 719.121 272.123C719.755 273.081 720.091 274.207 720.085 275.356C720.085 276.886 719.478 278.353 718.396 279.435C717.314 280.517 715.847 281.125 714.317 281.125Z" fill="#00C2FF"/>
<path d="M742.323 353.068C745.36 353.068 747.823 350.606 747.823 347.569C747.823 344.531 745.36 342.069 742.323 342.069C739.286 342.069 736.823 344.531 736.823 347.569C736.823 350.606 739.286 353.068 742.323 353.068Z" fill="#00C2FF"/>
<path d="M756.49 428.987C755.453 428.992 754.437 428.69 753.573 428.118C752.708 427.545 752.033 426.728 751.633 425.771C751.234 424.814 751.128 423.76 751.328 422.743C751.529 421.725 752.028 420.791 752.761 420.057C753.495 419.324 754.43 418.825 755.447 418.624C756.464 418.424 757.518 418.53 758.475 418.929C759.432 419.329 760.249 420.004 760.822 420.869C761.394 421.733 761.697 422.749 761.691 423.786C761.691 425.165 761.143 426.488 760.167 427.463C759.192 428.439 757.869 428.987 756.49 428.987Z" fill="#00C2FF"/>
<path d="M756.49 506.191C755.514 506.197 754.557 505.912 753.742 505.374C752.927 504.836 752.29 504.068 751.913 503.167C751.535 502.267 751.433 501.274 751.62 500.315C751.807 499.357 752.274 498.475 752.962 497.782C753.651 497.09 754.53 496.617 755.487 496.424C756.445 496.232 757.438 496.328 758.341 496.7C759.244 497.072 760.016 497.704 760.559 498.516C761.102 499.328 761.392 500.282 761.392 501.259C761.392 502.562 760.876 503.812 759.958 504.736C759.04 505.66 757.793 506.183 756.49 506.191Z" fill="#00C2FF"/>
<path d="M742.203 582.079C741.287 582.079 740.391 581.807 739.629 581.298C738.868 580.789 738.274 580.066 737.923 579.219C737.573 578.373 737.481 577.441 737.66 576.543C737.838 575.644 738.28 574.818 738.927 574.17C739.575 573.522 740.401 573.081 741.3 572.903C742.198 572.724 743.13 572.815 743.976 573.166C744.823 573.517 745.546 574.111 746.055 574.872C746.564 575.634 746.836 576.53 746.836 577.446C746.84 578.056 746.723 578.66 746.492 579.224C746.26 579.788 745.919 580.3 745.488 580.731C745.057 581.162 744.545 581.503 743.981 581.735C743.417 581.966 742.813 582.083 742.203 582.079Z" fill="#00C2FF"/>
<path d="M714.317 654.053C713.454 654.053 712.61 653.797 711.892 653.318C711.175 652.838 710.615 652.157 710.285 651.359C709.955 650.562 709.868 649.685 710.037 648.838C710.205 647.992 710.621 647.214 711.231 646.604C711.841 645.994 712.619 645.578 713.465 645.41C714.312 645.241 715.189 645.328 715.987 645.658C716.784 645.988 717.466 646.547 717.945 647.265C718.425 647.983 718.681 648.826 718.681 649.69C718.681 650.847 718.221 651.957 717.402 652.775C716.584 653.594 715.474 654.053 714.317 654.053Z" fill="#00C2FF"/>
<path d="M673.458 719.57C672.655 719.564 671.872 719.321 671.208 718.871C670.543 718.42 670.027 717.784 669.724 717.04C669.421 716.297 669.344 715.481 669.505 714.694C669.665 713.907 670.054 713.186 670.624 712.621C671.193 712.055 671.918 711.671 672.706 711.516C673.493 711.362 674.309 711.444 675.05 711.753C675.791 712.061 676.424 712.582 676.87 713.25C677.315 713.918 677.553 714.703 677.553 715.505C677.553 716.042 677.447 716.573 677.24 717.068C677.034 717.563 676.732 718.012 676.351 718.39C675.971 718.768 675.519 719.067 675.023 719.269C674.526 719.472 673.994 719.574 673.458 719.57Z" fill="#00C2FF"/>
<path d="M621.241 776.569C620.49 776.569 619.756 776.347 619.132 775.93C618.508 775.513 618.021 774.92 617.734 774.226C617.446 773.532 617.371 772.769 617.518 772.033C617.664 771.297 618.026 770.62 618.557 770.089C619.088 769.558 619.764 769.197 620.5 769.05C621.237 768.904 622 768.979 622.693 769.266C623.387 769.554 623.98 770.04 624.397 770.665C624.814 771.289 625.037 772.023 625.037 772.773C625.037 773.78 624.637 774.746 623.925 775.458C623.213 776.169 622.248 776.569 621.241 776.569Z" fill="#00C2FF"/>
<path d="M559.46 823.047C558.971 823.093 558.479 823.035 558.014 822.879C557.549 822.723 557.121 822.472 556.759 822.142C556.396 821.811 556.107 821.409 555.909 820.96C555.711 820.511 555.608 820.026 555.608 819.536C555.608 819.045 555.711 818.56 555.909 818.111C556.107 817.662 556.396 817.26 556.759 816.929C557.121 816.599 557.549 816.348 558.014 816.192C558.479 816.036 558.971 815.978 559.46 816.023C560.335 816.104 561.149 816.509 561.741 817.159C562.334 817.809 562.662 818.656 562.662 819.536C562.662 820.415 562.334 821.262 561.741 821.912C561.149 822.562 560.335 822.967 559.46 823.047Z" fill="#00C2FF"/>
<path d="M490.117 857.331C489.478 857.331 488.854 857.141 488.323 856.787C487.792 856.432 487.379 855.928 487.134 855.338C486.89 854.748 486.826 854.099 486.951 853.473C487.075 852.847 487.383 852.271 487.834 851.82C488.286 851.369 488.861 851.061 489.487 850.937C490.113 850.812 490.762 850.876 491.352 851.12C491.942 851.365 492.446 851.778 492.801 852.309C493.155 852.84 493.345 853.464 493.345 854.103C493.345 854.959 493.005 855.78 492.399 856.385C491.794 856.991 490.973 857.331 490.117 857.331Z" fill="#00C2FF"/>
<path d="M415.572 878.223C417.207 878.223 418.531 876.898 418.531 875.264C418.531 873.63 417.207 872.305 415.572 872.305C413.938 872.305 412.613 873.63 412.613 875.264C412.613 876.898 413.938 878.223 415.572 878.223Z" fill="#00C2FF"/>
<path d="M338.398 885.008C339.867 885.008 341.058 883.817 341.058 882.348C341.058 880.878 339.867 879.688 338.398 879.688C336.929 879.688 335.738 880.878 335.738 882.348C335.738 883.817 336.929 885.008 338.398 885.008Z" fill="#00C2FF"/>
<path d="M338.399 90.4903C342.526 90.4903 345.871 87.1448 345.871 83.018C345.871 78.8911 342.526 75.5457 338.399 75.5457C334.272 75.5457 330.926 78.8911 330.926 83.018C330.926 87.1448 334.272 90.4903 338.399 90.4903Z" fill="#00C2FF"/>
<path d="M412.464 97.0365C411.115 97.0424 409.795 96.6477 408.67 95.9025C407.546 95.1573 406.668 94.0951 406.147 92.8504C405.627 91.6057 405.488 90.2345 405.747 88.9106C406.007 87.5867 406.653 86.3697 407.605 85.4136C408.557 84.4575 409.771 83.8055 411.094 83.5401C412.417 83.2748 413.789 83.4079 415.035 83.9228C416.282 84.4378 417.349 85.3112 418.099 86.4325C418.849 87.5538 419.249 88.8726 419.249 90.2217C419.253 91.1152 419.081 92.0007 418.741 92.8273C418.402 93.6539 417.903 94.4054 417.273 95.0386C416.642 95.6718 415.893 96.1743 415.068 96.5171C414.243 96.86 413.358 97.0365 412.464 97.0365Z" fill="#00C2FF"/>
<path d="M483.691 117.929C482.522 117.899 481.387 117.527 480.427 116.859C479.467 116.191 478.724 115.256 478.291 114.17C477.857 113.084 477.751 111.895 477.987 110.749C478.222 109.604 478.788 108.553 479.615 107.726C480.442 106.899 481.493 106.333 482.639 106.097C483.784 105.862 484.974 105.968 486.059 106.401C487.145 106.835 488.08 107.578 488.748 108.538C489.416 109.498 489.788 110.632 489.818 111.801C489.818 113.426 489.172 114.985 488.023 116.134C486.874 117.283 485.316 117.929 483.691 117.929Z" fill="#00C2FF"/>
<path d="M549.268 152.361C552.272 152.361 554.708 149.926 554.708 146.922C554.708 143.917 552.272 141.482 549.268 141.482C546.263 141.482 543.828 143.917 543.828 146.922C543.828 149.926 546.263 152.361 549.268 152.361Z" fill="#00C2FF"/>
<path d="M606.745 198.929C605.797 198.929 604.872 198.648 604.085 198.121C603.298 197.594 602.685 196.845 602.324 195.97C601.963 195.094 601.87 194.131 602.056 193.203C602.243 192.274 602.702 191.422 603.374 190.754C604.046 190.087 604.9 189.634 605.83 189.453C606.76 189.271 607.722 189.37 608.596 189.737C609.469 190.103 610.214 190.721 610.736 191.511C611.257 192.302 611.533 193.229 611.527 194.176C611.527 194.803 611.403 195.423 611.162 196.002C610.922 196.581 610.569 197.106 610.124 197.548C609.68 197.989 609.152 198.339 608.572 198.576C607.992 198.813 607.371 198.933 606.745 198.929Z" fill="#00C2FF"/>
<path d="M654 255.749C653.19 255.749 652.398 255.508 651.725 255.058C651.052 254.608 650.527 253.969 650.217 253.221C649.907 252.472 649.826 251.649 649.984 250.855C650.142 250.06 650.532 249.331 651.104 248.758C651.677 248.186 652.407 247.796 653.201 247.638C653.995 247.48 654.819 247.561 655.567 247.871C656.315 248.18 656.955 248.705 657.405 249.379C657.855 250.052 658.095 250.844 658.095 251.654C658.095 252.74 657.663 253.781 656.895 254.549C656.127 255.317 655.086 255.749 654 255.749Z" fill="#00C2FF"/>
<path d="M689.119 320.668C688.438 320.668 687.773 320.466 687.207 320.087C686.641 319.708 686.2 319.169 685.941 318.54C685.682 317.91 685.616 317.217 685.751 316.55C685.886 315.882 686.216 315.27 686.7 314.79C687.183 314.311 687.799 313.986 688.467 313.856C689.136 313.727 689.828 313.799 690.456 314.064C691.083 314.329 691.618 314.774 691.992 315.343C692.366 315.913 692.563 316.58 692.557 317.261C692.549 318.168 692.183 319.034 691.54 319.672C690.896 320.31 690.026 320.668 689.119 320.668Z" fill="#00C2FF"/>
<path d="M710.7 391.207C710.156 391.207 709.624 391.045 709.172 390.743C708.72 390.441 708.367 390.012 708.159 389.509C707.951 389.007 707.896 388.454 708.003 387.92C708.109 387.387 708.371 386.897 708.755 386.512C709.14 386.128 709.63 385.866 710.163 385.76C710.696 385.654 711.249 385.708 711.752 385.916C712.254 386.124 712.684 386.477 712.986 386.929C713.288 387.381 713.449 387.913 713.449 388.457C713.449 388.818 713.378 389.176 713.24 389.509C713.102 389.843 712.899 390.146 712.644 390.401C712.389 390.657 712.085 390.859 711.752 390.997C711.418 391.136 711.061 391.207 710.7 391.207Z" fill="#00C2FF"/>
<path d="M717.933 464.585C719.072 464.585 719.996 463.662 719.996 462.523C719.996 461.384 719.072 460.46 717.933 460.46C716.794 460.46 715.871 461.384 715.871 462.523C715.871 463.662 716.794 464.585 717.933 464.585Z" fill="#00C2FF"/>
</svg>
