<svg width="84" height="84" viewBox="0 0 84 84" fill="none" xmlns="http://www.w3.org/2000/svg">
<circle cx="42.2538" cy="41.6604" r="40.9787" fill="white" stroke="white"/>
<mask id="mask0" mask-type="alpha" maskUnits="userSpaceOnUse" x="1" y="1" width="82" height="82">
<circle cx="42.2538" cy="41.6604" r="40.4787" fill="white"/>
</mask>
<g mask="url(#mask0)">
<rect x="1.27515" y="-6.59387" width="81.9573" height="90.9952" fill="#008CCF" stroke="white"/>
<path d="M60.4963 42.2559C60.4935 42.2403 60.4894 42.225 60.4843 42.2101C60.4813 42.2001 60.4773 42.1904 60.4722 42.1812C59.7124 39.8748 58.5667 37.714 57.084 35.791C57.0776 35.7843 57.072 35.7771 57.0671 35.7693V35.7669C56.9876 35.6657 56.9105 35.5645 56.831 35.4658L56.8021 35.4272C56.4553 34.9877 56.145 34.5204 55.8743 34.0302C56.2545 33.8998 56.5846 33.6541 56.8186 33.3273C57.0527 33.0005 57.1789 32.6088 57.1798 32.2068V27.3895C57.1802 27.3734 57.1794 27.3573 57.1774 27.3413C57.1648 26.8389 56.9565 26.3613 56.5968 26.0103C56.2371 25.6593 55.7545 25.4627 55.2519 25.4625H54.2615C54.5435 19.9057 56.5533 13.1445 56.5738 13.0747C56.5961 13.0032 56.601 12.9274 56.588 12.8536C56.575 12.7799 56.5445 12.7103 56.4991 12.6507C56.4548 12.5902 56.3967 12.541 56.3298 12.5071C56.2628 12.4732 56.1888 12.4555 56.1137 12.4556H28.3623C28.2875 12.4559 28.2137 12.4735 28.1468 12.5073C28.08 12.541 28.0219 12.5898 27.9772 12.6499C27.9325 12.71 27.9025 12.7797 27.8894 12.8534C27.8764 12.9271 27.8807 13.0029 27.902 13.0747C27.9237 13.1445 29.9335 19.9033 30.2144 25.4625H27.7789C27.6513 25.4629 27.529 25.5138 27.4387 25.604C27.3485 25.6943 27.2976 25.8166 27.2972 25.9443V28.7191C26.3039 29.1066 25.4506 29.7846 24.8486 30.6647C24.2467 31.5447 23.9241 32.5858 23.9231 33.652V39.9146C23.9235 40.0423 23.9744 40.1646 24.0646 40.2548C24.1549 40.3451 24.2772 40.396 24.4049 40.3964H24.6773C24.4244 40.9793 24.2001 41.5742 24.005 42.1764C23.9988 42.1869 23.9939 42.1983 23.9906 42.2101C23.9854 42.225 23.9814 42.2403 23.9785 42.2559C21.4735 50.0359 23.6314 59.3672 30.4097 70.04C30.4534 70.1085 30.5136 70.1649 30.5847 70.2041C30.6559 70.2432 30.7358 70.2639 30.817 70.264H53.6581C53.7393 70.2639 53.8192 70.2432 53.8904 70.2041C53.9615 70.1649 54.0217 70.1085 54.0654 70.04C60.8523 59.3527 63.0014 50.0431 60.4963 42.2559ZM42.2361 63.0573C41.7544 60.4113 40.9102 57.8444 39.7275 55.429C40.5226 55.7644 41.3774 55.9356 42.2405 55.9323C43.1035 55.929 43.957 55.7512 44.7496 55.4097C43.5638 57.8311 42.718 60.4046 42.2361 63.0573ZM24.8871 39.4329V38.4694H28.7429V39.4329H24.8871ZM56.7058 39.0644C56.0046 39.3919 55.296 39.6978 54.5948 39.9773C54.5384 40.001 54.4778 40.0132 54.4166 40.0134C54.3202 40.0128 54.2262 39.9837 54.1464 39.9297C54.0666 39.8757 54.0046 39.7992 53.9683 39.7099C53.9449 39.651 53.9332 39.5882 53.9341 39.5248C53.935 39.4615 53.9484 39.3989 53.9734 39.3408C53.9985 39.2826 54.0348 39.2299 54.0803 39.1858C54.1257 39.1417 54.1794 39.107 54.2383 39.0836C54.9202 38.8114 55.6144 38.5104 56.2963 38.19C56.4123 38.1357 56.545 38.1297 56.6654 38.1733C56.7858 38.2169 56.8839 38.3065 56.9382 38.4224C56.9925 38.5384 56.9985 38.6712 56.955 38.7915C56.9114 38.9119 56.8217 39.0101 56.7058 39.0644ZM52.433 40.7649C51.7003 41.0058 50.9558 41.225 50.2231 41.4128C50.184 41.4245 50.1434 41.4302 50.1026 41.4297C49.9848 41.4305 49.8707 41.3881 49.782 41.3105C49.6934 41.2329 49.6362 41.1255 49.6214 41.0086C49.6065 40.8917 49.635 40.7734 49.7015 40.6761C49.768 40.5788 49.8679 40.5093 49.9822 40.4807C50.6956 40.2976 51.4185 40.0856 52.1319 39.8496C52.2533 39.8096 52.3856 39.8195 52.4997 39.8771C52.6138 39.9347 52.7003 40.0352 52.7403 40.1566C52.7802 40.278 52.7703 40.4102 52.7127 40.5243C52.6552 40.6384 52.5546 40.7249 52.4333 40.7649H52.433ZM38.8413 42.2559C38.822 42.2559 38.8052 42.2535 38.7859 42.2535C38.0293 42.1667 37.2605 42.0535 36.5037 41.9138C36.4396 41.9044 36.3781 41.8821 36.3228 41.8483C36.2675 41.8146 36.2196 41.77 36.182 41.7173C36.1443 41.6646 36.1177 41.6048 36.1037 41.5416C36.0896 41.4784 36.0885 41.413 36.1003 41.3493C36.1121 41.2856 36.1367 41.2249 36.1725 41.171C36.2083 41.117 36.2546 41.0708 36.3087 41.0351C36.3628 40.9995 36.4235 40.9751 36.4872 40.9634C36.5509 40.9517 36.6163 40.953 36.6795 40.9672C37.4146 41.1021 38.1592 41.2129 38.8919 41.2948C39.0151 41.3072 39.1288 41.3665 39.2094 41.4604C39.2901 41.5544 39.3314 41.6758 39.3249 41.7995C39.3184 41.9231 39.2645 42.0395 39.1745 42.1245C39.0844 42.2095 38.9651 42.2565 38.8413 42.2559ZM40.6223 41.9235C40.6286 41.7961 40.6847 41.6763 40.7784 41.5898C40.8721 41.5033 40.9961 41.4571 41.1235 41.461C41.8632 41.4875 42.6152 41.4875 43.3576 41.4586C43.4208 41.4562 43.484 41.4663 43.5433 41.4883C43.6027 41.5104 43.6571 41.5439 43.7035 41.5869C43.7499 41.63 43.7874 41.6817 43.8138 41.7393C43.8402 41.7968 43.855 41.859 43.8574 41.9223C43.8598 41.9855 43.8496 42.0486 43.8276 42.108C43.8056 42.1673 43.7721 42.2218 43.7291 42.2682C43.686 42.3146 43.6342 42.3521 43.5767 42.3785C43.5192 42.4049 43.457 42.4197 43.3937 42.4221C43.0033 42.4365 42.608 42.4437 42.2176 42.4437C41.8416 42.4437 41.461 42.4365 41.0874 42.4221C40.9596 42.4175 40.8387 42.3625 40.7513 42.2691C40.664 42.1756 40.6172 42.0513 40.6213 41.9235H40.6223ZM45.1624 41.8247C45.1549 41.7618 45.16 41.6981 45.1774 41.6372C45.1947 41.5764 45.2239 41.5195 45.2634 41.47C45.3028 41.4205 45.3517 41.3793 45.4072 41.3488C45.4627 41.3183 45.5236 41.2992 45.5866 41.2924C46.3215 41.2105 47.0662 41.0997 47.799 40.9648C47.8622 40.9506 47.9276 40.9493 47.9913 40.961C48.055 40.9726 48.1157 40.997 48.1698 41.0327C48.2238 41.0684 48.2702 41.1146 48.306 41.1686C48.3418 41.2225 48.3663 41.2832 48.3782 41.3469C48.39 41.4105 48.3888 41.476 48.3748 41.5392C48.3608 41.6024 48.3341 41.6622 48.2965 41.7149C48.2588 41.7676 48.2109 41.8122 48.1557 41.8459C48.1004 41.8797 48.0389 41.902 47.9748 41.9114C47.218 42.0511 46.4518 42.1643 45.695 42.2486C45.6766 42.2514 45.6581 42.253 45.6396 42.2535C45.5211 42.2532 45.4069 42.2094 45.3188 42.1303C45.2306 42.0512 45.1747 41.9424 45.1617 41.8247H45.1624ZM34.841 41.0684C34.8143 41.1716 34.7542 41.263 34.67 41.3284C34.5859 41.3938 34.4824 41.4294 34.3758 41.4297C34.3343 41.43 34.2929 41.4243 34.253 41.4128C33.5205 41.225 32.7758 41.0058 32.043 40.7649C31.9217 40.7246 31.8213 40.6378 31.7639 40.5235C31.7066 40.4092 31.697 40.2767 31.7373 40.1554C31.7775 40.034 31.8644 39.9336 31.9787 39.8762C32.093 39.8189 32.2254 39.8093 32.3468 39.8496C33.06 40.0832 33.7831 40.2976 34.4965 40.4807C34.62 40.5131 34.7254 40.5933 34.7898 40.7035C34.8542 40.8137 34.8723 40.9449 34.84 41.0684H34.841ZM55.9324 35.8801C47.2279 39.8785 38.4075 40.0519 29.7078 36.3907V34.1338H54.8374C55.1496 34.7472 55.5157 35.3316 55.9314 35.8801H55.9324ZM56.2159 32.2068C56.2155 32.4622 56.1138 32.7071 55.9332 32.8877C55.7526 33.0683 55.5078 33.1699 55.2524 33.1703H29.7336C29.8263 32.3614 30.144 31.5946 30.6507 30.9572C31.1574 30.3198 31.8327 29.8373 32.5999 29.5645V31.2434C32.5999 31.3711 32.6507 31.4937 32.741 31.584C32.8314 31.6743 32.9539 31.7251 33.0817 31.7251C33.2094 31.7251 33.332 31.6743 33.4223 31.584C33.5126 31.4937 33.5634 31.3711 33.5634 31.2434V29.3429C33.7234 29.3256 33.8842 29.3167 34.0451 29.3164H36.455V30.2799C36.455 30.4077 36.5058 30.5302 36.5961 30.6205C36.6865 30.7109 36.809 30.7616 36.9368 30.7616C37.0645 30.7616 37.1871 30.7109 37.2774 30.6205C37.3677 30.5302 37.4185 30.4077 37.4185 30.2799V29.3164H40.3116V31.2434C40.3116 31.3711 40.3623 31.4937 40.4527 31.584C40.543 31.6743 40.6655 31.7251 40.7933 31.7251C40.9211 31.7251 41.0436 31.6743 41.1339 31.584C41.2243 31.4937 41.275 31.3711 41.275 31.2434V29.3164H44.1655V30.2799C44.1655 30.4077 44.2162 30.5302 44.3066 30.6205C44.3969 30.7109 44.5194 30.7616 44.6472 30.7616C44.775 30.7616 44.8975 30.7109 44.9878 30.6205C45.0782 30.5302 45.1289 30.4077 45.1289 30.2799V29.3164H48.0208V31.2434C48.0208 31.3711 48.0716 31.4937 48.1619 31.584C48.2522 31.6743 48.3748 31.7251 48.5025 31.7251C48.6303 31.7251 48.7528 31.6743 48.8432 31.584C48.9335 31.4937 48.9843 31.3711 48.9843 31.2434V29.3164H51.8781V30.2799C51.8781 30.4077 51.9288 30.5302 52.0192 30.6205C52.1095 30.7109 52.232 30.7616 52.3598 30.7616C52.4876 30.7616 52.6101 30.7109 52.7004 30.6205C52.7908 30.5302 52.8415 30.4077 52.8415 30.2799V29.3164H55.2514C55.59 29.3168 55.9225 29.227 56.2149 29.0563L56.2159 32.2068ZM29.0009 13.4191H55.4759C54.953 15.3027 53.4372 21.1148 53.2806 25.8961C53.2786 25.9121 53.2778 25.9282 53.2782 25.9443C53.2527 26.7474 53.2688 27.5514 53.3264 28.3529H31.1504C31.208 27.5514 31.2241 26.7474 31.1986 25.9443C31.199 25.9282 31.1982 25.9121 31.1961 25.8961C31.0396 21.1148 29.5238 15.3027 29.0009 13.4191ZM24.8871 33.652C24.8887 32.5023 25.3463 31.4001 26.1595 30.5873C26.9727 29.7745 28.0751 29.3174 29.2249 29.3164H31.0034C30.6425 29.5674 30.3153 29.8637 30.0299 30.198C30.025 30.2004 30.025 30.2004 30.025 30.2028C30.0076 30.2209 29.9915 30.2402 29.9769 30.2606C29.9721 30.2654 29.9672 30.2678 29.9672 30.2727C29.1863 31.208 28.7544 32.3854 28.7453 33.6039C28.7433 33.6199 28.7425 33.636 28.7429 33.652V37.5059H24.8871V33.652ZM24.7666 42.9809C30.3776 45.1639 35.0767 49.1945 38.0886 54.4077C38.1098 54.4682 38.1416 54.5245 38.1825 54.5739C38.1849 54.5763 38.1873 54.5763 38.1873 54.5787C39.9924 57.7774 41.354 61.7758 41.7539 66.7425C41.6889 67.5687 41.6511 68.4214 41.6407 69.3006H31.0829C24.7033 59.1769 22.5882 50.3418 24.7666 42.9809ZM53.3939 69.3006H42.6046C42.6167 68.4359 42.6528 67.5976 42.7202 66.7859C42.7186 66.773 42.7194 66.7599 42.7227 66.7474C43.1179 61.7758 44.481 57.775 46.282 54.5739C46.2865 54.5714 46.2906 54.5682 46.294 54.5642C46.3508 54.5052 46.3908 54.432 46.4096 54.3523C49.4247 49.165 54.113 45.1562 59.7056 42.9833C61.8789 50.3587 59.7704 59.1769 53.3939 69.3006Z" fill="white"/>
</g>
</svg>
