<svg width="86" height="86" viewBox="0 0 86 86" fill="none" xmlns="http://www.w3.org/2000/svg">
<circle cx="42.7616" cy="43.4083" r="41.4787" fill="white" stroke="white" stroke-width="2"/>
<mask id="mask0" mask-type="alpha" maskUnits="userSpaceOnUse" x="1" y="1" width="84" height="84">
<circle cx="42.7616" cy="43.4083" r="40.9787" fill="white" stroke="white"/>
</mask>
<g mask="url(#mask0)">
<rect x="-4.6438" y="14.5042" width="96.2412" height="71.1452" fill="#008CCF"/>
<path d="M61.2582 85.5017C61.2553 85.486 61.2513 85.4705 61.2462 85.4554C61.2432 85.4452 61.2392 85.4354 61.2341 85.4261C60.4743 83.0922 59.3286 80.9057 57.8458 78.9596C57.8395 78.9529 57.8338 78.9456 57.829 78.9377V78.9352C57.7495 78.8329 57.6724 78.7305 57.5929 78.6306L57.564 78.5916C57.2171 78.1467 56.9068 77.6739 56.6362 77.1778C57.0164 77.0459 57.3465 76.7973 57.5805 76.4665C57.8145 76.1358 57.9408 75.7395 57.9417 75.3327V70.4578C57.9421 70.4415 57.9413 70.4252 57.9393 70.4091C57.9267 69.9007 57.7184 69.4173 57.3587 69.0622C56.999 68.707 56.5163 68.5081 56.0138 68.5079H55.0233C55.3054 62.8847 57.3152 56.0428 57.3357 55.9721C57.358 55.8998 57.3628 55.8231 57.3498 55.7484C57.3369 55.6738 57.3064 55.6034 57.261 55.5431C57.2166 55.4819 57.1586 55.4321 57.0916 55.3978C57.0247 55.3635 56.9507 55.3456 56.8756 55.3457H29.1242C29.0493 55.3459 28.9755 55.3638 28.9087 55.3979C28.8418 55.4321 28.7837 55.4815 28.7391 55.5423C28.6944 55.6031 28.6643 55.6736 28.6513 55.7482C28.6382 55.8228 28.6425 55.8995 28.6639 55.9721C28.6856 56.0428 30.6954 62.8823 30.9762 68.5079H28.5408C28.4131 68.5083 28.2908 68.5597 28.2006 68.6511C28.1103 68.7424 28.0594 68.8662 28.0591 68.9954V71.8033C27.0658 72.1954 26.2124 72.8816 25.6105 73.7721C25.0085 74.6627 24.686 75.7162 24.685 76.7952V83.1325C24.6853 83.2617 24.7362 83.3855 24.8265 83.4768C24.9167 83.5681 25.0391 83.6196 25.1667 83.62H25.4391C25.1862 84.2099 24.962 84.8119 24.7669 85.4213C24.7606 85.432 24.7557 85.4434 24.7524 85.4554C24.7473 85.4705 24.7432 85.486 24.7404 85.5017C22.2353 93.3746 24.3933 102.817 31.1716 113.618C31.2152 113.687 31.2754 113.744 31.3466 113.784C31.4178 113.823 31.4976 113.844 31.5789 113.844H54.42C54.5012 113.844 54.5811 113.823 54.6522 113.784C54.7234 113.744 54.7836 113.687 54.8273 113.618C61.6142 102.803 63.7632 93.3819 61.2582 85.5017ZM42.998 106.551C42.5162 103.874 41.6721 101.276 40.4893 98.8321C41.2845 99.1715 42.1393 99.3448 43.0023 99.3414C43.8654 99.3381 44.7188 99.1582 45.5114 98.8126C44.3257 101.263 43.4799 103.867 42.998 106.551ZM25.6489 82.645V81.67H29.5047V82.645H25.6489ZM57.4677 82.2721C56.7665 82.6036 56.0579 82.9131 55.3567 83.1959C55.3003 83.2199 55.2397 83.2323 55.1785 83.2324C55.0821 83.2319 54.988 83.2024 54.9082 83.1478C54.8284 83.0931 54.7665 83.0157 54.7302 82.9253C54.7067 82.8658 54.6951 82.8021 54.696 82.738C54.6969 82.6739 54.7102 82.6107 54.7353 82.5518C54.7604 82.4929 54.7967 82.4396 54.8421 82.395C54.8876 82.3503 54.9413 82.3152 55.0002 82.2916C55.6821 82.0162 56.3763 81.7115 57.0582 81.3873C57.1741 81.3324 57.3069 81.3263 57.4273 81.3704C57.5477 81.4145 57.6458 81.5052 57.7001 81.6225C57.7544 81.7398 57.7604 81.8742 57.7168 81.996C57.6732 82.1178 57.5836 82.2171 57.4677 82.2721ZM53.1949 83.9929C52.4622 84.2367 51.7176 84.4585 50.9849 84.6486C50.9459 84.6604 50.9053 84.6661 50.8645 84.6657C50.7467 84.6665 50.6326 84.6236 50.5439 84.5451C50.4552 84.4665 50.3981 84.3579 50.3832 84.2396C50.3684 84.1213 50.3969 84.0016 50.4634 83.9031C50.5299 83.8047 50.6297 83.7343 50.7441 83.7053C51.4575 83.5201 52.1804 83.3056 52.8938 83.0667C53.0152 83.0263 53.1475 83.0363 53.2615 83.0945C53.3756 83.1528 53.4622 83.2545 53.5021 83.3773C53.5421 83.5002 53.5322 83.634 53.4746 83.7495C53.417 83.8649 53.3165 83.9525 53.1951 83.9929H53.1949ZM39.6032 85.5017C39.5839 85.5017 39.567 85.4993 39.5478 85.4993C38.7912 85.4115 38.0223 85.297 37.2655 85.1556C37.2015 85.146 37.1399 85.1235 37.0847 85.0893C37.0294 85.0551 36.9815 85.01 36.9438 84.9567C36.9062 84.9034 36.8795 84.8429 36.8655 84.7789C36.8515 84.7149 36.8503 84.6487 36.8622 84.5843C36.874 84.5198 36.8986 84.4585 36.9344 84.4038C36.9702 84.3492 37.0165 84.3025 37.0706 84.2664C37.1246 84.2303 37.1853 84.2056 37.249 84.1938C37.3128 84.182 37.3782 84.1833 37.4414 84.1977C38.1765 84.3342 38.921 84.4463 39.6537 84.5292C39.7769 84.5417 39.8907 84.6017 39.9713 84.6968C40.0519 84.7919 40.0933 84.9147 40.0868 85.0398C40.0803 85.165 40.0264 85.2827 39.9363 85.3687C39.8463 85.4547 39.727 85.5024 39.6032 85.5017ZM41.3841 85.1653C41.3905 85.0364 41.4465 84.9152 41.5402 84.8277C41.634 84.7401 41.7579 84.6934 41.8854 84.6973C42.6251 84.7242 43.3771 84.7242 44.1194 84.6949C44.1827 84.6925 44.2458 84.7027 44.3052 84.725C44.3645 84.7473 44.419 84.7812 44.4654 84.8248C44.5118 84.8683 44.5493 84.9207 44.5757 84.979C44.6021 85.0372 44.6169 85.1001 44.6192 85.1641C44.6216 85.2281 44.6115 85.292 44.5895 85.3521C44.5675 85.4121 44.534 85.4672 44.4909 85.5142C44.4479 85.5611 44.3961 85.5991 44.3386 85.6258C44.281 85.6525 44.2188 85.6675 44.1556 85.6699C43.7651 85.6845 43.3699 85.6918 42.9794 85.6918C42.6034 85.6918 42.2228 85.6845 41.8493 85.6699C41.7214 85.6653 41.6006 85.6096 41.5132 85.5151C41.4258 85.4205 41.3791 85.2947 41.3832 85.1653H41.3841ZM45.9243 85.0654C45.9168 85.0018 45.9219 84.9373 45.9392 84.8757C45.9565 84.8141 45.9858 84.7566 46.0252 84.7065C46.0647 84.6564 46.1136 84.6147 46.169 84.5838C46.2245 84.553 46.2855 84.5336 46.3484 84.5267C47.0833 84.4438 47.8281 84.3317 48.5608 84.1952C48.624 84.1809 48.6894 84.1796 48.7532 84.1914C48.8169 84.2032 48.8776 84.2278 48.9316 84.2639C48.9857 84.3 49.032 84.3468 49.0678 84.4014C49.1036 84.456 49.1282 84.5174 49.14 84.5818C49.1518 84.6463 49.1507 84.7125 49.1367 84.7765C49.1227 84.8405 49.096 84.9009 49.0584 84.9543C49.0207 85.0076 48.9728 85.0527 48.9175 85.0869C48.8623 85.121 48.8007 85.1436 48.7367 85.1531C47.9799 85.2945 47.2136 85.4091 46.4568 85.4944C46.4385 85.4972 46.42 85.4988 46.4014 85.4993C46.283 85.499 46.1688 85.4547 46.0807 85.3746C45.9925 85.2946 45.9366 85.1845 45.9236 85.0654H45.9243ZM35.6028 84.3C35.5762 84.4045 35.5161 84.497 35.4319 84.5632C35.3477 84.6293 35.2443 84.6654 35.1377 84.6657C35.0962 84.666 35.0548 84.6602 35.0149 84.6486C34.2824 84.4585 33.5376 84.2367 32.8049 83.9929C32.6835 83.9522 32.5831 83.8643 32.5258 83.7486C32.4684 83.6329 32.4588 83.499 32.4991 83.3761C32.5394 83.2533 32.6262 83.1517 32.7405 83.0937C32.8548 83.0356 32.9872 83.0259 33.1086 83.0667C33.8218 83.3031 34.5449 83.5201 35.2584 83.7053C35.3818 83.7382 35.4873 83.8193 35.5517 83.9308C35.6161 84.0423 35.6341 84.1751 35.6019 84.3H35.6028ZM56.6942 79.0498C47.9897 83.0959 39.1694 83.2714 30.4697 79.5665V77.2827H55.5992C55.9114 77.9033 56.2776 78.4947 56.6933 79.0498H56.6942ZM56.9777 75.3327C56.9774 75.5912 56.8757 75.8389 56.6951 76.0217C56.5145 76.2044 56.2697 76.3073 56.0143 76.3077H30.4954C30.5881 75.4891 30.9059 74.7132 31.4126 74.0682C31.9193 73.4231 32.5946 72.9349 33.3618 72.6588V74.3577C33.3618 74.487 33.4125 74.611 33.5029 74.7024C33.5932 74.7939 33.7157 74.8452 33.8435 74.8452C33.9713 74.8452 34.0938 74.7939 34.1842 74.7024C34.2745 74.611 34.3252 74.487 34.3252 74.3577V72.4346C34.4852 72.417 34.6461 72.4081 34.807 72.4078H37.2169V73.3828C37.2169 73.512 37.2676 73.636 37.358 73.7275C37.4483 73.8189 37.5708 73.8702 37.6986 73.8702C37.8264 73.8702 37.9489 73.8189 38.0393 73.7275C38.1296 73.636 38.1804 73.512 38.1804 73.3828V72.4078H41.0734V74.3577C41.0734 74.487 41.1242 74.611 41.2145 74.7024C41.3049 74.7939 41.4274 74.8452 41.5552 74.8452C41.6829 74.8452 41.8055 74.7939 41.8958 74.7024C41.9861 74.611 42.0369 74.487 42.0369 74.3577V72.4078H44.9273V73.3828C44.9273 73.512 44.9781 73.636 45.0684 73.7275C45.1588 73.8189 45.2813 73.8702 45.4091 73.8702C45.5368 73.8702 45.6594 73.8189 45.7497 73.7275C45.84 73.636 45.8908 73.512 45.8908 73.3828V72.4078H48.7827V74.3577C48.7827 74.487 48.8334 74.611 48.9238 74.7024C49.0141 74.7939 49.1366 74.8452 49.2644 74.8452C49.3922 74.8452 49.5147 74.7939 49.605 74.7024C49.6954 74.611 49.7461 74.487 49.7461 74.3577V72.4078H52.6399V73.3828C52.6399 73.512 52.6907 73.636 52.781 73.7275C52.8714 73.8189 52.9939 73.8702 53.1217 73.8702C53.2494 73.8702 53.372 73.8189 53.4623 73.7275C53.5527 73.636 53.6034 73.512 53.6034 73.3828V72.4078H56.0133C56.3519 72.4082 56.6844 72.3173 56.9768 72.1445L56.9777 75.3327ZM29.7627 56.3207H56.2378C55.7149 58.2268 54.1991 64.1083 54.0425 68.9466C54.0404 68.9628 54.0396 68.9791 54.0401 68.9954C54.0146 69.8081 54.0307 70.6217 54.0883 71.4328H31.9122C31.9699 70.6217 31.9859 69.8081 31.9604 68.9954C31.9609 68.9791 31.9601 68.9628 31.958 68.9466C31.8014 64.1083 30.2856 58.2268 29.7627 56.3207ZM25.6489 76.7952C25.6505 75.6317 26.1081 74.5163 26.9213 73.6938C27.7345 72.8713 28.837 72.4088 29.9867 72.4078H31.7653C31.4044 72.6617 31.0771 72.9615 30.7917 73.2999C30.7869 73.3023 30.7869 73.3023 30.7869 73.3048C30.7694 73.323 30.7533 73.3426 30.7387 73.3633C30.7339 73.3681 30.7291 73.3706 30.7291 73.3754C29.9482 74.3219 29.5162 75.5134 29.5072 76.7464C29.5051 76.7626 29.5043 76.7789 29.5047 76.7952V80.6951H25.6489V76.7952ZM25.5285 86.2354C31.1394 88.4445 35.8385 92.5232 38.8504 97.7986C38.8716 97.8598 38.9034 97.9168 38.9444 97.9668C38.9468 97.9692 38.9492 97.9692 38.9492 97.9716C40.7543 101.209 42.1159 105.255 42.5157 110.281C42.4507 111.117 42.413 111.98 42.4025 112.869H31.8448C25.4651 102.625 23.3501 93.6842 25.5285 86.2354ZM54.1557 112.869H43.3665C43.3785 111.994 43.4147 111.146 43.4821 110.325C43.4804 110.312 43.4812 110.298 43.4845 110.286C43.8798 105.255 45.2429 101.206 47.0438 97.9668C47.0484 97.9643 47.0525 97.961 47.0559 97.957C47.1127 97.8973 47.1526 97.8232 47.1715 97.7425C50.1866 92.4933 54.8748 88.4366 60.4674 86.2378C62.6408 93.7012 60.5322 102.625 54.1557 112.869Z" fill="white"/>
</g>
</svg>
