<svg width="82" height="82" viewBox="0 0 82 82" fill="none" xmlns="http://www.w3.org/2000/svg">
<circle cx="41" cy="40.8771" r="40.4787" fill="white"/>
<mask id="mask0" mask-type="alpha" maskUnits="userSpaceOnUse" x="0" y="0" width="82" height="82">
<circle cx="41" cy="40.8771" r="40.4787" fill="white"/>
</mask>
<g mask="url(#mask0)">
<path d="M59.2581 41.7731C59.2552 41.7576 59.2512 41.7423 59.2461 41.7274C59.2431 41.7173 59.2391 41.7077 59.234 41.6985C58.4742 39.3921 57.3285 37.2313 55.8457 35.3082C55.8394 35.3016 55.8337 35.2943 55.8289 35.2866V35.2841C55.7494 35.183 55.6723 35.0818 55.5928 34.9831L55.5639 34.9445C55.217 34.5049 54.9067 34.0377 54.6361 33.5475C55.0163 33.4171 55.3464 33.1714 55.5804 32.8446C55.8144 32.5177 55.9407 32.1261 55.9416 31.7241V26.9067C55.942 26.8906 55.9412 26.8745 55.9392 26.8586C55.9266 26.3562 55.7183 25.8785 55.3586 25.5276C54.9989 25.1766 54.5163 24.98 54.0137 24.9798H53.0232C53.3053 19.423 55.3151 12.6618 55.3356 12.5919C55.3579 12.5204 55.3627 12.4446 55.3498 12.3709C55.3368 12.2971 55.3063 12.2276 55.2609 12.168C55.2165 12.1075 55.1585 12.0582 55.0916 12.0243C55.0246 11.9904 54.9506 11.9728 54.8755 11.9729H27.1241C27.0492 11.9731 26.9754 11.9908 26.9086 12.0245C26.8417 12.0583 26.7837 12.1071 26.739 12.1672C26.6943 12.2273 26.6643 12.2969 26.6512 12.3707C26.6382 12.4444 26.6425 12.5202 26.6638 12.5919C26.6855 12.6618 28.6953 19.4206 28.9761 24.9798H26.5407C26.4131 24.9802 26.2908 25.0311 26.2005 25.1213C26.1102 25.2116 26.0594 25.3339 26.059 25.4615V28.2363C25.0657 28.6238 24.2123 29.3019 23.6104 30.1819C23.0085 31.062 22.6859 32.1031 22.6849 33.1693V39.4319C22.6853 39.5595 22.7362 39.6819 22.8264 39.7721C22.9167 39.8624 23.039 39.9133 23.1666 39.9136H23.4391C23.1861 40.4965 22.9619 41.0915 22.7668 41.6937C22.7605 41.7042 22.7557 41.7156 22.7523 41.7274C22.7472 41.7423 22.7432 41.7576 22.7403 41.7731C20.2353 49.5532 22.3932 58.8844 29.1715 69.5573C29.2152 69.6258 29.2753 69.6822 29.3465 69.7214C29.4177 69.7605 29.4976 69.7811 29.5788 69.7813H52.4199C52.5011 69.7811 52.581 69.7605 52.6521 69.7214C52.7233 69.6822 52.7835 69.6258 52.8272 69.5573C59.6141 58.87 61.7631 49.5604 59.2581 41.7731ZM40.9979 62.5745C40.5161 59.9286 39.672 57.3617 38.4892 54.9462C39.2844 55.2817 40.1392 55.4529 41.0023 55.4496C41.8653 55.4463 42.7188 55.2685 43.5113 54.927C42.3256 57.3484 41.4798 59.9218 40.9979 62.5745ZM23.6489 38.9502V37.9867H27.5047V38.9502H23.6489ZM55.4676 38.5816C54.7664 38.9092 54.0578 39.2151 53.3566 39.4945C53.3002 39.5182 53.2396 39.5305 53.1784 39.5307C53.082 39.5301 52.988 39.501 52.9082 39.447C52.8284 39.3929 52.7664 39.3164 52.7301 39.2272C52.7066 39.1683 52.695 39.1054 52.6959 39.0421C52.6968 38.9787 52.7101 38.9162 52.7352 38.858C52.7603 38.7999 52.7966 38.7472 52.8421 38.7031C52.8875 38.659 52.9412 38.6242 53.0001 38.6009C53.682 38.3287 54.3762 38.0276 55.0581 37.7073C55.174 37.653 55.3068 37.647 55.4272 37.6906C55.5476 37.7341 55.6457 37.8238 55.7 37.9397C55.7543 38.0557 55.7603 38.1884 55.7167 38.3088C55.6731 38.4292 55.5835 38.5273 55.4676 38.5816ZM51.1948 40.2822C50.4621 40.523 49.7176 40.7422 48.9848 40.9301C48.9458 40.9418 48.9052 40.9474 48.8644 40.947C48.7466 40.9478 48.6325 40.9054 48.5438 40.8278C48.4551 40.7502 48.398 40.6428 48.3831 40.5259C48.3683 40.409 48.3968 40.2907 48.4633 40.1934C48.5298 40.0961 48.6297 40.0266 48.744 39.9979C49.4574 39.8149 50.1803 39.6029 50.8937 39.3669C51.0151 39.3269 51.1474 39.3368 51.2615 39.3944C51.3755 39.4519 51.4621 39.5525 51.502 39.6739C51.542 39.7952 51.5321 39.9275 51.4745 40.0416C51.417 40.1557 51.3164 40.2422 51.195 40.2822H51.1948ZM37.6031 41.7731C37.5838 41.7731 37.567 41.7707 37.5477 41.7707C36.7911 41.684 36.0223 41.5708 35.2655 41.4311C35.2014 41.4217 35.1399 41.3994 35.0846 41.3656C35.0293 41.3318 34.9814 41.2873 34.9438 41.2346C34.9061 41.1819 34.8795 41.1221 34.8654 41.0589C34.8514 40.9956 34.8503 40.9302 34.8621 40.8665C34.8739 40.8029 34.8985 40.7422 34.9343 40.6882C34.9701 40.6343 35.0164 40.5881 35.0705 40.5524C35.1245 40.5167 35.1853 40.4923 35.249 40.4807C35.3127 40.469 35.3781 40.4703 35.4413 40.4845C36.1764 40.6194 36.9209 40.7302 37.6537 40.8121C37.7769 40.8244 37.8906 40.8837 37.9712 40.9777C38.0518 41.0717 38.0932 41.1931 38.0867 41.3167C38.0802 41.4404 38.0263 41.5568 37.9363 41.6418C37.8462 41.7267 37.7269 41.7738 37.6031 41.7731ZM39.3841 41.4407C39.3904 41.3134 39.4464 41.1935 39.5402 41.1071C39.6339 41.0206 39.7578 40.9743 39.8853 40.9783C40.625 41.0048 41.377 41.0048 42.1194 40.9759C42.1826 40.9735 42.2457 40.9836 42.3051 41.0056C42.3644 41.0276 42.4189 41.0611 42.4653 41.1042C42.5117 41.1472 42.5492 41.199 42.5756 41.2566C42.602 41.3141 42.6168 41.3763 42.6192 41.4395C42.6215 41.5028 42.6114 41.5659 42.5894 41.6253C42.5674 41.6846 42.5339 41.7391 42.4908 41.7855C42.4478 41.8319 42.396 41.8694 42.3385 41.8958C42.2809 41.9222 42.2188 41.937 42.1555 41.9393C41.7651 41.9538 41.3698 41.961 40.9793 41.961C40.6033 41.961 40.2228 41.9538 39.8492 41.9393C39.7213 41.9348 39.6005 41.8798 39.5131 41.7863C39.4258 41.6929 39.379 41.5686 39.3831 41.4407H39.3841ZM43.9242 41.342C43.9167 41.2791 43.9218 41.2154 43.9391 41.1545C43.9565 41.0936 43.9857 41.0368 44.0252 40.9873C44.0646 40.9378 44.1135 40.8966 44.169 40.8661C44.2244 40.8356 44.2854 40.8164 44.3484 40.8097C45.0833 40.7278 45.828 40.617 46.5607 40.4821C46.6239 40.4679 46.6894 40.4666 46.7531 40.4783C46.8168 40.4899 46.8775 40.5143 46.9316 40.55C46.9856 40.5856 47.0319 40.6319 47.0677 40.6858C47.1036 40.7398 47.1281 40.8005 47.1399 40.8641C47.1518 40.9278 47.1506 40.9932 47.1366 41.0565C47.1226 41.1197 47.0959 41.1795 47.0583 41.2322C47.0206 41.2849 46.9727 41.3294 46.9174 41.3632C46.8622 41.397 46.8007 41.4192 46.7366 41.4287C45.9798 41.5684 45.2136 41.6816 44.4568 41.7659C44.4384 41.7687 44.4199 41.7703 44.4014 41.7707C44.2829 41.7705 44.1687 41.7267 44.0806 41.6476C43.9924 41.5685 43.9365 41.4597 43.9235 41.342H43.9242ZM33.6027 40.5857C33.5761 40.6888 33.516 40.7803 33.4318 40.8457C33.3477 40.911 33.2442 40.9467 33.1376 40.947C33.0961 40.9473 33.0547 40.9416 33.0148 40.9301C32.2823 40.7422 31.5375 40.523 30.8048 40.2822C30.6834 40.2419 30.583 40.155 30.5257 40.0407C30.4683 39.9264 30.4588 39.794 30.499 39.6726C30.5393 39.5513 30.6262 39.4509 30.7405 39.3935C30.8548 39.3362 30.9872 39.3266 31.1086 39.3669C31.8218 39.6005 32.5449 39.8149 33.2583 39.9979C33.3817 40.0304 33.4872 40.1106 33.5516 40.2207C33.616 40.3309 33.6341 40.4622 33.6018 40.5857H33.6027ZM54.6941 35.3974C45.9896 39.3958 37.1693 39.5692 28.4696 35.908V33.6511H53.5992C53.9114 34.2644 54.2775 34.8488 54.6932 35.3974H54.6941ZM54.9776 31.7241C54.9773 31.9795 54.8756 32.2244 54.695 32.405C54.5144 32.5856 54.2696 32.6872 54.0142 32.6876H28.4954C28.5881 31.8786 28.9058 31.1119 29.4125 30.4745C29.9192 29.8371 30.5945 29.3546 31.3617 29.0818V30.7606C31.3617 30.8884 31.4125 31.0109 31.5028 31.1013C31.5931 31.1916 31.7157 31.2424 31.8434 31.2424C31.9712 31.2424 32.0937 31.1916 32.1841 31.1013C32.2744 31.0109 32.3252 30.8884 32.3252 30.7606V28.8602C32.4852 28.8428 32.646 28.834 32.8069 28.8337H35.2168V29.7972C35.2168 29.9249 35.2676 30.0475 35.3579 30.1378C35.4482 30.2281 35.5708 30.2789 35.6985 30.2789C35.8263 30.2789 35.9488 30.2281 36.0392 30.1378C36.1295 30.0475 36.1803 29.9249 36.1803 29.7972V28.8337H39.0733V30.7606C39.0733 30.8884 39.1241 31.0109 39.2144 31.1013C39.3048 31.1916 39.4273 31.2424 39.5551 31.2424C39.6828 31.2424 39.8054 31.1916 39.8957 31.1013C39.9861 31.0109 40.0368 30.8884 40.0368 30.7606V28.8337H42.9272V29.7972C42.9272 29.9249 42.978 30.0475 43.0683 30.1378C43.1587 30.2281 43.2812 30.2789 43.409 30.2789C43.5367 30.2789 43.6593 30.2281 43.7496 30.1378C43.84 30.0475 43.8907 29.9249 43.8907 29.7972V28.8337H46.7826V30.7606C46.7826 30.8884 46.8333 31.0109 46.9237 31.1013C47.014 31.1916 47.1366 31.2424 47.2643 31.2424C47.3921 31.2424 47.5146 31.1916 47.605 31.1013C47.6953 31.0109 47.7461 30.8884 47.7461 30.7606V28.8337H50.6398V29.7972C50.6398 29.9249 50.6906 30.0475 50.7809 30.1378C50.8713 30.2281 50.9938 30.2789 51.1216 30.2789C51.2493 30.2789 51.3719 30.2281 51.4622 30.1378C51.5526 30.0475 51.6033 29.9249 51.6033 29.7972V28.8337H54.0132C54.3518 28.8341 54.6843 28.7443 54.9767 28.5736L54.9776 31.7241ZM27.7626 12.9364H54.2377C53.7148 14.82 52.199 20.6321 52.0424 25.4134C52.0404 25.4293 52.0395 25.4454 52.04 25.4615C52.0145 26.2647 52.0306 27.0687 52.0882 27.8702H29.9122C29.9698 27.0687 29.9859 26.2647 29.9603 25.4615C29.9608 25.4454 29.96 25.4293 29.9579 25.4134C29.8014 20.6321 28.2856 14.82 27.7626 12.9364ZM23.6489 33.1693C23.6505 32.0196 24.108 30.9174 24.9213 30.1046C25.7345 29.2918 26.8369 28.8347 27.9867 28.8337H29.7652C29.4043 29.0846 29.0771 29.3809 28.7916 29.7153C28.7868 29.7177 28.7868 29.7177 28.7868 29.7201C28.7693 29.7381 28.7532 29.7575 28.7386 29.7779C28.7338 29.7827 28.729 29.7851 28.729 29.7899C27.9481 30.7253 27.5162 31.9027 27.5071 33.1211C27.5051 33.1371 27.5043 33.1532 27.5047 33.1693V37.0232H23.6489V33.1693ZM23.5284 42.4982C29.1394 44.6812 33.8385 48.7118 36.8504 53.9249C36.8716 53.9855 36.9034 54.0418 36.9443 54.0911C36.9467 54.0936 36.9491 54.0936 36.9491 54.096C38.7542 57.2947 40.1158 61.2931 40.5157 66.2598C40.4506 67.086 40.4129 67.9387 40.4025 68.8178H29.8447C23.4651 58.6941 21.35 49.8591 23.5284 42.4982ZM52.1556 68.8178H41.3664C41.3785 67.9531 41.4146 67.1149 41.482 66.3032C41.4803 66.2903 41.4812 66.2772 41.4844 66.2646C41.8797 61.2931 43.2428 57.2923 45.0438 54.0911C45.0483 54.0887 45.0524 54.0854 45.0558 54.0815C45.1126 54.0225 45.1525 53.9493 45.1714 53.8696C48.1865 48.6823 52.8747 44.6735 58.4673 42.5006C60.6407 49.876 58.5321 58.6941 52.1556 68.8178Z" fill="#008CCF"/>
<rect x="5.20154" y="67.5769" width="68.3621" height="15.5412" fill="#008CCF"/>
</g>
</svg>
