<svg width="86" height="86" viewBox="0 0 86 86" fill="none" xmlns="http://www.w3.org/2000/svg">
<circle cx="43" cy="43.3595" r="41.4787" fill="white" stroke="white" stroke-width="2"/>
<mask id="mask0" mask-type="alpha" maskUnits="userSpaceOnUse" x="1" y="1" width="84" height="84">
<circle cx="43" cy="43.3595" r="40.9787" fill="white" stroke="white"/>
</mask>
<g mask="url(#mask0)">
<rect x="-4.40552" y="14.4553" width="96.2412" height="71.1452" fill="#008CCF"/>
<path d="M61.4965 44.2556C61.4936 44.24 61.4896 44.2247 61.4845 44.2098C61.4815 44.1998 61.4775 44.1901 61.4724 44.1809C60.7126 41.8745 59.5669 39.7137 58.0841 37.7907C58.0778 37.784 58.0721 37.7768 58.0673 37.769V37.7666C57.9878 37.6654 57.9107 37.5642 57.8312 37.4655L57.8023 37.4269C57.4554 36.9874 57.1451 36.5201 56.8745 36.0299C57.2547 35.8995 57.5848 35.6538 57.8188 35.327C58.0528 35.0002 58.1791 34.6085 58.18 34.2065V29.3892C58.1804 29.3731 58.1796 29.357 58.1776 29.341C58.165 28.8386 57.9567 28.361 57.597 28.01C57.2373 27.659 56.7547 27.4624 56.2521 27.4622H55.2616C55.5437 21.9054 57.5535 15.1442 57.574 15.0744C57.5963 15.0029 57.6011 14.9271 57.5882 14.8533C57.5752 14.7796 57.5447 14.71 57.4993 14.6504C57.4549 14.5899 57.3969 14.5407 57.33 14.5068C57.263 14.4729 57.189 14.4552 57.1139 14.4553H29.3625C29.2876 14.4555 29.2138 14.4732 29.147 14.507C29.0801 14.5407 29.0221 14.5895 28.9774 14.6496C28.9327 14.7097 28.9027 14.7794 28.8896 14.8531C28.8766 14.9268 28.8809 15.0026 28.9022 15.0744C28.9239 15.1442 30.9337 21.903 31.2145 27.4622H28.7791C28.6515 27.4626 28.5292 27.5135 28.4389 27.6037C28.3486 27.694 28.2978 27.8163 28.2974 27.944V30.7188C27.3041 31.1063 26.4507 31.7843 25.8488 32.6644C25.2469 33.5444 24.9243 34.5855 24.9233 35.6517V41.9143C24.9237 42.042 24.9746 42.1643 25.0648 42.2545C25.1551 42.3448 25.2774 42.3957 25.405 42.3961H25.6775C25.4246 42.979 25.2003 43.5739 25.0052 44.1761C24.9989 44.1866 24.9941 44.198 24.9907 44.2098C24.9856 44.2247 24.9816 44.24 24.9787 44.2556C22.4737 52.0356 24.6316 61.3669 31.4099 72.0397C31.4536 72.1082 31.5137 72.1646 31.5849 72.2038C31.6561 72.2429 31.736 72.2635 31.8172 72.2637H54.6583C54.7395 72.2635 54.8194 72.2429 54.8905 72.2038C54.9617 72.1646 55.0219 72.1082 55.0656 72.0397C61.8525 61.3524 64.0016 52.0428 61.4965 44.2556ZM43.2363 65.057C42.7545 62.411 41.9104 59.8441 40.7276 57.4287C41.5228 57.7641 42.3776 57.9353 43.2407 57.932C44.1037 57.9287 44.9572 57.7509 45.7498 57.4094C44.564 59.8308 43.7182 62.4043 43.2363 65.057ZM25.8873 41.4326V40.4691H29.7431V41.4326H25.8873ZM57.706 41.0641C57.0048 41.3916 56.2962 41.6975 55.595 41.9769C55.5386 42.0007 55.478 42.0129 55.4168 42.0131C55.3204 42.0125 55.2264 41.9834 55.1466 41.9294C55.0668 41.8754 55.0048 41.7989 54.9685 41.7096C54.945 41.6507 54.9334 41.5878 54.9343 41.5245C54.9352 41.4612 54.9485 41.3986 54.9736 41.3405C54.9987 41.2823 55.035 41.2296 55.0805 41.1855C55.1259 41.1414 55.1796 41.1067 55.2385 41.0833C55.9204 40.8111 56.6146 40.5101 57.2965 40.1897C57.4124 40.1354 57.5452 40.1294 57.6656 40.173C57.786 40.2166 57.8841 40.3062 57.9384 40.4221C57.9927 40.5381 57.9987 40.6709 57.9551 40.7912C57.9115 40.9116 57.8219 41.0098 57.706 41.0641ZM53.4332 42.7646C52.7005 43.0055 51.956 43.2246 51.2232 43.4125C51.1842 43.4242 51.1436 43.4299 51.1028 43.4294C50.985 43.4302 50.8709 43.3878 50.7822 43.3102C50.6935 43.2326 50.6364 43.1252 50.6215 43.0083C50.6067 42.8914 50.6352 42.7731 50.7017 42.6758C50.7682 42.5785 50.8681 42.509 50.9824 42.4804C51.6958 42.2973 52.4187 42.0853 53.1321 41.8493C53.2535 41.8093 53.3858 41.8192 53.4999 41.8768C53.6139 41.9344 53.7005 42.0349 53.7404 42.1563C53.7804 42.2776 53.7705 42.4099 53.7129 42.524C53.6554 42.6381 53.5548 42.7246 53.4335 42.7646H53.4332ZM39.8415 44.2556C39.8222 44.2556 39.8054 44.2532 39.7861 44.2532C39.0295 44.1664 38.2607 44.0532 37.5039 43.9135C37.4398 43.9041 37.3783 43.8818 37.323 43.848C37.2677 43.8143 37.2198 43.7697 37.1822 43.717C37.1445 43.6643 37.1179 43.6045 37.1038 43.5413C37.0898 43.4781 37.0887 43.4126 37.1005 43.349C37.1123 43.2853 37.1369 43.2246 37.1727 43.1707C37.2085 43.1167 37.2548 43.0705 37.3089 43.0348C37.363 42.9991 37.4237 42.9748 37.4874 42.9631C37.5511 42.9514 37.6165 42.9527 37.6797 42.9669C38.4148 43.1018 39.1593 43.2126 39.8921 43.2945C40.0153 43.3068 40.129 43.3662 40.2096 43.4601C40.2903 43.5541 40.3316 43.6755 40.3251 43.7992C40.3186 43.9228 40.2647 44.0392 40.1747 44.1242C40.0846 44.2092 39.9653 44.2562 39.8415 44.2556ZM41.6225 43.9232C41.6288 43.7958 41.6848 43.676 41.7786 43.5895C41.8723 43.503 41.9962 43.4568 42.1237 43.4607C42.8634 43.4872 43.6154 43.4872 44.3578 43.4583C44.421 43.4559 44.4841 43.466 44.5435 43.488C44.6029 43.5101 44.6573 43.5436 44.7037 43.5866C44.7501 43.6297 44.7876 43.6814 44.814 43.739C44.8404 43.7965 44.8552 43.8587 44.8576 43.922C44.8599 43.9852 44.8498 44.0483 44.8278 44.1077C44.8058 44.167 44.7723 44.2215 44.7292 44.2679C44.6862 44.3143 44.6344 44.3518 44.5769 44.3782C44.5193 44.4046 44.4572 44.4194 44.3939 44.4218C44.0035 44.4362 43.6082 44.4434 43.2177 44.4434C42.8417 44.4434 42.4612 44.4362 42.0876 44.4218C41.9597 44.4172 41.8389 44.3622 41.7515 44.2688C41.6642 44.1753 41.6174 44.051 41.6215 43.9232H41.6225ZM46.1626 43.8244C46.1551 43.7615 46.1602 43.6978 46.1775 43.6369C46.1949 43.5761 46.2241 43.5192 46.2636 43.4697C46.303 43.4202 46.3519 43.379 46.4074 43.3485C46.4628 43.318 46.5238 43.2988 46.5868 43.2921C47.3217 43.2102 48.0664 43.0994 48.7991 42.9645C48.8623 42.9503 48.9278 42.949 48.9915 42.9607C49.0552 42.9723 49.1159 42.9967 49.17 43.0324C49.224 43.0681 49.2703 43.1143 49.3062 43.1683C49.342 43.2222 49.3665 43.2829 49.3783 43.3466C49.3902 43.4102 49.389 43.4757 49.375 43.5389C49.361 43.6021 49.3343 43.6619 49.2967 43.7146C49.259 43.7673 49.2111 43.8119 49.1558 43.8456C49.1006 43.8794 49.0391 43.9017 48.975 43.9111C48.2182 44.0508 47.452 44.164 46.6952 44.2483C46.6768 44.2511 46.6583 44.2527 46.6398 44.2532C46.5213 44.2529 46.4071 44.2091 46.319 44.13C46.2308 44.0509 46.1749 43.9421 46.1619 43.8244H46.1626ZM35.8411 43.0681C35.8145 43.1713 35.7544 43.2627 35.6702 43.3281C35.5861 43.3935 35.4826 43.4291 35.376 43.4294C35.3345 43.4297 35.2931 43.424 35.2532 43.4125C34.5207 43.2246 33.7759 43.0055 33.0432 42.7646C32.9218 42.7243 32.8214 42.6375 32.7641 42.5232C32.7067 42.4088 32.6972 42.2764 32.7374 42.1551C32.7777 42.0337 32.8646 41.9333 32.9789 41.8759C33.0932 41.8186 33.2256 41.809 33.347 41.8493C34.0602 42.0829 34.7833 42.2973 35.4967 42.4804C35.6201 42.5128 35.7256 42.593 35.79 42.7032C35.8544 42.8134 35.8725 42.9446 35.8402 43.0681H35.8411ZM56.9325 37.8798C48.228 41.8782 39.4077 42.0516 30.708 38.3904V36.1335H55.8376C56.1498 36.7468 56.5159 37.3312 56.9316 37.8798H56.9325ZM57.216 34.2065C57.2157 34.4619 57.114 34.7068 56.9334 34.8874C56.7528 35.068 56.508 35.1696 56.2526 35.17H30.7338C30.8265 34.361 31.1442 33.5943 31.6509 32.9569C32.1576 32.3195 32.8329 31.837 33.6001 31.5642V33.2431C33.6001 33.3708 33.6509 33.4934 33.7412 33.5837C33.8315 33.674 33.9541 33.7248 34.0818 33.7248C34.2096 33.7248 34.3321 33.674 34.4225 33.5837C34.5128 33.4934 34.5636 33.3708 34.5636 33.2431V31.3426C34.7236 31.3253 34.8844 31.3164 35.0453 31.3161H37.4552V32.2796C37.4552 32.4073 37.506 32.5299 37.5963 32.6202C37.6866 32.7106 37.8092 32.7613 37.9369 32.7613C38.0647 32.7613 38.1872 32.7106 38.2776 32.6202C38.3679 32.5299 38.4187 32.4073 38.4187 32.2796V31.3161H41.3117V33.2431C41.3117 33.3708 41.3625 33.4934 41.4528 33.5837C41.5432 33.674 41.6657 33.7248 41.7935 33.7248C41.9212 33.7248 42.0438 33.674 42.1341 33.5837C42.2245 33.4934 42.2752 33.3708 42.2752 33.2431V31.3161H45.1656V32.2796C45.1656 32.4073 45.2164 32.5299 45.3067 32.6202C45.3971 32.7106 45.5196 32.7613 45.6474 32.7613C45.7751 32.7613 45.8977 32.7106 45.988 32.6202C46.0784 32.5299 46.1291 32.4073 46.1291 32.2796V31.3161H49.021V33.2431C49.021 33.3708 49.0717 33.4934 49.1621 33.5837C49.2524 33.674 49.375 33.7248 49.5027 33.7248C49.6305 33.7248 49.753 33.674 49.8434 33.5837C49.9337 33.4934 49.9845 33.3708 49.9845 33.2431V31.3161H52.8783V32.2796C52.8783 32.4073 52.929 32.5299 53.0193 32.6202C53.1097 32.7106 53.2322 32.7613 53.36 32.7613C53.4878 32.7613 53.6103 32.7106 53.7006 32.6202C53.791 32.5299 53.8417 32.4073 53.8417 32.2796V31.3161H56.2516C56.5902 31.3165 56.9227 31.2267 57.2151 31.056L57.216 34.2065ZM30.0011 15.4188H56.4761C55.9532 17.3024 54.4374 23.1145 54.2808 27.8958C54.2788 27.9117 54.278 27.9279 54.2784 27.944C54.2529 28.7471 54.269 29.5511 54.3266 30.3526H32.1506C32.2082 29.5511 32.2243 28.7471 32.1987 27.944C32.1992 27.9279 32.1984 27.9117 32.1963 27.8958C32.0398 23.1145 30.524 17.3024 30.0011 15.4188ZM25.8873 35.6517C25.8889 34.502 26.3465 33.3998 27.1597 32.587C27.9729 31.7742 29.0753 31.3171 30.2251 31.3161H32.0036C31.6427 31.5671 31.3155 31.8634 31.03 32.1977C31.0252 32.2001 31.0252 32.2001 31.0252 32.2025C31.0078 32.2206 30.9917 32.2399 30.9771 32.2603C30.9722 32.2651 30.9674 32.2675 30.9674 32.2724C30.1865 33.2077 29.7546 34.3851 29.7455 35.6036C29.7435 35.6195 29.7427 35.6356 29.7431 35.6517V39.5056H25.8873V35.6517ZM25.7668 44.9806C31.3778 47.1636 36.0769 51.1942 39.0888 56.4074C39.11 56.4679 39.1418 56.5242 39.1827 56.5736C39.1851 56.576 39.1875 56.576 39.1875 56.5784C40.9926 59.7771 42.3542 63.7755 42.7541 68.7422C42.689 69.5684 42.6513 70.4211 42.6409 71.3003H32.0831C25.7035 61.1766 23.5884 52.3415 25.7668 44.9806ZM54.394 71.3003H43.6048C43.6169 70.4355 43.653 69.5973 43.7204 68.7856C43.7187 68.7727 43.7196 68.7596 43.7228 68.7471C44.1181 63.7755 45.4812 59.7747 47.2822 56.5736C47.2867 56.5711 47.2908 56.5679 47.2942 56.5639C47.351 56.5049 47.3909 56.4317 47.4098 56.352C50.4249 51.1647 55.1131 47.1559 60.7057 44.983C62.8791 52.3584 60.7705 61.1766 54.394 71.3003Z" fill="white"/>
</g>
</svg>
