<svg width="84" height="84" viewBox="0 0 84 84" fill="none" xmlns="http://www.w3.org/2000/svg">
<circle cx="42.2539" cy="41.8771" r="40.9787" fill="white" stroke="white"/>
<mask id="mask0" mask-type="alpha" maskUnits="userSpaceOnUse" x="1" y="1" width="82" height="82">
<circle cx="42.2539" cy="41.8771" r="40.4787" fill="white"/>
</mask>
<g mask="url(#mask0)">
<rect x="1.77521" y="19.801" width="80.9573" height="64.317" fill="#008CCF"/>
<path d="M61.0045 42.7731C61.0016 42.7576 60.9975 42.7423 60.9924 42.7274C60.9894 42.7173 60.9854 42.7077 60.9804 42.6985C60.2205 40.3921 59.0748 38.2313 57.5921 36.3082C57.5857 36.3016 57.5801 36.2943 57.5752 36.2866V36.2841C57.4957 36.183 57.4186 36.0818 57.3392 35.9831L57.3103 35.9445C56.9634 35.5049 56.6531 35.0377 56.3824 34.5475C56.7627 34.4171 57.0928 34.1714 57.3268 33.8446C57.5608 33.5177 57.687 33.1261 57.6879 32.7241V27.9067C57.6883 27.8906 57.6875 27.8745 57.6855 27.8586C57.673 27.3562 57.4646 26.8785 57.1049 26.5276C56.7452 26.1766 56.2626 25.98 55.76 25.9798H54.7696C55.0516 20.423 57.0614 13.6618 57.0819 13.5919C57.1042 13.5204 57.1091 13.4446 57.0961 13.3709C57.0831 13.2971 57.0526 13.2276 57.0072 13.168C56.9629 13.1075 56.9049 13.0582 56.8379 13.0243C56.7709 12.9904 56.6969 12.9728 56.6219 12.9729H28.8704C28.7956 12.9731 28.7218 12.9908 28.6549 13.0245C28.5881 13.0583 28.53 13.1071 28.4853 13.1672C28.4406 13.2273 28.4106 13.2969 28.3975 13.3707C28.3845 13.4444 28.3888 13.5202 28.4101 13.5919C28.4318 13.6618 30.4416 20.4206 30.7225 25.9798H28.2871C28.1594 25.9802 28.0371 26.0311 27.9468 26.1213C27.8566 26.2116 27.8057 26.3339 27.8053 26.4615V29.2363C26.812 29.6238 25.9587 30.3019 25.3567 31.1819C24.7548 32.062 24.4323 33.1031 24.4312 34.1693V40.4319C24.4316 40.5595 24.4825 40.6819 24.5728 40.7721C24.663 40.8624 24.7853 40.9133 24.913 40.9136H25.1854C24.9325 41.4965 24.7082 42.0915 24.5131 42.6937C24.5069 42.7042 24.502 42.7156 24.4987 42.7274C24.4935 42.7423 24.4895 42.7576 24.4866 42.7731C21.9816 50.5532 24.1395 59.8844 30.9178 70.5573C30.9615 70.6258 31.0217 70.6822 31.0929 70.7214C31.164 70.7605 31.2439 70.7811 31.3251 70.7813H54.1662C54.2474 70.7811 54.3273 70.7605 54.3985 70.7214C54.4697 70.6822 54.5298 70.6258 54.5735 70.5573C61.3605 59.87 63.5095 50.5604 61.0045 42.7731ZM42.7442 63.5745C42.2625 60.9286 41.4183 58.3617 40.2356 55.9462C41.0308 56.2817 41.8856 56.4529 42.7486 56.4496C43.6116 56.4463 44.4651 56.2685 45.2577 55.927C44.0719 58.3484 43.2261 60.9218 42.7442 63.5745ZM25.3952 39.9502V38.9867H29.251V39.9502H25.3952ZM57.2139 39.5816C56.5127 39.9092 55.8041 40.2151 55.1029 40.4945C55.0465 40.5182 54.9859 40.5305 54.9247 40.5307C54.8283 40.5301 54.7343 40.501 54.6545 40.447C54.5747 40.3929 54.5127 40.3164 54.4764 40.2272C54.453 40.1683 54.4414 40.1054 54.4422 40.0421C54.4431 39.9787 54.4565 39.9162 54.4816 39.858C54.5066 39.7999 54.5429 39.7472 54.5884 39.7031C54.6338 39.659 54.6876 39.6242 54.7465 39.6009C55.4284 39.3287 56.1225 39.0276 56.8044 38.7073C56.9204 38.653 57.0531 38.647 57.1735 38.6906C57.2939 38.7341 57.392 38.8238 57.4463 38.9397C57.5006 39.0557 57.5067 39.1884 57.4631 39.3088C57.4195 39.4292 57.3299 39.5273 57.2139 39.5816ZM52.9411 41.2822C52.2084 41.523 51.4639 41.7422 50.7312 41.9301C50.6921 41.9418 50.6515 41.9474 50.6107 41.947C50.4929 41.9478 50.3789 41.9054 50.2902 41.8278C50.2015 41.7502 50.1443 41.6428 50.1295 41.5259C50.1146 41.409 50.1432 41.2907 50.2097 41.1934C50.2762 41.0961 50.376 41.0266 50.4903 40.9979C51.2038 40.8149 51.9266 40.6029 52.6401 40.3669C52.7614 40.3269 52.8937 40.3368 53.0078 40.3944C53.1219 40.4519 53.2084 40.5525 53.2484 40.6739C53.2883 40.7952 53.2784 40.9275 53.2209 41.0416C53.1633 41.1557 53.0628 41.2422 52.9414 41.2822H52.9411ZM39.3494 42.7731C39.3302 42.7731 39.3133 42.7707 39.294 42.7707C38.5375 42.684 37.7686 42.5708 37.0118 42.4311C36.9477 42.4217 36.8862 42.3994 36.8309 42.3656C36.7757 42.3318 36.7278 42.2873 36.6901 42.2346C36.6524 42.1819 36.6258 42.1221 36.6118 42.0589C36.5977 41.9956 36.5966 41.9302 36.6084 41.8665C36.6203 41.8029 36.6448 41.7422 36.6806 41.6882C36.7164 41.6343 36.7627 41.5881 36.8168 41.5524C36.8709 41.5167 36.9316 41.4923 36.9953 41.4807C37.059 41.469 37.1244 41.4703 37.1876 41.4845C37.9228 41.6194 38.6673 41.7302 39.4 41.8121C39.5232 41.8244 39.6369 41.8837 39.7176 41.9777C39.7982 42.0717 39.8395 42.1931 39.833 42.3167C39.8265 42.4404 39.7727 42.5568 39.6826 42.6418C39.5926 42.7267 39.4732 42.7738 39.3494 42.7731ZM41.1304 42.4407C41.1367 42.3134 41.1928 42.1935 41.2865 42.1071C41.3802 42.0206 41.5042 41.9743 41.6317 41.9783C42.3714 42.0048 43.1233 42.0048 43.8657 41.9759C43.929 41.9735 43.9921 41.9836 44.0514 42.0056C44.1108 42.0276 44.1652 42.0611 44.2116 42.1042C44.258 42.1472 44.2955 42.199 44.3219 42.2566C44.3483 42.3141 44.3631 42.3763 44.3655 42.4395C44.3679 42.5028 44.3578 42.5659 44.3357 42.6253C44.3137 42.6846 44.2802 42.7391 44.2372 42.7855C44.1941 42.8319 44.1424 42.8694 44.0848 42.8958C44.0273 42.9222 43.9651 42.937 43.9018 42.9393C43.5114 42.9538 43.1161 42.961 42.7257 42.961C42.3497 42.961 41.9691 42.9538 41.5955 42.9393C41.4677 42.9348 41.3468 42.8798 41.2595 42.7863C41.1721 42.6929 41.1253 42.5686 41.1294 42.4407H41.1304ZM45.6705 42.342C45.6631 42.2791 45.6681 42.2154 45.6855 42.1545C45.7028 42.0936 45.732 42.0368 45.7715 41.9873C45.8109 41.9378 45.8598 41.8966 45.9153 41.8661C45.9708 41.8356 46.0318 41.8164 46.0947 41.8097C46.8296 41.7278 47.5744 41.617 48.3071 41.4821C48.3703 41.4679 48.4357 41.4666 48.4994 41.4783C48.5631 41.4899 48.6238 41.5143 48.6779 41.55C48.732 41.5856 48.7783 41.6319 48.8141 41.6858C48.8499 41.7398 48.8744 41.8005 48.8863 41.8641C48.8981 41.9278 48.897 41.9932 48.8829 42.0565C48.8689 42.1197 48.8423 42.1795 48.8046 42.2322C48.767 42.2849 48.7191 42.3294 48.6638 42.3632C48.6085 42.397 48.547 42.4192 48.4829 42.4287C47.7261 42.5684 46.9599 42.6816 46.2031 42.7659C46.1847 42.7687 46.1662 42.7703 46.1477 42.7707C46.0293 42.7705 45.9151 42.7267 45.8269 42.6476C45.7388 42.5685 45.6828 42.4597 45.6698 42.342H45.6705ZM35.3491 41.5857C35.3224 41.6888 35.2623 41.7803 35.1782 41.8457C35.094 41.911 34.9905 41.9467 34.884 41.947C34.8424 41.9473 34.8011 41.9416 34.7611 41.9301C34.0286 41.7422 33.2839 41.523 32.5512 41.2822C32.4298 41.2419 32.3294 41.155 32.272 41.0407C32.2147 40.9264 32.2051 40.794 32.2454 40.6726C32.2856 40.5513 32.3725 40.4509 32.4868 40.3935C32.6011 40.3362 32.7335 40.3266 32.8549 40.3669C33.5681 40.6005 34.2912 40.8149 35.0046 40.9979C35.1281 41.0304 35.2336 41.1106 35.298 41.2207C35.3624 41.3309 35.3804 41.4622 35.3481 41.5857H35.3491ZM56.4405 36.3974C47.736 40.3958 38.9156 40.5692 30.2159 36.908V34.6511H55.3455C55.6577 35.2644 56.0238 35.8488 56.4395 36.3974H56.4405ZM56.724 32.7241C56.7236 32.9795 56.622 33.2244 56.4414 33.405C56.2608 33.5856 56.0159 33.6872 55.7605 33.6876H30.2417C30.3344 32.8786 30.6522 32.1119 31.1589 31.4745C31.6655 30.8371 32.3408 30.3546 33.108 30.0818V31.7606C33.108 31.8884 33.1588 32.0109 33.2491 32.1013C33.3395 32.1916 33.462 32.2424 33.5898 32.2424C33.7175 32.2424 33.8401 32.1916 33.9304 32.1013C34.0208 32.0109 34.0715 31.8884 34.0715 31.7606V29.8602C34.2315 29.8428 34.3923 29.834 34.5533 29.8337H36.9631V30.7972C36.9631 30.9249 37.0139 31.0475 37.1042 31.1378C37.1946 31.2281 37.3171 31.2789 37.4449 31.2789C37.5726 31.2789 37.6952 31.2281 37.7855 31.1378C37.8759 31.0475 37.9266 30.9249 37.9266 30.7972V29.8337H40.8197V31.7606C40.8197 31.8884 40.8704 32.0109 40.9608 32.1013C41.0511 32.1916 41.1737 32.2424 41.3014 32.2424C41.4292 32.2424 41.5517 32.1916 41.6421 32.1013C41.7324 32.0109 41.7832 31.8884 41.7832 31.7606V29.8337H44.6736V30.7972C44.6736 30.9249 44.7243 31.0475 44.8147 31.1378C44.905 31.2281 45.0275 31.2789 45.1553 31.2789C45.2831 31.2789 45.4056 31.2281 45.496 31.1378C45.5863 31.0475 45.6371 30.9249 45.6371 30.7972V29.8337H48.5289V31.7606C48.5289 31.8884 48.5797 32.0109 48.67 32.1013C48.7604 32.1916 48.8829 32.2424 49.0107 32.2424C49.1384 32.2424 49.261 32.1916 49.3513 32.1013C49.4416 32.0109 49.4924 31.8884 49.4924 31.7606V29.8337H52.3862V30.7972C52.3862 30.9249 52.4369 31.0475 52.5273 31.1378C52.6176 31.2281 52.7402 31.2789 52.8679 31.2789C52.9957 31.2789 53.1182 31.2281 53.2086 31.1378C53.2989 31.0475 53.3497 30.9249 53.3497 30.7972V29.8337H55.7595C56.0981 29.8341 56.4307 29.7443 56.723 29.5736L56.724 32.7241ZM29.509 13.9364H55.984C55.4611 15.82 53.9453 21.6321 53.7888 26.4134C53.7867 26.4293 53.7859 26.4454 53.7864 26.4615C53.7608 27.2647 53.7769 28.0687 53.8345 28.8702H31.6585C31.7161 28.0687 31.7322 27.2647 31.7067 26.4615C31.7071 26.4454 31.7063 26.4293 31.7043 26.4134C31.5477 21.6321 30.0319 15.82 29.509 13.9364ZM25.3952 34.1693C25.3968 33.0196 25.8544 31.9174 26.6676 31.1046C27.4808 30.2918 28.5832 29.8347 29.733 29.8337H31.5116C31.1506 30.0846 30.8234 30.3809 30.538 30.7153C30.5332 30.7177 30.5332 30.7177 30.5332 30.7201C30.5157 30.7381 30.4996 30.7575 30.485 30.7779C30.4802 30.7827 30.4754 30.7851 30.4754 30.7899C29.6944 31.7253 29.2625 32.9027 29.2534 34.1211C29.2514 34.1371 29.2506 34.1532 29.251 34.1693V38.0232H25.3952V34.1693ZM25.2748 43.4982C30.8857 45.6812 35.5848 49.7118 38.5967 54.9249C38.6179 54.9855 38.6497 55.0418 38.6906 55.0911C38.6931 55.0936 38.6955 55.0936 38.6955 55.096C40.5005 58.2947 41.8622 62.2931 42.262 67.2598C42.197 68.086 42.1592 68.9387 42.1488 69.8178H31.5911C25.2114 59.6941 23.0963 50.8591 25.2748 43.4982ZM53.902 69.8178H43.1128C43.1248 68.9531 43.1609 68.1149 43.2284 67.3032C43.2267 67.2903 43.2275 67.2772 43.2308 67.2646C43.626 62.2931 44.9891 58.2923 46.7901 55.0911C46.7947 55.0887 46.7987 55.0854 46.8021 55.0815C46.859 55.0225 46.8989 54.9493 46.9177 54.8696C49.9328 49.6823 54.6211 45.6735 60.2137 43.5006C62.387 50.876 60.2785 59.6941 53.902 69.8178Z" fill="white"/>
<path d="M61.0045 42.7731C61.0016 42.7576 60.9976 42.7423 60.9925 42.7274C60.9895 42.7173 60.9855 42.7077 60.9804 42.6985C60.2206 40.3921 59.0749 38.2313 57.5921 36.3082C57.5858 36.3016 57.5801 36.2943 57.5753 36.2866V36.2841C57.4958 36.183 57.4187 36.0818 57.3392 35.9831L57.3103 35.9445C56.9634 35.5049 56.6531 35.0377 56.3825 34.5475C56.7627 34.4171 57.0928 34.1714 57.3268 33.8446C57.5608 33.5177 57.6871 33.1261 57.688 32.7241V27.9067C57.6884 27.8906 57.6876 27.8745 57.6856 27.8586C57.673 27.3562 57.4647 26.8785 57.105 26.5276C56.7453 26.1766 56.2627 25.98 55.7601 25.9798H54.7696C55.0517 20.423 57.0615 13.6618 57.082 13.5919C57.1043 13.5204 57.1091 13.4446 57.0961 13.3709C57.0832 13.2971 57.0527 13.2276 57.0073 13.168C56.9629 13.1075 56.9049 13.0582 56.838 13.0243C56.771 12.9904 56.697 12.9728 56.6219 12.9729H28.8705C28.7956 12.9731 28.7218 12.9908 28.655 13.0245C28.5881 13.0583 28.5301 13.1071 28.4854 13.1672C28.4407 13.2273 28.4107 13.2969 28.3976 13.3707C28.3846 13.4444 28.3889 13.5202 28.4102 13.5919C28.4319 13.6618 30.4417 20.4206 30.7225 25.9798H28.2871C28.1595 25.9802 28.0372 26.0311 27.9469 26.1213C27.8566 26.2116 27.8058 26.3339 27.8054 26.4615V29.2363C26.8121 29.6238 25.9587 30.3019 25.3568 31.1819C24.7549 32.062 24.4323 33.1031 24.4313 34.1693V40.4319C24.4317 40.5595 24.4826 40.6819 24.5728 40.7721C24.6631 40.8624 24.7854 40.9133 24.913 40.9136H25.1855C24.9325 41.4965 24.7083 42.0915 24.5132 42.6937C24.5069 42.7042 24.5021 42.7156 24.4987 42.7274C24.4936 42.7423 24.4896 42.7576 24.4867 42.7731C21.9817 50.5532 24.1396 59.8844 30.9179 70.5573C30.9616 70.6258 31.0217 70.6822 31.0929 70.7214C31.1641 70.7605 31.244 70.7811 31.3252 70.7813H54.1663C54.2475 70.7811 54.3274 70.7605 54.3985 70.7214C54.4697 70.6822 54.5299 70.6258 54.5736 70.5573C61.3605 59.87 63.5095 50.5604 61.0045 42.7731ZM42.7443 63.5745C42.2625 60.9286 41.4184 58.3617 40.2356 55.9462C41.0308 56.2817 41.8856 56.4529 42.7487 56.4496C43.6117 56.4463 44.4652 56.2685 45.2577 55.927C44.072 58.3484 43.2262 60.9218 42.7443 63.5745ZM25.3953 39.9502V38.9867H29.2511V39.9502H25.3953ZM57.214 39.5816C56.5128 39.9092 55.8042 40.2151 55.103 40.4945C55.0466 40.5182 54.986 40.5305 54.9248 40.5307C54.8284 40.5301 54.7344 40.501 54.6546 40.447C54.5748 40.3929 54.5128 40.3164 54.4765 40.2272C54.453 40.1683 54.4414 40.1054 54.4423 40.0421C54.4432 39.9787 54.4565 39.9162 54.4816 39.858C54.5067 39.7999 54.543 39.7472 54.5885 39.7031C54.6339 39.659 54.6876 39.6242 54.7465 39.6009C55.4284 39.3287 56.1226 39.0276 56.8045 38.7073C56.9204 38.653 57.0532 38.647 57.1736 38.6906C57.294 38.7341 57.3921 38.8238 57.4464 38.9397C57.5007 39.0557 57.5067 39.1884 57.4631 39.3088C57.4195 39.4292 57.3299 39.5273 57.214 39.5816ZM52.9412 41.2822C52.2085 41.523 51.464 41.7422 50.7312 41.9301C50.6922 41.9418 50.6516 41.9474 50.6108 41.947C50.493 41.9478 50.3789 41.9054 50.2902 41.8278C50.2015 41.7502 50.1444 41.6428 50.1295 41.5259C50.1147 41.409 50.1432 41.2907 50.2097 41.1934C50.2762 41.0961 50.3761 41.0266 50.4904 40.9979C51.2038 40.8149 51.9267 40.6029 52.6401 40.3669C52.7615 40.3269 52.8938 40.3368 53.0079 40.3944C53.1219 40.4519 53.2085 40.5525 53.2484 40.6739C53.2884 40.7952 53.2785 40.9275 53.2209 41.0416C53.1634 41.1557 53.0628 41.2422 52.9414 41.2822H52.9412ZM39.3495 42.7731C39.3302 42.7731 39.3134 42.7707 39.2941 42.7707C38.5375 42.684 37.7687 42.5708 37.0119 42.4311C36.9478 42.4217 36.8863 42.3994 36.831 42.3656C36.7757 42.3318 36.7278 42.2873 36.6902 42.2346C36.6525 42.1819 36.6259 42.1221 36.6118 42.0589C36.5978 41.9956 36.5967 41.9302 36.6085 41.8665C36.6203 41.8029 36.6449 41.7422 36.6807 41.6882C36.7165 41.6343 36.7628 41.5881 36.8169 41.5524C36.8709 41.5167 36.9317 41.4923 36.9954 41.4807C37.0591 41.469 37.1245 41.4703 37.1877 41.4845C37.9228 41.6194 38.6673 41.7302 39.4001 41.8121C39.5233 41.8244 39.637 41.8837 39.7176 41.9777C39.7982 42.0717 39.8396 42.1931 39.8331 42.3167C39.8266 42.4404 39.7727 42.5568 39.6827 42.6418C39.5926 42.7267 39.4733 42.7738 39.3495 42.7731ZM41.1305 42.4407C41.1368 42.3134 41.1928 42.1935 41.2866 42.1071C41.3803 42.0206 41.5042 41.9743 41.6317 41.9783C42.3714 42.0048 43.1234 42.0048 43.8658 41.9759C43.929 41.9735 43.9921 41.9836 44.0515 42.0056C44.1108 42.0276 44.1653 42.0611 44.2117 42.1042C44.2581 42.1472 44.2956 42.199 44.322 42.2566C44.3484 42.3141 44.3632 42.3763 44.3656 42.4395C44.3679 42.5028 44.3578 42.5659 44.3358 42.6253C44.3138 42.6846 44.2803 42.7391 44.2372 42.7855C44.1942 42.8319 44.1424 42.8694 44.0849 42.8958C44.0273 42.9222 43.9652 42.937 43.9019 42.9393C43.5114 42.9538 43.1162 42.961 42.7257 42.961C42.3497 42.961 41.9692 42.9538 41.5956 42.9393C41.4677 42.9348 41.3469 42.8798 41.2595 42.7863C41.1722 42.6929 41.1254 42.5686 41.1295 42.4407H41.1305ZM45.6706 42.342C45.6631 42.2791 45.6682 42.2154 45.6855 42.1545C45.7029 42.0936 45.7321 42.0368 45.7716 41.9873C45.811 41.9378 45.8599 41.8966 45.9154 41.8661C45.9708 41.8356 46.0318 41.8164 46.0948 41.8097C46.8297 41.7278 47.5744 41.617 48.3071 41.4821C48.3703 41.4679 48.4358 41.4666 48.4995 41.4783C48.5632 41.4899 48.6239 41.5143 48.678 41.55C48.732 41.5856 48.7783 41.6319 48.8141 41.6858C48.85 41.7398 48.8745 41.8005 48.8863 41.8641C48.8982 41.9278 48.897 41.9932 48.883 42.0565C48.869 42.1197 48.8423 42.1795 48.8047 42.2322C48.767 42.2849 48.7191 42.3294 48.6638 42.3632C48.6086 42.397 48.5471 42.4192 48.483 42.4287C47.7262 42.5684 46.96 42.6816 46.2032 42.7659C46.1848 42.7687 46.1663 42.7703 46.1478 42.7707C46.0293 42.7705 45.9151 42.7267 45.827 42.6476C45.7388 42.5685 45.6829 42.4597 45.6699 42.342H45.6706ZM35.3491 41.5857C35.3225 41.6888 35.2624 41.7803 35.1782 41.8457C35.0941 41.911 34.9906 41.9467 34.884 41.947C34.8425 41.9473 34.8011 41.9416 34.7612 41.9301C34.0287 41.7422 33.2839 41.523 32.5512 41.2822C32.4298 41.2419 32.3294 41.155 32.2721 41.0407C32.2147 40.9264 32.2052 40.794 32.2454 40.6726C32.2857 40.5513 32.3726 40.4509 32.4869 40.3935C32.6012 40.3362 32.7336 40.3266 32.8549 40.3669C33.5682 40.6005 34.2912 40.8149 35.0047 40.9979C35.1281 41.0304 35.2336 41.1106 35.298 41.2207C35.3624 41.3309 35.3805 41.4622 35.3482 41.5857H35.3491ZM56.4405 36.3974C47.736 40.3958 38.9157 40.5692 30.216 36.908V34.6511H55.3456C55.6578 35.2644 56.0239 35.8488 56.4396 36.3974H56.4405ZM56.724 32.7241C56.7237 32.9795 56.622 33.2244 56.4414 33.405C56.2608 33.5856 56.016 33.6872 55.7606 33.6876H30.2418C30.3345 32.8786 30.6522 32.1119 31.1589 31.4745C31.6656 30.8371 32.3409 30.3546 33.1081 30.0818V31.7606C33.1081 31.8884 33.1589 32.0109 33.2492 32.1013C33.3395 32.1916 33.4621 32.2424 33.5898 32.2424C33.7176 32.2424 33.8401 32.1916 33.9305 32.1013C34.0208 32.0109 34.0716 31.8884 34.0716 31.7606V29.8602C34.2316 29.8428 34.3924 29.834 34.5533 29.8337H36.9632V30.7972C36.9632 30.9249 37.014 31.0475 37.1043 31.1378C37.1946 31.2281 37.3172 31.2789 37.4449 31.2789C37.5727 31.2789 37.6952 31.2281 37.7856 31.1378C37.8759 31.0475 37.9267 30.9249 37.9267 30.7972V29.8337H40.8197V31.7606C40.8197 31.8884 40.8705 32.0109 40.9608 32.1013C41.0512 32.1916 41.1737 32.2424 41.3015 32.2424C41.4292 32.2424 41.5518 32.1916 41.6421 32.1013C41.7325 32.0109 41.7832 31.8884 41.7832 31.7606V29.8337H44.6736V30.7972C44.6736 30.9249 44.7244 31.0475 44.8147 31.1378C44.9051 31.2281 45.0276 31.2789 45.1554 31.2789C45.2831 31.2789 45.4057 31.2281 45.496 31.1378C45.5864 31.0475 45.6371 30.9249 45.6371 30.7972V29.8337H48.529V31.7606C48.529 31.8884 48.5797 32.0109 48.6701 32.1013C48.7604 32.1916 48.8829 32.2424 49.0107 32.2424C49.1385 32.2424 49.261 32.1916 49.3514 32.1013C49.4417 32.0109 49.4925 31.8884 49.4925 31.7606V29.8337H52.3862V30.7972C52.3862 30.9249 52.437 31.0475 52.5273 31.1378C52.6177 31.2281 52.7402 31.2789 52.868 31.2789C52.9957 31.2789 53.1183 31.2281 53.2086 31.1378C53.299 31.0475 53.3497 30.9249 53.3497 30.7972V29.8337H55.7596C56.0982 29.8341 56.4307 29.7443 56.7231 29.5736L56.724 32.7241ZM29.509 13.9364H55.9841C55.4612 15.82 53.9454 21.6321 53.7888 26.4134C53.7868 26.4293 53.7859 26.4454 53.7864 26.4615C53.7609 27.2647 53.777 28.0687 53.8346 28.8702H31.6586C31.7162 28.0687 31.7323 27.2647 31.7067 26.4615C31.7072 26.4454 31.7064 26.4293 31.7043 26.4134C31.5478 21.6321 30.032 15.82 29.509 13.9364ZM25.3953 34.1693C25.3969 33.0196 25.8544 31.9174 26.6677 31.1046C27.4809 30.2918 28.5833 29.8347 29.7331 29.8337H31.5116C31.1507 30.0846 30.8235 30.3809 30.538 30.7153C30.5332 30.7177 30.5332 30.7177 30.5332 30.7201C30.5157 30.7381 30.4996 30.7575 30.485 30.7779C30.4802 30.7827 30.4754 30.7851 30.4754 30.7899C29.6945 31.7253 29.2626 32.9027 29.2535 34.1211C29.2515 34.1371 29.2507 34.1532 29.2511 34.1693V38.0232H25.3953V34.1693ZM25.2748 43.4982C30.8858 45.6812 35.5849 49.7118 38.5968 54.9249C38.618 54.9855 38.6498 55.0418 38.6907 55.0911C38.6931 55.0936 38.6955 55.0936 38.6955 55.096C40.5006 58.2947 41.8622 62.2931 42.2621 67.2598C42.197 68.086 42.1593 68.9387 42.1489 69.8178H31.5911C25.2115 59.6941 23.0964 50.8591 25.2748 43.4982ZM53.902 69.8178H43.1128C43.1249 68.9531 43.161 68.1149 43.2284 67.3032C43.2267 67.2903 43.2276 67.2772 43.2308 67.2646C43.6261 62.2931 44.9892 58.2923 46.7901 55.0911C46.7947 55.0887 46.7988 55.0854 46.8022 55.0815C46.859 55.0225 46.8989 54.9493 46.9178 54.8696C49.9329 49.6823 54.6211 45.6735 60.2137 43.5006C62.3871 50.876 60.2785 59.6941 53.902 69.8178Z" fill="white"/>
</g>
</svg>
