<svg width="82" height="82" viewBox="0 0 82 82" fill="none" xmlns="http://www.w3.org/2000/svg">
<circle cx="41.2539" cy="40.8771" r="40.4787" fill="white"/>
<mask id="mask0" mask-type="alpha" maskUnits="userSpaceOnUse" x="0" y="0" width="82" height="82">
<circle cx="41.2539" cy="40.8771" r="40.4787" fill="white"/>
</mask>
<g mask="url(#mask0)">
<path d="M59.2583 41.7731C59.2554 41.7576 59.2514 41.7423 59.2463 41.7274C59.2433 41.7173 59.2392 41.7077 59.2342 41.6985C58.4744 39.3921 57.3287 37.2313 55.8459 35.3082C55.8396 35.3016 55.8339 35.2943 55.8291 35.2866V35.2841C55.7496 35.183 55.6725 35.0818 55.593 34.9831L55.5641 34.9445C55.2172 34.5049 54.9069 34.0377 54.6363 33.5475C55.0165 33.4171 55.3466 33.1714 55.5806 32.8446C55.8146 32.5177 55.9409 32.1261 55.9418 31.7241V26.9067C55.9422 26.8906 55.9414 26.8745 55.9394 26.8586C55.9268 26.3562 55.7185 25.8785 55.3587 25.5276C54.999 25.1766 54.5164 24.98 54.0139 24.9798H53.0234C53.3055 19.423 55.3153 12.6618 55.3358 12.5919C55.3581 12.5204 55.3629 12.4446 55.3499 12.3709C55.3369 12.2971 55.3065 12.2276 55.2611 12.168C55.2167 12.1075 55.1587 12.0582 55.0917 12.0243C55.0248 11.9904 54.9508 11.9728 54.8757 11.9729H27.1243C27.0494 11.9731 26.9756 11.9908 26.9088 12.0245C26.8419 12.0583 26.7838 12.1071 26.7392 12.1672C26.6945 12.2273 26.6644 12.2969 26.6514 12.3707C26.6383 12.4444 26.6427 12.5202 26.664 12.5919C26.6857 12.6618 28.6955 19.4206 28.9763 24.9798H26.5409C26.4133 24.9802 26.2909 25.0311 26.2007 25.1213C26.1104 25.2116 26.0596 25.3339 26.0592 25.4615V28.2363C25.0659 28.6238 24.2125 29.3019 23.6106 30.1819C23.0087 31.062 22.6861 32.1031 22.6851 33.1693V39.4319C22.6855 39.5595 22.7363 39.6819 22.8266 39.7721C22.9169 39.8624 23.0392 39.9133 23.1668 39.9136H23.4392C23.1863 40.4965 22.9621 41.0915 22.767 41.6937C22.7607 41.7042 22.7559 41.7156 22.7525 41.7274C22.7474 41.7423 22.7434 41.7576 22.7405 41.7731C20.2355 49.5532 22.3934 58.8844 29.1717 69.5573C29.2153 69.6258 29.2755 69.6822 29.3467 69.7214C29.4179 69.7605 29.4978 69.7811 29.579 69.7813H52.42C52.5013 69.7811 52.5812 69.7605 52.6523 69.7214C52.7235 69.6822 52.7837 69.6258 52.8274 69.5573C59.6143 58.87 61.7633 49.5604 59.2583 41.7731ZM40.9981 62.5745C40.5163 59.9286 39.6722 57.3617 38.4894 54.9462C39.2846 55.2817 40.1394 55.4529 41.0024 55.4496C41.8655 55.4463 42.7189 55.2685 43.5115 54.927C42.3258 57.3484 41.48 59.9218 40.9981 62.5745ZM23.649 38.9502V37.9867H27.5049V38.9502H23.649ZM55.4678 38.5816C54.7666 38.9092 54.058 39.2151 53.3568 39.4945C53.3003 39.5182 53.2398 39.5305 53.1785 39.5307C53.0822 39.5301 52.9881 39.501 52.9083 39.447C52.8285 39.3929 52.7666 39.3164 52.7303 39.2272C52.7068 39.1683 52.6952 39.1054 52.6961 39.0421C52.697 38.9787 52.7103 38.9162 52.7354 38.858C52.7605 38.7999 52.7968 38.7472 52.8422 38.7031C52.8877 38.659 52.9414 38.6242 53.0003 38.6009C53.6822 38.3287 54.3764 38.0276 55.0583 37.7073C55.1742 37.653 55.307 37.647 55.4274 37.6906C55.5478 37.7341 55.6459 37.8238 55.7002 37.9397C55.7545 38.0557 55.7605 38.1884 55.7169 38.3088C55.6733 38.4292 55.5837 38.5273 55.4678 38.5816ZM51.195 40.2822C50.4623 40.523 49.7177 40.7422 48.985 40.9301C48.946 40.9418 48.9054 40.9474 48.8646 40.947C48.7467 40.9478 48.6327 40.9054 48.544 40.8278C48.4553 40.7502 48.3981 40.6428 48.3833 40.5259C48.3685 40.409 48.397 40.2907 48.4635 40.1934C48.53 40.0961 48.6298 40.0266 48.7442 39.9979C49.4576 39.8149 50.1805 39.6029 50.8939 39.3669C51.0153 39.3269 51.1476 39.3368 51.2616 39.3944C51.3757 39.4519 51.4623 39.5525 51.5022 39.6739C51.5422 39.7952 51.5323 39.9275 51.4747 40.0416C51.4171 40.1557 51.3164 40.2422 51.195 40.2822ZM37.6033 41.7731C37.584 41.7731 37.5671 41.7707 37.5479 41.7707C36.7913 41.684 36.0224 41.5708 35.2656 41.4311C35.2016 41.4217 35.14 41.3994 35.0848 41.3656C35.0295 41.3318 34.9816 41.2873 34.9439 41.2346C34.9063 41.1819 34.8796 41.1221 34.8656 41.0589C34.8516 40.9956 34.8505 40.9302 34.8623 40.8665C34.8741 40.8029 34.8987 40.7422 34.9345 40.6882C34.9703 40.6343 35.0166 40.5881 35.0707 40.5524C35.1247 40.5167 35.1854 40.4923 35.2492 40.4807C35.3129 40.469 35.3783 40.4703 35.4415 40.4845C36.1766 40.6194 36.9211 40.7302 37.6539 40.8121C37.7771 40.8244 37.8908 40.8837 37.9714 40.9777C38.052 41.0717 38.0934 41.1931 38.0869 41.3167C38.0804 41.4404 38.0265 41.5568 37.9364 41.6418C37.8464 41.7267 37.7271 41.7738 37.6033 41.7731ZM39.3842 41.4407C39.3906 41.3134 39.4466 41.1935 39.5403 41.1071C39.6341 41.0206 39.758 40.9743 39.8855 40.9783C40.6252 41.0048 41.3772 41.0048 42.1195 40.9759C42.1828 40.9735 42.2459 40.9836 42.3053 41.0056C42.3646 41.0276 42.4191 41.0611 42.4655 41.1042C42.5119 41.1472 42.5494 41.199 42.5758 41.2566C42.6022 41.3141 42.617 41.3763 42.6194 41.4395C42.6217 41.5028 42.6116 41.5659 42.5896 41.6253C42.5676 41.6846 42.5341 41.7391 42.491 41.7855C42.448 41.8319 42.3962 41.8694 42.3387 41.8958C42.2811 41.9222 42.2189 41.937 42.1557 41.9393C41.7652 41.9538 41.37 41.961 40.9795 41.961C40.6035 41.961 40.223 41.9538 39.8494 41.9393C39.7215 41.9348 39.6007 41.8798 39.5133 41.7863C39.4259 41.6929 39.3802 41.5686 39.3842 41.4407ZM43.9244 41.342C43.9169 41.2791 43.922 41.2154 43.9393 41.1545C43.9566 41.0936 43.9859 41.0368 44.0253 40.9873C44.0648 40.9378 44.1137 40.8966 44.1691 40.8661C44.2246 40.8356 44.2856 40.8164 44.3485 40.8097C45.0834 40.7278 45.8282 40.617 46.5609 40.4821C46.6241 40.4679 46.6895 40.4666 46.7532 40.4783C46.817 40.4899 46.8777 40.5143 46.9317 40.55C46.9858 40.5856 47.0321 40.6319 47.0679 40.6858C47.1037 40.7398 47.1283 40.8005 47.1401 40.8641C47.1519 40.9278 47.1508 40.9932 47.1368 41.0565C47.1227 41.1197 47.0961 41.1795 47.0585 41.2322C47.0208 41.2849 46.9729 41.3294 46.9176 41.3632C46.8624 41.397 46.8008 41.4192 46.7368 41.4287C45.9799 41.5684 45.2137 41.6816 44.4569 41.7659C44.4386 41.7687 44.4201 41.7703 44.4015 41.7707C44.2831 41.7705 44.1689 41.7267 44.0808 41.6476C43.9926 41.5685 43.9374 41.4597 43.9244 41.342ZM33.6029 40.5857C33.5763 40.6888 33.5162 40.7803 33.432 40.8457C33.3478 40.911 33.2444 40.9467 33.1378 40.947C33.0963 40.9473 33.0549 40.9416 33.015 40.9301C32.2825 40.7422 31.5377 40.523 30.805 40.2822C30.6836 40.2419 30.5832 40.155 30.5259 40.0407C30.4685 39.9264 30.4589 39.794 30.4992 39.6726C30.5395 39.5513 30.6263 39.4509 30.7406 39.3935C30.855 39.3362 30.9874 39.3266 31.1087 39.3669C31.8219 39.6005 32.545 39.8149 33.2585 39.9979C33.3819 40.0304 33.4874 40.1106 33.5518 40.2207C33.6162 40.3309 33.6352 40.4622 33.6029 40.5857ZM54.6943 35.3974C45.9898 39.3958 37.1695 39.5692 28.4698 35.908V33.6511H53.5993C53.9115 34.2644 54.2786 34.8488 54.6943 35.3974ZM54.9778 31.7241C54.9774 31.9795 54.8758 32.2244 54.6952 32.405C54.5146 32.5856 54.2698 32.6872 54.0144 32.6876H28.4956C28.5883 31.8786 28.906 31.1119 29.4127 30.4745C29.9194 29.8371 30.5947 29.3546 31.3619 29.0818V30.7606C31.3619 30.8884 31.4126 31.0109 31.503 31.1013C31.5933 31.1916 31.7159 31.2424 31.8436 31.2424C31.9714 31.2424 32.0939 31.1916 32.1843 31.1013C32.2746 31.0109 32.3254 30.8884 32.3254 30.7606V28.8602C32.4854 28.8428 32.6462 28.834 32.8071 28.8337H35.217V29.7972C35.217 29.9249 35.2677 30.0475 35.3581 30.1378C35.4484 30.2281 35.571 30.2789 35.6987 30.2789C35.8265 30.2789 35.949 30.2281 36.0394 30.1378C36.1297 30.0475 36.1805 29.9249 36.1805 29.7972V28.8337H39.0735V30.7606C39.0735 30.8884 39.1243 31.0109 39.2146 31.1013C39.305 31.1916 39.4275 31.2424 39.5553 31.2424C39.683 31.2424 39.8056 31.1916 39.8959 31.1013C39.9862 31.0109 40.037 30.8884 40.037 30.7606V28.8337H42.9274V29.7972C42.9274 29.9249 42.9782 30.0475 43.0685 30.1378C43.1589 30.2281 43.2814 30.2789 43.4092 30.2789C43.5369 30.2789 43.6595 30.2281 43.7498 30.1378C43.8401 30.0475 43.8909 29.9249 43.8909 29.7972V28.8337H46.7828V30.7606C46.7828 30.8884 46.8335 31.0109 46.9239 31.1013C47.0142 31.1916 47.1367 31.2424 47.2645 31.2424C47.3923 31.2424 47.5148 31.1916 47.6051 31.1013C47.6955 31.0109 47.7462 30.8884 47.7462 30.7606V28.8337H50.64V29.7972C50.64 29.9249 50.6908 30.0475 50.7811 30.1378C50.8715 30.2281 50.994 30.2789 51.1218 30.2789C51.2495 30.2789 51.3721 30.2281 51.4624 30.1378C51.5527 30.0475 51.6035 29.9249 51.6035 29.7972V28.8337H54.0134C54.352 28.8341 54.6845 28.7443 54.9769 28.5736L54.9778 31.7241ZM27.7628 12.9364H54.2379C53.715 14.82 52.1992 20.6321 52.0426 25.4134C52.0405 25.4293 52.0397 25.4454 52.0402 25.4615C52.0147 26.2647 52.0307 27.0687 52.0884 27.8702H29.9123C29.97 27.0687 29.986 26.2647 29.9605 25.4615C29.961 25.4454 29.9602 25.4293 29.9581 25.4134C29.8015 20.6321 28.2858 14.82 27.7628 12.9364ZM23.649 33.1693C23.6506 32.0196 24.1082 30.9174 24.9214 30.1046C25.7347 29.2918 26.8371 28.8347 27.9868 28.8337H29.7654C29.4045 29.0846 29.0773 29.3809 28.7918 29.7153C28.787 29.7177 28.787 29.7177 28.787 29.7201C28.7695 29.7381 28.7534 29.7575 28.7388 29.7779C28.734 29.7827 28.7292 29.7851 28.7292 29.7899C27.9483 30.7253 27.5164 31.9027 27.5073 33.1211C27.5053 33.1371 27.5045 33.1532 27.5049 33.1693V37.0232H23.649V33.1693ZM23.5286 42.4982C29.1396 44.6812 33.8387 48.7118 36.8506 53.9249C36.8717 53.9855 36.9036 54.0418 36.9445 54.0911C36.9469 54.0936 36.9493 54.0936 36.9493 54.096C38.7544 57.2947 40.116 61.2931 40.5158 66.2598C40.4508 67.086 40.4131 67.9387 40.4026 68.8178H29.8449C23.4653 58.6941 21.3502 49.8591 23.5286 42.4982ZM52.1558 68.8178H41.3666C41.3786 67.9531 41.4148 67.1149 41.4822 66.3032C41.4805 66.2903 41.4813 66.2772 41.4846 66.2646C41.8799 61.2931 43.243 57.2923 45.0439 54.0911C45.0485 54.0887 45.0526 54.0854 45.056 54.0815C45.1128 54.0225 45.1527 53.9493 45.1716 53.8696C48.1867 48.6823 52.8749 44.6735 58.4675 42.5006C60.6409 49.876 58.5323 58.6941 52.1558 68.8178Z" fill="#008CCF"/>
<rect x="0.775208" y="54.7422" width="80.9573" height="28.3759" fill="#008CCF"/>
</g>
</svg>
