<svg width="82" height="82" viewBox="0 0 82 82" fill="none" xmlns="http://www.w3.org/2000/svg">
<circle cx="41.0001" cy="41.4083" r="40.4787" fill="white"/>
<mask id="mask0" mask-type="alpha" maskUnits="userSpaceOnUse" x="0" y="0" width="82" height="82">
<circle cx="41.0001" cy="41.4083" r="40.4787" fill="white"/>
</mask>
<g mask="url(#mask0)">
<path d="M59.2584 83.5017C59.2555 83.486 59.2515 83.4705 59.2464 83.4554C59.2434 83.4452 59.2394 83.4354 59.2343 83.4261C58.4745 81.0922 57.3288 78.9057 55.846 76.9596C55.8397 76.9529 55.834 76.9456 55.8292 76.9377V76.9352C55.7497 76.8329 55.6726 76.7305 55.5931 76.6306L55.5642 76.5916C55.2174 76.1467 54.907 75.6739 54.6364 75.1778C55.0166 75.0459 55.3467 74.7973 55.5807 74.4665C55.8147 74.1358 55.941 73.7395 55.9419 73.3327V68.4578C55.9423 68.4415 55.9415 68.4252 55.9395 68.4091C55.9269 67.9007 55.7186 67.4173 55.3589 67.0622C54.9992 66.707 54.5166 66.5081 54.014 66.5079H53.0235C53.3056 60.8847 55.3154 54.0428 55.3359 53.9721C55.3582 53.8998 55.3631 53.8231 55.3501 53.7484C55.3371 53.6738 55.3066 53.6034 55.2612 53.5431C55.2169 53.4819 55.1588 53.4321 55.0919 53.3978C55.0249 53.3635 54.9509 53.3456 54.8758 53.3457H27.1244C27.0495 53.3459 26.9757 53.3638 26.9089 53.3979C26.842 53.4321 26.784 53.4815 26.7393 53.5423C26.6946 53.6031 26.6646 53.6736 26.6515 53.7482C26.6385 53.8228 26.6428 53.8995 26.6641 53.9721C26.6858 54.0428 28.6956 60.8823 28.9765 66.5079H26.541C26.4134 66.5083 26.2911 66.5597 26.2008 66.6511C26.1105 66.7424 26.0597 66.8662 26.0593 66.9954V69.8033C25.066 70.1954 24.2126 70.8816 23.6107 71.7721C23.0088 72.6627 22.6862 73.7162 22.6852 74.7952V81.1325C22.6856 81.2617 22.7365 81.3855 22.8267 81.4768C22.917 81.5681 23.0393 81.6196 23.1669 81.62H23.4394C23.1865 82.2099 22.9622 82.8119 22.7671 83.4213C22.7608 83.432 22.756 83.4434 22.7527 83.4554C22.7475 83.4705 22.7435 83.486 22.7406 83.5017C20.2356 91.3746 22.3935 100.817 29.1718 111.618C29.2155 111.687 29.2756 111.744 29.3468 111.784C29.418 111.823 29.4979 111.844 29.5791 111.844H52.4202C52.5014 111.844 52.5813 111.823 52.6525 111.784C52.7236 111.744 52.7838 111.687 52.8275 111.618C59.6144 100.803 61.7635 91.3819 59.2584 83.5017ZM40.9982 104.551C40.5164 101.874 39.6723 99.2763 38.4895 96.8321C39.2847 97.1715 40.1395 97.3448 41.0026 97.3414C41.8656 97.3381 42.7191 97.1582 43.5117 96.8126C42.3259 99.2628 41.4801 101.867 40.9982 104.551ZM23.6492 80.645V79.67H27.505V80.645H23.6492ZM55.4679 80.2721C54.7667 80.6036 54.0581 80.9131 53.3569 81.1959C53.3005 81.2199 53.2399 81.2323 53.1787 81.2324C53.0823 81.2319 52.9883 81.2024 52.9085 81.1478C52.8287 81.0931 52.7667 81.0157 52.7304 80.9253C52.707 80.8658 52.6953 80.8021 52.6962 80.738C52.6971 80.6739 52.7104 80.6107 52.7355 80.5518C52.7606 80.4929 52.7969 80.4396 52.8424 80.395C52.8878 80.3503 52.9415 80.3152 53.0004 80.2916C53.6823 80.0162 54.3765 79.7115 55.0584 79.3873C55.1744 79.3324 55.3071 79.3263 55.4275 79.3704C55.5479 79.4145 55.646 79.5052 55.7003 79.6225C55.7546 79.7398 55.7606 79.8742 55.717 79.996C55.6735 80.1178 55.5838 80.2171 55.4679 80.2721ZM51.1951 81.9929C50.4624 82.2367 49.7179 82.4585 48.9851 82.6486C48.9461 82.6604 48.9055 82.6661 48.8647 82.6657C48.7469 82.6665 48.6328 82.6236 48.5441 82.5451C48.4554 82.4665 48.3983 82.3579 48.3834 82.2396C48.3686 82.1213 48.3971 82.0016 48.4636 81.9031C48.5301 81.8047 48.63 81.7343 48.7443 81.7053C49.4577 81.5201 50.1806 81.3056 50.894 81.0667C51.0154 81.0263 51.1477 81.0363 51.2618 81.0945C51.3758 81.1528 51.4624 81.2545 51.5023 81.3773C51.5423 81.5002 51.5324 81.634 51.4748 81.7495C51.4173 81.8649 51.3167 81.9525 51.1954 81.9929H51.1951ZM37.6034 83.5017C37.5841 83.5017 37.5673 83.4993 37.548 83.4993C36.7914 83.4115 36.0226 83.297 35.2658 83.1556C35.2017 83.146 35.1402 83.1235 35.0849 83.0893C35.0296 83.0551 34.9817 83.01 34.9441 82.9567C34.9064 82.9034 34.8798 82.8429 34.8657 82.7789C34.8517 82.7149 34.8506 82.6487 34.8624 82.5843C34.8742 82.5198 34.8988 82.4585 34.9346 82.4038C34.9704 82.3492 35.0167 82.3025 35.0708 82.2664C35.1249 82.2303 35.1856 82.2056 35.2493 82.1938C35.313 82.182 35.3784 82.1833 35.4416 82.1977C36.1767 82.3342 36.9213 82.4463 37.654 82.5292C37.7772 82.5417 37.8909 82.6017 37.9715 82.6968C38.0522 82.7919 38.0935 82.9147 38.087 83.0398C38.0805 83.165 38.0266 83.2827 37.9366 83.3687C37.8465 83.4547 37.7272 83.5024 37.6034 83.5017ZM39.3844 83.1653C39.3907 83.0364 39.4467 82.9152 39.5405 82.8277C39.6342 82.7401 39.7581 82.6934 39.8856 82.6973C40.6253 82.7242 41.3773 82.7242 42.1197 82.6949C42.1829 82.6925 42.246 82.7027 42.3054 82.725C42.3648 82.7473 42.4192 82.7812 42.4656 82.8248C42.512 82.8683 42.5495 82.9207 42.5759 82.979C42.6023 83.0372 42.6171 83.1001 42.6195 83.1641C42.6218 83.2281 42.6117 83.292 42.5897 83.3521C42.5677 83.4121 42.5342 83.4672 42.4912 83.5142C42.4481 83.5611 42.3963 83.5991 42.3388 83.6258C42.2812 83.6525 42.2191 83.6675 42.1558 83.6699C41.7654 83.6845 41.3701 83.6918 40.9796 83.6918C40.6037 83.6918 40.2231 83.6845 39.8495 83.6699C39.7216 83.6653 39.6008 83.6096 39.5134 83.5151C39.4261 83.4205 39.3793 83.2947 39.3834 83.1653H39.3844ZM43.9245 83.0654C43.917 83.0018 43.9221 82.9373 43.9394 82.8757C43.9568 82.8141 43.986 82.7566 44.0255 82.7065C44.0649 82.6564 44.1138 82.6147 44.1693 82.5838C44.2248 82.553 44.2857 82.5336 44.3487 82.5267C45.0836 82.4438 45.8283 82.3317 46.5611 82.1952C46.6243 82.1809 46.6897 82.1796 46.7534 82.1914C46.8171 82.2032 46.8778 82.2278 46.9319 82.2639C46.9859 82.3 47.0323 82.3468 47.0681 82.4014C47.1039 82.456 47.1284 82.5174 47.1402 82.5818C47.1521 82.6463 47.1509 82.7125 47.1369 82.7765C47.1229 82.8405 47.0962 82.9009 47.0586 82.9543C47.0209 83.0076 46.973 83.0527 46.9178 83.0869C46.8625 83.121 46.801 83.1436 46.7369 83.1531C45.9801 83.2945 45.2139 83.4091 44.4571 83.4944C44.4387 83.4972 44.4202 83.4988 44.4017 83.4993C44.2832 83.499 44.169 83.4547 44.0809 83.3746C43.9927 83.2946 43.9368 83.1845 43.9238 83.0654H43.9245ZM33.6031 82.3C33.5764 82.4045 33.5163 82.497 33.4321 82.5632C33.348 82.6293 33.2445 82.6654 33.1379 82.6657C33.0964 82.666 33.055 82.6602 33.0151 82.6486C32.2826 82.4585 31.5378 82.2367 30.8051 81.9929C30.6837 81.9522 30.5833 81.8643 30.526 81.7486C30.4687 81.6329 30.4591 81.499 30.4993 81.3761C30.5396 81.2533 30.6265 81.1517 30.7408 81.0937C30.8551 81.0356 30.9875 81.0259 31.1089 81.0667C31.8221 81.3031 32.5452 81.5201 33.2586 81.7053C33.382 81.7382 33.4875 81.8193 33.5519 81.9308C33.6163 82.0423 33.6344 82.1751 33.6021 82.3H33.6031ZM54.6945 77.0498C45.99 81.0959 37.1696 81.2714 28.4699 77.5665V75.2827H53.5995C53.9117 75.9033 54.2778 76.4947 54.6935 77.0498H54.6945ZM54.978 73.3327C54.9776 73.5912 54.8759 73.8389 54.6953 74.0217C54.5147 74.2044 54.2699 74.3073 54.0145 74.3077H28.4957C28.5884 73.4891 28.9061 72.7132 29.4128 72.0682C29.9195 71.4231 30.5948 70.9349 31.362 70.6588V72.3577C31.362 72.487 31.4128 72.611 31.5031 72.7024C31.5935 72.7939 31.716 72.8452 31.8437 72.8452C31.9715 72.8452 32.094 72.7939 32.1844 72.7024C32.2747 72.611 32.3255 72.487 32.3255 72.3577V70.4346C32.4855 70.417 32.6463 70.4081 32.8072 70.4078H35.2171V71.3828C35.2171 71.512 35.2679 71.636 35.3582 71.7275C35.4486 71.8189 35.5711 71.8702 35.6988 71.8702C35.8266 71.8702 35.9491 71.8189 36.0395 71.7275C36.1298 71.636 36.1806 71.512 36.1806 71.3828V70.4078H39.0737V72.3577C39.0737 72.487 39.1244 72.611 39.2148 72.7024C39.3051 72.7939 39.4276 72.8452 39.5554 72.8452C39.6832 72.8452 39.8057 72.7939 39.896 72.7024C39.9864 72.611 40.0371 72.487 40.0371 72.3577V70.4078H42.9275V71.3828C42.9275 71.512 42.9783 71.636 43.0686 71.7275C43.159 71.8189 43.2815 71.8702 43.4093 71.8702C43.5371 71.8702 43.6596 71.8189 43.7499 71.7275C43.8403 71.636 43.891 71.512 43.891 71.3828V70.4078H46.7829V72.3577C46.7829 72.487 46.8336 72.611 46.924 72.7024C47.0143 72.7939 47.1369 72.8452 47.2646 72.8452C47.3924 72.8452 47.5149 72.7939 47.6053 72.7024C47.6956 72.611 47.7464 72.487 47.7464 72.3577V70.4078H50.6402V71.3828C50.6402 71.512 50.6909 71.636 50.7813 71.7275C50.8716 71.8189 50.9941 71.8702 51.1219 71.8702C51.2497 71.8702 51.3722 71.8189 51.4625 71.7275C51.5529 71.636 51.6036 71.512 51.6036 71.3828V70.4078H54.0135C54.3521 70.4082 54.6846 70.3173 54.977 70.1445L54.978 73.3327ZM27.763 54.3207H54.238C53.7151 56.2268 52.1993 62.1083 52.0427 66.9466C52.0407 66.9628 52.0399 66.9791 52.0403 66.9954C52.0148 67.8081 52.0309 68.6217 52.0885 69.4328H29.9125C29.9701 68.6217 29.9862 67.8081 29.9606 66.9954C29.9611 66.9791 29.9603 66.9628 29.9582 66.9466C29.8017 62.1083 28.2859 56.2268 27.763 54.3207ZM23.6492 74.7952C23.6508 73.6317 24.1084 72.5163 24.9216 71.6938C25.7348 70.8713 26.8372 70.4088 27.987 70.4078H29.7655C29.4046 70.6617 29.0774 70.9615 28.7919 71.2999C28.7871 71.3023 28.7871 71.3023 28.7871 71.3048C28.7697 71.323 28.7536 71.3426 28.739 71.3633C28.7341 71.3681 28.7293 71.3706 28.7293 71.3754C27.9484 72.3219 27.5165 73.5134 27.5074 74.7464C27.5054 74.7626 27.5046 74.7789 27.505 74.7952V78.6951H23.6492V74.7952ZM23.5287 84.2354C29.1397 86.4445 33.8388 90.5232 36.8507 95.7986C36.8719 95.8598 36.9037 95.9168 36.9446 95.9668C36.947 95.9692 36.9494 95.9692 36.9494 95.9716C38.7545 99.2086 40.1161 103.255 40.516 108.281C40.4509 109.117 40.4132 109.98 40.4028 110.869H29.845C23.4654 100.625 21.3503 91.6842 23.5287 84.2354ZM52.1559 110.869H41.3667C41.3788 109.994 41.4149 109.146 41.4823 108.325C41.4807 108.312 41.4815 108.298 41.4847 108.286C41.88 103.255 43.2431 99.2061 45.0441 95.9668C45.0486 95.9643 45.0527 95.961 45.0561 95.957C45.1129 95.8973 45.1529 95.8232 45.1717 95.7425C48.1868 90.4933 52.8751 86.4366 58.4677 84.2378C60.641 91.7012 58.5325 100.625 52.1559 110.869Z" fill="#008CCF"/>
<rect x="5.20166" y="68.1082" width="68.3621" height="15.5412" fill="#008CCF"/>
</g>
</svg>
