<svg width="84" height="84" viewBox="0 0 84 84" fill="none" xmlns="http://www.w3.org/2000/svg">
<circle cx="42.0154" cy="41.7089" r="40.9787" fill="white" stroke="white"/>
<mask id="mask0" mask-type="alpha" maskUnits="userSpaceOnUse" x="1" y="1" width="82" height="82">
<circle cx="42.0154" cy="41.7089" r="40.4787" fill="white"/>
</mask>
<g mask="url(#mask0)">
<rect x="1.03674" y="-6.54541" width="81.9573" height="90.9952" fill="#008CCF" stroke="white"/>
<path d="M60.2579 83.49C60.255 83.4743 60.2509 83.4588 60.2458 83.4437C60.2428 83.4335 60.2388 83.4237 60.2338 83.4144C59.4739 81.0805 58.3282 78.8939 56.8455 76.9479C56.8391 76.9412 56.8335 76.9338 56.8286 76.926V76.9235C56.7491 76.8211 56.6721 76.7188 56.5926 76.6188L56.5637 76.5798C56.2168 76.135 55.9065 75.6622 55.6358 75.1661C56.0161 75.0342 56.3462 74.7855 56.5802 74.4548C56.8142 74.1241 56.9404 73.7277 56.9413 73.321V68.4461C56.9417 68.4298 56.9409 68.4135 56.9389 68.3974C56.9264 67.8889 56.718 67.4056 56.3583 67.0505C55.9986 66.6953 55.516 66.4964 55.0134 66.4962H54.023C54.305 60.873 56.3148 54.0311 56.3353 53.9604C56.3576 53.8881 56.3625 53.8114 56.3495 53.7367C56.3365 53.6621 56.306 53.5917 56.2607 53.5314C56.2163 53.4702 56.1583 53.4203 56.0913 53.386C56.0243 53.3517 55.9503 53.3339 55.8753 53.334H28.1239C28.049 53.3342 27.9752 53.3521 27.9084 53.3862C27.8415 53.4204 27.7835 53.4698 27.7388 53.5306C27.6941 53.5914 27.6641 53.6619 27.651 53.7365C27.638 53.8111 27.6423 53.8878 27.6636 53.9604C27.6853 54.0311 29.6951 60.8705 29.9759 66.4962H27.5405C27.4129 66.4965 27.2906 66.548 27.2003 66.6394C27.1101 66.7307 27.0592 66.8545 27.0588 66.9836V69.7916C26.0655 70.1837 25.2122 70.8699 24.6102 71.7604C24.0083 72.651 23.6857 73.7045 23.6847 74.7834V81.1208C23.6851 81.25 23.736 81.3737 23.8262 81.4651C23.9165 81.5564 24.0388 81.6079 24.1665 81.6083H24.4389C24.186 82.1981 23.9617 82.8002 23.7666 83.4095C23.7604 83.4202 23.7555 83.4317 23.7522 83.4437C23.747 83.4588 23.743 83.4743 23.7401 83.49C21.2351 91.3629 23.393 100.806 30.1713 111.606C30.215 111.675 30.2751 111.732 30.3463 111.772C30.4175 111.811 30.4974 111.832 30.5786 111.833H53.4196C53.5008 111.832 53.5807 111.811 53.6519 111.772C53.7231 111.732 53.7833 111.675 53.8269 111.606C60.6139 100.791 62.7629 91.3702 60.2579 83.49ZM41.9977 104.54C41.5159 101.862 40.6718 99.2646 39.489 96.8203C40.2842 97.1598 41.139 97.333 42.002 97.3297C42.8651 97.3263 43.7185 97.1465 44.5111 96.8008C43.3254 99.2511 42.4796 101.855 41.9977 104.54ZM24.6487 80.6333V79.6583H28.5045V80.6333H24.6487ZM56.4673 80.2604C55.7661 80.5919 55.0575 80.9014 54.3563 81.1842C54.2999 81.2082 54.2393 81.2206 54.1781 81.2207C54.0817 81.2202 53.9877 81.1907 53.9079 81.136C53.8281 81.0814 53.7661 81.0039 53.7299 80.9136C53.7064 80.8541 53.6948 80.7904 53.6956 80.7263C53.6965 80.6622 53.7099 80.5989 53.735 80.5401C53.76 80.4812 53.7964 80.4279 53.8418 80.3833C53.8873 80.3386 53.941 80.3035 53.9999 80.2799C54.6818 80.0044 55.3759 79.6998 56.0578 79.3756C56.1738 79.3206 56.3066 79.3145 56.4269 79.3587C56.5473 79.4028 56.6455 79.4935 56.6998 79.6108C56.7541 79.7281 56.7601 79.8625 56.7165 79.9843C56.6729 80.1061 56.5833 80.2054 56.4673 80.2604ZM52.1946 81.9812C51.4618 82.2249 50.7173 82.4468 49.9846 82.6369C49.9455 82.6487 49.9049 82.6544 49.8642 82.6539C49.7463 82.6548 49.6323 82.6119 49.5436 82.5333C49.4549 82.4548 49.3977 82.3461 49.3829 82.2278C49.3681 82.1095 49.3966 81.9898 49.4631 81.8914C49.5296 81.7929 49.6294 81.7226 49.7437 81.6936C50.4572 81.5083 51.18 81.2938 51.8935 81.055C52.0149 81.0145 52.1471 81.0246 52.2612 81.0828C52.3753 81.1411 52.4618 81.2428 52.5018 81.3656C52.5417 81.4885 52.5318 81.6223 52.4743 81.7378C52.4167 81.8532 52.3162 81.9408 52.1948 81.9812H52.1946ZM38.6029 83.49C38.5836 83.49 38.5667 83.4875 38.5475 83.4875C37.7909 83.3998 37.0221 83.2852 36.2652 83.1439C36.2012 83.1343 36.1396 83.1118 36.0844 83.0776C36.0291 83.0434 35.9812 82.9983 35.9436 82.945C35.9059 82.8917 35.8793 82.8312 35.8652 82.7672C35.8512 82.7032 35.8501 82.637 35.8619 82.5726C35.8737 82.5081 35.8983 82.4467 35.9341 82.3921C35.9699 82.3375 36.0162 82.2907 36.0703 82.2547C36.1243 82.2186 36.185 82.1939 36.2488 82.1821C36.3125 82.1703 36.3779 82.1716 36.4411 82.1859C37.1762 82.3224 37.9207 82.4346 38.6535 82.5174C38.7767 82.5299 38.8904 82.59 38.971 82.6851C39.0516 82.7801 39.093 82.903 39.0865 83.0281C39.08 83.1532 39.0261 83.271 38.936 83.357C38.846 83.443 38.7267 83.4906 38.6029 83.49ZM40.3838 83.1536C40.3902 83.0247 40.4462 82.9035 40.5399 82.8159C40.6337 82.7284 40.7576 82.6816 40.8851 82.6856C41.6248 82.7124 42.3768 82.7124 43.1191 82.6832C43.1824 82.6808 43.2455 82.691 43.3049 82.7133C43.3642 82.7356 43.4187 82.7695 43.4651 82.813C43.5115 82.8566 43.549 82.909 43.5754 82.9672C43.6018 83.0255 43.6166 83.0884 43.6189 83.1524C43.6213 83.2164 43.6112 83.2803 43.5892 83.3403C43.5672 83.4004 43.5337 83.4555 43.4906 83.5025C43.4476 83.5494 43.3958 83.5873 43.3382 83.6141C43.2807 83.6408 43.2185 83.6558 43.1553 83.6582C42.7648 83.6728 42.3696 83.6801 41.9791 83.6801C41.6031 83.6801 41.2225 83.6728 40.849 83.6582C40.7211 83.6536 40.6003 83.5979 40.5129 83.5033C40.4255 83.4088 40.3788 83.283 40.3829 83.1536H40.3838ZM44.924 83.0537C44.9165 82.9901 44.9216 82.9256 44.9389 82.864C44.9562 82.8024 44.9855 82.7448 45.0249 82.6947C45.0644 82.6446 45.1133 82.603 45.1687 82.5721C45.2242 82.5413 45.2852 82.5218 45.3481 82.515C46.083 82.4321 46.8278 82.32 47.5605 82.1835C47.6237 82.1691 47.6891 82.1678 47.7528 82.1796C47.8165 82.1914 47.8772 82.2161 47.9313 82.2522C47.9854 82.2883 48.0317 82.3351 48.0675 82.3897C48.1033 82.4443 48.1279 82.5057 48.1397 82.5701C48.1515 82.6346 48.1504 82.7008 48.1364 82.7648C48.1223 82.8287 48.0957 82.8892 48.058 82.9425C48.0204 82.9959 47.9725 83.041 47.9172 83.0752C47.8619 83.1093 47.8004 83.1319 47.7363 83.1414C46.9795 83.2828 46.2133 83.3974 45.4565 83.4827C45.4382 83.4855 45.4197 83.4871 45.4011 83.4875C45.2827 83.4873 45.1685 83.4429 45.0803 83.3629C44.9922 83.2829 44.9363 83.1728 44.9232 83.0537H44.924ZM34.6025 82.2883C34.5759 82.3927 34.5158 82.4853 34.4316 82.5514C34.3475 82.6176 34.244 82.6536 34.1374 82.6539C34.0959 82.6542 34.0545 82.6485 34.0146 82.6369C33.2821 82.4468 32.5373 82.2249 31.8046 81.9812C31.6832 81.9404 31.5828 81.8526 31.5255 81.7369C31.4681 81.6212 31.4586 81.4872 31.4988 81.3644C31.5391 81.2416 31.626 81.14 31.7403 81.082C31.8546 81.0239 31.987 81.0142 32.1083 81.055C32.8216 81.2914 33.5446 81.5083 34.2581 81.6936C34.3815 81.7265 34.487 81.8075 34.5514 81.9191C34.6158 82.0306 34.6339 82.1634 34.6016 82.2883H34.6025ZM55.6939 77.0381C46.9894 81.0842 38.1691 81.2597 29.4694 77.5548V75.2709H54.5989C54.9111 75.8916 55.2772 76.483 55.6929 77.0381H55.6939ZM55.9774 73.321C55.977 73.5794 55.8754 73.8272 55.6948 74.01C55.5142 74.1927 55.2693 74.2956 55.0139 74.296H29.4952C29.5879 73.4773 29.9056 72.7015 30.4123 72.0564C30.919 71.4114 31.5943 70.9232 32.3615 70.6471V72.346C32.3615 72.4753 32.4123 72.5993 32.5026 72.6907C32.5929 72.7821 32.7155 72.8335 32.8432 72.8335C32.971 72.8335 33.0935 72.7821 33.1839 72.6907C33.2742 72.5993 33.325 72.4753 33.325 72.346V70.4229C33.485 70.4053 33.6458 70.3964 33.8067 70.3961H36.2166V71.371C36.2166 71.5003 36.2673 71.6243 36.3577 71.7157C36.448 71.8072 36.5706 71.8585 36.6983 71.8585C36.8261 71.8585 36.9486 71.8072 37.039 71.7157C37.1293 71.6243 37.1801 71.5003 37.1801 71.371V70.3961H40.0731V72.346C40.0731 72.4753 40.1239 72.5993 40.2142 72.6907C40.3046 72.7821 40.4271 72.8335 40.5549 72.8335C40.6826 72.8335 40.8052 72.7821 40.8955 72.6907C40.9858 72.5993 41.0366 72.4753 41.0366 72.346V70.3961H43.927V71.371C43.927 71.5003 43.9778 71.6243 44.0681 71.7157C44.1585 71.8072 44.281 71.8585 44.4087 71.8585C44.5365 71.8585 44.659 71.8072 44.7494 71.7157C44.8397 71.6243 44.8905 71.5003 44.8905 71.371V70.3961H47.7823V72.346C47.7823 72.4753 47.8331 72.5993 47.9234 72.6907C48.0138 72.7821 48.1363 72.8335 48.2641 72.8335C48.3918 72.8335 48.5144 72.7821 48.6047 72.6907C48.6951 72.5993 48.7458 72.4753 48.7458 72.346V70.3961H51.6396V71.371C51.6396 71.5003 51.6904 71.6243 51.7807 71.7157C51.871 71.8072 51.9936 71.8585 52.1213 71.8585C52.2491 71.8585 52.3716 71.8072 52.462 71.7157C52.5523 71.6243 52.6031 71.5003 52.6031 71.371V70.3961H55.013C55.3515 70.3965 55.6841 70.3056 55.9764 70.1328L55.9774 73.321ZM28.7625 54.309H55.2374C54.7145 56.215 53.1987 62.0966 53.0422 66.9349C53.0401 66.9511 53.0393 66.9674 53.0398 66.9836C53.0142 67.7964 53.0303 68.61 53.0879 69.4211H30.912C30.9696 68.61 30.9857 67.7964 30.9601 66.9836C30.9606 66.9674 30.9598 66.9511 30.9577 66.9349C30.8012 62.0966 29.2854 56.215 28.7625 54.309ZM24.6487 74.7834C24.6503 73.62 25.1079 72.5046 25.9211 71.6821C26.7343 70.8596 27.8367 70.3971 28.9865 70.3961H30.765C30.4041 70.65 30.0769 70.9498 29.7914 71.2882C29.7866 71.2906 29.7866 71.2906 29.7866 71.293C29.7692 71.3113 29.753 71.3309 29.7384 71.3515C29.7336 71.3564 29.7288 71.3588 29.7288 71.3637C28.9479 72.3102 28.516 73.5017 28.5069 74.7347C28.5049 74.7509 28.5041 74.7672 28.5045 74.7834V78.6833H24.6487V74.7834ZM24.5282 84.2236C30.1392 86.4327 34.8383 90.5115 37.8502 95.7869C37.8713 95.8481 37.9032 95.9051 37.9441 95.955C37.9465 95.9575 37.9489 95.9575 37.9489 95.9599C39.754 99.1968 41.1156 103.243 41.5154 108.269C41.4504 109.105 41.4127 109.968 41.4022 110.858H30.8445C24.4649 100.613 22.3498 91.6725 24.5282 84.2236ZM53.1554 110.858H42.3662C42.3782 109.983 42.4144 109.134 42.4818 108.313C42.4801 108.3 42.4809 108.287 42.4842 108.274C42.8795 103.243 44.2425 99.1944 46.0435 95.955C46.0481 95.9526 46.0522 95.9493 46.0556 95.9453C46.1124 95.8856 46.1523 95.8115 46.1712 95.7308C49.1862 90.4816 53.8745 86.4249 59.4671 84.2261C61.6404 91.6895 59.5319 100.613 53.1554 110.858Z" fill="white"/>
</g>
</svg>
