<svg width="82" height="82" viewBox="0 0 82 82" fill="none" xmlns="http://www.w3.org/2000/svg">
<circle cx="41.2536" cy="41.4083" r="40.4787" fill="white"/>
<mask id="mask0" mask-type="alpha" maskUnits="userSpaceOnUse" x="0" y="0" width="82" height="82">
<circle cx="41.2536" cy="41.4083" r="40.4787" fill="white"/>
</mask>
<g mask="url(#mask0)">
<path d="M59.258 83.5017C59.2551 83.486 59.2511 83.4705 59.2459 83.4554C59.243 83.4452 59.2389 83.4354 59.2339 83.4261C58.474 81.0922 57.3283 78.9057 55.8456 76.9596C55.8392 76.9529 55.8336 76.9456 55.8287 76.9377V76.9352C55.7492 76.8329 55.6722 76.7305 55.5927 76.6306L55.5638 76.5916C55.2169 76.1467 54.9066 75.6739 54.6359 75.1778C55.0162 75.0459 55.3463 74.7973 55.5803 74.4665C55.8143 74.1358 55.9405 73.7395 55.9415 73.3327V68.4578C55.9419 68.4415 55.941 68.4252 55.939 68.4091C55.9265 67.9007 55.7181 67.4173 55.3584 67.0622C54.9987 66.707 54.5161 66.5081 54.0135 66.5079H53.0231C53.3051 60.8847 55.315 54.0428 55.3354 53.9721C55.3577 53.8998 55.3626 53.8231 55.3496 53.7484C55.3366 53.6738 55.3061 53.6034 55.2608 53.5431C55.2164 53.4819 55.1584 53.4321 55.0914 53.3978C55.0244 53.3635 54.9504 53.3456 54.8754 53.3457H27.1239C27.0491 53.3459 26.9753 53.3638 26.9084 53.3979C26.8416 53.4321 26.7835 53.4815 26.7388 53.5423C26.6941 53.6031 26.6641 53.6736 26.651 53.7482C26.638 53.8228 26.6423 53.8995 26.6636 53.9721C26.6853 54.0428 28.6951 60.8823 28.976 66.5079H26.5405C26.4129 66.5083 26.2906 66.5597 26.2003 66.6511C26.1101 66.7424 26.0592 66.8662 26.0588 66.9954V69.8033C25.0655 70.1954 24.2122 70.8816 23.6102 71.7721C23.0083 72.6627 22.6857 73.7162 22.6847 74.7952V81.1325C22.6851 81.2617 22.736 81.3855 22.8262 81.4768C22.9165 81.5681 23.0388 81.6196 23.1665 81.62H23.4389C23.186 82.2099 22.9617 82.8119 22.7666 83.4213C22.7604 83.432 22.7555 83.4434 22.7522 83.4554C22.747 83.4705 22.743 83.486 22.7401 83.5017C20.2351 91.3746 22.393 100.817 29.1713 111.618C29.215 111.687 29.2752 111.744 29.3463 111.784C29.4175 111.823 29.4974 111.844 29.5786 111.844H52.4197C52.5009 111.844 52.5808 111.823 52.652 111.784C52.7232 111.744 52.7834 111.687 52.827 111.618C59.614 100.803 61.763 91.3819 59.258 83.5017ZM40.9977 104.551C40.516 101.874 39.6718 99.2763 38.4891 96.8321C39.2843 97.1715 40.1391 97.3448 41.0021 97.3414C41.8651 97.3381 42.7186 97.1582 43.5112 96.8126C42.3254 99.2628 41.4796 101.867 40.9977 104.551ZM23.6487 80.645V79.67H27.5045V80.645H23.6487ZM55.4674 80.2721C54.7663 80.6036 54.0576 80.9131 53.3564 81.1959C53.3 81.2199 53.2394 81.2323 53.1782 81.2324C53.0818 81.2319 52.9878 81.2024 52.908 81.1478C52.8282 81.0931 52.7662 81.0157 52.7299 80.9253C52.7065 80.8658 52.6949 80.8021 52.6957 80.738C52.6966 80.6739 52.71 80.6107 52.7351 80.5518C52.7601 80.4929 52.7964 80.4396 52.8419 80.395C52.8874 80.3503 52.9411 80.3152 53 80.2916C53.6819 80.0162 54.376 79.7115 55.0579 79.3873C55.1739 79.3324 55.3067 79.3263 55.427 79.3704C55.5474 79.4145 55.6456 79.5052 55.6999 79.6225C55.7542 79.7398 55.7602 79.8742 55.7166 79.996C55.673 80.1178 55.5834 80.2171 55.4674 80.2721ZM51.1947 81.9929C50.4619 82.2367 49.7174 82.4585 48.9847 82.6486C48.9456 82.6604 48.905 82.6661 48.8642 82.6657C48.7464 82.6665 48.6324 82.6236 48.5437 82.5451C48.455 82.4665 48.3978 82.3579 48.383 82.2396C48.3681 82.1213 48.3967 82.0016 48.4632 81.9031C48.5297 81.8047 48.6295 81.7343 48.7438 81.7053C49.4573 81.5201 50.1801 81.3056 50.8936 81.0667C51.0149 81.0263 51.1472 81.0363 51.2613 81.0945C51.3754 81.1528 51.4619 81.2545 51.5019 81.3773C51.5418 81.5002 51.5319 81.634 51.4744 81.7495C51.4168 81.8649 51.3163 81.9525 51.1949 81.9929H51.1947ZM37.6029 83.5017C37.5836 83.5017 37.5668 83.4993 37.5475 83.4993C36.7909 83.4115 36.0221 83.297 35.2653 83.1556C35.2012 83.146 35.1397 83.1235 35.0844 83.0893C35.0291 83.0551 34.9812 83.01 34.9436 82.9567C34.9059 82.9034 34.8793 82.8429 34.8653 82.7789C34.8512 82.7149 34.8501 82.6487 34.8619 82.5843C34.8738 82.5198 34.8983 82.4585 34.9341 82.4038C34.9699 82.3492 35.0162 82.3025 35.0703 82.2664C35.1244 82.2303 35.1851 82.2056 35.2488 82.1938C35.3125 82.182 35.3779 82.1833 35.4411 82.1977C36.1763 82.3342 36.9208 82.4463 37.6535 82.5292C37.7767 82.5417 37.8904 82.6017 37.9711 82.6968C38.0517 82.7919 38.093 82.9147 38.0865 83.0398C38.08 83.165 38.0261 83.2827 37.9361 83.3687C37.8461 83.4547 37.7267 83.5024 37.6029 83.5017ZM39.3839 83.1653C39.3902 83.0364 39.4463 82.9152 39.54 82.8277C39.6337 82.7401 39.7577 82.6934 39.8851 82.6973C40.6249 82.7242 41.3768 82.7242 42.1192 82.6949C42.1825 82.6925 42.2456 82.7027 42.3049 82.725C42.3643 82.7473 42.4187 82.7812 42.4651 82.8248C42.5115 82.8683 42.549 82.9207 42.5754 82.979C42.6018 83.0372 42.6166 83.1001 42.619 83.1641C42.6214 83.2281 42.6113 83.292 42.5892 83.3521C42.5672 83.4121 42.5337 83.4672 42.4907 83.5142C42.4476 83.5611 42.3959 83.5991 42.3383 83.6258C42.2808 83.6525 42.2186 83.6675 42.1553 83.6699C41.7649 83.6845 41.3696 83.6918 40.9792 83.6918C40.6032 83.6918 40.2226 83.6845 39.849 83.6699C39.7212 83.6653 39.6003 83.6096 39.513 83.5151C39.4256 83.4205 39.3788 83.2947 39.3829 83.1653H39.3839ZM43.924 83.0654C43.9166 83.0018 43.9216 82.9373 43.939 82.8757C43.9563 82.8141 43.9855 82.7566 44.025 82.7065C44.0644 82.6564 44.1133 82.6147 44.1688 82.5838C44.2243 82.553 44.2853 82.5336 44.3482 82.5267C45.0831 82.4438 45.8279 82.3317 46.5606 82.1952C46.6238 82.1809 46.6892 82.1796 46.7529 82.1914C46.8166 82.2032 46.8773 82.2278 46.9314 82.2639C46.9855 82.3 47.0318 82.3468 47.0676 82.4014C47.1034 82.456 47.1279 82.5174 47.1398 82.5818C47.1516 82.6463 47.1505 82.7125 47.1364 82.7765C47.1224 82.8405 47.0958 82.9009 47.0581 82.9543C47.0205 83.0076 46.9726 83.0527 46.9173 83.0869C46.862 83.121 46.8005 83.1436 46.7364 83.1531C45.9796 83.2945 45.2134 83.4091 44.4566 83.4944C44.4383 83.4972 44.4197 83.4988 44.4012 83.4993C44.2828 83.499 44.1686 83.4547 44.0804 83.3746C43.9923 83.2946 43.9363 83.1845 43.9233 83.0654H43.924ZM33.6026 82.3C33.5759 82.4045 33.5158 82.497 33.4317 82.5632C33.3475 82.6293 33.244 82.6654 33.1375 82.6657C33.0959 82.666 33.0545 82.6602 33.0146 82.6486C32.2821 82.4585 31.5374 82.2367 30.8046 81.9929C30.6833 81.9522 30.5829 81.8643 30.5255 81.7486C30.4682 81.6329 30.4586 81.499 30.4989 81.3761C30.5391 81.2533 30.626 81.1517 30.7403 81.0937C30.8546 81.0356 30.987 81.0259 31.1084 81.0667C31.8216 81.3031 32.5447 81.5201 33.2581 81.7053C33.3816 81.7382 33.4871 81.8193 33.5514 81.9308C33.6158 82.0423 33.6339 82.1751 33.6016 82.3H33.6026ZM54.694 77.0498C45.9895 81.0959 37.1691 81.2714 28.4694 77.5665V75.2827H53.599C53.9112 75.9033 54.2773 76.4947 54.693 77.0498H54.694ZM54.9775 73.3327C54.9771 73.5912 54.8755 73.8389 54.6949 74.0217C54.5143 74.2044 54.2694 74.3073 54.014 74.3077H28.4952C28.5879 73.4891 28.9057 72.7132 29.4123 72.0682C29.919 71.4231 30.5943 70.9349 31.3615 70.6588V72.3577C31.3615 72.487 31.4123 72.611 31.5026 72.7024C31.593 72.7939 31.7155 72.8452 31.8433 72.8452C31.971 72.8452 32.0936 72.7939 32.1839 72.7024C32.2743 72.611 32.325 72.487 32.325 72.3577V70.4346C32.485 70.417 32.6458 70.4081 32.8067 70.4078H35.2166V71.3828C35.2166 71.512 35.2674 71.636 35.3577 71.7275C35.4481 71.8189 35.5706 71.8702 35.6984 71.8702C35.8261 71.8702 35.9487 71.8189 36.039 71.7275C36.1294 71.636 36.1801 71.512 36.1801 71.3828V70.4078H39.0732V72.3577C39.0732 72.487 39.1239 72.611 39.2143 72.7024C39.3046 72.7939 39.4272 72.8452 39.5549 72.8452C39.6827 72.8452 39.8052 72.7939 39.8956 72.7024C39.9859 72.611 40.0367 72.487 40.0367 72.3577V70.4078H42.9271V71.3828C42.9271 71.512 42.9778 71.636 43.0682 71.7275C43.1585 71.8189 43.281 71.8702 43.4088 71.8702C43.5366 71.8702 43.6591 71.8189 43.7495 71.7275C43.8398 71.636 43.8906 71.512 43.8906 71.3828V70.4078H46.7824V72.3577C46.7824 72.487 46.8332 72.611 46.9235 72.7024C47.0139 72.7939 47.1364 72.8452 47.2642 72.8452C47.3919 72.8452 47.5145 72.7939 47.6048 72.7024C47.6951 72.611 47.7459 72.487 47.7459 72.3577V70.4078H50.6397V71.3828C50.6397 71.512 50.6904 71.636 50.7808 71.7275C50.8711 71.8189 50.9937 71.8702 51.1214 71.8702C51.2492 71.8702 51.3717 71.8189 51.4621 71.7275C51.5524 71.636 51.6032 71.512 51.6032 71.3828V70.4078H54.0131C54.3516 70.4082 54.6842 70.3173 54.9765 70.1445L54.9775 73.3327ZM27.7625 54.3207H54.2375C53.7146 56.2268 52.1988 62.1083 52.0423 66.9466C52.0402 66.9628 52.0394 66.9791 52.0399 66.9954C52.0143 67.8081 52.0304 68.6217 52.088 69.4328H29.912C29.9696 68.6217 29.9857 67.8081 29.9602 66.9954C29.9606 66.9791 29.9598 66.9628 29.9577 66.9466C29.8012 62.1083 28.2854 56.2268 27.7625 54.3207ZM23.6487 74.7952C23.6503 73.6317 24.1079 72.5163 24.9211 71.6938C25.7343 70.8713 26.8367 70.4088 27.9865 70.4078H29.7651C29.4041 70.6617 29.0769 70.9615 28.7915 71.2999C28.7866 71.3023 28.7866 71.3023 28.7866 71.3048C28.7692 71.323 28.7531 71.3426 28.7385 71.3633C28.7337 71.3681 28.7288 71.3706 28.7288 71.3754C27.9479 72.3219 27.516 73.5134 27.5069 74.7464C27.5049 74.7626 27.5041 74.7789 27.5045 74.7952V78.6951H23.6487V74.7952ZM23.5282 84.2354C29.1392 86.4445 33.8383 90.5232 36.8502 95.7986C36.8714 95.8598 36.9032 95.9168 36.9441 95.9668C36.9466 95.9692 36.949 95.9692 36.949 95.9716C38.754 99.2086 40.1157 103.255 40.5155 108.281C40.4505 109.117 40.4127 109.98 40.4023 110.869H29.8445C23.4649 100.625 21.3498 91.6842 23.5282 84.2354ZM52.1555 110.869H41.3662C41.3783 109.994 41.4144 109.146 41.4819 108.325C41.4802 108.312 41.481 108.298 41.4843 108.286C41.8795 103.255 43.2426 99.2061 45.0436 95.9668C45.0482 95.9643 45.0522 95.961 45.0556 95.957C45.1125 95.8973 45.1524 95.8232 45.1713 95.7425C48.1863 90.4933 52.8746 86.4366 58.4672 84.2378C60.6406 91.7012 58.532 100.625 52.1555 110.869Z" fill="#008CCF"/>
<rect x="0.774902" y="55.2734" width="80.9573" height="28.3759" fill="#008CCF"/>
</g>
</svg>
