<svg width="24" height="24" viewBox="0 0 24 24" fill="none" xmlns="http://www.w3.org/2000/svg">
<rect x="6" y="5" width="12" height="13" fill="#008CCF"/>
<path d="M11.9999 14.7022C11.9999 14.7022 11.9999 14.7021 11.9999 14.7021L11.9999 14.7022ZM12.0977 8.41405C12.0947 8.41177 12.0916 8.40948 12.0886 8.40717C12.0193 8.35462 11.9403 8.29471 11.8735 8.25416C11.8399 8.23373 11.7702 8.19326 11.6812 8.17102C11.5816 8.14618 11.3939 8.13101 11.2208 8.26456C11.075 8.3771 11.034 8.52732 11.0214 8.58021C11.0061 8.64486 11.0024 8.70575 11.0009 8.7422C10.9988 8.79207 10.9993 8.86056 10.9997 8.92565C10.9998 8.95142 11 8.97666 11 9V14.5C11 14.5224 10.9998 14.5467 10.9997 14.5715C10.9993 14.6355 10.9988 14.7028 11.001 14.7496C11.0025 14.7799 11.0063 14.8532 11.0307 14.9314C11.0542 15.0064 11.1433 15.224 11.4048 15.2894C11.6051 15.3396 11.7625 15.2547 11.7947 15.2373L11.7966 15.2363C11.848 15.2087 11.8922 15.1756 11.9162 15.1574C11.9391 15.14 11.9654 15.1191 11.9895 15.1C11.9941 15.0963 11.9986 15.0928 12.003 15.0893C12.031 15.0671 12.0611 15.0434 12.0951 15.0175L12.0976 15.0158L12.1264 14.9955L12.2357 14.9185L12.628 14.6423C12.9539 14.4129 13.3911 14.1048 13.8369 13.7905C14.7235 13.1653 15.6564 12.5064 15.7976 12.4018C15.8749 12.3445 15.964 12.2724 16.0365 12.1851C16.1108 12.0956 16.2025 11.9482 16.2025 11.75C16.2025 11.5518 16.1108 11.4044 16.0365 11.3149C15.964 11.2276 15.8749 11.1555 15.7976 11.0982C15.6599 10.9962 14.7314 10.3227 13.8422 9.67809L12.6335 8.8022L12.2412 8.51803L12.1319 8.43884L12.1031 8.41802L12.0977 8.41405ZM11.3561 9.10993C11.3522 9.10774 11.3515 9.10708 11.3543 9.1088C11.3549 9.10916 11.3555 9.10953 11.3561 9.10993ZM3 12C3 6.75614 7.25614 2.5 12.5 2.5C17.7439 2.5 22 6.75614 22 12C22 17.2439 17.7439 21.5 12.5 21.5C7.25614 21.5 3 17.2439 3 12Z" fill="white" stroke="#008CCF"/>
</svg>
